<svg id="Layer_1" height="512" viewBox="0 0 512 512" width="512" xmlns="http://www.w3.org/2000/svg" data-name="Layer 1"><path d="m360.24 132.56a113.61 113.61 0 0 0 -76.03-4.53l-50.58 13.27-17.93-2.25-38.72-11.02a113.614 113.614 0 0 0 -76.03 4.53c-31.39 13.54-63.84 44.49-61.29 114.82 3.74 103.37 71.54 167.93 106.5 184.79 11.55 5.57 21.1 8.37 32.94 8.94 10.36.51 23.77-1.99 36.24-4.69a58.536 58.536 0 0 1 16.58-1.42l185.82-229.58c-10.23-44.23-35.11-63.2-57.5-72.86z" fill="#d15551"/><path d="m268.42 46.08c4.58 1.86 8.79 6.15 7.16 15.91-15.93 3.17-22.49-12.05-22.69-12.51q.66-.585 1.35-1.14a14.122 14.122 0 0 1 14.18-2.26z" fill="#b27538"/><path d="m217.96 123.78c.57-3.16 1.21-6.39 1.93-9.65 1.06-4.79 2.31-9.66 3.78-14.51 5.75-19.02 14.84-37.75 29.22-50.14.2.46 6.76 15.68 22.69 12.51 0 0-34.58 28.76-41.95 79.31a133.4 133.4 0 0 0 -.74 32.19 27.6 27.6 0 0 1 -3.88.06s-6.73.69-15.2-3.65a252.491 252.491 0 0 1 1.89-30.85c.57-4.79 1.31-9.93 2.26-15.27z" fill="#8c6238"/><path d="m219.89 114.13c-.72 3.26-1.36 6.49-1.93 9.65-55.25-4.33-101.28-36.46-145.99-13.27-33.03 17.13-47.77 13.83-53.22 10.94a3.265 3.265 0 0 1 -1.34-4.47c87.72-158.71 206.26-17.36 206.26-17.36-1.47 4.85-2.72 9.72-3.78 14.51z" fill="#4ca987"/><path d="m323.03 403.53c-.45 1.59-11.6 40.28-46.59 46.03-17.06 2.8-32.09-3.05-44.52-14.56-31.72-29.36-46.53-95.54-35.19-148.44 9.67-45.13 44.25-79.01 74.65-88.25 8.18-2.5 16.05-3.21 23.06-1.87 29.21 5.56 43.74 26.89 50.94 47.53v.01a134.454 134.454 0 0 1 7.03 43.69 151.3 151.3 0 0 1 13.97-36.2l.09-.18c12.85-23.27 35.63-46.99 72.91-34.82a47.1 47.1 0 0 1 7.1 3.02.924.924 0 0 1 .09.05c30.46 16.01 57.81 68.85 45.34 123.55-17.28 75.83-93.38 153.93-146.02 118.45-30.34-20.45-23.18-56.47-22.86-58.01z" fill="#f7e8a9"/><path d="m446.48 219.49a47.1 47.1 0 0 0 -7.1-3.02c-37.28-12.17-60.06 11.55-72.91 34.82 4.24-8.48 3.38-31.85 7.74-46.21.82-2.71 2.44-7.58 4.33-13.11a259.9 259.9 0 0 1 39.2 13.45 295.861 295.861 0 0 1 28.74 14.07z" fill="#fb6771"/><path d="m378.54 191.97c-1.89 5.53-3.51 10.4-4.33 13.11-4.36 14.36-3.5 37.73-7.74 46.21l-.09.18a151.3 151.3 0 0 0 -13.97 36.2 134.454 134.454 0 0 0 -7.03-43.69v-.01c3.25-6.92 7.54-16.8 12.28-29.58 4.5-12.16 6.41-16.47 8.76-23.85 2.13-6.66 4.61-15.82 9.71-35.51l12.97 6.51s-6.03 17.13-10.56 30.43z" fill="#7c6147"/><path d="m366.42 190.54c-2.35 7.38-4.26 11.69-8.76 23.85-4.74 12.78-9.03 22.66-12.28 29.58-7.2-20.64-21.73-41.97-50.94-47.53-7.01-1.34-14.88-.63-23.06 1.87v-.01c28.38-9.32 40.86-10.83 95.04-7.76z" fill="#fb6771"/><path d="m364.91 328.62s14.23 34.95-4.33 33.61c-19.76-1.43 4.33-33.61 4.33-33.61z" fill="#6f624b"/><path d="m323.06 319.81s-1.16 40.13-17.54 29.03c-15.39-10.43 17.54-29.03 17.54-29.03z" fill="#6f624b"/><path d="m69.66 247.38c-2.55-70.33 29.9-101.28 61.29-114.82a110.151 110.151 0 0 1 29.116-8 112.384 112.384 0 0 0 -59.116 8c-31.39 13.54-63.84 44.49-61.29 114.82 3.74 103.37 71.54 167.93 106.5 184.79 11.55 5.57 21.1 8.37 32.94 8.94a96.5 96.5 0 0 0 18.71-1.351 88.257 88.257 0 0 1 -21.65-7.589c-34.96-16.86-102.76-81.42-106.5-184.79z" fill="#a84545"/><path d="m226.73 286.56c9.67-45.13 44.25-79.01 74.65-88.25.1-.03.193-.052.291-.081a68.833 68.833 0 0 0 -7.231-1.789c-7.01-1.34-14.88-.63-23.06 1.87-30.4 9.24-64.98 43.12-74.65 88.25-11.34 52.9 3.47 119.08 35.19 148.44 12.43 11.51 27.46 17.36 44.52 14.56a50.259 50.259 0 0 0 6.875-1.644 57.62 57.62 0 0 1 -21.395-12.916c-31.72-29.36-46.53-95.54-35.19-148.44z" fill="#d8ca91"/><g fill="#243a54"><path d="m52.114 100.987a5.97 5.97 0 0 0 3.242-.955c2.7-1.734 5.862-3.752 9.333-5.75a6 6 0 0 0 -5.987-10.4c-3.709 2.135-7.024 4.248-9.841 6.06a6 6 0 0 0 3.253 11.046z"/><path d="m15.933 126.749a29.585 29.585 0 0 0 14.078 3.073c9.987 0 24.315-3.4 44.718-13.986 26.737-13.867 54.141-6.372 85.873 2.306l3.217.879a118.881 118.881 0 0 0 -65.241 8.03c-56.378 24.314-66.419 78.974-64.913 120.549a237.913 237.913 0 0 0 42.623 128.056c22.919 32.788 49.776 53.484 67.267 61.918 12.815 6.179 23.029 8.941 35.257 9.533q1.468.072 3 .07c10.625 0 23.45-2.441 34.793-4.893a53.724 53.724 0 0 1 12.912-1.381c14.185 12.384 30.611 17.418 47.893 14.578 19.386-3.186 32.075-15.182 40-26.681a58.107 58.107 0 0 0 25.128 37.717 56.44 56.44 0 0 0 32.037 9.835 71.737 71.737 0 0 0 26.4-5.373c42.575-16.849 84.186-71.256 96.789-126.556 12.776-56.056-14.617-112.677-48.561-130.286-2.082-1.189-12.107-6.8-26.346-13.058-9.115-36.251-28.843-60.488-60.241-74.028a119.829 119.829 0 0 0 -79.984-4.812l-41.439 10.87a128.3 128.3 0 0 1 15.384-38.226c10.865-18.146 22.731-28.183 22.849-28.283l-.008-.01a5.981 5.981 0 0 0 2.081-3.607c.851-5.085 1.5-17.454-10.823-22.461a20.072 20.072 0 0 0 -20.233 3.178c-12.321 10.056-22.106 24.915-29.258 44.353-16.877-17.294-61.634-56.953-112.938-51.988-37.135 3.593-69.465 29.84-96.092 78.011a9.275 9.275 0 0 0 3.778 12.673zm377.967 39.226a100.3 100.3 0 0 1 14.8 29.291c-7.006-2.675-14.566-5.257-22.4-7.454 2.983-8.671 6.122-17.638 7.6-21.837zm14.991 42.279a55.547 55.547 0 0 0 -16.744 6.325 68.788 68.788 0 0 0 -15.475 12.321c.736-7.271 1.595-14.519 3.279-20.074.53-1.746 1.408-4.435 2.477-7.628a253.076 253.076 0 0 1 26.459 9.056zm-27.2-43.723c-2.109 6.019-5.726 16.386-8.731 25.214 1.7-5.6 3.767-13.161 7.121-26.021zm-115.533-112.894a5.3 5.3 0 0 1 3.676 4.682 13.548 13.548 0 0 1 -8.721-4.936 7.786 7.786 0 0 1 5.045.254zm-14.388 7.246a27.185 27.185 0 0 0 10.63 7.834 145.813 145.813 0 0 0 -15.862 21.572 139.418 139.418 0 0 0 -20.1 79.245 25.4 25.4 0 0 1 -6.6-1.523c.307-15.718 3.362-76.393 31.932-107.128zm-22.745 120.681c.314.014.761.028 1.326.028a45.257 45.257 0 0 0 31.028-12.527c9.211-8.981 22.865-3.142 23.528-2.85a6 6 0 0 0 4.933-10.939c-.878-.4-21.686-9.577-36.838 5.2a32.08 32.08 0 0 1 -14.585 8.046 127.543 127.543 0 0 1 .627-20.44l46.693-12.248.119-.033a107.818 107.818 0 0 1 72.008 4.271 93.5 93.5 0 0 1 19.228 11.05 5.981 5.981 0 0 0 -6.768 4.412c-4.022 15.545-6.405 24.456-8.266 30.756-49.45-2.684-63.164-1.332-92.539 8.314-11.827 3.614-24.155 10.617-35.651 20.52a132.612 132.612 0 0 0 -43 72.184 187.524 187.524 0 0 0 -3.919 42.587 6.039 6.039 0 1 0 12.074-.292 173.929 173.929 0 0 1 3.578-39.78 122.234 122.234 0 0 1 39.1-65.608c17.419-15.006 37.2-22.624 51.614-19.878 22.775 4.335 38.614 19.678 47.077 45.6a130.225 130.225 0 0 1 6.026 39.522 6 6 0 0 0 11.858 1.489 147.249 147.249 0 0 1 13.416-34.7h.006c.018-.035.034-.074.053-.11 6.214-11.266 14.828-22.546 26.355-29.145 11.58-6.629 24.84-7.577 39.414-2.818 14.958 4.885 30.342 21.008 40.149 42.077a120.919 120.919 0 0 1 8.4 77.5c-11.609 50.937-50.924 102.8-89.5 118.065-17.761 7.029-33.679 5.934-47.312-3.255-27.147-18.3-20.629-50.452-20.342-51.795.045-.207.078-.414.1-.62 3.29-29.315 25.146-97.881 25.366-98.57l-11.43-3.656c-.909 2.844-22.186 69.6-25.8 100.346-1.151 3.759-11.951 36.487-41.683 41.373-15.623 2.565-29.955-2.859-42.6-16.13-13.921-14.609-24.2-37.5-29.6-62.935a6.029 6.029 0 0 0 -5.9-4.777h-.041a6.049 6.049 0 0 0 -5.905 7.32c5.17 24.285 14.607 46.451 27.438 62.547-1.805.279-3.429.595-4.792.89-11.672 2.524-24.917 5.043-34.681 4.566-10.5-.508-19.37-2.929-30.625-8.356-16.125-7.776-41.05-27.091-62.644-57.984a225.935 225.935 0 0 1 -40.461-121.618c-1.112-30.688 4.6-56 16.968-75.242 9.622-14.963 23.317-26.353 40.705-33.852a107.815 107.815 0 0 1 72.007-4.271l33.851 9.633c-.577 5.719-.917 10.791-1.114 14.934-15.142-14.614-35.845-5.487-36.721-5.089a6 6 0 0 0 4.927 10.942c.579-.256 14.294-6.162 23.534 2.847 12.816 12.494 26.202 12.64 29.211 12.499zm134.261 36.9c1.608-4.346 2.884-7.684 3.966-10.518.923-2.414 1.709-4.473 2.441-6.469-.5 1.528-.915 2.839-1.225 3.86-2.268 7.481-3.173 16.64-4.048 25.5-.751 7.6-1.6 16.182-3.265 19.644-2.044 3.706-3.856 7.393-5.428 10.929a129.777 129.777 0 0 0 -3.821-14.87c-.024-.075-.05-.146-.075-.221 3.887-8.452 7.736-17.802 11.455-27.851zm-17.807 12.476c-8.032-15.6-19.478-26.869-33.867-33.364 12.007-.96 25.865-.586 46.539.515-.637 1.724-1.32 3.514-2.108 5.576-1.1 2.866-2.385 6.241-4.011 10.636q-3.223 8.711-6.553 16.637zm-154.179-103.076c6.424 1.348 12.98 2.478 19.7 3.255q-.174 1.137-.336 2.255zm-81.942-77.851c51.078-4.971 97.356 41.9 107.612 53.093q-.451 1.6-.884 3.24c-29.727-19.486-57.725-31.217-83.317-34.864-21.373-3.047-40.91-.679-59.724 7.234a6 6 0 1 0 4.655 11.062c38.326-16.121 82.68-6.61 135.489 29.05-.03.151-.063.3-.093.45-17.119-1.914-33.468-6.375-49.326-10.711-32.739-8.953-63.662-17.41-94.564-1.383-26.286 13.632-39.432 13.38-45.006 11.946 24.26-42.73 52.9-65.977 85.158-69.117z"/><path d="m77.215 271.454a6 6 0 0 0 5.29-6.635c-.44-3.9-.769-7.9-.978-11.9a6 6 0 0 0 -11.984.628c.222 4.239.571 8.484 1.038 12.618a6 6 0 0 0 5.954 5.328 6.241 6.241 0 0 0 .68-.039z"/><path d="m84.6 281.575a6 6 0 0 0 -11.79 2.236c9.635 50.8 35.3 75.435 36.384 76.458a6 6 0 1 0 8.224-8.738c-.242-.224-23.906-22.943-32.818-69.956z"/><path d="m348.019 360.754c1.161 2.543 4.28 6.894 12.131 7.462.506.036.994.054 1.467.054 6.078 0 9.51-2.892 11.349-5.424 7.536-10.379-.764-32.215-2.5-36.487a6 6 0 0 0 -10.361-1.332 106.96 106.96 0 0 0 -7.728 12.238c-5.477 10.235-6.9 17.916-4.358 23.489zm15.024-18.054c1.392 6.4 1.42 11.434.213 13.1-.282.388-1.035.541-2.24.453a4.8 4.8 0 0 1 -2.073-.463c-.879-1.541.743-6.79 4.1-13.09z"/><path d="m382.755 348.63c-.448 8.659-4.891 16.7-13.2 23.908a6 6 0 1 0 7.858 9.068c10.911-9.455 16.744-20.378 17.337-32.466 1.022-20.823-14.185-37.117-14.833-37.8a6 6 0 0 0 -8.72 8.244c.119.131 12.37 13.388 11.558 29.046z"/><path d="m326.155 314.676a6 6 0 0 0 -6.049-.087 97.817 97.817 0 0 0 -11.445 7.784c-8.653 6.884-12.981 13.2-13.23 19.3-.138 3.365.916 8.2 6.717 12.134a15.4 15.4 0 0 0 8.694 2.962 11.967 11.967 0 0 0 5.449-1.3c5.457-2.793 9.12-9.694 11.2-21.1a106.431 106.431 0 0 0 1.562-14.378 6 6 0 0 0 -2.898-5.315zm-15.309 30.105a4.059 4.059 0 0 1 -1.964-.909c-.68-.461-1.484-1.131-1.461-1.709.082-2.039 3.234-5.961 8.311-10.121-1.295 6.94-3.28 12.118-4.886 12.739z"/><path d="m286.155 358.5a6.074 6.074 0 0 0 1.117-.1 6 6 0 0 0 4.787-7.006c-2.027-10.768-.511-19.807 4.507-26.867 9.089-12.789 26.928-15.63 27.2-15.673a6 6 0 0 0 -1.731-11.874c-.935.135-23.041 3.507-35.191 20.506-7.029 9.834-9.244 21.989-6.582 36.127a6 6 0 0 0 5.893 4.887z"/></g></svg>