<svg id="Layer_1" height="512" viewBox="0 0 512 512" width="512" xmlns="http://www.w3.org/2000/svg" data-name="Layer 1"><path d="m380.91 225.68a372.357 372.357 0 0 0 -39.76 44.58c.87-1.63 26.61-51.11-20.74-112.11a6.846 6.846 0 0 1 2.97-10.59c19.35-7.32 35.88-2.05 49.08 7.64 23.12 16.96 36.04 47.44 36.04 47.44a261.949 261.949 0 0 0 -27.59 23.04z" fill="#f9d38f"/><path d="m476.82 179.93c18.08 2.87 24.81 25 10.27 36.09a376.386 376.386 0 0 0 -39.74 35.58c-13.92 14.24-22.72 25.11-22.72 25.11-19.1-5.24-45.53 1.38-58.67 13.47-5.48-11.89-11.64-15.44-17.78-14.12l-.01-.07a38.165 38.165 0 0 0 -7.04-5.69.109.109 0 0 0 .02-.04 372.357 372.357 0 0 1 39.76-44.58 261.949 261.949 0 0 1 27.59-23.04c21.5-15.39 45.61-26.32 68.32-22.71z" fill="#e2e4ed"/><path d="m30.12 332.5s26.76 16.13.07 33.01a49.825 49.825 0 0 0 -6.43-5.88c-12.58-9.27-3.75-19.42-3.75-19.42s2.29-3.21 10.11-7.71z" fill="#816640"/><path d="m70.25 409.11c2.3 11.91-16.28 18.7-17.93 19.28-2.47-1.6-4.59-3.07-6.31-4.36a10.648 10.648 0 0 1 -4.07-10.57l1.56-8.02a10.692 10.692 0 0 1 5.79-7.57c3.52-1.72 8.81-4.25 15.29-7.16 0 0 3.26 5.94 5.67 18.4z" fill="#5e493b"/><path d="m161.9 431.99c30.67 11.25 2.47 30.94 1.84 31.37-1.08-.4-2.06-.78-2.93-1.14a9.421 9.421 0 0 1 -2.48-1.51 15.236 15.236 0 0 1 -5.37-12.39l.19-4.97a15.406 15.406 0 0 1 4.26-10.12c.74-.76 2.7-1.03 4.49-1.25z" fill="#816640"/><path d="m307.74 376.24a6.519 6.519 0 0 0 9.71-3.2 98.134 98.134 0 0 1 5.35-12.11c7.94 24.12 16.96 41.56 25.98 54.16l-.03.02c-76.31 80.09-159.14 58.03-185.01 48.25.63-.43 28.83-20.12-1.84-31.37v-.01a14.56 14.56 0 0 0 3.01-.52c83.2-34.86 124.93-90.92 124.93-90.92h.01c.95 20.76 10.74 30.97 17.89 35.7z" fill="#f8d56a"/><path d="m277.04 148.65c7.53 147.84-83.85 202.24-152.91 220.21-16.76 4.36-34.3 11.02-48.63 17.09h-.01c-27.26 1.71-36.11-10.77-45.3-20.44 26.69-16.88-.07-33.01-.07-33.01 12.22-7.04 37.93-17.25 89.49-23.39 84.58-10.08 125.57-80.36 125.57-80.36s32.58-41.95 31.86-80.1z" fill="#f8d56a"/><path d="m314.25 97.49c50.15 15.78 58.21 57.71 58.21 57.71-13.2-9.69-29.73-14.96-49.08-7.64a6.846 6.846 0 0 0 -2.97 10.59c47.35 61 21.61 110.48 20.74 112.11a.109.109 0 0 1 -.02.04c-10.34-6.54-29.89-11.88-43.54 27.14-6.27 17.89-8.27 32-7.74 43.1h-.01s-41.73 56.06-124.93 90.92a14.56 14.56 0 0 1 -3.01.52c-1.79.22-3.75.49-4.49 1.25a15.406 15.406 0 0 0 -4.26 10.12l-.19 4.97c-42.13 10.84-81.76-7.79-100.64-19.93 1.65-.58 20.23-7.37 17.93-19.28-2.41-12.46-5.67-18.4-5.67-18.4 3.35-1.5 7.01-3.11 10.91-4.76h.01c14.33-6.07 31.87-12.73 48.63-17.09 69.06-17.97 160.44-72.37 152.91-220.21v-.08a52.722 52.722 0 0 0 -5.1-22.31c-4.07-8.35-8.78-13.07-13.26-15.65 0 0 4.7-7.27 15.02-13.74 14.75-9.26 15.95-20.15 14.81-26.96 0 0 8.09 22.03 25.74 27.58z" fill="#f3bc67"/><path d="m240.83 73.6a29.172 29.172 0 0 0 -3.32-4.73 12.751 12.751 0 0 1 2.26-18.45l12.98-9.6a12.892 12.892 0 0 1 13.82-.96l9.97 5.44a13.487 13.487 0 0 1 6.39 7.64l3.44 10.4a21.733 21.733 0 0 1 2.14 6.57c1.14 6.81-.06 17.7-14.81 26.96-10.32 6.47-15.02 13.74-15.02 13.74a20.175 20.175 0 0 0 -17.12-1.74s-10.79-15.94-1.39-24.6c3.25-2.99 2.73-6.87.66-10.67z" fill="#623f26"/><path d="m348.18 276.06c6.14-1.32 12.3 2.23 17.78 14.12a36.273 36.273 0 0 1 3.05 17.17c-1.15.89-30.47 23.4-46.21 53.58a98.134 98.134 0 0 0 -5.35 12.11 6.519 6.519 0 0 1 -9.71 3.2c-7.15-4.73-16.94-14.94-17.89-35.7-.53-11.1 1.47-25.21 7.74-43.1 13.65-39.02 33.2-33.68 43.54-27.14a38.165 38.165 0 0 1 7.04 5.69z" fill="#ffdca4"/><path d="m424.63 276.71s8.8-10.87 22.72-25.11c0 0 73.1 57.1 15.27 139.16a5.065 5.065 0 0 1 -8.59-.44c-3.35-6.19-7.87-19.72-12.11-49.2-3.29-22.82-11.95-35.2-21.96-41.6-19.55-12.48-44.27-2.15-44.27-2.15l-6.9 2.97a34.11 34.11 0 0 0 -2.83-10.16c13.14-12.09 39.57-18.71 58.67-13.47z" fill="#f9d38f"/><path d="m369.01 307.35a40.026 40.026 0 0 0 -.22-7.01l6.9-2.97s24.72-10.33 44.27 2.15c0 0-37.65 48.28-9.35 109.97a21.623 21.623 0 0 1 1.97 10.14q-.03.6-.03 1.2a21.063 21.063 0 0 0 9.25 17.43l2.87 1.96a2.3 2.3 0 0 1 .22 3.65l-15.07 13.12a2.328 2.328 0 0 1 -3.49-.51l-.02-.02a21.362 21.362 0 0 0 -14.42-9.59c-9.72-1.73-26.41-8.43-43.11-31.78-9.02-12.6-18.04-30.04-25.98-54.16 15.74-30.18 45.06-52.69 46.21-53.58z" fill="#f6c35d"/><path d="m60.12 352.5c12.22-7.04 37.93-17.25 89.49-23.39 45.71-5.448 78.682-28.476 99.34-48.494 19.333-32.415 30.975-75.327 28.09-131.966.72 38.15-31.86 80.1-31.86 80.1s-40.99 70.28-125.57 80.36c-51.56 6.14-77.27 16.35-89.49 23.39 0 0 26.76 16.13.07 33.01 7.251 7.63 14.3 17 30.336 19.781 26.115-16.8-.406-32.791-.406-32.791z" fill="#d6b761"/><g fill="#243a54"><path d="m316.638 185.34a6 6 0 0 0 -11.895-1.59c-11.238 84.1-51.42 135.283-83.149 163.411-39.787 35.271-82.927 49.787-107.779 51.5a6 6 0 0 0 .407 11.986c.138 0 .278-.005.419-.015 28.014-1.932 72.915-17.261 114.913-54.492 33.254-29.479 75.356-83.04 87.084-170.8z"/><path d="m477.761 174c-22.45-3.565-45.793 5.749-66.9 19.691a147.168 147.168 0 0 0 -20.5-30.158 96.9 96.9 0 0 0 -12.578-11.824c-2.583-9.608-15.136-45.281-61.739-59.941-14.1-4.435-21.379-22.556-21.889-23.869a30.372 30.372 0 0 0 -2.217-6.811l-3.321-10.039a19.493 19.493 0 0 0 -9.213-11.022l-9.966-5.427a18.949 18.949 0 0 0 -20.257 1.4l-12.982 9.6a18.93 18.93 0 0 0 -7.522 12.962 18.455 18.455 0 0 0 4.248 14.186c.194.231 4.747 5.671 3.181 7.114-10.416 9.6-4.595 24.866.485 32.375a5.906 5.906 0 0 0 7.266 2.18c1.344-.531 13.367-4.633 22.692 14.478a47.042 47.042 0 0 1 4.507 19.988h-.013c.011.206.015.406.025.612.263 35.221-30.26 75.106-30.63 75.584a5.912 5.912 0 0 0 -.444.657c-.4.677-40.414 67.805-121.1 77.417-35.694 4.247-63.715 10.918-83.294 19.823-14.142 6.433-19.109 11.963-20.3 13.507a19.321 19.321 0 0 0 -4.2 13.771c.6 5.413 3.659 10.192 9.1 14.2a60.255 60.255 0 0 1 7.923 7.637c5.859 6.338 12.668 13.693 24.586 17.474-2.334 1.1-4.376 2.088-6.056 2.91a16.782 16.782 0 0 0 -9.051 11.813l-1.557 8.022a16.748 16.748 0 0 0 6.362 16.523c4.593 3.436 39.979 28.767 84.343 28.767a111.9 111.9 0 0 0 21.231-2.017 20.723 20.723 0 0 0 6.536 9.76 15.421 15.421 0 0 0 4.03 2.439 172.411 172.411 0 0 0 63.1 11.918c3.884 0 7.879-.134 11.969-.428 42.285-3.037 80.779-21.536 114.523-54.988 16.183 20.174 32.2 26.623 42.7 28.491a15.466 15.466 0 0 1 10.407 6.9 8.312 8.312 0 0 0 5.829 3.8 8.439 8.439 0 0 0 1.215.089 8.316 8.316 0 0 0 5.461-2.044l15.077-13.12a8.31 8.31 0 0 0 -.781-13.144l-2.877-1.956a15.194 15.194 0 0 1 -6.6-13.335 27.593 27.593 0 0 0 -2.507-12.978c-11.039-24.067-12.982-48.778-5.772-73.446a107.529 107.529 0 0 1 11.084-25.321c7.491 7.074 12.4 18.381 14.609 33.754 3.58 24.914 7.878 42.14 12.772 51.2a10.919 10.919 0 0 0 9.02 5.74q.34.02.677.02a11.049 11.049 0 0 0 9.079-4.718c31.5-44.7 25.334-82.464 14.616-106.272a119.969 119.969 0 0 0 -26.052-36.614 358.5 358.5 0 0 1 34.639-30.543 25.314 25.314 0 0 0 9.475-26.629 27.367 27.367 0 0 0 -22.449-20.158zm-220.839-70.8a26.434 26.434 0 0 0 -8.86-1.542 25.067 25.067 0 0 0 -3.469.239c-1.825-3.922-3.8-10.039-.356-13.214a12.994 12.994 0 0 0 4.169-7.918c.92.054 1.878.089 2.874.089 8.691 0 19.829-2.418 25.376-13.458a6 6 0 1 0 -10.722-5.387c-4.165 8.286-16.351 7.124-21.366 6.25a39.176 39.176 0 0 0 -2.466-3.248 6.568 6.568 0 0 1 -1.507-5.052 6.8 6.8 0 0 1 2.739-4.714l12.981-9.6a6.909 6.909 0 0 1 7.384-.51l9.975 5.433a7.52 7.52 0 0 1 3.559 4.254l3.445 10.409a6.005 6.005 0 0 0 .485 1.09c.322.565 7.685 13.962-10.654 25.469a63.06 63.06 0 0 0 -13.587 11.41zm-226.108 254.494a43.139 43.139 0 0 0 -3.49-2.9c-2.6-1.918-4.043-3.864-4.285-5.785a7.369 7.369 0 0 1 1.5-4.865 2.5 2.5 0 0 0 .312-.38 26.618 26.618 0 0 1 5-4.043c2.786 2.348 6.16 6.044 6.186 9.7.023 3.039-2.369 5.918-5.223 8.273zm8.349 8.64c5.951-5.155 8.941-10.869 8.874-17.054-.069-6.452-3.5-11.767-7.058-15.558.507-.229 1.008-.457 1.546-.689 12.669-5.48 36.45-13.045 77.79-17.97 45.262-5.392 78.178-27.7 97.82-45.463 19.9-17.993 30.387-34.77 32.014-37.471a200.7 200.7 0 0 0 19.126-31.307c-14.312 110.34-95.27 148.863-146.653 162.236-16.707 4.348-34.088 10.9-48.482 16.95-19.409.976-27.54-5.808-34.977-13.674zm13.849 55.305c-1.659-1.121-2.821-1.968-3.413-2.412a4.686 4.686 0 0 1 -1.77-4.625l1.558-8.021a4.656 4.656 0 0 1 2.545-3.323c2.44-1.194 5.654-2.737 9.453-4.5a88.784 88.784 0 0 1 2.97 11.491c.935 4.841-6.649 9.27-11.343 11.39zm100.08 7.422a21.363 21.363 0 0 0 -5.937 14.056l-.015.4c-33.671 7.041-64.491-5.1-82.249-14.711.2-.132.405-.263.608-.4 4.816-3.274 12.6-10.282 10.637-20.432a97.938 97.938 0 0 0 -3.758-14.158c15.024-6.56 34.633-14.3 53.266-19.144 30.817-8.02 74.6-25.5 108.161-63.245 36.048-40.535 52.61-95.291 49.24-162.748a58.832 58.832 0 0 0 -5.711-25.053 46.736 46.736 0 0 0 -10-14 52.077 52.077 0 0 1 9.556-7.67c7.4-4.643 11.906-9.72 14.555-14.683 4.8 6.4 11.713 13.02 21.01 15.945 28.175 8.863 42.023 26.268 48.6 38.755-12.765-5.051-26.09-5.141-39.536-.116a13.068 13.068 0 0 0 -7.915 8.154 12.744 12.744 0 0 0 2.076 11.821 141.024 141.024 0 0 1 19.12 32.228 5.957 5.957 0 0 0 11.01-4.552 151.373 151.373 0 0 0 -20.653-35.036.814.814 0 0 1 -.143-.753.78.78 0 0 1 .492-.546c19.459-7.367 38.222-1.251 55.759 18.178a136.826 136.826 0 0 1 19.685 29.341c-4.948 3.7-9.734 7.6-14.311 11.582-2.455-25.607-15.537-35.036-16.182-35.484a6 6 0 0 0 -6.847 9.856c.125.086 12.081 9.19 11.4 36.286-7.9 7.609-14.9 15.112-20.716 21.712.242-2.2.425-4.5.524-6.908.107-2.586.12-5.362 0-8.309a5.96 5.96 0 0 0 -5.958-5.7h-.073a5.945 5.945 0 0 0 -5.946 6.16q.123 3.352.009 6.708a84.294 84.294 0 0 1 -4.725 25.443 27.9 27.9 0 0 0 -16.325-1.79c-12.561 2.6-22.615 14.444-29.882 35.211-6.113 17.466-8.356 31.636-8.172 43.13-7.523 9.33-48.164 56.678-120.884 87.224-.332.059-.977.136-1.426.189-2.85.338-6.086.725-8.344 3.059zm156.737-97.156a6 6 0 0 0 7.768-3.415c7.261-18.648 22.713-46.383 32.819-46.688 4.362-.135 8.191 6.768 10.092 10.892a29.214 29.214 0 0 1 2.566 11.7c-8.8 7.112-39.368 33.565-51.271 66.6a.441.441 0 0 1 -.3.287.48.48 0 0 1 -.448-.055l-.04-.027c-9.987-6.625-24.223-24.747-7.761-71.788 5.686-16.246 12.927-25.726 20.939-27.413 4.789-1.01 9.481.8 13.073 2.957-6 4.614-12.1 12.339-18.4 23.326a213.658 213.658 0 0 0 -12.447 25.852 6 6 0 0 0 3.41 7.772zm-147.039 124.613a4.28 4.28 0 0 1 -.655-.447 9.239 9.239 0 0 1 -3.181-7.517l.192-4.973a9.476 9.476 0 0 1 1.922-5.424l.11-.017c5.415 2.18 8.662 4.753 8.968 7.15.414 3.253-3.568 7.999-7.356 11.228zm69.967 10.782a162.123 162.123 0 0 1 -57.393-6.356c3.9-4.438 7.522-10.487 6.69-17.139a16.89 16.89 0 0 0 -5.97-10.673c57.762-26.079 94.155-61.215 109.779-78.534a45.956 45.956 0 0 0 12.9 22.155c-19.911 19.822-42.38 39.412-83.408 59.841a6 6 0 1 0 5.349 10.742c43.967-21.893 68.18-43.658 88.626-64.18a12.38 12.38 0 0 0 1.98.165 12.582 12.582 0 0 0 3.968-.645 12.388 12.388 0 0 0 6.9-5.669 196.807 196.807 0 0 0 18.827 37.45c-31.976 32.206-68.372 49.981-108.248 52.843zm166.164-137.637c-5.654 19.033-9.164 48.766 6.231 82.328a15.54 15.54 0 0 1 1.435 7.306 27.267 27.267 0 0 0 10.779 23.171l-8.51 7.4a27.638 27.638 0 0 0 -15.912-8.912c-34.7-6.173-55.563-55.794-63.625-79.464 8.828-15.992 21.561-29.717 30.951-38.608-11.8 67.57 20.325 106.4 21.758 108.092a6 6 0 0 0 9.149-7.765c-.328-.386-32.589-39.377-17.393-106.756a46.314 46.314 0 0 0 -.674-24.372l.286-.206 4.594 11.032c.191-.079 17.682-7.118 33.227-1.108a118.963 118.963 0 0 0 -12.296 27.862zm72.466-36.381c13.321 29.969 9.014 61.176-12.793 92.769-2.872-6.049-6.861-18.825-10.737-45.784-3.31-23.028-12.25-38.824-26.569-46.949-20.849-11.83-45.144-2.6-47.718-1.563 14.105-10 40.109-15.106 55.937-6.752 16.188 8.544 21.423 32.4 21.474 32.643a6 6 0 0 0 11.744-2.462c-.251-1.2-6.4-29.593-27.617-40.793-.147-.077-.3-.144-.448-.22 3.158-3.616 7.592-8.557 13.024-14.253a108.591 108.591 0 0 1 23.703 33.364zm12.068-82.037c-29.455 22.468-53.501 49.82-61.055 58.755-18.318-3.666-40.28 1.6-54.551 11.136-4.841-7.521-10.625-11.334-17.267-11.334h-.2c-.243-.216-.508-.446-.787-.683 15.22-19.365 75.6-91.325 126.283-83.267a15.182 15.182 0 0 1 12.693 11.24 13.31 13.31 0 0 1 -5.116 14.153z"/></g></svg>