<svg id="Layer_1" height="512" viewBox="0 0 512 512" width="512" xmlns="http://www.w3.org/2000/svg" data-name="Layer 1"><path d="m442.97 374.45a59.816 59.816 0 0 0 -55.02-6.84 59.28 59.28 0 0 0 -25.92 18.83c-.78.98-1.53 2-2.26 3.04a59.506 59.506 0 0 0 15.14 82.94c13.29 9.18 32.77 12.68 47.55 10.26l22.12-9.62c5.65-3.93 9.36-9.68 13.52-15.67a59.507 59.507 0 0 0 -15.13-82.94z" fill="#624989"/><path d="m444.24 247.5a59.622 59.622 0 0 0 -72.35 43.57 60.7 60.7 0 0 0 -1.24 6.57 59.662 59.662 0 0 0 44.99 65.58c1.11.27 2.24.51 3.38.71 15.05 2.65 32.8-.8 44.83-7.79l17.05-17.11c3.87-5.69 5.35-12.31 7.1-19.38a59.624 59.624 0 0 0 -43.76-72.15z" fill="#7a6799"/><path d="m373.79 337.89a59.315 59.315 0 0 0 -20.9-35.42v-.01a59.768 59.768 0 0 0 -96.75 56.69c2.89 15.85 14.62 31.45 26.8 40.17l22.16 9.02c6.79 1.2 13.38.13 20.56-1.17a59.583 59.583 0 0 0 48.13-69.28z" fill="#534777"/><path d="m343.57 102.25a51.145 51.145 0 0 0 -.33-5.43 133.272 133.272 0 0 1 .43-35.38c30.42-28.81 79.23-41.39 151.8-14.18-62.91 149.99-164.45 88.65-165.74 87.87 8.27-8.03 14-18.71 13.84-32.88z" fill="#4ca987"/><path d="m266.91 153.85c-2.56-2.51-5.16-5.02-7.77-7.53 0 0-1.02-129.89 102.72-124.85 0 0-13.73 11.44-18.19 39.97a133.272 133.272 0 0 0 -.43 35.38 51.145 51.145 0 0 1 .33 5.43c.16 14.17-5.57 24.85-13.84 32.88-20.85 20.21-57.85 23.62-57.85 23.62l-.01.01c-1.64-1.65-3.3-3.28-4.96-4.91z" fill="#5fcda4"/><path d="m359.18 284.06c-17.52-20.61-51.91-60.44-80.22-89.47-12.67-13-19.12-18-28.56-2.52l-38.96 51.74a59.669 59.669 0 0 0 -15.78-14.92l40.57-47.61a27.683 27.683 0 0 0 -5.05-31.58c-33.69-34.27-103.83-79.02-135.08-95.05a3.874 3.874 0 0 1 -2.1-3.44v-10.64a3.874 3.874 0 0 1 4.97-3.71c52.08 15.63 110.42 61.75 160.17 109.46 2.61 2.51 5.21 5.02 7.77 7.53 1.66 1.63 3.32 3.26 4.96 4.91a1316.09 1316.09 0 0 1 105.33 118.47 59.685 59.685 0 0 0 -5.31 13.84 60.7 60.7 0 0 0 -1.24 6.57s-4.34-5.2-11.47-13.58z" fill="#56524a"/><path d="m230.25 354.66c-2.61-14.31-11.76-27.93-22.15-36.57a59.358 59.358 0 0 1 -26.72 17.5c-6.95 2.23-15.8 4.16-22.7 3.86l-23.54-7.41a57.653 57.653 0 0 1 -8.87-5.86l-.05.06c-11.77 13.22-17.04 30.93-13.62 49.67 2.89 15.86 14.18 32.09 26.36 40.8l22.74 7.92c6.79 1.2 13.24.6 20.43-.7a59.57 59.57 0 0 0 48.12-69.27z" fill="#7a6799"/><path d="m106.15 297.06a59.372 59.372 0 0 1 8.69-53.49c-12.41-11.68-32.49-15.27-48.74-12.33a59.563 59.563 0 0 0 -48.12 69.27c2.89 15.86 14.31 31.9 26.49 40.61l22.6 8.12a68.876 68.876 0 0 0 20.43-.71 64.175 64.175 0 0 0 37.91-22.97l.04-.04a61.688 61.688 0 0 1 -19.3-28.46z" fill="#624989"/><path d="m444.58 473.06 4.85 8.85-15.15-2.35-10.52 11.11-1.3-7.99-1.15-7.1-13.86-6.55 13.64-6.98 1.96-15.15 10.88 10.77 15.06-2.81-6.91 13.64z" fill="#40375b"/><path d="m480.9 339.03 7.76 6.62-15 3.17-5.86 14.12-3.95-6.8-3.73-6.43-15.28-1.21 10.25-11.36-3.59-14.86 14.02 6.21 13.07-7.98-1.59 15.2z" fill="#433165"/><path d="m282.94 399.32 3.79-5.23-5.15-14.4 14.59 4.68 12.14-9.32.05 15.28 12.66 8.63-14.56 4.76-1.36 4.62-2.96 10.04-9.05-12.34-15.33.43z" fill="#383249"/><path d="m219.99 260.62a59.765 59.765 0 0 0 -113.84 36.44 61.688 61.688 0 0 0 19.3 28.46c.27.23.54.45.82.66a57.653 57.653 0 0 0 8.87 5.86h.01l23.53 7.41c6.9.3 15.75-1.63 22.7-3.86a59.537 59.537 0 0 0 38.61-74.97z" fill="#534777"/><path d="m130.6 383.91c-3.376-18.5 1.729-35.986 13.182-49.15l-8.642-2.72a57.653 57.653 0 0 1 -8.87-5.86l-.05.06c-11.77 13.22-17.04 30.93-13.62 49.67 2.89 15.86 14.18 32.09 26.36 40.8l14.1 4.911c-10.615-9.136-19.882-23.563-22.46-37.711z" fill="#5a4f70"/><path d="m85.1 244.24a65.009 65.009 0 0 1 28.335 1.339c.456-.678.921-1.35 1.405-2.009-12.41-11.68-32.49-15.27-48.74-12.33a59.563 59.563 0 0 0 -48.12 69.27c2.89 15.86 14.31 31.9 26.49 40.61l8.009 2.88c-7.51-8.628-13.515-19.6-15.5-30.488a59.563 59.563 0 0 1 48.121-69.272z" fill="#493a68"/><path d="m133.84 256.57a59.864 59.864 0 0 1 71.934-19.423 59.9 59.9 0 0 0 -90.934 6.423 59.372 59.372 0 0 0 -8.69 53.49 61.688 61.688 0 0 0 19.3 28.46c.27.23.54.45.82.66a57.653 57.653 0 0 0 8.87 5.86h.01l3.648 1.149a61.715 61.715 0 0 1 -13.648-23.129 59.372 59.372 0 0 1 8.69-53.49z" fill="#3d3656"/><path d="m177.48 415.72-14.56 4.76-1.22 4.15-3.1 10.52-9.05-12.34-15.32.43 4.73-6.53 4.24-5.86-5.16-14.4 14.6 4.69 12.13-9.33.05 15.28z" fill="#433165"/><path d="m82.86 340.32-14.57 4.77-1.22 4.15-3.09 10.51-9.06-12.34-15.32.43 4.87-6.72 4.1-5.67-5.16-14.4 14.6 4.69 12.14-9.33.05 15.28z" fill="#40375b"/><path d="m169.48 320.69-11.69 9.88.89 8.88.64 6.32-13.04-8.04-14.03 6.15 2.89-11.84h.01l.73-3.01-10.2-11.41 15.28-1.13 7.73-13.2 5.81 14.15z" fill="#383249"/><g fill="#243a54"><path d="m379.94 154.23a99.732 99.732 0 0 0 30.62-4.777c37.233-11.959 67.662-45.559 90.44-99.868a6 6 0 0 0 -3.213-7.854c-.071-.03-.144-.051-.216-.078v-.007c-41.764-15.661-98.733-26.479-143.764 3.97 4.917-13.292 11.4-19.109 11.922-19.559a5.995 5.995 0 0 0 -3.582-10.569v-.006c-28.393-1.385-52 6.758-70.162 24.193-16.207 15.561-28.061 38.982-34.28 67.73a210.19 210.19 0 0 0 -3.881 25.595c-58.454-54.681-109.844-88.9-153.124-101.884a9.765 9.765 0 0 0 -8.711 1.535 9.918 9.918 0 0 0 -3.983 7.924v10.637a9.82 9.82 0 0 0 5.359 8.773c29.835 15.306 99.971 59.782 133.535 93.922a21.7 21.7 0 0 1 4.243 24.093l-36.808 43.2a65.839 65.839 0 0 0 -80.376 13.938c-12.9-9.145-31.372-12.972-48.924-9.8a65.573 65.573 0 0 0 -52.962 76.257c2.644 14.492 12.088 30.159 24.172 40.653l-1.5 2.078a6 6 0 0 0 5.029 9.516l12.179-.342 7.192 9.8a6 6 0 0 0 10.593-1.855l1.713-5.82c1.013.045 2.038.075 3.084.075a80.149 80.149 0 0 0 14.037-1.259 67.243 67.243 0 0 0 19.234-6.727 65.689 65.689 0 0 0 -1.1 29.277c2.674 14.654 12.062 30.386 24.039 40.836l-1.372 1.894a6 6 0 0 0 5.029 9.517l12.179-.343 7.192 9.8a6 6 0 0 0 4.837 2.451 6.066 6.066 0 0 0 1.036-.089 6 6 0 0 0 4.72-4.217l1.671-5.678c1.1.068 2.194.111 3.267.111a77.722 77.722 0 0 0 13.9-1.437 65.572 65.572 0 0 0 52.961-76.257c-2.363-12.956-9.649-26.105-19.853-36.143a66.457 66.457 0 0 0 5.332-8.666 65.487 65.487 0 0 0 -2.829-64.757l36.385-48.332a5.864 5.864 0 0 0 .33-.487c3.755-6.16 5.772-6.679 6.137-6.72a1.35 1.35 0 0 1 .17-.01c2.779 0 9.545 6.94 12.832 10.311 26.868 27.559 59.6 65.3 77.69 86.519q-1.566 4.34-2.682 7.562a65.819 65.819 0 0 0 -88.849 18.358 65.012 65.012 0 0 0 -10.588 49.011c2.619 14.357 12 29.6 24.472 40.237l-1.806 2.494a6 6 0 0 0 5.03 9.516l12.178-.343 7.192 9.8a6 6 0 0 0 4.837 2.451 6.068 6.068 0 0 0 1.036-.09 6 6 0 0 0 4.721-4.216l1.543-5.246q.925.038 1.848.039a87.046 87.046 0 0 0 15.443-1.8 66.149 66.149 0 0 0 18.528-6.268 65.618 65.618 0 0 0 26.238 70.562c11.079 7.652 26.677 12.072 41.306 12.072 1.564 0 3.113-.061 4.648-.163l.383 2.359a6 6 0 0 0 10.278 3.166l8.359-8.822 12.04 1.868a6 6 0 0 0 6.181-8.813l-2.465-4.5c3.873-3.688 6.866-8.021 9.786-12.247l1.013-1.464a65.5 65.5 0 0 0 -16.649-91.3c-.19-.131-.384-.247-.574-.376a74.6 74.6 0 0 0 15.715-5.066l1.089 1.878a6 6 0 0 0 5.189 2.99c.131 0 .264 0 .4-.013a6 6 0 0 0 5.146-3.685l4.654-11.2 11.908-2.525a6 6 0 0 0 2.647-10.437l-3.981-3.391c2.4-4.98 3.7-10.27 4.97-15.427l.288-1.167a65.636 65.636 0 0 0 -48.146-79.424 65.945 65.945 0 0 0 -69 25.182c-12.5-15.715-46.054-56.819-88.572-100.28-1.239-1.266-2.467-2.5-3.7-3.751 12.347-2.554 31.738-8.256 46.181-20.4a111.9 111.9 0 0 0 49.346 11.805zm107.492-103.5c-20.989 47.432-48.01 76.777-80.381 87.244-29.36 9.494-55.856.591-67.676-4.7a48.556 48.556 0 0 0 10.125-27.765c8.074-5.231 34.91-21.516 66.037-28.463a6 6 0 0 0 -2.613-11.712c-27.782 6.2-51.85 19.06-64.142 26.463a127.06 127.06 0 0 1 .47-27.323c32.31-29.42 79.935-34.151 138.18-13.741zm-421 288.649a6 6 0 0 0 -3.892 4.009l-.892 3.032-1.881-2.564a6 6 0 0 0 -4.838-2.451h-.169l-3.16.095 1.831-2.53a6 6 0 0 0 .789-5.542l-1.054-2.942 3.012.966a6 6 0 0 0 5.489-.955l2.522-1.938.01 3.155a6 6 0 0 0 2.62 4.937l2.581 1.76zm94.626 75.4a6 6 0 0 0 -3.892 4.01l-.892 3.031-1.881-2.564a6 6 0 0 0 -4.838-2.451h-.169l-3.157.089 1.831-2.529a6 6 0 0 0 .789-5.543l-1.054-2.942 3.012.967a5.994 5.994 0 0 0 5.489-.956l2.522-1.938.01 3.155a6 6 0 0 0 2.62 4.938l2.581 1.76zm63.3-59.048a53.551 53.551 0 0 1 -41.178 61.861 5.912 5.912 0 0 0 -2.31-6.828l-10.048-6.852-.041-12.125a6 6 0 0 0 -9.656-4.737l-9.643 7.411-11.6-3.722a6 6 0 0 0 -7.481 7.736l2.358 6.582c-8.087-8.491-14.356-19.868-16.245-30.224-2.686-14.724.468-28.888 8.869-40.447.292.191.589.374.884.56l-1.837 7.5a6 6 0 0 0 8.235 6.924l11.153-4.885 10.365 6.393a6 6 0 0 0 9.12-5.676 93.33 93.33 0 0 0 17.921-3.9 65.538 65.538 0 0 0 25.152-14.823c8.138 8.236 14.109 19.031 15.974 29.253zm-72.533-24.564.316 3.122-2.7-1.667a6 6 0 0 0 -5.557-.389l-2.909 1.274.747-3.05a6 6 0 0 0 -1.356-5.429l-2.081-2.324 3.131-.232a6 6 0 0 0 4.737-2.953l1.6-2.738 1.207 2.937a6 6 0 0 0 4.277 3.583l3.072.667-2.383 2.012a6 6 0 0 0 -2.109 5.188zm59.141-27.88a53.326 53.326 0 0 1 -31.4 26.59 78.383 78.383 0 0 1 -15.467 3.384l-.015-.152 9.28-7.833a6 6 0 0 0 -2.6-10.448l-11.9-2.585-4.616-11.232a6 6 0 0 0 -10.728-.75l-6.131 10.476-12.146.9a5.992 5.992 0 0 0 -3.595 1.558 55.774 55.774 0 0 1 -9.774-17.975c-.044-.137-.087-.273-.13-.41a6 6 0 0 0 -11.481 3.493c.063.2.126.4.191.6a67.836 67.836 0 0 0 16.616 27.1 59.1 59.1 0 0 1 -28.511 16.182 5.923 5.923 0 0 0 .25-1.023 6 6 0 0 0 -2.561-5.8l-10.049-6.851-.041-12.125a6 6 0 0 0 -9.656-4.738l-9.643 7.412-11.6-3.723a6 6 0 0 0 -7.481 7.737l2.193 6.123c-8.042-8.472-14.235-19.656-16.08-29.765a53.574 53.574 0 0 1 43.29-62.295c11.978-2.164 28.15-.456 39.662 7.656-.814 1.343-1.6 2.707-2.324 4.118a66.09 66.09 0 0 0 -3.353 7.7 5.98 5.98 0 0 0 5.673 7.95h.011a5.965 5.965 0 0 0 5.618-3.912 53.848 53.848 0 0 1 101.82 1.816 53.081 53.081 0 0 1 -3.33 40.823zm93.633 94.73a6 6 0 0 0 -3.892 4.009l-.892 3.032-1.881-2.565a6 6 0 0 0 -4.838-2.451h-.169l-3.157.089 1.832-2.53a6 6 0 0 0 .788-5.541l-1.054-2.942 3.012.966a5.992 5.992 0 0 0 5.489-.956l2.523-1.939.01 3.157a6 6 0 0 0 2.62 4.937l2.582 1.76zm22.119 2.812a5.912 5.912 0 0 0 -2.318-6.829l-10.048-6.852-.041-12.125a6 6 0 0 0 -9.656-4.737l-9.644 7.412-11.6-3.723a6 6 0 0 0 -7.481 7.736l1.811 5.059c-7.253-7.634-13.729-17.908-15.7-28.7a53.575 53.575 0 0 1 43.289-62.3 53.884 53.884 0 0 1 62.556 43.194 53.55 53.55 0 0 1 -41.177 61.86zm33.029-100.307c.434-1.3.98-2.886 1.6-4.646q1.911 2.265 3.073 3.65-.246 2.739-.267 5.474-2.109-2.346-4.414-4.477zm75.453 173.11a6 6 0 0 0 -5.275 1.8l-2.187 2.308-.506-3.124a6 6 0 0 0 -3.359-4.464l-2.831-1.338 2.78-1.422a6 6 0 0 0 3.218-4.572l.4-3.125 2.259 2.238a6 6 0 0 0 5.326 1.637l3.114-.582-1.415 2.791a6 6 0 0 0 .089 5.6l1.5 2.738zm37.218-130.677a6 6 0 0 0 -4.3 3.568l-1.215 2.924-1.595-2.75a6 6 0 0 0 -4.717-2.971l-3.143-.249 2.09-2.316a6 6 0 0 0 1.379-5.425l-.734-3.043 2.9 1.285a6 6 0 0 0 5.559-.364l2.714-1.656-.329 3.131a6 6 0 0 0 2.078 5.193l2.376 2.024zm-94.7-50.449a53.853 53.853 0 0 1 98.262-14.845 53.079 53.079 0 0 1 6.665 38.445 5.915 5.915 0 0 0 -7.18-.713l-10.387 6.34-11.135-4.94a6 6 0 0 0 -8.266 6.891l2.84 11.787-8.13 9.009a6 6 0 0 0 3.981 10l7.395.584c-11.093 3.888-24.226 4.908-34.68 2.333a53.633 53.633 0 0 1 -39.365-64.892zm15.476 67.274q-.579.143-1.156.3l-.392-1.373c.507.36 1.021.723 1.543 1.073zm-12.46 4.41c-.706.332-1.408.671-2.1 1.029.412-1.561.752-3.139 1.046-4.726zm58.827 15.2a53.486 53.486 0 0 1 14.793 72.792 5.872 5.872 0 0 0 -.556-.921 6 6 0 0 0 -5.9-2.3l-11.983 2.239-8.643-8.564a6 6 0 0 0 -10.173 3.492l-1.555 12.023-10.824 5.536a6 6 0 0 0 .168 10.767l6.223 2.942c-11.715-.324-24.159-3.943-32.8-9.908a53.5 53.5 0 0 1 -13.611-74.582 53.949 53.949 0 0 1 74.856-13.516zm-69.4-101.432a65.148 65.148 0 0 0 -2.627 6.664c-16-18.894-53.827-62.993-84.275-94.224-8.453-8.671-15.059-14.738-22.943-13.848-7 .792-11.625 6.852-14.877 12.143l-34.239 45.473a65.551 65.551 0 0 0 -6.789-6.289l36.389-42.709a5.991 5.991 0 0 0 .821-1.253 33.718 33.718 0 0 0 -6.161-38.42c-34.036-34.622-104.373-79.426-135.452-95.586v-6.445c61.092 19.555 131.115 82.036 179.425 131.405a1346.758 1346.758 0 0 1 90.727 103.089zm-44.54-147.212c-.082.077-.165.152-.243.235-13.741 13.21-35.611 18.687-46.856 20.724 14.843-13.765 25.675-29.348 32.232-46.452a6 6 0 0 0 -11.205-4.3c-6.342 16.54-17.219 31.584-32.344 44.79-.674-.654-1.343-1.293-2.015-1.942.375-12.064 3.819-65.433 35.108-95.474 13.046-12.525 29.519-19.463 49.05-20.756-7.336 11.792-16.049 33.98-12.074 69.9.181 1.635.273 3.228.3 4.789v.152a36.834 36.834 0 0 1 -8.467 24.532 44.91 44.91 0 0 1 -3.486 3.802z"/><path d="m318.4 56.8a5.947 5.947 0 0 0 -6.365 5.562c-.006.061-.648 6.236-7.032 18.777a6 6 0 1 0 10.697 5.445c7.578-14.886 8.256-22.544 8.309-23.369a6.04 6.04 0 0 0 -5.609-6.415z"/><path d="m433.181 74.273a104.421 104.421 0 0 1 19.539.06 6 6 0 0 0 1.215-11.933 116.461 116.461 0 0 0 -21.8-.078 6 6 0 0 0 1.041 11.956z"/></g></svg>