<svg id="Layer_1" height="512" viewBox="0 0 512 512" width="512" xmlns="http://www.w3.org/2000/svg" data-name="Layer 1"><path d="m362.83 246.39c15.8-11.17 69.32-37.43 105.68 6.23 39.48 47.4 12.38 109.67 12.29 109.88a99.845 99.845 0 0 1 -112.79 57.19c-10.66-2.37-20.01-5.89-27.18-10.33-32.88-20.38-55.03-57.38-51-95.93 8.34-79.8 72.61-66.77 72.61-66.77z" fill="#cc443a"/><path d="m201.72 307.64s10.7 8.62 35.4 7.26c30.81-1.68 56.18 33.82 46.98 87.83a113.728 113.728 0 0 1 -73.12 87.54c-12.83 4.67-25.23 5.77-40.61 3.79a136.113 136.113 0 0 1 -49.35-16.33c-12.38-6.96-22.11-15.05-29.15-25.1a114.084 114.084 0 0 1 -9.74-113.77c23.4-49.52 64.5-63.98 88.76-44.87 19.45 15.32 30.83 13.65 30.83 13.65z" fill="#e25240"/><path d="m274.62 53.09a10.4 10.4 0 0 1 .45 5.09c-22.43 139.23-222.07 99.24-251.63 91.97a1.847 1.847 0 0 1 -.01-3.58c13.19-3.44 47-11.23 94.77-63.36 66.15-72.17 131.57-46.31 151.53-35.8a10.275 10.275 0 0 1 4.89 5.68z" fill="#8ead6d"/><path d="m366.1 249.08c10.17 8.07 21.74 8.47 21.74 16.31a27.462 27.462 0 0 1 -15.45 9.04h-.01c-.3-.1-11.76-3.84-7.81-26.34l.13-.15c.46.39.93.77 1.4 1.14z" fill="#b63830"/><path d="m216.87 334.7c-16.36 6.48-28.62-1.92-35.72-9.51h.01s22.33-24.82 35.71 9.51z" fill="#b63830"/><path d="m370.83 409.36c-32.88-20.38-55.03-57.38-51-95.93 8.34-79.8 72.61-66.77 72.61-66.77l.39-.27a108.426 108.426 0 0 1 39.482-16.545c-29.1-6.368-58.463 8.755-69.482 16.545l-.39.27s-64.27-13.03-72.61 66.77c-4.03 38.55 18.12 75.55 51 95.93 7.17 4.44 16.52 7.96 27.18 10.33a98.7 98.7 0 0 0 36.545 1.206c-2.182-.335-4.364-.72-6.545-1.206-10.66-2.37-20.01-5.89-27.18-10.33z" fill="#aa3835"/><path d="m121.87 452.63a114.084 114.084 0 0 1 -9.74-113.77c12.978-27.464 31.4-44.125 49.373-50.275-24.469-9.725-58.776 6.686-79.373 50.275a114.084 114.084 0 0 0 9.74 113.77c7.04 10.05 16.77 18.14 29.15 25.1a136.113 136.113 0 0 0 49.35 16.33 89.148 89.148 0 0 0 27.826-.306 136.047 136.047 0 0 1 -47.176-16.024c-12.38-6.96-22.11-15.05-29.15-25.1z" fill="#bc443b"/><g fill="#243a54"><path d="m406.672 223.061c-16.949 2.235-32.974 9.362-43.322 15.793-32.388-29.412-45.4-71.232-50.582-102.037a276.34 276.34 0 0 1 -3.16-64.23c20.089-31.248 35.23-51.707 35.455-52.009a6 6 0 0 0 -9.633-7.156c-.158.213-7.62 10.293-18.984 27.042a298.316 298.316 0 0 0 -38.88 5.778 16.166 16.166 0 0 0 -5.039-4.142 122.323 122.323 0 0 0 -61.517-13.79c-35.07 1.607-67.784 18.714-97.233 50.847-45.432 49.572-77.273 57.828-90.87 61.355l-.988.257a7.841 7.841 0 0 0 .085 15.2 427.769 427.769 0 0 0 86.35 10.951q4.4.1 8.689.1c47.743 0 86.057-9.351 113.976-27.835 27.542-18.233 44.357-45.166 49.981-80.051q.106-.66.158-1.317c10.487-2.216 19.764-3.582 26.628-4.405-11.861 17.96-26.286 40.824-40.722 66.188-41.326 72.613-65.034 133.542-70.679 181.474-4.416-1.074-11.861-3.982-21.782-11.8-10.891-8.581-24.91-11.419-39.476-7.992-23.181 5.453-44.475 25.506-58.421 55.017a119.968 119.968 0 0 0 10.251 119.767c7.292 10.423 17.472 19.221 31.122 26.9a141.511 141.511 0 0 0 51.521 17.046 112.877 112.877 0 0 0 14.43.983 82.812 82.812 0 0 0 29-5.081 119.692 119.692 0 0 0 74.205-79.876 5.99 5.99 0 0 0 -5.739-7.65h-.051a5.984 5.984 0 0 0 -5.752 4.384 107.676 107.676 0 0 1 -66.76 71.863c-11.888 4.318-23.191 5.359-37.8 3.474a129.544 129.544 0 0 1 -47.171-15.6c-12.046-6.775-20.934-14.4-27.171-23.316a107.942 107.942 0 0 1 -9.234-107.761c17.575-37.192 41.044-46.281 50.319-48.463a40.419 40.419 0 0 1 9.255-1.116 31.771 31.771 0 0 1 20.047 6.853c9.513 7.5 17.411 11.29 23.329 13.183a31.28 31.28 0 0 0 -6.718 3.363c-.689.451-1.334.907-1.938 1.356a38.993 38.993 0 0 1 -2.448-3.752 6 6 0 0 0 -10.583 5.656c.4.752 10.022 18.488 27.644 23.309a33.665 33.665 0 0 0 8.929 1.21c6.975 0 14.07-2.175 21.188-6.511a6 6 0 0 0 -6.243-10.248c-.184.111-.366.212-.549.32a41.761 41.761 0 0 0 -4.627-7.2 84.62 84.62 0 0 0 22.288 1.508c10.242-.558 19.667 3.638 27.254 12.143 4.885 5.477 14.3 19.135 15.257 43.594a5.976 5.976 0 1 0 11.944-.462 101.323 101.323 0 0 0 -3.4-22.69c8.083 24.238 25.328 46.2 49.159 60.976 7.619 4.723 17.659 8.559 29.034 11.094a104.349 104.349 0 0 0 22.723 2.5 106.275 106.275 0 0 0 96.863-63.13c.289-.656 28.449-66.186-13.161-116.14-16.93-20.328-39.908-29.227-66.451-25.724zm-182.278-93.879c-56.076 37.127-147.081 25.288-183.688 18.465 18.054-6.587 46.2-21.41 81.918-60.382 27.228-29.708 57.15-45.511 88.935-46.968a109.764 109.764 0 0 1 50.11 9.841 212.921 212.921 0 0 0 -44.3 17.346c-11.836 6.407-21.186 14.25-30.228 21.835-13.063 10.959-24.345 20.423-40.256 23.266a6 6 0 0 0 1.048 11.907 5.925 5.925 0 0 0 1.067-.092c19.061-3.4 32.077-14.324 45.858-25.884 8.584-7.2 17.46-14.648 28.228-20.476 14.588-7.9 30.651-13.412 45.436-17.252-5.605 29.706-20.434 52.712-44.128 68.394zm-24.7 201.078a27.268 27.268 0 0 1 -9.477-4.887c2.739-1.807 6.172-3.313 9.343-2.724 3.667.684 6.622 4.149 8.871 8.137a21.777 21.777 0 0 1 -8.739-.526zm87.306 18.303a67.855 67.855 0 0 0 -13.338-23.512c-9.957-11.161-23.048-16.887-36.865-16.138-15.239.838-24.514-2.435-28.708-4.474 5.078-46.213 28.853-107.625 69.34-178.786 6.593-11.588 13.183-22.645 19.522-32.943a294.6 294.6 0 0 0 3.931 45.772c6.983 41.846 22.955 76.525 46.563 101.554a64.71 64.71 0 0 0 -34.068 12.023c-16.649 12.223-26.58 32.663-29.516 60.751a95.9 95.9 0 0 0 3.139 35.753zm188.31 11.511c-18.074 40.813-62.653 63.424-106 53.764-10.077-2.245-18.834-5.559-25.322-9.58-32.875-20.378-51.792-55.783-48.195-90.2 2.563-24.516 10.83-42.093 24.571-52.243 11.245-8.308 24.032-9.921 32.269-9.921 2.118 0 3.929.107 5.343.234a37.869 37.869 0 0 0 1.286 15.188 6 6 0 0 0 -3.4 11.414 29.575 29.575 0 0 0 11.513 2.229c10.246 0 23.2-4.872 32.247-22.3a6 6 0 1 0 -10.65-5.529c-4.838 9.318-10.619 13.372-15.711 14.943-1.668-1.485-5.021-6.181-2.781-18.948l-.737-.129c9.154-5.706 23.4-12.052 38.5-14.042 22.57-2.977 41.3 4.26 55.665 21.506 36.64 43.997 11.646 103.053 11.402 103.614z"/><path d="m107 351.7a6 6 0 0 0 -7.562 3.851c-1.53 4.708-8.733 29.427-.2 53.8a6 6 0 0 0 11.326-3.967c-7.26-20.73-1.036-42.055.285-46.119a6 6 0 0 0 -3.849-7.565z"/><path d="m117.337 344.121a45.092 45.092 0 0 1 4-5.813 6 6 0 0 0 -9.052-7.877 54.326 54.326 0 0 0 -5.27 7.569 6 6 0 1 0 10.322 6.119z"/><path d="m358.325 379.27c-19.3-10.386-29.057-30.334-30.817-34.227a6 6 0 0 0 -10.935 4.943c2.04 4.511 13.362 27.634 36.065 39.85a6 6 0 1 0 5.687-10.566z"/><path d="m317.441 336.571a6 6 0 0 0 4.663-7.09 45.291 45.291 0 0 1 -.957-7 6 6 0 0 0 -12 .277 54.778 54.778 0 0 0 1.2 9.153 5.994 5.994 0 0 0 7.089 4.662z"/><path d="m129.2 118.8a42.188 42.188 0 0 1 -13.26 4.628 6 6 0 1 0 2.45 11.748 53.718 53.718 0 0 0 16.3-5.706 6 6 0 0 0 -5.49-10.67z"/></g></svg>