<svg id="Layer_1" height="512" viewBox="0 0 512 512" width="512" xmlns="http://www.w3.org/2000/svg" data-name="Layer 1"><path d="m191.13 49.43a105.683 105.683 0 0 0 -71.82 11.1q-3.135 1.725-6.17 3.69c-46.67 30.12-117.77 100.42-89.82 240.16 0 0 4.26 27.38 19.29 60.49 43.34 95.51 150.13 121.16 227.83 82.42v-.01l36.25-333.64c-36.47-39.55-83.67-57.87-115.56-64.21z" fill="#917d58"/><path d="m72.61 364.87c-15.03-33.11-19.29-60.49-19.29-60.49-27.95-139.74 43.15-210.04 89.82-240.16q3.03-1.965 6.17-3.69a105.439 105.439 0 0 1 36.014-12.072 105.4 105.4 0 0 0 -66.014 12.072q-3.135 1.725-6.17 3.69c-46.67 30.12-117.77 100.42-89.82 240.16 0 0 4.26 27.38 19.29 60.49 32.966 72.648 102.64 104.867 168.3 99.086-55.943-4.921-110.333-37.456-138.3-99.086z" fill="#63553e"/><path d="m167.51 66.96a6.173 6.173 0 0 1 -3.9 10.82l-7.7.22a6.188 6.188 0 0 0 -5.44 3.59l-2.43 5.26a6.211 6.211 0 0 1 -11.38-.27 6.188 6.188 0 0 0 -6.27-3.84l-6.39.54a6.182 6.182 0 0 1 -6.46-7.92l1.77-14.83a105.481 105.481 0 0 1 39.66-12.54l1.16 9.05a6.181 6.181 0 0 0 2.08 5.29z" fill="#7c705d"/><path d="m391.36 114.49c44.47 22.1 115.28 77.05 102.01 199.9 0 0-5.46 33.89-24.92 70.98-27.74 52.86-77.81 77.74-127.89 78.13a151.539 151.539 0 0 1 -19.28-1.06l35.74-357.61a95.922 95.922 0 0 1 34.34 9.66z" fill="#8f6033"/><path d="m289.96 455.41a150.5 150.5 0 0 1 -19.52-8.13c-38.41-19.25-68.89-55.23-77.39-105.74-5.22-31.02-2.6-54.76-2.6-54.76 7.31-110.17 69.85-154.99 116.24-173.14 5.24-2.05 10.26-3.76 14.98-5.18a93.851 93.851 0 0 1 35.35-3.63l-35.74 357.61a154.168 154.168 0 0 1 -31.31-7.02z" fill="#a16b38"/><path d="m310.11 245.54c5.8 13.78 11.31 38.32-6.07 63.94a6.6 6.6 0 0 1 -11.6-1.21c-9.21-23.59-.9-48.85 5.6-62.96a6.6 6.6 0 0 1 12.07.23z" fill="#463225"/><path d="m384.08 254.92c5.8 13.79 11.31 38.33-6.07 63.94a6.606 6.606 0 0 1 -11.6-1.2c-9.21-23.6-.9-48.86 5.6-62.97a6.6 6.6 0 0 1 12.07.23z" fill="#463225"/><path d="m319.96 455.41a150.5 150.5 0 0 1 -19.52-8.13c-38.41-19.25-68.89-55.23-77.39-105.74-5.22-31.02-2.6-54.76-2.6-54.76 7.31-110.17 69.85-154.99 116.24-173.14 5.24-2.05 10.26-3.76 14.98-5.18 1.7-.512 3.408-.96 5.124-1.373l.226-2.257a93.851 93.851 0 0 0 -35.35 3.63c-4.72 1.42-9.74 3.13-14.98 5.18-46.39 18.15-108.93 62.97-116.24 173.14 0 0-2.62 23.74 2.6 54.76 8.5 50.51 38.98 86.49 77.39 105.74a150.5 150.5 0 0 0 19.52 8.13l.01.01a154.168 154.168 0 0 0 31.31 7.02l.639-6.392c-.65-.209-1.3-.41-1.949-.628z" fill="#7f5532"/><g fill="#243a54"><path d="m304.221 235.488c-.074 0-.148 0-.221 0a12.416 12.416 0 0 0 -11.413 7.317c-6.494 14.111-15.875 41.665-5.734 67.653a12.461 12.461 0 0 0 10.253 7.858 12.869 12.869 0 0 0 1.437.08 12.622 12.622 0 0 0 10.467-5.547c19.3-28.441 12.437-55.838 6.631-69.639a12.46 12.46 0 0 0 -11.42-7.722zm-5.141 70.622a.613.613 0 0 1 -.632.279.421.421 0 0 1 -.416-.3c-8.529-21.857-.243-45.892 5.455-58.274a.493.493 0 0 1 .518-.334h.012a.545.545 0 0 1 .563.376c5.941 14.124 9.808 35.69-5.5 58.253z"/><path d="m382.98 322.231c19.295-28.441 12.437-55.838 6.63-69.639a12.458 12.458 0 0 0 -11.421-7.72c-.074 0-.146 0-.219 0a12.415 12.415 0 0 0 -11.413 7.316c-6.5 14.112-15.875 41.666-5.735 67.654a12.461 12.461 0 0 0 10.255 7.857 12.661 12.661 0 0 0 11.9-5.466zm-10.562-6.458a.421.421 0 0 1 -.417-.3c-8.528-21.856-.242-45.892 5.456-58.274a.492.492 0 0 1 .518-.333h.01a.546.546 0 0 1 .565.376c5.94 14.119 9.807 35.685-5.5 58.248a.6.6 0 0 1 -.632.283z"/><path d="m394.033 109.116c-.036-.018-.073-.033-.11-.051-.069-.033-.138-.068-.21-.1a100.6 100.6 0 0 0 -73.779-6.251c-3.693 1.114-7.59 2.405-11.64 3.9-42.726-44.514-95.125-58.914-115.994-63.072a111.177 111.177 0 0 0 -82.412 15.632c-46.868 30.251-121.198 102.454-92.477 246.264.386 2.4 4.925 29.284 19.732 61.909 20.132 44.361 55.625 77.455 99.937 93.186a176.065 176.065 0 0 0 58.878 10.117 173.3 173.3 0 0 0 74.416-16.678 159.291 159.291 0 0 0 43.648 13.528 162.031 162.031 0 0 0 25.525 2.038 153.142 153.142 0 0 0 64.193-13.938c29.877-13.758 54.091-37.081 70.024-67.448 19.687-37.524 25.3-71.383 25.529-72.806.017-.1.03-.206.041-.31 13.705-126.824-60.092-183.453-105.301-205.92zm-270.745-32.037a5.93 5.93 0 0 0 .211-1.014l1.4-11.721a98.906 98.906 0 0 1 28.893-9.614l.318 2.492a12.187 12.187 0 0 0 4.16 9.628l5.3 4.626c.046.041.067.067.071.068a.353.353 0 0 1 -.079.219.423.423 0 0 1 -.122.015l-7.7.225a12.126 12.126 0 0 0 -10.715 7.07l-2.43 5.257a.6.6 0 0 1 -.048.085.367.367 0 0 1 -.271 0 .315.315 0 0 1 -.047-.089 12.134 12.134 0 0 0 -12.339-7.564l-6.39.538a.167.167 0 0 1 -.177-.072.127.127 0 0 1 -.035-.149zm192.626 378.572a150.045 150.045 0 0 1 -21.681-5.136 386.426 386.426 0 0 1 -28.2-82.47c-6.041-27.9-8.1-54.177-6.114-78.1 2.454-29.589 11.143-55.644 25.827-77.44a290.177 290.177 0 0 0 26.991-49.589 6 6 0 1 0 -11.064-4.644 278.213 278.213 0 0 1 -25.879 47.528c-15.871 23.559-25.241 51.592-27.848 83.319-2.065 25.145.095 52.651 6.422 81.754a400.789 400.789 0 0 0 23.808 73.474 139.619 139.619 0 0 1 -37.4-24.792 135.656 135.656 0 0 1 -38.121-62.707 6 6 0 1 0 -11.544 3.3 147.55 147.55 0 0 0 41.5 68.207 150.673 150.673 0 0 0 24.442 18.4 163.482 163.482 0 0 1 -115.953 2.469c-41.214-14.63-74.251-45.47-93.025-86.836-14.475-31.888-18.787-58.67-18.828-58.933-.014-.085-.028-.17-.045-.254-12.035-60.168-6.527-113.075 16.372-157.251 18.571-35.823 45.48-59.493 66.292-73.683l-.232 1.949a12.183 12.183 0 0 0 12.878 15.041l6.389-.542a.2.2 0 0 1 .2.116 12.034 12.034 0 0 0 11.015 7.6h.309a12.027 12.027 0 0 0 11.055-7.075l2.43-5.257a.2.2 0 0 1 .175-.109l7.7-.225a12.173 12.173 0 0 0 7.67-21.337l-5.3-4.626a.164.164 0 0 1 -.058-.143 6.009 6.009 0 0 0 -.016-1.393l-.36-2.813a100.778 100.778 0 0 1 24.238 1.85c19.194 3.82 66.588 16.807 106.3 56.186-46.253 20.535-104.64 67.589-111.787 174.766a205.421 205.421 0 0 0 .02 34.666 6.012 6.012 0 0 0 5.987 5.555h.011a6.01 6.01 0 0 0 5.982-6.477 197.866 197.866 0 0 1 -.058-32.567c.01-.087.017-.174.023-.262 3.486-52.559 20.163-95 49.569-126.142 22.173-23.483 48.071-36.606 68.357-43.855a182.805 182.805 0 0 1 -5.954 23.006 6 6 0 1 0 11.412 3.711 179.5 179.5 0 0 0 7.357-30.736 88.014 88.014 0 0 1 21.681-2.722c.523 0 1.045.013 1.568.022l-34.501 345.199zm171.509-142.078a256.6 256.6 0 0 1 -24.286 69.005c-14.691 28-36.965 49.482-64.415 62.123a140.035 140.035 0 0 1 -43.189 11.931c4.674-5.123 10.534-11.878 16.954-20.047a6 6 0 0 0 -9.435-7.415 320.492 320.492 0 0 1 -24.952 28.348q-5.11-.049-10.252-.461l34.542-345.566a89.885 89.885 0 0 1 23.342 6.973c1.5 14.038 8.253 68.736 27.238 124.942 21.3 63.052-7.854 125.547-36.06 166.871a6 6 0 1 0 9.912 6.765c29.743-43.577 60.4-109.741 37.517-177.476-16.025-47.444-23.148-93.793-25.746-114.43 19.083 10.86 42.43 28.3 60.461 54.889 24.469 36.084 34.013 81.014 28.369 133.548z"/></g></svg>