<svg id="Layer_1" height="512" viewBox="0 0 512 512" width="512" xmlns="http://www.w3.org/2000/svg" data-name="Layer 1"><path d="m414.62 275.7h-.01a55.348 55.348 0 0 0 -18.79-15.38c.87-.96 49.16-53.64 95.33-6.2a13.366 13.366 0 0 1 2.67 14.84c-14.84 32.36-67.53 40.63-67.53 40.63a54.829 54.829 0 0 0 -11.67-33.89z" fill="#4ca987"/><path d="m395.82 260.32a55.348 55.348 0 0 1 18.79 15.38h.01a55.186 55.186 0 0 1 -79.99 75.31s-.01.01-.01 0a55.106 55.106 0 0 1 30.43-96.21 56.563 56.563 0 0 1 6-.32 55.07 55.07 0 0 1 24.77 5.84z" fill="#d3596e"/><path d="m359.35 144.47a55.1 55.1 0 0 1 5.65 109.93c-1.86.18-3.74.28-5.65.28a55.179 55.179 0 0 1 -55.17-52.27c-.05-.94-.07-1.89-.07-2.84a55.17 55.17 0 0 1 55.24-55.1z" fill="#e07386"/><path d="m342.77 262.24a55.023 55.023 0 0 0 -8.15 88.77c-5.88 3.43-13.81 5.47-21.57 6.33a78.9 78.9 0 0 1 -8.94.52 55.188 55.188 0 0 1 -55.18-52.27c-.05-.94-.07-1.89-.07-2.84a55.179 55.179 0 0 1 55.25-55.1c14.22 0 28.87 5.78 38.66 14.59z" fill="#ed6375"/><path d="m313.05 357.34v.01a55.285 55.285 0 0 1 -108.56 3.29 55.147 55.147 0 0 0 42.55-53.63c0-.46-.01-.92-.02-1.37l1.91-.05a55.188 55.188 0 0 0 55.18 52.27 78.9 78.9 0 0 0 8.94-.52z" fill="#e0637e"/><path d="m302.21 202.39c.05.94.07 1.89.07 2.84a55.264 55.264 0 0 1 -108.18 15.77 54.389 54.389 0 0 1 -2.31-15.77 55.25 55.25 0 0 1 110.42-2.84z" fill="#d3596e"/><path d="m247.02 305.64c.01.45.02.91.02 1.37a55.276 55.276 0 0 1 -100.88 31.06 55.144 55.144 0 0 0 7.3-46.85 55.256 55.256 0 0 0 40.56-40.09h.01c28.62 1.58 52.26 25.71 52.99 54.51z" fill="#e07386"/><path d="m100.54 199.55a55.182 55.182 0 1 1 52.92 91.67 55.369 55.369 0 0 0 -65.96-37.78 55.211 55.211 0 0 1 -2.3-15.79 54.928 54.928 0 0 1 15.34-38.1z" fill="#ed6375"/><path d="m108.94 192.39a55.2 55.2 0 0 0 -8.4 7.16c-.02-.8-.4-23.26 4.9-45.73 7.73-32.75 27.54-65.5 78.19-31.08 5.8 3.94-11.38 13.94-29.75 25.2-24.06 14.76-37.44 40.07-37.44 40.07a55.444 55.444 0 0 0 -7.5 4.38z" fill="#4ca987"/><path d="m100.54 199.55a54.972 54.972 0 0 0 -8.41 11.37c-64.02-20.72-75.13-60.8-75.13-60.8 43.79-31.66 87.59 3.02 88.44 3.7-5.3 22.47-4.92 44.93-4.9 45.73z" fill="#5fcda4"/><path d="m410.32 307.24c1.43 8.39-2.32 16.02-8.37 17.05s-12.11-4.95-13.54-13.33 2.31-16.02 8.36-17.05 12.12 4.94 13.55 13.33z" fill="#9b4255"/><path d="m357.49 213.31c8.12 2.6 13.18 9.43 11.31 15.26s-9.98 8.44-18.11 5.84-13.18-9.43-11.3-15.26 9.98-8.45 18.1-5.84z" fill="#c1465a"/><path d="m288.08 307.24c1.43 8.39-2.32 16.02-8.37 17.05s-12.11-4.95-13.54-13.33 2.31-16.02 8.36-17.05 12.12 4.94 13.55 13.33z" fill="#a33e4a"/><path d="m261.53 172.28c8.12 2.6 13.18 9.44 11.3 15.26s-9.98 8.45-18.1 5.85-13.18-9.44-11.31-15.27 9.98-8.44 18.11-5.84z" fill="#9b4255"/><path d="m192.98 320.42c8.12 2.6 13.18 9.44 11.31 15.27s-9.98 8.44-18.11 5.84-13.18-9.44-11.3-15.26 9.98-8.45 18.1-5.85z" fill="#c1465a"/><path d="m151.76 200.37c8.12 2.6 13.18 9.44 11.31 15.26s-9.98 8.45-18.1 5.85-13.19-9.44-11.31-15.27 9.98-8.44 18.1-5.84z" fill="#a33e4a"/><path d="m122.13 210.92a55.085 55.085 0 0 1 33.322-26.3 55.321 55.321 0 0 0 -63.322 26.3 54.662 54.662 0 0 0 -6.93 26.73 55.211 55.211 0 0 0 2.3 15.79 55.587 55.587 0 0 1 30.255 1.208c-1.271-5.551-2.555-12.9-2.555-17a54.662 54.662 0 0 1 6.93-26.728z" fill="#c6596c"/><path d="m153.46 291.22a55.369 55.369 0 1 1 -52.95-39.32 54.864 54.864 0 0 1 52.95 39.32z" fill="#d3596e"/><path d="m75.27 307.01a55.14 55.14 0 0 1 40.235-53.045 55.112 55.112 0 1 0 -.01 106.068 55.133 55.133 0 0 1 -40.225-53.023z" fill="#b25267"/><path d="m86.48 311.66c3.7 7.67 2.2 16.03-3.33 18.68s-13.01-1.42-16.7-9.09-2.2-16.03 3.33-18.68 13.01 1.42 16.7 9.09z" fill="#9b4255"/><g fill="#243a54"><path d="m91.891 309.055c-5.2-10.812-16.054-16.037-24.7-11.9a15.179 15.179 0 0 0 -7.661 8.837c-1.9 5.406-1.347 11.916 1.514 17.861 4 8.306 11.326 13.316 18.428 13.316a14.432 14.432 0 0 0 6.272-1.417 15.187 15.187 0 0 0 7.662-8.839c1.9-5.406 1.346-11.916-1.515-17.86zm-9.808 13.884a3.4 3.4 0 0 1 -1.522 1.993c-1.883.9-6.209-1.1-8.705-6.282a11.873 11.873 0 0 1 -1-8.679 3.4 3.4 0 0 1 1.523-1.992 2.4 2.4 0 0 1 1.03-.208c2.144 0 5.564 2.106 7.674 6.489a11.868 11.868 0 0 1 1 8.679z"/><path d="m143.137 227.19a26.849 26.849 0 0 0 8.177 1.312c8.24 0 15.244-4.124 17.467-11.029a15.157 15.157 0 0 0 -1.147-11.612c-2.622-5.1-7.74-9.186-14.041-11.2-11.446-3.667-22.71.6-25.644 9.719a15.154 15.154 0 0 0 1.148 11.611c2.621 5.099 7.739 9.182 14.04 11.199zm-3.766-19.137c.452-1.405 2.817-2.694 6.117-2.694a14.607 14.607 0 0 1 4.443.725 11.933 11.933 0 0 1 7.028 5.262 3.363 3.363 0 0 1 .4 2.449c-.637 1.977-5.066 3.728-10.56 1.968a11.939 11.939 0 0 1 -7.027-5.261 3.365 3.365 0 0 1 -.401-2.449z"/><path d="m194.81 314.71c-11.445-3.665-22.709.6-25.643 9.718a15.147 15.147 0 0 0 1.147 11.61c2.621 5.1 7.739 9.188 14.04 11.206a26.83 26.83 0 0 0 8.175 1.311c8.241 0 15.245-4.124 17.468-11.03a15.15 15.15 0 0 0 -1.147-11.611c-2.621-5.103-7.739-9.186-14.04-11.204zm3.765 19.138c-.636 1.977-5.067 3.726-10.561 1.968a11.93 11.93 0 0 1 -7.027-5.262 3.364 3.364 0 0 1 -.4-2.449c.637-1.978 5.067-3.725 10.561-1.967a11.932 11.932 0 0 1 7.027 5.26 3.367 3.367 0 0 1 .4 2.45z"/><path d="m273.531 288c-4.809.815-8.954 4.108-11.371 9.033a24.722 24.722 0 0 0 -1.908 14.935c1.844 10.817 9.516 18.441 18.047 18.441a14.34 14.34 0 0 0 2.414-.2c4.808-.815 8.953-4.107 11.371-9.033a24.722 24.722 0 0 0 1.907-14.935c-2.016-11.841-11.005-19.841-20.46-18.241zm7.781 27.884c-.33.672-1.244 2.26-2.605 2.49-2.059.362-5.661-2.759-6.625-8.422a12.855 12.855 0 0 1 .85-7.631c.329-.671 1.243-2.258 2.6-2.49a2.027 2.027 0 0 1 .325-.026c2.091 0 5.384 3.073 6.3 8.448a12.869 12.869 0 0 1 -.845 7.627z"/><path d="m252.9 199.1a26.876 26.876 0 0 0 8.176 1.311c8.24 0 15.244-4.124 17.468-11.03a15.153 15.153 0 0 0 -1.148-11.612c-2.622-5.1-7.739-9.185-14.04-11.2-11.445-3.665-22.709.6-25.644 9.718a15.158 15.158 0 0 0 1.147 11.611c2.622 5.102 7.741 9.185 14.041 11.202zm-3.765-19.139c.636-1.979 5.067-3.729 10.56-1.968a11.933 11.933 0 0 1 7.028 5.262 3.368 3.368 0 0 1 .4 2.449c-.638 1.978-5.069 3.725-10.561 1.968a11.937 11.937 0 0 1 -7.028-5.263 3.36 3.36 0 0 1 -.399-2.446z"/><path d="m348.864 240.125a26.852 26.852 0 0 0 8.177 1.311c8.24 0 15.243-4.124 17.467-11.029a15.154 15.154 0 0 0 -1.147-11.611c-2.622-5.1-7.74-9.187-14.041-11.2-11.447-3.665-22.709.6-25.643 9.719a15.145 15.145 0 0 0 1.147 11.611c2.622 5.097 7.74 9.181 14.04 11.199zm-3.764-19.138c.452-1.4 2.816-2.693 6.116-2.693a14.607 14.607 0 0 1 4.443.725 11.928 11.928 0 0 1 7.028 5.261 3.365 3.365 0 0 1 .4 2.449c-.637 1.978-5.067 3.729-10.56 1.968a11.925 11.925 0 0 1 -7.026-5.261 3.363 3.363 0 0 1 -.401-2.449z"/><path d="m448.021 228.354c-25.475.488-45.985 17.569-53.551 24.8-1.128-.468-2.267-.913-3.428-1.314a61.145 61.145 0 1 0 -89.075-73.6 61.259 61.259 0 0 0 -115.636 19 61.219 61.219 0 0 0 -55.521-19.931c6.022-7.763 14.9-17.314 26.211-24.252l3.441-2.107c20.892-12.773 30.136-18.731 30.312-26.1a8.242 8.242 0 0 0 -3.774-7.074c-23.576-16.021-43.52-19.8-59.278-11.238-13.1 7.12-21.045 21.9-25.857 37.627a97.323 97.323 0 0 0 -22.354-9.933c-23.55-6.99-46.382-3.178-66.029 11.026a6 6 0 0 0 -2.267 6.465c.472 1.7 11.93 40.694 72.6 62.688a60.626 60.626 0 0 0 -4.615 23.243 61.273 61.273 0 0 0 1.125 11.672 61.116 61.116 0 1 0 65.8 98.4 61.179 61.179 0 0 0 54.028 19.8 61.271 61.271 0 0 0 117.947-4.817 64.624 64.624 0 0 0 15.782-4.592 61.229 61.229 0 0 0 98.189-43.53c13.981-3 53.817-13.932 67.208-43.122a19.457 19.457 0 0 0 -3.832-21.534c-14.259-14.648-30.202-21.898-47.426-21.577zm-88.669-77.887a49.106 49.106 0 1 1 -49.244 49.106 49.231 49.231 0 0 1 49.244-49.106zm-54.93 76.092a61.433 61.433 0 0 0 11.769 16.321 59.946 59.946 0 0 0 -20.462-.648 61.011 61.011 0 0 0 8.693-15.673zm-57.386-70.439a49.106 49.106 0 1 1 -49.244 49.106 49.231 49.231 0 0 1 49.244-49.106zm8.379 109.626a61.056 61.056 0 0 0 -8.436 15.021 63.573 63.573 0 0 0 -10.426-15.349 60.406 60.406 0 0 0 18.862.328zm-145.754-102.746c3.028-16.7 9.614-38.219 23.8-45.922 10.855-5.894 25.5-3.033 43.575 8.5-4.536 3.947-15.275 10.514-22.836 15.136l-3.454 2.115c-14.58 8.941-25.356 21.368-31.964 30.46 9.179-24.467 31.631-40.733 32.05-41.032a6 6 0 0 0 -6.925-9.8c-1.229.868-23.244 16.681-34.487 41.9.08-.449.159-.903.241-1.357zm30.787 25.55a49.094 49.094 0 0 1 16.73 95.3 61.183 61.183 0 0 0 -65.178-37.35 49.141 49.141 0 0 1 48.447-57.955zm-104.819-19.106a72.643 72.643 0 0 1 -11.3-17.044c15.646-9.875 32.91-12.155 51.381-6.777a85.651 85.651 0 0 1 23.027 10.777c-1.374 6.507-2.306 12.885-2.934 18.661-11.341-13.691-28.483-19.761-38.712-21.131a6 6 0 0 0 -1.61 11.89c1.352.188 32.207 4.8 38.592 31.991a61.3 61.3 0 0 0 -4.523 5.9c-28.569-10.067-45.039-24.062-53.921-34.267zm64.884 186.667a49.106 49.106 0 1 1 49.245-49.105 49.23 49.23 0 0 1 -49.245 49.105zm91.279 0a49.3 49.3 0 0 1 -38.383-18.364 60.721 60.721 0 0 0 7.219-42.388 60.888 60.888 0 0 0 37.738-37.746c23.919 3.669 42.67 24.9 42.67 49.393a49.23 49.23 0 0 1 -49.244 49.105zm66.668 41.805a49.552 49.552 0 0 1 -46.588-33.195 61.477 61.477 0 0 0 36.995-35.6 61.331 61.331 0 0 0 55.241 34.735c.419 0 .837-.011 1.255-.017a48.915 48.915 0 0 1 -46.903 34.077zm112.585-39.222a49.309 49.309 0 0 1 -46.23-32.219 6 6 0 0 0 -11.28 4.095 61.117 61.117 0 0 0 10.729 18.388 69.094 69.094 0 0 1 -20.156 2.9 49.106 49.106 0 1 1 0-98.211 54.609 54.609 0 0 1 28.5 8.422 61.379 61.379 0 0 0 -19.074 26.538 5.984 5.984 0 0 0 5.669 7.982 5.97 5.97 0 0 0 5.611-3.886 49.213 49.213 0 1 1 46.23 65.992zm117.325-92.233c-10.382 22.63-42.6 32.543-56.514 35.846a60.559 60.559 0 0 0 -8.764-24.877c6.542-3.722 18.5-9.164 29.2-6.684a6 6 0 1 0 2.712-11.689c-15.547-3.606-31.6 4.183-39.306 8.783a61.7 61.7 0 0 0 -10.048-8.624c7.968-6.942 23.983-18.507 42.6-18.864 13.78-.292 26.745 5.775 38.6 17.95a7.386 7.386 0 0 1 1.52 8.159z"/><path d="m395.771 288c-4.809.815-8.954 4.108-11.372 9.033a24.722 24.722 0 0 0 -1.906 14.935c1.842 10.817 9.515 18.441 18.047 18.441a14.337 14.337 0 0 0 2.413-.2c4.809-.815 8.953-4.107 11.371-9.033a24.715 24.715 0 0 0 1.907-14.935c-2.016-11.841-11.006-19.841-20.46-18.241zm2.329 11.8c2.091 0 5.384 3.073 6.3 8.448a12.869 12.869 0 0 1 -.85 7.631c-.33.672-1.244 2.26-2.605 2.49-2.059.362-5.66-2.759-6.625-8.422a12.87 12.87 0 0 1 .849-7.631c.331-.671 1.244-2.258 2.606-2.49a2.027 2.027 0 0 1 .325-.026z"/></g></svg>