<svg id="Layer_1" height="512" viewBox="0 0 512 512" width="512" xmlns="http://www.w3.org/2000/svg" data-name="Layer 1"><path d="m418.47 463.88c-29.9 16.46-55.22-8.47-55.22-8.47-6.47 9.14 3.47 21.36 3.47 21.36-13.12-1.66-29.36-5.87-31.23-16.52-3.19-18.17-31.5-17.64-31.5-17.64s8.52 10-6.45 15.34c-13.51 4.81-9.04 13.97-8.05 15.71-.65-.51-3.53-1.67-15.9-3.38-16.97-2.33-7.98-17.67-7.98-17.67l7.06-8.8 9.72-12.1c-27.13.89-33.56-17.26-33.56-17.26 12.88 1.39 11.73-11.1 11.73-11.1-17.97-4.46-32.63-36.85-32.63-36.85 13.2-.18 16.86 2.77 29.69 14.67 4.33 4.01 4.65-1.49 3.46-9.61a91.3 91.3 0 0 0 -16.68-40.27c-.97-1.34-1.97-2.64-3-3.93-31.8-39.5-6.59-65.65-6.59-65.65-4.8 24.08 10.89 47.47 18.88 54.8a2.1 2.1 0 0 0 3.52-1.59c-.05-4.5-.21-12.42-.71-21.41-.42-7.43 2.84-17.15 6.39-26.49 3.07-8.08 6.36-15.87 7.68-21.69 2.85-12.55-15.01-29.51-15.01-29.51 4.41-2.87 12.41.47 17.77 3.36a34.346 34.346 0 0 1 5.65 3.85c.67.54 1.31 1.11 1.94 1.7 4.63 4.32 15.75 11.52 23.07-9.74 9.46-27.43 13.86-22.53 21.89-28.27 0 0 14.75-6.54 15.5-26.96a27.377 27.377 0 0 1 3.36-12.33c4.37-7.85 12.07-19.6 18.51-18.48 0 0 1.74 45.79 18.51 57.77 8.03 5.74 12.43.84 21.88 28.27 7.33 21.26 18.44 14.06 23.08 9.74a36.527 36.527 0 0 1 7.59-5.55c5.36-2.89 13.36-6.23 17.77-3.36 0 0-17.86 16.96-15.01 29.51s14.85 34.32 14.07 48.18c-.5 8.99-.66 16.91-.71 21.41a2.1 2.1 0 0 0 3.52 1.59c7.99-7.33 23.68-30.72 18.88-54.8 0 0 25.21 26.15-6.59 65.65a92.1 92.1 0 0 0 -19.68 44.2c-1.19 8.12-.87 13.62 3.45 9.61 12.84-11.9 16.5-14.85 29.7-14.67 0 0-14.66 32.39-32.63 36.85 0 0-1.16 12.49 11.73 11.1 0 0-6.44 18.15-33.56 17.26l16.78 20.9s8.99 15.34-7.98 17.67c-12.37 1.71-15.25 2.87-15.9 3.38.66-1.15 2.83-5.55.32-9.78z" fill="#d85269"/><path d="m282.39 431.71-9.72 12.1c-16.4-.02-39.47-.02-47.23 13.17-15.96 27.14-55.54 13.64-55.54 13.64h-.01a17.669 17.669 0 0 0 -.15-10c41.63-3.5 52.72-45.9 55.65-66.17a5.012 5.012 0 0 0 -7.46-5.08c-6.31 3.69-15.42 8.11-24.82 9.61 0 0 22.47-23.18 7.12-55.78a74.677 74.677 0 0 1 -3.89-10.27c18.15 3.73 35.52 2.92 48.06-1.64a91.3 91.3 0 0 1 16.68 40.27c1.19 8.12.87 13.62-3.46 9.61-12.83-11.9-16.49-14.85-29.69-14.67 0 0 14.66 32.39 32.63 36.85 0 0 1.15 12.49-11.73 11.1 0 0 6.43 18.15 33.56 17.26z" fill="#af4650"/><path d="m272.14 67.26a5.11 5.11 0 0 1 7.4 5.8c-3.62 13.98-8.73 39.79-6.52 68.13 3 38.4-10.34 50.26 5.96 81.84a34.346 34.346 0 0 0 -5.65-3.85c-5.36-2.89-13.36-6.23-17.77-3.36 0 0 17.86 16.96 15.01 29.51-1.32 5.82-4.61 13.61-7.68 21.69-7.97-12.19-22.7-26.02-22.06-43.04 1.02-27.51-5.93-54.1-14.56-76 0 0 2.49-26.37 14.56-50.47 7.4-14.79 21.51-24.75 31.31-30.25z" fill="#e8575e"/><path d="m201.39 127.5a177.992 177.992 0 0 0 -2.23-23.85 2.085 2.085 0 0 1 3.82-1.45 275.5 275.5 0 0 1 23.29 45.78c8.63 21.9 15.58 48.49 14.56 76-.64 17.02 14.09 30.85 22.06 43.04-3.55 9.34-6.81 19.06-6.39 26.49.5 8.99.66 16.91.71 21.41a2.1 2.1 0 0 1 -3.52 1.59c-7.99-7.33-23.68-30.72-18.88-54.8 0 0-25.21 26.15 6.59 65.65 1.03 1.29 2.03 2.59 3 3.93-12.54 4.56-29.91 5.37-48.06 1.64-5.99-19.88-5.45-44.23-.3-60.82a4 4 0 0 0 -6.46-4.21c-7.05 6.2-16.44 14.07-25.92 20.93a311.174 311.174 0 0 0 -12.46-33.28s-2.86-30.75 30.6-43.94c27.17-10.7 10.94-33.58 16.9-56.72a103.268 103.268 0 0 0 2.69-27.39z" fill="#ea7076"/><path d="m217.93 389.37a5.012 5.012 0 0 1 7.46 5.08c-2.93 20.27-14.02 62.67-55.65 66.17-1.31-4.26-4.35-8.69-9.81-13.18-11.64-9.55-20.98-16.61-28.51-22.64l.01-.01s10.89-24.35 5.5-40.99c0 0 12.45.54 37.06 12.88 5.95 2.99 12.61 3.35 19.12 2.3 9.4-1.5 18.51-5.92 24.82-9.61z" fill="#739937"/><path d="m201.39 127.5a103.268 103.268 0 0 1 -2.69 27.39c-5.96 23.14 10.27 46.02-16.9 56.72-33.46 13.19-30.6 43.94-30.6 43.94-6.63-14.97-15.52-31.26-25.68-40.25a80.543 80.543 0 0 1 -15.01-17.61c.44-17.83 6.99-28.12 12.72-33.74a56.766 56.766 0 0 0 4.5-4.95 53.807 53.807 0 0 0 12.42-33.22c.14-10.85-2.1-23.83-9.4-37.99-15.54-30.13-19.15-55.24-19.99-65.61a4.792 4.792 0 0 1 5.41-5.14c22.4 3.03 50.9 41.1 58.65 69.63 8.22 30.26 25.75 40.38 26.57 40.83z" fill="#d0393c"/><path d="m200.23 343.2c15.35 32.6-7.12 55.78-7.12 55.78-6.51 1.05-13.17.69-19.12-2.3-24.61-12.34-37.06-12.88-37.06-12.88-2.72-8.43-9.62-14.89-24.24-15.2 0 0 21.22-13.34-17.84-44.92l.01-.01c2.92-10.75 26.91-14.99 43.57-20.43 7.22-2.35 16.27-7.92 25.23-14.41 9.48-6.86 18.87-14.73 25.92-20.93a4 4 0 0 1 6.46 4.21c-5.15 16.59-5.69 40.94.3 60.82a74.677 74.677 0 0 0 3.89 10.27z" fill="#d0393c"/><path d="m169.74 460.62a17.669 17.669 0 0 1 .15 10c-1.76 6.6-6.87 12.38-11.91 16.7a31.781 31.781 0 0 1 -24.94 7.4c-24.46-3.25-34.44-17.21-37.26-33.58-1.67-9.63-.86-20.1.93-29.7a151.956 151.956 0 0 1 4.65-18.2c1.35-4.24 2.69-7.84 3.74-10.51a2.547 2.547 0 0 1 4.58-.34c4.74 8 11.6 14.28 21.74 22.41 7.53 6.03 16.87 13.09 28.51 22.64 5.46 4.49 8.5 8.92 9.81 13.18z" fill="#c6474e"/><path d="m151.2 255.55a311.174 311.174 0 0 1 12.46 33.28c-8.96 6.49-18.01 12.06-25.23 14.41-16.66 5.44-40.65 9.68-43.57 20.43l-.01.01a235.52 235.52 0 0 0 -24.63-17.17.01.01 0 0 1 -.01-.01c-24.63-17.18-7.39-73.57-1.48-83.45a94.929 94.929 0 0 0 7.54-15.31c7.22-19.35 1.01-28.89 4.59-42.81 1.85-7.21 5.8-10.54 9.75-11.98a7.425 7.425 0 0 1 9.9 7.72c-1.03 10.69 1.92 24.13 10 37.02a80.543 80.543 0 0 0 15.01 17.61c10.16 8.99 19.05 25.28 25.68 40.25z" fill="#e8575e"/><path d="m136.93 383.8c5.39 16.64-5.5 40.99-5.5 40.99l-.01.01c-10.14-8.13-17-14.41-21.74-22.41a2.547 2.547 0 0 0 -4.58.34c-1.05 2.67-2.39 6.27-3.74 10.51h-.01c-7.39-6.52-16.44-9.62-25.34-10.83-12.61-5.85-11.34-16.73-11.34-16.73s.87-3.43 5.46-7.22c5.92-4.89 18.06-10.38 42.56-9.86 14.62.31 21.52 6.77 24.24 15.2z" fill="#e8747d"/><path d="m106.15 118.86c24.24 17.47 21.58 40.14 21.58 40.14a56.766 56.766 0 0 1 -4.5 4.95c-5.73 5.62-12.28 15.91-12.72 33.74-8.08-12.89-11.03-26.33-10-37.02a7.425 7.425 0 0 0 -9.9-7.72c-3.95 1.44-7.9 4.77-9.75 11.98-3.58 13.92 2.63 23.46-4.59 42.81-23.73-114.83-7.44-138.29-.23-143.07a1.625 1.625 0 0 1 2.5 1.34c.16 6.25 5.19 18.37 6.1 22.53 3.08 14.12 11.19 22.87 21.51 30.32z" fill="#739937"/><path d="m94.85 323.68c39.06 31.58 17.84 44.92 17.84 44.92-24.5-.52-36.64 4.97-42.56 9.86a108.359 108.359 0 0 1 -10.25-19.34c-10.02-24.46-9.5-47.68-8.6-57.85a3.562 3.562 0 0 1 5.29-2.8q7.365 4.155 13.64 8.03a.01.01 0 0 0 .01.01 235.52 235.52 0 0 1 24.63 17.17z" fill="#ea7076"/><path d="m76.01 402.41c8.9 1.21 17.95 4.31 25.34 10.83h.01a151.956 151.956 0 0 0 -4.65 18.2c-4.38.82-11.14.42-18.86-1.59a77.776 77.776 0 0 1 -38.93-24.01 93.085 93.085 0 0 1 16.56-3.41 81.791 81.791 0 0 1 20.53-.02z" fill="#b53e44"/><path d="m95.78 461.14h-.01l-4.53 21.09a4.807 4.807 0 0 1 -6.13 1.29l-21.15-11.57a4.842 4.842 0 0 1 -2.38-5.35c1.98-8.5 4.2-29.41 16.27-36.75 7.72 2.01 14.48 2.41 18.86 1.59-1.79 9.6-2.6 20.07-.93 29.7z" fill="#5c776c"/><path d="m76.01 402.41a81.791 81.791 0 0 0 -20.53.02v-.01c-16.73-5.46-23.46-28.69-25.73-39.61a2.444 2.444 0 0 1 3.56-2.64c12.49 6.42 26.57-1.05 26.57-1.05a108.359 108.359 0 0 0 10.25 19.34c-4.59 3.79-5.46 7.22-5.46 7.22s-1.27 10.88 11.34 16.73z" fill="#739937"/><ellipse cx="354.75" cy="329.58" fill="#d0e4e7" rx="78.5" ry="105"/><path d="m155.52 215.3a80.543 80.543 0 0 1 -15.01-17.61c.44-17.83 6.99-28.12 12.72-33.74a56.766 56.766 0 0 0 4.5-4.95 53.807 53.807 0 0 0 12.42-33.22c.14-10.85-2.1-23.83-9.4-37.99a187.464 187.464 0 0 1 -18.725-55.39c-8.553-8.378-17.616-14.242-25.855-15.357a4.792 4.792 0 0 0 -5.41 5.14c.84 10.37 4.45 35.48 19.99 65.61 7.3 14.16 9.54 27.14 9.4 37.99a53.807 53.807 0 0 1 -12.42 33.217 56.766 56.766 0 0 1 -4.5 4.95c-5.73 5.62-12.28 15.91-12.72 33.74a80.543 80.543 0 0 0 15.01 17.61c10.16 8.99 19.05 25.28 25.68 40.25a43.948 43.948 0 0 1 12.021-31.831 60.9 60.9 0 0 0 -7.701-8.419z" fill="#9e3237"/><path d="m125.78 461.14c-1.67-9.63-.86-20.1.93-29.7.574-3.062 1.247-6.031 1.968-8.864-8.649-7.087-14.7-12.932-19-20.186a2.547 2.547 0 0 0 -4.58.34c-1.05 2.67-2.39 6.27-3.74 10.51a151.956 151.956 0 0 0 -4.65 18.2c-1.79 9.6-2.6 20.07-.93 29.7 2.82 16.37 12.8 30.33 37.26 33.58a31.81 31.81 0 0 0 17.937-2.83c-15.818-5.637-22.893-17.39-25.195-30.75z" fill="#9e444d"/><path d="m100.21 306.5c-24.63-17.18-7.39-73.57-1.48-83.45a94.929 94.929 0 0 0 7.54-15.31 57.7 57.7 0 0 0 3.121-11.914c-7.225-12.313-9.861-24.98-8.881-35.156a7.425 7.425 0 0 0 -9.9-7.72c-3.95 1.44-7.9 4.77-9.75 11.98-3.58 13.92 2.63 23.46-4.59 42.81a94.929 94.929 0 0 1 -7.54 15.31c-5.91 9.88-23.15 66.27 1.48 83.45a.01.01 0 0 0 .01.01 235.52 235.52 0 0 1 24.63 17.17l.01-.01c1.329-4.892 7.027-8.434 14.407-11.356-2.826-1.885-5.822-3.815-9.047-5.8a.01.01 0 0 1 -.01-.014z" fill="#c14f5b"/><path d="m93.88 107.706a44.158 44.158 0 0 1 -9.24-19.166c-.91-4.16-5.94-16.28-6.1-22.53a1.625 1.625 0 0 0 -2.5-1.34c-7.21 4.78-23.5 28.24.23 143.07 7.22-19.35 1.01-28.89 4.59-42.81 1.85-7.21 5.8-10.54 9.75-11.98a7.3 7.3 0 0 1 6.377.649c-2.441-19.03-3.287-34.049-3.107-45.893z" fill="#627c31"/><path d="m80.846 313.367q-4.9-3.32-10.626-6.857a.01.01 0 0 1 -.01-.01q-6.285-3.87-13.64-8.03a3.562 3.562 0 0 0 -5.29 2.8c-.9 10.17-1.42 33.39 8.6 57.85a108.359 108.359 0 0 0 10.25 19.34c4.246-3.507 11.694-7.323 24.607-9.009a109.512 109.512 0 0 1 -4.857-10.331 125.774 125.774 0 0 1 -9.034-45.753z" fill="#bf6673"/><path d="m68.92 405.84a86.717 86.717 0 0 1 11.451-2.674q-2.179-.458-4.361-.756a81.791 81.791 0 0 0 -20.53.02 93.085 93.085 0 0 0 -16.56 3.41 77.776 77.776 0 0 0 38.93 24.01c7.72 2.01 14.48 2.41 18.86 1.59q.477-2.541 1.034-4.992a76.641 76.641 0 0 1 -28.824-20.608z" fill="#89333c"/><path d="m60.475 360.533c-.2-.471-.4-.943-.595-1.413 0 0-14.08 7.47-26.57 1.05a2.444 2.444 0 0 0 -3.56 2.64c2.27 10.92 9 34.15 25.73 39.61v.01a81.791 81.791 0 0 1 20.53-.02c-12.61-5.85-11.34-16.73-11.34-16.73a10.8 10.8 0 0 1 1.541-3.014 91.274 91.274 0 0 1 -6.461-19.856 2.364 2.364 0 0 1 .725-2.277z" fill="#627c31"/><path d="m306.25 329.58c0-51.127 27.325-93.711 63.5-103.077a59.719 59.719 0 0 0 -15-1.923c-43.35 0-78.5 47.01-78.5 105s35.15 105 78.5 105a59.719 59.719 0 0 0 15-1.923c-36.175-9.366-63.5-51.95-63.5-103.077z" fill="#b5c2c4"/><g fill="#243a54"><path d="m40.027 399.264c-1.568.423-2.58.744-2.916.853l-.057.019h-.015a6 6 0 0 0 -2.672 9.608 82.846 82.846 0 0 0 32.246 22.766c-6.145 8.714-8.454 20.524-9.993 28.414-.33 1.693-.615 3.155-.885 4.311a10.875 10.875 0 0 0 5.348 11.97l21.142 11.576a10.751 10.751 0 0 0 13.775-2.904 6 6 0 0 0 1.1-2.388l.4-1.872c7.3 10.546 18.964 16.956 34.743 19.052a37.887 37.887 0 0 0 29.649-8.8 47.318 47.318 0 0 0 11.57-14.054 81.44 81.44 0 0 0 18.12 2.162h.1c17.8-.027 31.258-6.925 38.922-19.952 4.446-7.557 17.366-9.527 29.589-10.036-1.115 2.047-5.066 10.211-1.532 17.49 1.616 3.329 5.374 7.548 14.1 8.748 8.565 1.178 11.939 2.024 13.134 2.394a6.006 6.006 0 0 0 3.768 1.33h.009a6 6 0 0 0 5-2.691 6.189 6.189 0 0 0 .454-5.881 7.523 7.523 0 0 0 -.707-1.266 4.093 4.093 0 0 1 -.3-2.742c.471-1.335 2.45-2.709 5.431-3.771 6.88-2.452 11.056-6.266 12.414-11.336a12.99 12.99 0 0 0 .433-2.89c6.909 1.186 15.829 4.209 17.178 11.91 2 11.423 14.245 18.637 36.384 21.442a6.212 6.212 0 0 0 .756.047 6 6 0 0 0 4.654-9.785 26.079 26.079 0 0 1 -3.546-6.482c10.684 6.7 26.84 12.166 44.2 6.654a6.139 6.139 0 0 0 .937 4.1 6 6 0 0 0 5 2.688h.008a6 6 0 0 0 3.767-1.33c1.2-.37 4.571-1.216 13.134-2.394 8.725-1.2 12.483-5.419 14.1-8.748 3.845-7.918-1.176-16.9-1.761-17.9a5.87 5.87 0 0 0 -.5-.723l-9.608-11.968c21.228-3.881 27.093-19.646 27.37-20.425a6 6 0 0 0 -6.3-7.972c-1.113.121-3.119.2-4.012-.661a2.473 2.473 0 0 1 -.415-.572c17.5-8.465 29.955-35.01 31.436-38.28a6 6 0 0 0 -5.384-8.474c-12.443-.176-18.094 2.4-27 10.067a86.471 86.471 0 0 1 18.115-39.442c17.889-22.218 18.807-40.865 16.427-52.6a45.021 45.021 0 0 0 -10.191-20.988 6 6 0 0 0 -10.2 5.338c3.092 15.5-3.634 31.126-10.258 40.972.1-3.083.251-6.458.449-10 .565-10.1-4.394-22.859-8.769-34.111-2.318-5.962-4.508-11.593-5.447-15.738-1.57-6.927 8.284-19.048 13.3-23.828a6 6 0 0 0 -.866-9.385c-5.462-3.541-13.5-2.493-23.886 3.113a43.078 43.078 0 0 0 -8.838 6.445c-2.468 2.3-4.873 3.441-6.423 3.055-.85-.212-3.859-1.586-6.885-10.365-7.57-21.967-12.6-25.6-19.992-28.975a22.716 22.716 0 0 1 -4.077-2.217c-10.451-7.464-15.359-36.544-16-53.119a6 6 0 0 0 -4.974-5.685c-7.87-1.36-15.98 5.661-24.782 21.474a33.534 33.534 0 0 0 -4.106 15.022c-.6 16.179-11.537 21.514-11.945 21.707a5.957 5.957 0 0 0 -1.052.6 22.716 22.716 0 0 1 -4.077 2.217c-7.39 3.374-12.422 7.008-19.993 28.975-3.024 8.779-6.034 10.153-6.883 10.365-1.555.387-3.955-.754-6.424-3.056-.395-.368-.8-.7-1.2-1.053-8.766-17.455-7.582-28.137-5.946-42.812 1.082-9.7 2.308-20.7 1.131-35.759-2.177-27.871 3.044-53.408 6.351-66.149a11.114 11.114 0 0 0 -16.154-12.539c-10.985 6.161-25.756 16.85-33.74 32.791a154.1 154.1 0 0 0 -11.624 32.7 281.083 281.083 0 0 0 -15.793-28.541 8.088 8.088 0 0 0 -14.81 5.623c.386 2.4.8 5.287 1.156 8.505-4.507-5.525-10.12-14.533-13.783-28.012-8.353-30.752-38.606-70.615-63.634-73.996a10.789 10.789 0 0 0 -12.195 11.568c.8 9.933 4.421 36.432 20.64 67.877a74.118 74.118 0 0 1 8.734 35.153 45.779 45.779 0 0 1 -3.084 15.864c-2.97-8.492-9.057-18.667-21.4-27.571-11.096-8.001-16.827-15.991-19.167-26.731-.373-1.712-1.149-4.027-2.133-6.959-1.494-4.453-3.751-11.183-3.835-14.442a7.619 7.619 0 0 0 -11.808-6.188c-13.24 8.78-24.4 41.543-2.693 147.533a91.327 91.327 0 0 1 -6.456 12.767c-4.314 7.218-17.7 45.539-9.93 72.115a9.555 9.555 0 0 0 -8.344 8.658 134.852 134.852 0 0 0 6.852 54.906c-4.232 1.193-10.521 2.052-16.1-.817a8.445 8.445 0 0 0 -9.047.782 8.347 8.347 0 0 0 -3.131 8.415c2.064 9.911 6.619 25.136 16.152 35.234zm46.139 78-18.551-10.159c.252-1.155.5-2.438.783-3.878 1.567-8.027 4.102-21.027 10.716-26.866a62.868 62.868 0 0 0 10.554 1.429 85.809 85.809 0 0 0 .009 23.148zm5.565-51.422c-9.56-.01-26.676-4.472-40.945-16.642 11.379-2.01 30.119-3.25 43.621 6.226-.953 3.251-1.87 6.751-2.676 10.416zm6.588-22.194a56.2 56.2 0 0 0 -20.519-7.059c-6.339-3.262-7.111-8.013-7.166-9.735 1.07-1.979 8.621-12.987 41.934-12.256 8.4.176 13.933 2.558 16.932 7.283 5.3 8.36 2.424 23.056-.733 32.928-6.2-5.334-10.684-10.02-13.918-15.474a8.554 8.554 0 0 0 -15.328 1.188c-.381.954-.783 1.999-1.202 3.125zm96.481-57.891c11.432 24.291-.623 42.425-4.757 47.589a24.072 24.072 0 0 1 -13.369-2.031c-17.775-8.914-29.7-11.95-35.469-12.98a27.044 27.044 0 0 0 -1.569-2.863c-3.65-5.764-9.139-9.608-16.373-11.5a20.725 20.725 0 0 0 1.169-7.455c-.246-10.279-7.531-21.656-21.713-34.017 4.976-4.107 17.477-7.674 26.286-10.186 3.794-1.081 7.718-2.2 11.282-3.363 13.811-4.5 33.091-19.245 48.347-32.29-4.413 19.814-3.753 48.012 6.166 69.096zm-40.727 137.014a25.833 25.833 0 0 1 -20.246 6c-13.393-1.78-22.445-6.97-27.675-15.869-10.568-17.983-2.858-47.041 2.237-61.776 6.494 8.387 15.585 15.5 28.191 25.369 5.7 4.458 12.149 9.51 19.542 15.581 5.537 4.547 8.37 9.129 8.421 13.619.076 6.605-5.652 12.932-10.47 17.076zm9.666-39.965c-7.5-6.161-14.015-11.259-19.762-15.757q-2.8-2.193-5.327-4.179a104.894 104.894 0 0 0 4.055-13.792 65.392 65.392 0 0 0 1.637-17.756c5.771 1.54 14.779 4.613 26.957 10.72 15.662 7.856 34.339 1.1 47.848-6.455-7 44.149-29.988 55.835-45.679 58.511a38.8 38.8 0 0 0 -9.729-11.292zm56.531 11.134c-10.328 17.555-33.718 14.516-43.742 12.252 0-.141.011-.283.01-.423 41.188-7.436 52.015-51.265 54.787-70.457a11.01 11.01 0 0 0 -16.42-11.122c-2.243 1.31-4.976 2.784-8 4.166 4.909-11.123 8.121-27.815-1.241-47.708-.026-.055-.049-.111-.075-.166a114.319 114.319 0 0 0 13.2.791 86.922 86.922 0 0 0 23.183-2.935 85.152 85.152 0 0 1 12.869 32.229c-8.9-7.666-14.534-10.241-27-10.066a6 6 0 0 0 -5.384 8.474c1.481 3.27 13.936 29.815 31.435 38.28a2.447 2.447 0 0 1 -.416.572c-.893.857-2.9.782-4.011.661a6 6 0 0 0 -6.3 7.972c.276.779 6.138 16.545 27.369 20.425l-.745.927c-17.732.016-40.489.779-49.519 16.128zm56.562-224.819c5.612 5.233 11.831 7.334 17.508 5.921 6.6-1.646 11.756-7.735 15.327-18.1 6.438-18.684 9.612-20.133 13.631-21.969a35.007 35.007 0 0 0 5.65-3.075c3.274-1.687 17.633-10.3 18.432-31.922a21.511 21.511 0 0 1 2.6-9.63 67.814 67.814 0 0 1 7.961-11.79c1.5 15.006 6.17 42.935 20.333 53.05a34.132 34.132 0 0 0 6.068 3.367c4.018 1.836 7.192 3.285 13.631 21.969 3.572 10.365 8.728 16.454 15.327 18.1 5.676 1.413 11.894-.688 17.508-5.921a31.16 31.16 0 0 1 6.353-4.662l.062-.033c-4.242 6.551-7.721 14.669-6.008 22.226 1.136 5.011 3.482 11.045 5.966 17.432 3.933 10.117 8.392 21.583 7.972 29.093-.5 8.864-.668 16.679-.724 21.674a8.106 8.106 0 0 0 13.578 6.083c4.362-4.007 13.168-14.9 18.131-29.234-.789 8.786-4.631 19.553-14.572 31.9a98.172 98.172 0 0 0 -20.939 47.088c-1.041 7.073-1.613 14.213 3.694 17.007 1.783.939 5.422 1.908 9.774-2.127 7.139-6.62 10.962-9.976 14.852-11.618-1.138 1.914-2.435 3.977-3.865 6.062-6.761 9.861-13.667 16.082-19.446 17.518-.1.025-.2.06-.305.087-.027.008-.055.014-.082.023-7.091 1.91-12.732 7.527-15.907 15.879a6 6 0 1 0 11.217 4.264 19.455 19.455 0 0 1 2.624-4.83 14.281 14.281 0 0 0 2.538 3.407 13.833 13.833 0 0 0 2.92 2.193c-3.984 3.677-11.1 7.547-23.195 7.16a5.933 5.933 0 0 0 -5.563 3.314 6 6 0 0 0 .688 6.439l16.463 20.506c.839 1.617 1.847 4.812 1.141 6.265-.463.955-2.31 1.74-4.939 2.1-3.057.421-5.638.815-7.825 1.2a14.2 14.2 0 0 0 -.491-1.907c-1.691-5.1-6-8.908-12.806-11.333-3.476-1.239-4.681-2.546-4.846-3.123a4.135 4.135 0 0 1 .946-2.671l-9.137-7.78c-.548.643-5.294 6.485-3.4 13.542 1.175 4.391 4.469 7.838 9.8 10.275-20.9 4.883-37.229-10.647-38.006-11.4a6 6 0 0 0 -9.108.808c-3.776 5.334-3.874 11.348-2.426 16.7-8.622-2.288-13.861-5.609-14.532-9.439-4.027-22.962-36.144-22.616-37.517-22.6a6.031 6.031 0 0 0 -5.482 3.516 5.809 5.809 0 0 0 .971 6.306 4.2 4.2 0 0 1 1 2.738c-.165.577-1.37 1.884-4.847 3.123-6.8 2.425-11.114 6.238-12.8 11.333a14.348 14.348 0 0 0 -.491 1.907c-2.187-.382-4.768-.776-7.826-1.2-2.621-.36-4.464-1.143-4.933-2.092-.689-1.4.209-4.478 1.143-6.285l16.455-20.5a6 6 0 0 0 -4.875-9.753c-12.118.384-19.221-3.489-23.2-7.157a13.861 13.861 0 0 0 2.925-2.2 14.321 14.321 0 0 0 2.538-3.407 19.434 19.434 0 0 1 2.624 4.829 6 6 0 1 0 11.21-4.247c-3.231-8.5-9.018-14.183-16.294-15.99-5.779-1.436-12.686-7.657-19.445-17.518-1.43-2.085-2.727-4.148-3.866-6.062 3.89 1.642 7.713 5 14.853 11.618 4.351 4.035 7.991 3.065 9.772 2.127 5.308-2.794 4.736-9.934 3.695-17.007a98.189 98.189 0 0 0 -20.939-47.088c-9.943-12.35-13.785-23.119-14.575-31.9 4.963 14.336 13.769 25.23 18.133 29.238a8.107 8.107 0 0 0 13.578-6.083c-.058-5.02-.231-12.855-.725-21.675-.42-7.51 4.038-18.977 7.972-29.094 2.484-6.387 4.83-12.42 5.966-17.431 1.713-7.557-1.767-15.675-6.008-22.226l.062.034a30.626 30.626 0 0 1 6.353 4.658zm-30.641-128.921c6.2-12.384 17.773-21.186 27.037-26.639-3.491 14.029-8.394 39.884-6.19 68.1 1.088 13.928-.071 24.323-1.094 33.5-1.282 11.5-2.43 21.851 1.306 34.873-6.171-1.933-11.184-1.683-14.96.765a6 6 0 0 0 -.871 9.381c5.019 4.784 14.873 16.905 13.3 23.832a86.686 86.686 0 0 1 -3.457 10.568l-.095-.125c-7.252-9.531-14.751-19.387-14.347-30.234 1.034-27.828-5.821-54.7-14.429-76.956.679-5.471 3.876-27.255 13.8-47.065zm-42.454 77.5c-.506-7.042-1.028-14.323.77-21.311 2.931-11.382 3.326-23.9 2.642-35.214 12.789 23.648 29.182 62.234 27.682 102.586-.562 15.139 8.656 27.256 16.789 37.945 1.619 2.129 3.167 4.17 4.563 6.136-3.3 8.979-6.11 18.267-5.676 26 .2 3.538.343 6.915.449 10-6.624-9.847-13.351-25.475-10.259-40.973a6 6 0 0 0 -10.2-5.338 44.985 44.985 0 0 0 -10.197 20.999c-2.263 11.153-1.533 28.561 13.916 49.342-9.708 1.921-21.248 1.892-33.1-.148-4.718-18.554-3.6-40.1.654-53.837a10.006 10.006 0 0 0 -16.155-10.487c-6.683 5.874-12.989 11.1-18.824 15.609-2.1-6.166-5.391-15.192-9.652-24.892-.087-4.638.915-26.695 26.858-36.916 21.954-8.654 20.777-25.042 19.74-39.501zm-57.587-51.846c.182-13.777-3.206-27.508-10.067-40.812-14.431-27.977-18.216-51.55-19.206-61.778 8.449 1.9 19.315 10.282 29.448 22.8 10.6 13.1 19.088 28.866 22.7 42.171 6.949 25.576 20.293 37.955 26.384 42.47a93.009 93.009 0 0 1 -2.526 22.69c-2.287 8.885-1.666 17.532-1.118 25.161.987 13.752 1.583 22.053-12.17 27.472-19.233 7.578-27.584 20.59-31.206 30.237-5.5-9.969-11.874-19.248-18.895-25.461a77.109 77.109 0 0 1 -12.9-14.928c.806-14.771 6.272-23.17 10.834-27.644 11.867-11.632 18.515-26.685 18.722-42.378zm-71.533-49.119c.749 2.537 1.6 5.073 2.374 7.382.763 2.275 1.552 4.626 1.785 5.7 3.825 17.556 14.765 27.343 23.869 33.908 17.555 12.656 19.155 27.975 19.177 32.975-.891 1.015-1.815 2.01-2.8 2.971a46.023 46.023 0 0 0 -11.022 17.745 44.973 44.973 0 0 1 -1.524-16.174 13.419 13.419 0 0 0 -17.914-13.929c-4.717 1.716-10.89 5.906-13.518 16.127-.148.575-.263 1.135-.383 1.7-8.216-54.567-4.186-78.301-.044-88.405zm-.741 149.393c12.942-21.651 12.378-34.728 11.924-45.237-.22-5.1-.409-9.5.866-14.463 1.08-4.2 3.042-6.762 6-7.838a1.321 1.321 0 0 1 1.312.211 1.394 1.394 0 0 1 .556 1.291c-1.535 15.949 4.756 40.008 27.012 59.7 17.152 15.179 30.92 54.014 35.076 66.682-8.105 5.607-14.92 9.39-20.049 11.063-3.352 1.093-7 2.131-10.853 3.232-12.628 3.6-25.578 7.3-32.361 14.162q-8.655-6.512-19.711-13.354c-20.648-14.401-4.964-66.762.228-75.449zm-16.887 79.486c18.751 10.833 54.636 33.76 55.442 50.937a8.369 8.369 0 0 1 -1.951 6.019c-18.86-.11-30.887 3.311-38.538 7.477-14.619-24.947-15.65-51.047-14.953-64.433zm-.286 61.2a115.031 115.031 0 0 0 5.786 10.786 17.915 17.915 0 0 0 -3.637 6.608 5.881 5.881 0 0 0 -.143.778 21.745 21.745 0 0 0 2.095 10.92c-1.589.092-3.136.22-4.624.377-4.707-1.977-13.54-8.292-19.037-28.357 7.513 1.774 14.722.407 19.557-1.112z"/><path d="m327.6 251.3a6 6 0 0 0 -11.033 4.718l1.807 4.228a6 6 0 0 0 11.033-4.719z"/><path d="m303.641 298.584a6 6 0 0 0 8.3 1.77l5.121-3.321a6 6 0 0 0 -6.529-10.069l-5.122 3.322a6 6 0 0 0 -1.77 8.298z"/><path d="m302.776 330.745a6 6 0 0 0 6 6h4.669a6 6 0 1 0 0-12h-4.669a6 6 0 0 0 -6 6z"/><path d="m359.439 368.5a6 6 0 0 0 6-6v-5.628a6 6 0 0 0 -12 0v5.628a6 6 0 0 0 6 6z"/><path d="m371.944 328.8a5.981 5.981 0 0 0 2.366-.488l4.217-1.811a6 6 0 0 0 -4.736-11.027l-4.218 1.812a6 6 0 0 0 2.371 11.514z"/><path d="m320.073 401.066a6 6 0 0 0 6-6v-5.974a6 6 0 0 0 -12 0v5.974a6 6 0 0 0 6 6z"/><path d="m296.145 346.935a6 6 0 0 0 0 12h3.642a6 6 0 0 0 0-12z"/><path d="m397 275.01a6 6 0 0 0 -6 6v5.31a6 6 0 0 0 12 0v-5.31a6 6 0 0 0 -6-6z"/><path d="m410.315 344.659-2.315 5.31a6 6 0 1 0 11 4.8l2.318-5.311a6 6 0 1 0 -11-4.8z"/><path d="m332.406 310.97-1.466 3.844a6 6 0 1 0 11.21 4.278l1.467-3.843a6 6 0 0 0 -11.211-4.279z"/><path d="m373.648 259.762a6.008 6.008 0 0 0 5.852-7.362l-1.045-4.477a6 6 0 0 0 -11.685 2.727l1.044 4.478a6 6 0 0 0 5.834 4.634z"/><path d="m352.52 279.566a6 6 0 1 0 -8.764 8.2l4.025 4.3a6 6 0 0 0 8.764-8.2z"/><path d="m352.787 339.856 4.6.815a6 6 0 1 0 2.093-11.815l-4.6-.815a6 6 0 1 0 -2.094 11.815z"/><path d="m396.446 363.719a6 6 0 1 0 -11.816-2.087l-.979 5.542a6 6 0 1 0 11.817 2.087z"/><path d="m412.783 319.181-4.468 1.047a6 6 0 1 0 2.739 11.684l4.468-1.048a6 6 0 1 0 -2.739-11.683z"/><path d="m338.762 386.194a6.067 6.067 0 0 0 1.05.092 6 6 0 0 0 5.9-4.957l1.039-5.883a6 6 0 1 0 -11.817-2.087l-1.039 5.883a6 6 0 0 0 4.867 6.952z"/><path d="m330.625 362.962a6 6 0 1 0 2.1-11.815l-3.588-.636a6 6 0 1 0 -2.1 11.815z"/><path d="m346.17 252.639a6.07 6.07 0 0 0 1.051.092 6 6 0 0 0 5.9-4.957l.924-5.229a6 6 0 1 0 -11.817-2.088l-.923 5.229a6 6 0 0 0 4.865 6.953z"/><path d="m361.486 295.434a6 6 0 1 0 7.248 9.566l4.507-3.416a6 6 0 0 0 -7.248-9.563z"/><path d="m368.074 278.822a6 6 0 0 0 8.479.33l4.494-4.152a6 6 0 0 0 -8.149-8.809l-4.494 4.158a6 6 0 0 0 -.33 8.473z"/><path d="m311.774 268.709a6 6 0 0 0 -4.091 7.435l.9 3.118a6 6 0 0 0 11.525-3.343l-.9-3.118a6 6 0 0 0 -7.434-4.092z"/><path d="m340.228 267.146a5.993 5.993 0 0 0 7.772 3.414l2.455-.955a6 6 0 0 0 -4.353-11.183l-2.455.956a6 6 0 0 0 -3.419 7.768z"/><path d="m299.69 305.372-4.23-1.926a6 6 0 0 0 -4.975 10.921l4.23 1.926a6 6 0 0 0 4.975-10.921z"/><path d="m348.138 416.629a6 6 0 0 0 6-6v-5.394a6 6 0 0 0 -12 0v5.394a6 6 0 0 0 6 6z"/><path d="m371.87 408.7a6 6 0 0 0 11.018-4.757l-1.969-4.56a6 6 0 0 0 -11.018 4.757z"/><path d="m385.4 311.021 2.308 6.125a6 6 0 1 0 11.229-4.23l-2.308-6.125a6 6 0 0 0 -11.229 4.23z"/><path d="m377.346 335.315-3.845 4.238a6 6 0 0 0 8.889 8.063l3.844-4.239a6 6 0 0 0 -8.888-8.062z"/><path d="m367.466 387.094h3.461a6 6 0 0 0 0-12h-3.461a6 6 0 0 0 0 12z"/><path d="m308.25 375.39a6.009 6.009 0 1 0 -4.24-1.76 6.029 6.029 0 0 0 4.24 1.76z"/><path d="m333.05 282.13a5.992 5.992 0 1 0 4.24 1.75 6.044 6.044 0 0 0 -4.24-1.75z"/><path d="m409.37 297.42a6.011 6.011 0 1 0 4.239 1.76 6.012 6.012 0 0 0 -4.239-1.76z"/><path d="m350.75 308.74a6 6 0 1 0 4.24-1.76 6.029 6.029 0 0 0 -4.24 1.76z"/><path d="m321.08 316.27a6 6 0 1 0 -4.25 1.76 6.08 6.08 0 0 0 4.25-1.76z"/><path d="m334.96 342.88a5.992 5.992 0 1 0 -4.24-1.75 6.062 6.062 0 0 0 4.24 1.75z"/><path d="m399.83 389.73a6 6 0 1 0 0-12 6 6 0 1 0 0 12z"/><path d="m391.24 252.49a5.992 5.992 0 1 0 4.25 1.76 6.01 6.01 0 0 0 -4.25-1.76z"/><path d="m397.92 333.75a6.009 6.009 0 1 0 4.24 1.76 6.029 6.029 0 0 0 -4.24-1.76z"/><path d="m277.008 320.346h.139a5.949 5.949 0 0 0 5.9-5.344c5.178-47.7 35.36-84.423 71.709-84.423 39.976 0 72.5 44.411 72.5 99s-32.522 99-72.5 99c-34.5 0-63.448-33.085-70.729-77.241a5.934 5.934 0 0 0 -5.844-4.993h-.158a5.933 5.933 0 0 0 -5.851 6.894c3.333 20.333 10.954 39.042 22.27 54.178 15.987 21.385 37.406 33.162 60.312 33.162s44.325-11.777 60.313-33.162c15.6-20.862 24.185-48.506 24.185-77.839s-8.59-56.977-24.185-77.839c-15.988-21.385-37.407-33.161-60.313-33.161s-44.325 11.776-60.312 33.161c-12.751 17.056-20.8 38.649-23.317 61.989a5.943 5.943 0 0 0 5.881 6.618z"/></g></svg>