<svg id="Layer_1" height="512" viewBox="0 0 512 512" width="512" xmlns="http://www.w3.org/2000/svg" data-name="Layer 1"><path d="m217.7 366.56c-4.51 23.65-14.46 45.66-26.69 64.31 16.95-.64 39.96-2.52 64.75-12.81z" fill="#6d6f9b"/><path d="m304.29 169.27a152.2 152.2 0 0 1 -23.31 18.69q-4.485 2.94-8.81 5.99l-.01-.01c-14.27-28.31-36.33-58.83-53.26-76.45 7.66 4.71 17.87 9.79 32.1 16.01 18.57 8.1 38.91 18.39 53.29 35.77z" fill="#635877"/><path d="m272.16 193.94c-14.27-28.31-36.33-58.83-53.26-76.45l-.01-.01c-13.43-8.25-19.04-15.36-24.77-25.42a8.12 8.12 0 0 1 -4.29 4.64 40.78 40.78 0 0 0 -9.63 6.02c5.56 9.94 30.39 72.14 39.44 144.54l1.1.6 51.43-53.91z" fill="#6d6f9b"/><path d="m219.64 247.26c-9.05-72.4-33.88-134.6-39.44-144.54a28.7 28.7 0 0 0 -2.4 2.29 8.8 8.8 0 0 1 -12.37.58c-8.59 19.58-80.5 181.34-21.77 322.09a255.065 255.065 0 0 0 47.35 3.19c12.23-18.65 22.18-40.66 26.69-64.31l3.04-118.7z" fill="#635877"/><path d="m194.12 92.06a8.12 8.12 0 0 1 -4.29 4.64 40.78 40.78 0 0 0 -9.63 6.02 28.7 28.7 0 0 0 -2.4 2.29 8.8 8.8 0 0 1 -12.37.58 37.813 37.813 0 0 0 -12.68-7.11 7.979 7.979 0 0 1 -2.11-1.1 8.213 8.213 0 0 1 -2.43-10.48l11.67-22.08a11.236 11.236 0 0 1 19.23-1.03l14.08 20.87a8.2 8.2 0 0 1 .93 7.4z" fill="#433165"/><path d="m152.75 98.48a37.813 37.813 0 0 1 12.68 7.11c-8.59 19.58-80.5 181.34-21.77 322.09-14.79-2.36-31.25-6.38-46.56-13.17-74.16-99.94-28.67-222.5 23.69-283.39 17.27-12.15 24.23-24.82 29.85-33.74a7.979 7.979 0 0 0 2.11 1.1z" fill="#6d6f9b"/><path d="m94.87 145.04a132.119 132.119 0 0 0 25.92-13.92c-52.36 60.89-97.85 183.45-23.69 283.39a122.954 122.954 0 0 1 -17.19-9.24c-101-65.68-68.79-225.7 14.96-260.23z" fill="#635877"/><path d="m255.76 418.06a143.531 143.531 0 0 1 -50.04-109.03c0-23.85 5.47-43.87 15.02-61.17 11.81-21.45 29.86-38.72 51.43-53.91q4.32-3.06 8.81-5.99a152.2 152.2 0 0 0 23.31-18.69c10-9.82 18.48-21.18 23.79-33.63l4.59-10.74a9.593 9.593 0 0 1 17.44-.43 120.594 120.594 0 0 0 56.19 55.49c52.03 25.16 88.7 69.26 88.7 129.07 0 79.6-64.76 144.12-144.64 144.12a144.43 144.43 0 0 1 -94.6-35.09z" fill="#f7e8a9"/><path d="m349.32 196.26c64.81 0 117.35 52.35 117.35 116.93s-52.54 116.92-117.35 116.92-117.35-52.34-117.35-116.92 52.54-116.93 117.35-116.93z" fill="#d85269"/><path d="m424.69 319.14c9.46-3.73 29.8-9.8 26.48 8.44-2.66 14.6-19.53 3.03-27.27-3.16a3.084 3.084 0 0 1 .79-5.28z" fill="#ad2a34"/><path d="m446.79 281.85c4.23 14.22-16.06 11.48-25.77 9.43a3.079 3.079 0 0 1 -1.68-5.06c6.75-7.58 22.16-22.15 27.45-4.37z" fill="#ad2a34"/><path d="m412.21 352.28c10.14.96 31.03 4.74 19.76 19.49-9.02 11.8-18.79-6.13-22.86-15.14a3.091 3.091 0 0 1 3.1-4.35z" fill="#ad2a34"/><path d="m425.8 245.15c9.71 11.24-9.92 17.03-19.62 19.13a3.093 3.093 0 0 1 -3.62-3.93c3.04-9.68 11.1-29.26 23.24-15.2z" fill="#ad2a34"/><path d="m375.8 308.79c8.85-5 28.15-13.83 27.39 4.7-.6 14.82-18.92 5.7-27.44.64a3.083 3.083 0 0 1 .05-5.34z" fill="#ad2a34"/><path d="m385.43 376.88c8.43 5.67 24.96 18.96 7.98 26.53-13.6 6.06-13.55-14.34-12.79-24.2a3.091 3.091 0 0 1 4.81-2.33z" fill="#ad2a34"/><path d="m392.58 220.71c13.42 6.44-2.26 19.57-10.31 25.35a3.09 3.09 0 0 1 -4.89-2.16c-1.09-10.08-1.57-31.23 15.2-23.19z" fill="#ad2a34"/><path d="m389.31 275.66c10.09 10.9-9.33 17.36-18.95 19.78a3.094 3.094 0 0 1 -3.76-3.8c2.72-9.77 10.09-29.61 22.71-15.98z" fill="#ad2a34"/><path d="m370.12 327.4c9.81 2.7 29.72 10.05 16.04 22.62-10.94 10.06-17.42-9.3-19.85-18.88a3.086 3.086 0 0 1 3.81-3.74z" fill="#ad2a34"/><path d="m354.09 385.6c5.17 8.74 14.34 27.82-4.26 27.37-14.89-.36-6.03-18.76-1.09-27.33a3.1 3.1 0 0 1 5.35-.04z" fill="#ad2a34"/><path d="m352.64 258.69c14.88.6 5.73 18.85.64 27.34a3.1 3.1 0 0 1 -5.35-.04c-5.02-8.82-13.88-28.05 4.71-27.3z" fill="#ad2a34"/><path d="m352.91 336.56c5.01 8.82 13.88 28.05-4.72 27.3-14.87-.6-5.72-18.86-.64-27.35a3.108 3.108 0 0 1 5.36.05z" fill="#ad2a34"/><path d="m351.01 211.54c14.89.36 6.03 18.75 1.08 27.32a3.1 3.1 0 0 1 -5.35.05c-5.16-8.74-14.33-27.82 4.27-27.37z" fill="#ad2a34"/><path d="m334.53 291.4a3.089 3.089 0 0 1 -3.82 3.74c-9.8-2.7-29.72-10.05-16.04-22.62 10.95-10.05 17.43 9.3 19.86 18.88z" fill="#ad2a34"/><path d="m330.48 327.1a3.094 3.094 0 0 1 3.75 3.81c-2.71 9.77-10.09 29.61-22.7 15.98-10.1-10.91 9.33-17.37 18.95-19.79z" fill="#ad2a34"/><path d="m325.08 308.42a3.075 3.075 0 0 1 -.04 5.33c-8.85 5-28.15 13.83-27.4-4.69.61-14.83 18.92-5.71 27.44-.64z" fill="#ad2a34"/><path d="m99.039 160.852a245.348 245.348 0 0 1 21.751-29.732 132.119 132.119 0 0 1 -25.92 13.92c-83.75 34.53-115.96 194.55-14.96 260.23a122.954 122.954 0 0 0 17.19 9.24 197.379 197.379 0 0 1 -26.391-48.084c-43.256-65.784-23.424-162.294 28.33-205.574z" fill="#4c455b"/><path d="m261.97 313.19c0-59.516 44.623-108.644 102.35-115.983a118.981 118.981 0 0 0 -15-.947c-64.81 0-117.35 52.35-117.35 116.93s52.54 116.92 117.35 116.92a118.794 118.794 0 0 0 15-.947c-57.727-7.337-102.35-56.457-102.35-115.973z" fill="#aa4359"/><path d="m323.46 380.6c1.09 10.08 1.56 31.24-15.2 23.19-13.42-6.43 2.25-19.56 10.3-25.34a3.1 3.1 0 0 1 4.9 2.15z" fill="#ad2a34"/><path d="m307.43 221.1c13.59-6.06 13.55 14.34 12.79 24.2a3.1 3.1 0 0 1 -4.81 2.33c-8.44-5.67-24.97-18.96-7.98-26.53z" fill="#ad2a34"/><path d="m294.66 360.23a3.09 3.09 0 0 1 3.62 3.93c-3.05 9.68-11.1 29.25-23.24 15.2-9.71-11.24 9.92-17.04 19.62-19.13z" fill="#ad2a34"/><path d="m291.73 267.88a3.093 3.093 0 0 1 -3.11 4.35c-10.13-.96-31.02-4.74-19.75-19.49 9.02-11.81 18.79 6.13 22.86 15.14z" fill="#ad2a34"/><path d="m279.81 333.23a3.077 3.077 0 0 1 1.69 5.06c-6.76 7.58-22.16 22.15-27.45 4.37-4.23-14.22 16.06-11.48 25.76-9.43z" fill="#ad2a34"/><path d="m276.93 298.13a3.078 3.078 0 0 1 -.78 5.27c-9.47 3.73-29.81 9.81-26.48-8.44 2.66-14.59 19.53-3.03 27.26 3.17z" fill="#ad2a34"/><g fill="#243a54"><path d="m349.316 190.265c-68.015 0-123.349 55.143-123.349 122.925s55.333 122.924 123.349 122.924 123.35-55.143 123.35-122.924-55.334-122.925-123.35-122.925zm0 233.849c-61.4 0-111.349-49.76-111.349-110.924s49.951-110.925 111.349-110.925 111.35 49.76 111.35 110.925-49.951 110.924-111.35 110.924z"/><path d="m352.884 252.693c-9.205-.366-13.487 3.411-15.46 6.65-3.964 6.51-2.184 16.472 5.291 29.609a9 9 0 0 0 7.8 4.589h.1a9.142 9.142 0 0 0 7.82-4.43c7.943-13.259 10.2-23.256 6.716-29.71-1.571-2.896-4.969-6.413-12.267-6.708zm-2.178 25.665c-3.411-7.177-3.772-11.558-3.032-12.774.2-.336 1.285-.917 3.924-.917.253 0 .52.005.8.017a4.7 4.7 0 0 1 2.189.42c.389.644.605 4.588-3.881 13.254z"/><path d="m347.952 369.852q.635.024 1.238.025c8.355 0 12.34-3.585 14.222-6.675 3.963-6.508 2.184-16.471-5.291-29.611a9.1 9.1 0 0 0 -15.716-.159c-7.942 13.262-10.2 23.258-6.715 29.712 1.567 2.897 4.965 6.413 12.262 6.708zm2.179-25.666c3.411 7.179 3.772 11.559 3.032 12.775-.224.368-1.5 1.034-4.727.9a4.916 4.916 0 0 1 -2.187-.421c-.388-.64-.604-4.586 3.882-13.254z"/><path d="m372.848 303.569a9.079 9.079 0 0 0 -.162 15.715c9.256 5.5 16.922 8.267 22.907 8.267a14.268 14.268 0 0 0 6.906-1.6c2.889-1.566 6.395-4.957 6.69-12.217.371-9.155-3.4-13.428-6.627-15.4-6.514-3.986-16.512-2.223-29.714 5.235zm23.457 5c.365.224 1.023 1.489.893 4.675a4.758 4.758 0 0 1 -.416 2.154c-.934.576-5.4.177-13.29-3.841 7.199-3.387 11.591-3.738 12.813-2.989z"/><path d="m298.337 296.6c-2.889 1.565-6.394 4.957-6.69 12.217-.372 9.154 3.4 13.427 6.626 15.4a15.1 15.1 0 0 0 8.03 2.071c5.81 0 13.066-2.441 21.688-7.311a9.079 9.079 0 0 0 .158-15.715c-13.325-7.924-23.349-10.162-29.812-6.662zm6.195 17.38c-.366-.225-1.024-1.49-.894-4.676a4.765 4.765 0 0 1 .416-2.154c.932-.574 5.4-.179 13.291 3.842-7.201 3.382-11.595 3.729-12.813 2.985z"/><path d="m380.244 358.847c2.829 0 6.291-1.019 9.98-4.407 6.764-6.215 7.125-11.9 6.236-15.584-1.791-7.41-10.116-13.211-24.745-17.242a9.012 9.012 0 0 0 -8.775 2.273 9.122 9.122 0 0 0 -2.45 8.726c3.794 14.974 9.286 23.63 16.325 25.729a11.99 11.99 0 0 0 3.429.505zm4.552-17.171c.1.412-.335 1.763-2.692 3.928a4.661 4.661 0 0 1 -1.856 1.24c-1.062-.244-3.936-3.661-6.662-12.075 7.514 2.677 10.876 5.524 11.214 6.907z"/><path d="m310.613 268.105c-6.765 6.216-7.125 11.906-6.236 15.585 1.792 7.411 10.117 13.211 24.742 17.239a9.271 9.271 0 0 0 2.454.335 9 9 0 0 0 6.321-2.6 9.126 9.126 0 0 0 2.453-8.73c-3.8-14.974-9.288-23.629-16.325-25.727-3.155-.943-8.043-1.03-13.409 3.898zm5.428 12.764c-.1-.411.335-1.763 2.691-3.928a4.666 4.666 0 0 1 1.857-1.24c1.061.244 3.935 3.662 6.662 12.075-7.514-2.676-10.875-5.524-11.21-6.907z"/><path d="m337.763 323.754a9.141 9.141 0 0 0 -8.748-2.47c-15.046 3.786-23.734 9.272-25.824 16.305-.935 3.151-1.013 8.029 3.934 13.375 4.742 5.124 9.173 6.557 12.645 6.557a12.67 12.67 0 0 0 2.981-.358c7.414-1.8 13.223-10.094 17.264-24.655a8.98 8.98 0 0 0 -2.252-8.754zm-17.841 21.746c-.6.142-2.092-.638-3.99-2.687a5.026 5.026 0 0 1 -1.237-1.807c.19-.733 2.847-3.68 12.164-6.648-2.68 7.503-5.491 10.792-6.937 11.142z"/><path d="m363.074 298.79a9.139 9.139 0 0 0 8.75 2.47c15.043-3.785 23.731-9.271 25.821-16.305.935-3.15 1.013-8.029-3.934-13.374-6.241-6.743-11.942-7.09-15.626-6.2-7.416 1.8-13.224 10.095-17.262 24.653a8.974 8.974 0 0 0 2.251 8.756zm17.841-21.746a.64.64 0 0 1 .151-.017c.671 0 2.085.81 3.838 2.7a5.026 5.026 0 0 1 1.237 1.807c-.19.732-2.848 3.68-12.164 6.647 2.68-7.497 5.491-10.781 6.938-11.137z"/><path d="m349.4 246.419h.048a9.144 9.144 0 0 0 7.847-4.556c7.727-13.387 9.823-23.419 6.233-29.814-1.613-2.872-5.067-6.333-12.369-6.51-9.227-.248-13.429 3.627-15.349 6.9-3.859 6.573-1.917 16.5 5.769 29.524a9 9 0 0 0 7.821 4.456zm-3.242-27.908c.206-.352 1.351-.982 4.208-.982.162 0 .329 0 .5.006a4.9 4.9 0 0 1 2.2.387c.4.637.678 4.575-3.667 13.313-3.534-7.123-3.965-11.497-3.245-12.724z"/><path d="m351.44 378.089h-.047a9.14 9.14 0 0 0 -7.847 4.556c-7.728 13.387-9.824 23.419-6.234 29.815 1.613 2.872 5.067 6.333 12.369 6.51.257.007.509.009.758.009 8.684 0 12.727-3.728 14.592-6.908 3.859-6.572 1.917-16.505-5.77-29.52a8.995 8.995 0 0 0 -7.821-4.462zm3.243 27.911c-.218.372-1.479 1.046-4.711.977a4.909 4.909 0 0 1 -2.195-.387c-.4-.637-.679-4.575 3.666-13.314 3.528 7.124 3.957 11.494 3.24 12.724z"/><path d="m422.49 313.56a9.081 9.081 0 0 0 -2.338 15.541c9.572 7.669 17.595 11.529 23.937 11.529a13.2 13.2 0 0 0 4.654-.8c3.08-1.15 7.025-4.021 8.328-11.171 1.645-9.013-1.494-13.769-4.416-16.172-5.897-4.848-16.045-4.487-30.165 1.073zm22.776 12.94a4.757 4.757 0 0 1 -.717 2.081c-1.011.436-5.367-.566-12.625-5.64 7.605-2.36 12.007-2.1 13.11-1.189.33.273.803 1.615.232 4.748z"/><path d="m259.152 313.444c5.235 0 11.647-1.487 19.192-4.459a9.08 9.08 0 0 0 2.34-15.541c-12.089-9.685-21.706-13.3-28.591-10.726-3.079 1.15-7.024 4.021-8.327 11.171-1.645 9.014 1.494 13.77 4.416 16.171 2.746 2.257 6.411 3.384 10.97 3.384zm-3.581-17.4a4.746 4.746 0 0 1 .717-2.08c1-.44 5.366.564 12.624 5.64-7.606 2.36-12.006 2.1-13.109 1.189-.33-.273-.803-1.615-.232-4.752z"/><path d="m414.935 234.5c-7.474 1.544-13.563 9.636-18.1 24.049a8.974 8.974 0 0 0 1.948 8.827 9.142 9.142 0 0 0 8.662 2.769c15.166-3.272 24.037-8.459 26.365-15.417 1.044-3.118 1.288-7.99-3.473-13.5-6.004-6.955-11.693-7.503-15.402-6.728zm2.552 11.739c.66 0 2.06.855 3.77 2.834a5.069 5.069 0 0 1 1.174 1.847c-.214.725-2.971 3.58-12.384 6.23 2.935-7.406 5.857-10.6 7.316-10.9a.6.6 0 0 1 .124-.015z"/><path d="m302.051 357.134a9.155 9.155 0 0 0 -8.66-2.766c-15.164 3.271-24.036 8.457-26.365 15.416-1.044 3.116-1.288 7.989 3.473 13.5s9.31 6.991 12.843 6.99a12.7 12.7 0 0 0 2.56-.261c7.472-1.544 13.562-9.636 18.1-24.052a8.977 8.977 0 0 0 -1.951-8.827zm-18.577 21.127c-.592.129-2.069-.708-3.895-2.821a5.042 5.042 0 0 1 -1.173-1.847c.214-.726 2.971-3.581 12.384-6.23-2.936 7.406-5.858 10.596-7.316 10.898z"/><path d="m412.78 346.307a9.086 9.086 0 0 0 -9.137 12.787c6.359 14.088 13.283 21.656 20.579 22.493a12.229 12.229 0 0 0 1.39.08c3.163 0 7.3-1.247 11.123-6.257 5.574-7.293 4.937-12.956 3.421-16.423-3.056-6.987-12.266-11.255-27.376-12.68zm14.42 21.819a4.642 4.642 0 0 1 -1.6 1.54c-1.09-.054-4.518-2.918-8.676-10.728 7.865 1.332 11.672 3.552 12.242 4.857.164.389-.026 1.793-1.966 4.331z"/><path d="m288.06 278.2q.423.04.845.04a9.086 9.086 0 0 0 8.289-12.827c-6.358-14.089-13.282-21.657-20.579-22.494-3.273-.378-8.1.393-12.514 6.176-5.573 7.293-4.936 12.956-3.421 16.423 3.054 6.989 12.265 11.256 27.38 12.682zm-14.424-21.82a4.656 4.656 0 0 1 1.6-1.54c1.09.054 4.519 2.918 8.677 10.729-7.866-1.333-11.673-3.553-12.243-4.858-.164-.386.03-1.791 1.966-4.329z"/><path d="m388.778 371.9a9 9 0 0 0 -9.035-.636 9.128 9.128 0 0 0 -5.107 7.488c-1.189 15.393 1.249 25.344 7.247 29.574a11.957 11.957 0 0 0 7 2.2 17.1 17.1 0 0 0 6.964-1.63c8.4-3.748 10.558-9.033 10.884-12.806.661-7.597-5.38-15.735-17.953-24.19zm2.184 26.033a4.8 4.8 0 0 1 -2.156.589c-.927-.574-2.554-4.733-2.447-13.568 6.266 4.92 8.545 8.683 8.422 10.1-.039.422-.881 1.57-3.819 2.878z"/><path d="m312.058 252.609a9 9 0 0 0 9.033.638 9.131 9.131 0 0 0 5.11-7.488c1.189-15.4-1.25-25.346-7.248-29.574-2.692-1.9-7.3-3.54-13.966-.568-8.4 3.747-10.557 9.032-10.884 12.806-.659 7.591 5.382 15.728 17.955 24.186zm-2.184-26.033a5.384 5.384 0 0 1 2.079-.59h.081c.926.574 2.553 4.734 2.446 13.569-6.266-4.92-8.545-8.683-8.422-10.1.042-.422.882-1.57 3.816-2.879z"/><path d="m324.1 372.652a9.151 9.151 0 0 0 -9.038.922c-12.58 9.034-18.633 17.321-17.991 24.626.289 3.278 2.014 7.848 8.592 11a21.33 21.33 0 0 0 9.205 2.368 12.954 12.954 0 0 0 7.623-2.351c6.225-4.4 8.558-14.249 6.933-29.264a8.989 8.989 0 0 0 -5.324-7.301zm-8.539 26.771c-.352.253-1.8.359-4.706-1.037a5.019 5.019 0 0 1 -1.829-1.237c-.094-.748 1.29-4.459 8.852-10.633.264 7.924-1.152 12.084-2.318 12.907z"/><path d="m376.735 251.855a9.145 9.145 0 0 0 9.038-.919c12.581-9.035 18.635-17.321 17.993-24.627-.289-3.278-2.014-7.848-8.592-11-8.3-3.982-13.734-2.207-16.828-.016-6.226 4.4-8.558 14.247-6.933 29.262a8.985 8.985 0 0 0 5.322 7.3zm8.54-26.769a1.366 1.366 0 0 1 .744-.153 9.865 9.865 0 0 1 3.964 1.191 4.994 4.994 0 0 1 1.827 1.235c.1.748-1.289 4.46-8.851 10.634-.265-7.924 1.151-12.084 2.316-12.907z"/><path d="m285.979 342.286a8.97 8.97 0 0 0 1.847-8.857 9.133 9.133 0 0 0 -6.77-6.068c-15.183-3.215-25.406-2.107-30.383 3.289-2.228 2.415-4.448 6.756-2.376 13.723 2.614 8.787 7.568 11.614 11.265 12.439a13.331 13.331 0 0 0 2.909.317c6.822 0 14.712-4.978 23.508-14.843zm-23.8 2.815c-.589-.132-1.584-1.487-2.376-4.15a4.937 4.937 0 0 1 -.308-2.162c.488-.577 4.165-2.065 13.849-.636-5.732 5.559-9.724 7.264-11.167 6.947z"/><path d="m414.855 282.223a8.975 8.975 0 0 0 -1.844 8.858 9.133 9.133 0 0 0 6.767 6.066 73.014 73.014 0 0 0 14.884 1.8c7.185 0 12.375-1.7 15.5-5.085 2.228-2.415 4.447-6.754 2.375-13.721-2.614-8.787-7.568-11.615-11.264-12.44-7.452-1.667-16.338 3.219-26.418 14.522zm23.805-2.815c.588.132 1.583 1.487 2.375 4.15a4.915 4.915 0 0 1 .308 2.162c-.488.577-4.165 2.066-13.849.635 5.732-5.555 9.712-7.255 11.166-6.947z"/><path d="m408.911 174.56a115.121 115.121 0 0 1 -53.4-52.722 15.6 15.6 0 0 0 -28.358.7l-4.586 10.745a97.251 97.251 0 0 1 -18.1 27.19c-14.5-15.183-33.011-24.6-51.058-32.479-36.609-15.981-45.206-23.973-52.932-36.954a14.175 14.175 0 0 0 -2.3-9.741l-14.098-20.869a17.229 17.229 0 0 0 -29.5 1.584l-11.669 22.086a14.207 14.207 0 0 0 -.66 11.855 14.035 14.035 0 0 0 .984 1.975c-7.584 12.173-18.474 28.3-50.655 41.571-21.764 8.974-40.966 26.172-55.531 49.735-13.933 22.54-22.668 49.194-25.261 77.078s1.269 55.325 11.173 79.329a139.016 139.016 0 0 0 53.68 64.657c37.419 24.336 89.032 26.7 107.636 26.7 4 0 6.47-.108 6.953-.132 17.056-.637 39.487-2.613 63.5-11.936a150.243 150.243 0 0 0 95.627 34.222c83.067-.004 150.644-67.346 150.644-150.121 0-29.968-8.741-57.238-25.98-81.05-15.861-21.908-38.103-39.883-66.109-53.423zm-160.311-35.56c16.929 7.391 34.23 16.153 47.336 29.932a148.827 148.827 0 0 1 -18.236 14.007q-1.665 1.089-3.345 2.216a368.448 368.448 0 0 0 -31.621-48.764c1.884.85 3.829 1.715 5.866 2.609zm-55.516-37.24c5.209 7.622 11.439 13.793 21.941 20.368 16.732 17.549 36.5 45.6 49.415 69.947-14.655 10.688-29.255 23.635-40.874 40-9.2-59.1-27.909-110.119-35.784-127.491a39.911 39.911 0 0 1 4.538-2.425c.264-.119.51-.259.764-.399zm-39.564-12.06 11.67-22.083a5.134 5.134 0 0 1 4.332-2.763c.082 0 .174-.007.277-.007a5.11 5.11 0 0 1 4.334 2.293l14.088 20.872a2.19 2.19 0 0 1 .3 1.841 2.146 2.146 0 0 1 -1.189 1.389 43.434 43.434 0 0 0 -13.922 9.684 2.8 2.8 0 0 1 -3.988.177 43.211 43.211 0 0 0 -14.7-8.3 2.144 2.144 0 0 1 -1.305-1.254 2.191 2.191 0 0 1 .103-1.849zm-119.467 251.364c-9.164-22.213-12.733-47.678-10.318-73.641 5.007-53.838 34.512-100.788 73.418-116.831.634-.261 1.242-.527 1.861-.79-21.557 31.81-37.006 69.667-43.429 107.359-8.614 50.554-.65 98.447 23.016 139.96a126.968 126.968 0 0 1 -44.548-56.057zm66.929 68.587c-39.638-54.3-40.169-111.731-33.567-150.474 7.516-44.109 28.98-90.249 57.461-123.594 15.1-10.769 22.661-21.913 28.1-30.6a33.835 33.835 0 0 1 5.065 2.558 558.954 558.954 0 0 0 -34.912 113.987c-14.136 74.164-10.429 140.8 10.984 198.282a174.868 174.868 0 0 1 -33.131-10.159zm101.132 14.59a189.777 189.777 0 0 0 17.573-40.6 151.114 151.114 0 0 0 24.947 32.209 168.887 168.887 0 0 1 -42.52 8.391zm148.245 22.909c-69.746 0-127.623-51.574-137.234-118.45a5.871 5.871 0 0 0 -5.8-5.06h-.284a5.876 5.876 0 0 0 -5.8 6.737 148.455 148.455 0 0 0 10.22 36.732c-3.969 19.562-12.156 39.461-23.795 57.844a261.5 261.5 0 0 1 -39.741-2.712c-22.892-56.863-27.28-123.607-13.011-198.466a546.9 546.9 0 0 1 33.589-110.184 14.46 14.46 0 0 0 9.577-1.375c8.662 19.915 27.931 74.4 35.606 135.788l.2-.025a126.959 126.959 0 0 0 -13.1 43.077 5.871 5.871 0 0 0 5.822 6.584h.274a5.886 5.886 0 0 0 5.825-5.215 113.19 113.19 0 0 1 19.254-51.369c11.72-17.122 28.34-32.4 52.3-48.077 23.139-15.135 40.661-34.661 49.339-54.979l4.586-10.745a3.485 3.485 0 0 1 3.214-2.168h.092a3.478 3.478 0 0 1 3.23 2.01 127.168 127.168 0 0 0 58.966 58.269c55.012 26.598 85.312 70.518 85.312 123.667 0 76.158-62.194 138.117-138.641 138.117z"/></g></svg>