<svg id="Layer_1" height="512" viewBox="0 0 512 512" width="512" xmlns="http://www.w3.org/2000/svg" data-name="Layer 1"><path d="m268.42 46.08c4.58 1.86 8.79 6.15 7.16 15.91-15.93 3.17-22.49-12.05-22.69-12.51q.66-.585 1.35-1.14a14.122 14.122 0 0 1 14.18-2.26z" fill="#8e6549"/><path d="m360.24 132.56a113.61 113.61 0 0 0 -76.03-4.53l-50.58 13.27-17.93-2.25-38.72-11.02a113.614 113.614 0 0 0 -76.03 4.53c-31.39 13.54-63.84 44.49-61.29 114.82 3.74 103.37 71.54 167.93 106.5 184.79 11.55 5.57 21.1 8.37 32.94 8.94 10.36.51 23.77-1.99 36.24-4.69a58.536 58.536 0 0 1 16.58-1.42l185.5-230.92c-10.42-43.27-35.02-61.96-57.18-71.52z" fill="#689b2d"/><path d="m217.96 123.78c.57-3.16 1.21-6.39 1.93-9.65 1.06-4.79 2.31-9.66 3.78-14.51 5.75-19.02 14.84-37.75 29.22-50.14.2.46 6.76 15.68 22.69 12.51 0 0-34.58 28.76-41.95 79.31a133.4 133.4 0 0 0 -.74 32.19 27.6 27.6 0 0 1 -3.88.06s-6.73.69-15.2-3.65a252.491 252.491 0 0 1 1.89-30.85c.57-4.79 1.31-9.93 2.26-15.27z" fill="#7f5f47"/><path d="m219.89 114.13c-.72 3.26-1.36 6.49-1.93 9.65-55.25-4.33-101.28-36.46-145.99-13.27-33.03 17.13-47.77 13.83-53.22 10.94a3.265 3.265 0 0 1 -1.34-4.47c87.72-158.71 206.26-17.36 206.26-17.36-1.47 4.85-2.72 9.72-3.78 14.51z" fill="#4ca987"/><path d="m417.42 204.08a216.362 216.362 0 0 0 -36.04-12.64h-.01l-14.15-1.89c-54.19-3.07-67.46-.57-95.84 8.75v.01c8.18-2.5 16.05-3.21 23.06-1.87 24.43 4.65 38.58 20.33 46.78 37.41.08.17.16.33.24.5l35.26 1.56c.14-.17.27-.34.42-.5 13.59-16.5 33.66-28.28 62.24-18.94a46.1 46.1 0 0 1 7.17 3.06 231.409 231.409 0 0 0 -29.13-15.45z" fill="#436f1e"/><path d="m374.22 163.63 12.96 6.5s-2.97 11.05-5.8 21.31h-.01c-1.52 5.49-3 10.76-3.98 13.98-4.39 14.46-2.23 23.18-.67 30.49-.62.76-1.23 1.54-1.82 2.32-2.87 3.79-7.63.58-10.66-2.19a6.606 6.606 0 0 0 -6.73-1.32c-5.17 1.89-13.87 4.24-16.05-.37 7.01-6.41 11.46-7.17 16.2-19.96 5.81-15.7 6.41-14.36 9.56-24.84 1.49-4.97 3.55-12.58 7-25.92z" fill="#7f5f47"/><path d="m446.57 219.54a.031.031 0 0 1 -.02-.01 46.1 46.1 0 0 0 -7.17-3.06c-28.58-9.34-48.65 2.44-62.24 18.94-.15.16-.28.33-.42.5-.62.76-1.23 1.54-1.82 2.32-2.87 3.79-7.63.58-10.66-2.19a6.606 6.606 0 0 0 -6.73-1.32c-5.17 1.89-13.87 4.24-16.05-.37-.08-.17-.16-.33-.24-.5-8.2-17.08-22.35-32.76-46.78-37.41-7.01-1.34-14.88-.63-23.06 1.87-30.4 9.24-64.98 43.12-74.65 88.25-11.34 52.9 3.47 119.08 35.19 148.44 12.43 11.51 27.46 17.36 44.52 14.56 14.19-2.34 24.46-10.09 31.69-18.59a80.074 80.074 0 0 0 14.9-27.44c-.22 1.04-3.53 17.68 3.57 34.69a51.755 51.755 0 0 0 19.29 23.32c52.64 35.48 128.74-42.62 146.02-118.45 12.47-54.7-14.88-107.54-45.34-123.55z" fill="#f7e8a9"/><path d="m323.03 403.53a80.074 80.074 0 0 1 -14.9 27.44c5.26-18.23-7.35-42.21-15.15-54.65a61.063 61.063 0 0 1 -9.41-28.35c-1.54-23.5 10.54-31.72 19.12-37.23a75.452 75.452 0 0 0 31.41-42.71c3.76-13.04 7.04-26.53 7.12-34.18.08.17.16.33.24.5 2.18 4.61 10.88 2.26 16.05.37a6.606 6.606 0 0 1 6.73 1.32c3.03 2.77 7.79 5.98 10.66 2.19.59-.78 1.2-1.56 1.82-2.32.14-.17.27-.34.42-.5-2.73 7.15-5.51 29.68-6.79 43.18a75.292 75.292 0 0 0 13.6 51.2c5.96 8.25 14.2 20.29 4.16 41.61a61.277 61.277 0 0 1 -19.15 22.97c-11.82 8.74-40.59 24.96-42.36 43.85-7.1-17.01-3.79-33.65-3.57-34.69z" fill="#f8cf69"/><path d="m364.91 328.62s14.23 34.95-4.33 33.61c-19.76-1.43 4.33-33.61 4.33-33.61z" fill="#6d6653"/><path d="m323.06 319.81s-1.16 40.13-17.54 29.03c-15.39-10.43 17.54-29.03 17.54-29.03z" fill="#6d6653"/><path d="m69.66 247.38c-2.55-70.33 29.9-101.28 61.29-114.82a110.151 110.151 0 0 1 29.116-8 112.384 112.384 0 0 0 -59.116 8c-31.39 13.54-63.84 44.49-61.29 114.82 3.74 103.37 71.54 167.93 106.5 184.79 11.55 5.57 21.1 8.37 32.94 8.94a96.5 96.5 0 0 0 18.71-1.351 88.215 88.215 0 0 1 -21.65-7.589c-34.96-16.86-102.76-81.42-106.5-184.79z" fill="#517227"/><path d="m226.73 286.56c9.67-45.13 44.25-79.01 74.65-88.25.1-.03.2-.053.294-.082a68.644 68.644 0 0 0 -7.234-1.788c-7.01-1.34-14.88-.63-23.06 1.87-30.4 9.24-64.98 43.12-74.65 88.25-11.34 52.9 3.47 119.08 35.19 148.44 12.43 11.51 27.46 17.36 44.52 14.56a50.265 50.265 0 0 0 6.873-1.645 57.618 57.618 0 0 1 -21.393-12.915c-31.72-29.36-46.53-95.54-35.19-148.44z" fill="#cec28e"/><g fill="#243a54"><path d="m58.7 83.882c-3.706 2.134-7.023 4.246-9.84 6.058a6 6 0 1 0 6.493 10.092c2.7-1.735 5.864-3.753 9.333-5.75a6 6 0 1 0 -5.986-10.4z"/><path d="m77.214 271.453a6 6 0 0 0 5.291-6.634c-.44-3.9-.769-7.906-.978-11.9a6 6 0 1 0 -11.984.627c.222 4.233.571 8.478 1.037 12.618a5.988 5.988 0 0 0 6.634 5.29z"/><path d="m84.6 281.575a6 6 0 0 0 -11.79 2.236c9.635 50.8 35.3 75.434 36.384 76.458a6 6 0 0 0 8.236-8.728c-.242-.226-23.973-23.241-32.83-69.966z"/><path d="m360.15 368.216c.506.036.994.054 1.467.054 6.077 0 9.51-2.892 11.348-5.424 7.537-10.379-.763-32.215-2.5-36.487a6 6 0 0 0 -10.36-1.331 106.523 106.523 0 0 0 -7.729 12.238c-5.472 10.232-6.9 17.916-4.353 23.488 1.157 2.546 4.277 6.894 12.127 7.462zm2.893-25.518c1.392 6.4 1.42 11.434.212 13.1-.281.388-1.034.539-2.239.453a4.8 4.8 0 0 1 -2.073-.463c-.878-1.538.743-6.788 4.1-13.088z"/><path d="m326.156 314.677a6 6 0 0 0 -6.05-.087 97.765 97.765 0 0 0 -11.445 7.784c-8.653 6.883-12.981 13.195-13.23 19.3-.138 3.364.916 8.2 6.717 12.134a15.4 15.4 0 0 0 8.694 2.961 11.962 11.962 0 0 0 5.45-1.3c5.456-2.793 9.119-9.694 11.2-21.1a106.416 106.416 0 0 0 1.562-14.378 6 6 0 0 0 -2.898-5.314zm-15.31 30.1c-.015.015-.607.011-1.964-.909-.988-.67-1.48-1.245-1.461-1.709.081-2.038 3.234-5.961 8.311-10.121-1.295 6.945-3.28 12.122-4.886 12.743z"/><path d="m449.476 214.279a234 234 0 0 0 -26.949-14.479c-9.255-35.54-28.884-59.366-59.911-72.747a119.823 119.823 0 0 0 -79.984-4.812l-41.439 10.87a128.287 128.287 0 0 1 15.384-38.226c10.865-18.148 22.731-28.185 22.849-28.285l-.009-.011a5.981 5.981 0 0 0 2.083-3.607c.85-5.085 1.5-17.453-10.825-22.461a20.072 20.072 0 0 0 -20.232 3.179c-12.321 10.056-22.106 24.915-29.258 44.353-16.876-17.294-61.628-56.953-112.938-51.988-37.136 3.593-69.465 29.835-96.091 78.009a9.273 9.273 0 0 0 3.777 12.674 29.582 29.582 0 0 0 14.078 3.073c9.987 0 24.315-3.4 44.719-13.984 26.734-13.868 54.14-6.373 85.872 2.3l3.22.879a118.883 118.883 0 0 0 -65.244 8.03c-56.378 24.317-66.419 78.978-64.913 120.554a237.91 237.91 0 0 0 42.623 128.056c22.92 32.789 49.776 53.484 67.267 61.917 12.814 6.18 23.029 8.943 35.257 9.534q1.47.07 3 .07c10.629 0 23.453-2.442 34.794-4.894a53.815 53.815 0 0 1 12.912-1.381c14.185 12.384 30.61 17.42 47.893 14.579 19.387-3.186 32.075-15.182 40-26.68a58.112 58.112 0 0 0 25.128 37.717 56.44 56.44 0 0 0 32.037 9.835 71.739 71.739 0 0 0 26.4-5.374c42.575-16.849 84.186-71.256 96.789-126.556 12.741-55.906-14.471-112.375-48.289-130.144zm-183.318-162.642a5.3 5.3 0 0 1 3.676 4.682 13.551 13.551 0 0 1 -8.721-4.936 7.774 7.774 0 0 1 5.045.254zm-14.389 7.245a27.2 27.2 0 0 0 10.631 7.836 145.965 145.965 0 0 0 -15.86 21.571 139.414 139.414 0 0 0 -20.1 79.246 25.378 25.378 0 0 1 -6.605-1.524c.298-15.711 3.325-76.366 31.934-107.129zm-88 47.684c-32.74-8.952-63.664-17.408-94.563-1.381-26.286 13.63-39.433 13.377-45.006 11.945 24.259-42.73 52.9-65.977 85.158-69.117 51.088-4.966 97.356 41.9 107.612 53.093q-.453 1.6-.884 3.239c-29.727-19.486-57.725-31.216-83.316-34.863-21.37-3.046-40.911-.682-59.725 7.235a6 6 0 1 0 4.655 11.06c38.329-16.119 82.682-6.608 135.49 29.05-.031.151-.063.3-.094.451-17.122-1.914-33.471-6.378-49.328-10.712zm47.231 22.553q-.174 1.137-.336 2.256l-19.379-5.514c6.43 1.349 12.991 2.48 19.715 3.258zm91.684 298.881c-6.433 7.248-15.3 13.682-27.216 15.64-15.62 2.566-29.955-2.859-42.6-16.13-22.743-23.866-35.76-69.81-33.668-112.91a6.014 6.014 0 0 0 -5.991-6.335h-.029a6.006 6.006 0 0 0 -6 5.687c-2.206 43.141 9.808 88.26 31.694 115.712-1.806.28-3.431.6-4.795.892-11.67 2.523-24.908 5.041-34.68 4.566-10.5-.508-19.372-2.929-30.626-8.356-16.125-7.776-41.05-27.091-62.644-57.984a225.931 225.931 0 0 1 -40.472-121.618c-1.112-30.689 4.6-56 16.969-75.243 9.621-14.964 23.316-26.353 40.7-33.851a107.8 107.8 0 0 1 72.007-4.272l33.851 9.632c-.577 5.719-.916 10.792-1.114 14.935-15.142-14.614-35.845-5.486-36.72-5.09a6 6 0 0 0 4.951 10.932c.14-.064 14.157-6.261 23.51 2.858 12.816 12.5 26.205 12.646 29.209 12.5.314.015.762.029 1.327.029 5.022 0 19.3-1.092 31.028-12.526 9.231-9 22.922-3.116 23.533-2.848a6 6 0 0 0 4.928-10.942c-.878-.4-21.686-9.576-36.838 5.2a32.075 32.075 0 0 1 -14.585 8.046 127.543 127.543 0 0 1 .627-20.44l46.693-12.248c.04-.011.08-.021.12-.033a107.8 107.8 0 0 1 72.007 4.272c24.675 10.642 41.227 28.916 50.322 55.644-6.076-2.353-12.6-4.592-19.422-6.514 2.174-7.93 4.063-14.963 4.211-15.516a6 6 0 0 0 -3.105-6.919l-12.963-6.5a6 6 0 0 0 -8.5 3.86c-2.53 9.776-4.3 16.417-5.631 21.176-51.521-2.712-65.461.171-93.263 9.3-11.825 3.614-24.152 10.616-35.647 20.517a132.979 132.979 0 0 0 -40.162 61.403 6 6 0 0 0 11.491 3.486 122.864 122.864 0 0 1 36.51-55.8c17.419-15.006 37.2-22.626 51.614-19.878 18.65 3.549 32.712 14.61 41.853 32.843-.284 4.647-1.785 13.691-6.83 31.194a69.357 69.357 0 0 1 -28.893 39.323c-8.27 5.315-23.662 15.206-21.86 42.667a67.261 67.261 0 0 0 10.315 31.139c16.577 26.444 16.2 42.018 14.784 48.5zm108.4-220.12c-10.988 1.738-21.157 6.764-30.283 15a47.7 47.7 0 0 1 2.323-15.722c.642-2.116 1.494-5.078 2.428-8.391a212.067 212.067 0 0 1 25.536 9.113zm-41.101 25.12a17.8 17.8 0 0 1 -1.59-1.287 12.846 12.846 0 0 0 -11.669-3.007 42.144 42.144 0 0 0 6.562-12.236c2.6-7.034 4.114-10.515 5.328-13.312 2.58-5.944 3.69-8.5 9.542-30.84l1.955.98c-2.146 7.933-6.445 23.715-8.466 30.379-3.995 13.171-3.01 22.371-1.662 29.323zm-17.951-20.7c-2.78 7.513-5.134 9.832-8.715 12.711-8.073-13.994-18.954-23.978-32.516-29.825 11.647-1.133 26.154-1.158 48.18-.067-.436 1.091-.875 2.1-1.375 3.255-1.206 2.78-2.856 6.584-5.574 13.926zm-23.775 207.756a55.729 55.729 0 0 1 .648-15.285 6.05 6.05 0 0 0 .1-.617c3.29-29.315 25.146-97.881 25.366-98.571a6 6 0 1 0 -11.43-3.654c-.909 2.843-22.185 69.6-25.8 100.344a67.649 67.649 0 0 1 -3.062 7.9c-2.96-14.307-10.518-28.259-16.024-37.038a55.216 55.216 0 0 1 -8.5-25.552c-1.34-20.4 8.481-26.715 16.373-31.787a81.355 81.355 0 0 0 33.939-46.096 242.116 242.116 0 0 0 6.433-26.7c3.361.125 7.686-.6 13.265-2.638a.64.64 0 0 1 .645.128 20.967 20.967 0 0 0 8.377 5.037c-2.312 12.988-3.961 29.956-4.2 32.506a81.146 81.146 0 0 0 14.7 55.267c5.485 7.592 12.312 17.039 3.591 35.543a55.4 55.4 0 0 1 -17.283 20.7c-1.833 1.355-4.107 2.908-6.74 4.707-9.555 6.524-22.33 15.256-30.398 25.806zm157.807-78.3c-11.608 50.936-50.924 102.8-89.5 118.064-17.762 7.031-33.68 5.933-47.312-3.255a46.192 46.192 0 0 1 -16.472-19.145c2.389-12.591 21.229-25.463 32.648-33.263 2.619-1.789 5.094-3.478 7.106-4.968a67.429 67.429 0 0 0 21-25.23c11.739-24.908 1.032-39.726-4.719-47.687a69.152 69.152 0 0 1 -12.487-47.114c1.481-15.635 4.009-34.149 6.117-40.743 15.077-17.79 33.584-23.255 55.075-16.241 14.958 4.885 30.342 21.008 40.149 42.077a120.92 120.92 0 0 1 8.395 77.506z"/></g></svg>