<svg id="Layer_1" height="512" viewBox="0 0 512 512" width="512" xmlns="http://www.w3.org/2000/svg" data-name="Layer 1"><path d="m213.36 77.71 20.57 64.73a101 101 0 0 1 -9.37 7.68q-3.675-1.035-7.06-1.97l-14.74-40.43-11.19-30.71z" fill="#5e493b"/><path d="m180.83 105.84a4.53 4.53 0 0 1 -1.75 2.89c-14.06 10.69-66.47 48.07-109.43 46.05-46.54-2.18-52.05 7.77-52.6 9.19 1-3.98 20.59-78.04 85.21-81.56 50.31-2.74 70.55 12.16 77.41 19.55a4.534 4.534 0 0 1 1.16 3.88z" fill="#49c160"/><path d="m272.88 126.3c-18.7-3.1-28.42 6.67-38.95 16.14a101 101 0 0 1 -9.37 7.68q-3.675-1.035-7.06-1.97c-42.37-11.63-52.63-10.79-69.35-1.76-50.32 27.15-62.39 89.44-55.36 146.37 7.43 60.16 53.62 106.87 109.97 119.74 7.88 1.8 14.52 4.13 18.06 11.36 4.79 9.77 12.56 13.55 19.13 9.55 21.01-12.8 20.4.23 28.46-1.17 15.34-2.67 11.88-8.33 14.03-16.62.88-3.4 1.69-3.99 3.8-6.71v-.01l43.28-249.08c-15.32-16.61-35.88-30.07-56.64-33.52z" fill="#87d770"/><path d="m487.54 243.61c28.24 81.97-25.93 222.6-125.05 177.11a37.8 37.8 0 0 0 -21.44-3c-22.2 3.4-40.38-.25-54.81-8.82-55.68-33.05-55.62-139.26-16.03-195.69 22.77-32.45 42.89-47.52 59.31-53.39 20.76-7.43 35.62-.18 42.49 5.24 8.68 6.84 22.15 10.58 31.02 4.34 10.49-6.29 55.32-10.54 84.51 74.21z" fill="#70ae6a"/><path d="m463.23 255.18c23.04 66.88-21.16 181.61-102.02 144.5a30.786 30.786 0 0 0 -17.5-2.45c-87.99 13.49-98.46-108.88-57.78-166.85 42.05-59.93 73-47.21 83.05-39.29 7.07 5.59 18.16 8.59 25.3 3.54 8.56-5.13 45.13-8.59 68.95 60.55z" fill="#e27988"/><path d="m412.99 229.81a8.666 8.666 0 1 1 -9.84 7.37 8.668 8.668 0 0 1 9.84-7.37z" fill="#6d6653"/><path d="m422.99 266.88a8.666 8.666 0 1 1 -9.84 7.38 8.677 8.677 0 0 1 9.84-7.38z" fill="#6d6653"/><path d="m416.81 310.62a8.665 8.665 0 1 1 -9.84 7.37 8.662 8.662 0 0 1 9.84-7.37z" fill="#6d6653"/><path d="m393.05 351.89a8.665 8.665 0 1 1 -9.83 7.37 8.668 8.668 0 0 1 9.83-7.37z" fill="#6d6653"/><path d="m322.73 342.05a8.665 8.665 0 1 1 -9.83 7.38 8.677 8.677 0 0 1 9.83-7.38z" fill="#6d6653"/><path d="m311.33 295.86a8.666 8.666 0 1 1 -9.84 7.38 8.677 8.677 0 0 1 9.84-7.38z" fill="#6d6653"/><path d="m317.51 252.13a8.666 8.666 0 1 1 -9.84 7.37 8.677 8.677 0 0 1 9.84-7.37z" fill="#6d6653"/><path d="m337.39 219.23a8.67 8.67 0 1 1 -9.83 7.38 8.677 8.677 0 0 1 9.83-7.38z" fill="#6d6653"/><path d="m232.76 412.5c-56.35-12.87-102.54-59.58-109.97-119.74-7.03-56.93 5.04-119.22 55.36-146.37a62.9 62.9 0 0 1 11.378-5c-20.374-3.819-29.158-1.6-41.378 5-50.32 27.15-62.39 89.44-55.36 146.37 7.43 60.16 53.62 106.87 109.97 119.74 7.88 1.8 14.52 4.13 18.06 11.36 4.79 9.77 12.56 13.55 19.13 9.55 5.887-3.587 10.076-5.144 13.234-5.56a29.129 29.129 0 0 1 -2.364-3.99c-3.54-7.23-10.18-9.56-18.06-11.36z" fill="#78b763"/><path d="m315.93 230.38c17.911-25.527 33.806-37.867 46.932-43.018-13.76-6.388-41.377-7.655-76.932 43.018-40.68 57.97-30.21 180.34 57.78 166.85a30.826 30.826 0 0 1 3.343-.306c-63.029-12.797-67.253-115.061-31.123-166.544z" fill="#ba6777"/><g fill="#243a54"><path d="m58.263 125.346a179.45 179.45 0 0 0 -17.2 10.491 6 6 0 1 0 6.825 9.871 167.342 167.342 0 0 1 16.039-9.786 6 6 0 0 0 -5.668-10.576z"/><path d="m118.2 252.1c.123.007.245.011.367.011a6 6 0 0 0 5.984-5.639c.279-4.627.708-9.354 1.275-14.049a6 6 0 0 0 -11.914-1.439c-.6 4.932-1.046 9.9-1.34 14.765a6 6 0 0 0 5.628 6.351z"/><path d="m124.16 263.072a6 6 0 0 0 -6-5.911h-.091a6 6 0 0 0 -5.91 6.088c.494 33.42 8.369 58.6 14.888 73.835a6 6 0 0 0 11.033-4.72c-6.092-14.243-13.454-37.828-13.92-69.292z"/><path d="m419.323 188.81c-12.391-4.517-22.9-2.458-28.128.677-.13.078-.255.161-.38.248-4.519 3.2-12.924.748-18.121-3.351a40.017 40.017 0 0 0 -30.676-7.681c-20.09 2.944-40.615 19.17-61 48.228-28.264 40.269-32.018 106.707-8.207 145.069 13.081 21.072 33.424 32.23 58.169 32.229a90.146 90.146 0 0 0 13.642-1.072 24.726 24.726 0 0 1 14.087 1.969c11.189 5.136 22.255 7.682 32.887 7.682 16.387 0 31.747-6.051 44.938-18 33.523-30.373 48.346-95.211 32.37-141.585-15.089-43.802-35.291-59.205-49.581-64.413zm9.154 197.1c-18.227 16.514-40.621 19.388-64.762 8.308a36.659 36.659 0 0 0 -15.315-3.348 37.039 37.039 0 0 0 -5.6.427c-26.222 4.017-46.9-4.84-59.8-25.624-21.177-34.115-17.519-95.727 7.829-131.85 18.16-25.88 36.461-40.834 52.922-43.247 11.323-1.656 18.811 3.105 21.5 5.229 11.585 9.139 24.907 8.88 32.235 3.9 1.97-1.089 8.57-2.953 17.717.38 11.839 4.315 28.8 17.715 42.345 57.046 14.337 41.586.752 101.769-29.071 128.783z"/><path d="m334.137 242.338a14.874 14.874 0 0 0 2.052.143 14.72 14.72 0 0 0 14.555-12.62 14.671 14.671 0 0 0 -12.521-16.569 14.722 14.722 0 0 0 -16.608 12.478 14.675 14.675 0 0 0 12.522 16.568zm-.639-14.889a2.7 2.7 0 0 1 2.679-2.3 2.751 2.751 0 0 1 .383.027 2.7 2.7 0 0 1 1.8 1.052 2.62 2.62 0 0 1 .5 1.952 2.721 2.721 0 0 1 -4.856 1.22 2.623 2.623 0 0 1 -.504-1.951z"/><path d="m314.251 275.233a14.7 14.7 0 0 0 16.608-12.477 14.672 14.672 0 0 0 -12.521-16.567 14.712 14.712 0 0 0 -16.607 12.477 14.67 14.67 0 0 0 12.52 16.568zm-.638-14.89a2.7 2.7 0 0 1 2.679-2.3 2.776 2.776 0 0 1 .384.027 2.7 2.7 0 0 1 1.794 1.05 2.632 2.632 0 0 1 .507 1.955 2.723 2.723 0 0 1 -4.858 1.22 2.631 2.631 0 0 1 -.506-1.952z"/><path d="m310.125 319.108a14.722 14.722 0 0 0 14.557-12.62 14.675 14.675 0 0 0 -12.522-16.568 14.715 14.715 0 0 0 -16.607 12.48 14.67 14.67 0 0 0 12.52 16.569 14.874 14.874 0 0 0 2.052.139zm-2.69-15.033a2.7 2.7 0 0 1 2.679-2.3 2.776 2.776 0 0 1 .384.027 2.7 2.7 0 0 1 1.794 1.05 2.629 2.629 0 0 1 .507 1.955 2.723 2.723 0 0 1 -4.858 1.22 2.631 2.631 0 0 1 -.506-1.952z"/><path d="m323.562 336.111a14.713 14.713 0 0 0 -16.607 12.476 14.673 14.673 0 0 0 12.521 16.569 14.711 14.711 0 0 0 16.608-12.477 14.675 14.675 0 0 0 -12.522-16.567zm.638 14.889a2.722 2.722 0 0 1 -4.857 1.219 2.622 2.622 0 0 1 -.506-1.954 2.7 2.7 0 0 1 2.679-2.3 2.615 2.615 0 0 1 .383.027 2.7 2.7 0 0 1 1.794 1.05 2.627 2.627 0 0 1 .507 1.958z"/><path d="m409.731 252.911a14.884 14.884 0 0 0 2.052.143 14.722 14.722 0 0 0 14.556-12.62 14.673 14.673 0 0 0 -12.521-16.568 14.716 14.716 0 0 0 -16.608 12.476 14.673 14.673 0 0 0 12.521 16.569zm-.638-14.889a2.693 2.693 0 0 1 2.678-2.3 2.639 2.639 0 0 1 .384.027 2.7 2.7 0 0 1 1.8 1.051 2.62 2.62 0 0 1 .506 1.952 2.722 2.722 0 0 1 -4.857 1.221 2.624 2.624 0 0 1 -.511-1.951z"/><path d="m423.818 260.941a14.724 14.724 0 0 0 -16.607 12.477 14.673 14.673 0 0 0 12.521 16.568 14.711 14.711 0 0 0 16.608-12.477 14.674 14.674 0 0 0 -12.522-16.568zm.639 14.889a2.721 2.721 0 0 1 -4.857 1.22 2.62 2.62 0 0 1 -.506-1.952 2.694 2.694 0 0 1 2.678-2.3 2.776 2.776 0 0 1 .384.027 2.7 2.7 0 0 1 1.794 1.051 2.622 2.622 0 0 1 .507 1.954z"/><path d="m417.641 304.673a14.721 14.721 0 0 0 -16.608 12.477 14.673 14.673 0 0 0 12.522 16.568 14.71 14.71 0 0 0 16.607-12.477 14.674 14.674 0 0 0 -12.521-16.568zm.638 14.889a2.722 2.722 0 0 1 -4.857 1.22 2.62 2.62 0 0 1 -.506-1.952 2.7 2.7 0 0 1 2.679-2.3 2.923 2.923 0 0 1 .383.026 2.7 2.7 0 0 1 1.794 1.052 2.618 2.618 0 0 1 .507 1.954z"/><path d="m393.884 345.947a14.71 14.71 0 0 0 -16.609 12.476 14.673 14.673 0 0 0 12.52 16.568 14.9 14.9 0 0 0 2.054.143 14.72 14.72 0 0 0 14.555-12.62 14.672 14.672 0 0 0 -12.52-16.567zm.637 14.888a2.722 2.722 0 0 1 -4.857 1.221 2.625 2.625 0 0 1 -.506-1.954 2.7 2.7 0 0 1 2.679-2.3 2.787 2.787 0 0 1 .384.027 2.7 2.7 0 0 1 1.794 1.051 2.622 2.622 0 0 1 .506 1.955z"/><path d="m349.092 246.35c-1.2 1.262-29.238 31.412-10.881 75.082 3.679 8.754 5.96 16.392 6.779 22.7a6 6 0 0 0 5.943 5.227 6.065 6.065 0 0 0 .78-.05 6 6 0 0 0 5.178-6.723c-.958-7.376-3.521-16.058-7.618-25.805-15.228-36.225 7.5-61.084 8.519-62.167a6 6 0 0 0 -8.7-8.265z"/><path d="m395.038 254.569a6 6 0 0 0 -10.637 5.557c.161.309 15.822 31.189-9.048 62.077-6.638 8.244-11.506 15.885-14.469 22.712a6 6 0 1 0 11.008 4.778c2.535-5.841 6.844-12.558 12.808-19.964 29.742-36.939 11.144-73.617 10.338-75.16z"/><path d="m433.259 163.533c-14.74-5.373-27.161-2.971-33.318.72-.125.075-.247.155-.366.238-6.385 4.492-17.052 1.219-23.845-4.14-4.66-3.676-17.542-11.924-36.565-9.138a59.631 59.631 0 0 0 -7.914 1.738c-17.1-17.513-37.823-29.32-57.384-32.565-17.109-2.84-27.983 3.826-37.012 11.44l-17.781-55.937a6 6 0 0 0 -5.527-4.18l-21.79-.692a6 6 0 0 0 -5.827 8.052l7.854 21.548c-2.368-.217-5.114-.43-8.194-.607a10.523 10.523 0 0 0 -1.521-2.137c-8.559-9.215-30.619-24.256-82.131-21.451-29.138 1.588-54.123 17.126-72.238 44.935a147.279 147.279 0 0 0 -18.519 41.321c-.017.064-.031.125-.043.184a6 6 0 0 0 11.382 3.63c.955-.955 8.93-7.5 46.849-5.716 44.7 2.106 98.059-35.649 113.341-47.269a10.56 10.56 0 0 0 1.567-1.47c6.267.325 11.1.806 14.092 1.157l9.551 26.2c-33.425-8.523-45.363-7.6-62.624 1.713-24.829 13.4-42.34 35.421-52.044 65.455-8.119 25.126-10.338 55.187-6.416 86.934 7.5 60.738 53.552 110.912 114.585 124.854 7.317 1.671 11.718 3.465 14.014 8.15 3.534 7.207 8.7 12.117 14.556 13.824a16.156 16.156 0 0 0 4.534.653 16.373 16.373 0 0 0 8.551-2.446c10.722-6.535 13.03-5 15.707-3.224 2.232 1.482 5.6 3.721 10.657 2.842 15.18-2.639 17.178-9.171 18.1-16.8a31.775 31.775 0 0 1 .7-4.223c.019-.071.033-.125.051-.19 9.986 4.93 22.027 8.076 36.526 8.076a113.3 113.3 0 0 0 17.207-1.371 32 32 0 0 1 18.144 2.617c13.563 6.2 26.85 9.313 39.657 9.313a76.6 76.6 0 0 0 12.271-.98c15.193-2.46 29.259-9.471 41.808-20.841 40.73-36.9 58.73-115.715 39.306-172.1-18.316-53.18-42.71-71.834-59.951-78.117zm-365.1-36.592a5.994 5.994 0 0 0 7.91 3.059c31.507-13.928 64.372-17.771 88.6-18.265a299.962 299.962 0 0 1 -32.217 19.453c-24.225 12.489-45.261 18.407-62.52 17.6-18.123-.851-32.293 0-42.254 2.534 8.767-21.619 30.616-60.507 74.912-62.919q6.093-.332 11.565-.325c27.743 0 43.932 5.965 52.984 11.5-25.558.254-61.173 4.088-95.921 19.45a6 6 0 0 0 -3.062 7.913zm132.082-43.648 8.683.276 18.1 56.954c-1.213 1.048-2.436 2.061-3.683 3.025l-1.271-.357-13.64-37.431-.01-.029zm284.39 248.047c-6.827 30.938-20.6 57.047-38.779 73.519-22.774 20.634-50.734 24.235-80.852 10.411a43.617 43.617 0 0 0 -24.86-3.477c-32.713 5.018-58.528-6.06-74.65-32.032-9.406-15.153-15.119-34.608-16.746-56.289a5.978 5.978 0 1 0 -11.921.917c1.788 22.985 7.877 44.633 18.472 61.7a85.654 85.654 0 0 0 22.525 24.553 21.092 21.092 0 0 0 -1.189 3.477 42.84 42.84 0 0 0 -1 5.791c-.216 1.787-.4 3.331-.883 3.878-.392.447-1.9 1.59-7.36 2.54-.236.039-.341.059-1.966-1.019-5.742-3.811-12.679-6.72-28.588 2.977a4.1 4.1 0 0 1 -3.479.519c-2.5-.729-5.169-3.565-7.14-7.585-4.847-9.888-13.958-12.7-22.118-14.569-56.125-12.819-98.461-58.884-105.347-114.625-3.709-30.024-1.66-58.3 5.924-81.774 8.723-26.992 24.309-46.7 46.325-58.584 11.825-6.38 19.043-8.9 47.972-2.087-.388-.008-.773-.016-1.143-.028a6.007 6.007 0 0 0 -.421 12.006c8.108.293 21.722-.308 30.6-6.526a118.408 118.408 0 0 0 11.424-9.473c9.78-8.839 17.5-15.817 32.477-13.337 15.778 2.617 32.618 11.8 47.176 25.561-17.792 8.979-35.8 26.37-53.775 51.98-14.755 21.026-24.009 47.913-27.485 75.44a5.974 5.974 0 0 0 5.942 6.695h.09a5.971 5.971 0 0 0 5.921-5.217c3.406-26.531 12.4-51.563 25.354-70.026 22.48-32.034 45.226-50.559 65.78-53.571 14.4-2.112 23.953 3.973 27.393 6.687 10.064 7.939 26.19 12.759 37.955 4.69 2.541-1.426 11.15-3.937 22.9.345 14.789 5.389 35.939 22.04 52.72 70.753 8.392 24.393 9.399 55.658 2.752 85.78z"/></g></svg>