<svg id="Layer_1" height="512" viewBox="0 0 512 512" width="512" xmlns="http://www.w3.org/2000/svg" data-name="Layer 1"><path d="m254.55 31.93c-.2 9.96-21.53 18.01-47.8 18.01-26.4 0-49.41-11.75-45.71-23.5-82.36 22.94-144.04 117.01-144.04 229.56 0 129.74 81.96 234.91 183.06 234.91 29.13 0 59.41-9.64 83.86-25.18l89.36-285.92c-19.13-69.63-63.42-125.34-118.73-147.88z" fill="#8e5b44"/><path d="m373.28 179.81c69.02 11.71 121.72 74.56 121.72 150.33 0 84.09-64.93 152.27-145.02 152.27a138.911 138.911 0 0 1 -66.06-16.68c-46.88-25.23-78.97-76.48-78.97-135.59 0-84.1 64.93-152.28 145.03-152.28a140 140 0 0 1 23.3 1.95z" fill="#623f26"/><path d="m349.98 201.9c66.94 0 121.21 57.42 121.21 128.24s-54.27 128.23-121.21 128.23-121.22-57.41-121.22-128.23 54.27-128.24 121.22-128.24z" fill="#90ba65"/><path d="m47 256c0-100 48.691-185.4 117.313-219.3-3.073-3.21-4.384-6.735-3.273-10.263-82.36 22.943-144.04 117.013-144.04 229.563 0 129.74 81.96 234.91 183.06 234.91a139.007 139.007 0 0 0 14.732-.82c-93.955-9.957-167.792-110.95-167.792-234.09z" fill="#6b4637"/><path d="m258.76 330.14c0-65.446 46.348-119.444 106.219-127.263a115.745 115.745 0 0 0 -15-.977c-66.95 0-121.22 57.42-121.22 128.24s54.27 128.23 121.22 128.23a115.922 115.922 0 0 0 15-.977c-59.871-7.817-106.219-61.807-106.219-127.253z" fill="#799657"/><path d="m254.55 31.93c-.2 9.96-21.53 18.01-47.8 18.01-26.4 0-49.41-11.75-45.71-23.5a145.138 145.138 0 0 1 39.02-5.35 143.461 143.461 0 0 1 54.49 10.84z" fill="#674329"/><g fill="#243a54"><path d="m318.829 333.71a6 6 0 0 0 -6-6h-50.1a6 6 0 0 0 0 12h50.1a6 6 0 0 0 6-6z"/><path d="m382.681 333.71a6 6 0 0 0 6 6h50.1a6 6 0 0 0 0-12h-50.1a6 6 0 0 0 -6 6z"/><path d="m350.755 299.208a6 6 0 0 0 6-6v-53.508a6 6 0 0 0 -12 0v53.506a6 6 0 0 0 6 6.002z"/><path d="m350.755 368.212a6 6 0 0 0 -6 6v53.507a6 6 0 0 0 12 0v-53.507a6 6 0 0 0 -6-6z"/><path d="m373.471 309.45a6 6 0 0 0 8.481-.278l35.429-37.835a6 6 0 0 0 -8.76-8.2l-35.429 37.833a6 6 0 0 0 .279 8.48z"/><path d="m328.038 357.97a6 6 0 0 0 -8.48.278l-35.428 37.835a6 6 0 0 0 8.76 8.2l35.427-37.835a6 6 0 0 0 -.279-8.478z"/><path d="m381.952 358.248a6 6 0 0 0 -8.76 8.2l35.429 37.835a6 6 0 0 0 8.76-8.2z"/><path d="m319.558 309.172a6 6 0 1 0 8.759-8.2l-35.427-37.837a6 6 0 1 0 -8.76 8.2z"/><path d="m321.248 280.219 3.3 8.378a6 6 0 0 0 11.168-4.393l-3.3-8.377a6 6 0 0 0 -11.168 4.392z"/><path d="m376.125 388.3-3.3-8.377a6 6 0 0 0 -11.168 4.392l3.3 8.378a6 6 0 0 0 11.168-4.393z"/><path d="m398.889 305.443-7.845 3.519a6 6 0 1 0 4.91 10.949l7.845-3.518a6 6 0 0 0 -4.91-10.95z"/><path d="m301.419 348.6-7.845 3.519a6 6 0 1 0 4.91 10.949l7.845-3.519a6 6 0 1 0 -4.91-10.949z"/><path d="m365.106 292.006a6 6 0 0 0 7.749-3.461l3.216-8.412a6 6 0 0 0 -11.209-4.286l-3.216 8.412a6 6 0 0 0 3.46 7.747z"/><path d="m332.266 376.508a6 6 0 0 0 -7.747 3.461l-3.217 8.412a6 6 0 1 0 11.209 4.286l3.217-8.412a6 6 0 0 0 -3.462-7.747z"/><path d="m398.976 363.017a6 6 0 1 0 4.8-11l-7.876-3.435a6 6 0 1 0 -4.8 11z"/><path d="m298.4 305.5a6 6 0 1 0 -4.8 11l7.876 3.435a6 6 0 1 0 4.8-11z"/><path d="m349.976 195.9c-70.148 0-127.216 60.216-127.216 134.232s57.068 134.232 127.216 134.232 127.215-60.217 127.215-134.232-57.068-134.232-127.215-134.232zm0 256.464c-63.531 0-115.216-54.833-115.216-122.232s51.685-122.232 115.216-122.232 115.215 54.833 115.215 122.232-51.685 122.236-115.215 122.236z"/><path d="m330.49 323.47a6.024 6.024 0 1 0 4.25-1.75 6.086 6.086 0 0 0 -4.25 1.75z"/><path d="m365.66 321.39a5.987 5.987 0 1 0 4.239-1.76 6.03 6.03 0 0 0 -4.239 1.76z"/><path d="m368.649 351.77a6 6 0 1 0 -4.25 1.76 6.04 6.04 0 0 0 4.25-1.76z"/><path d="m351.22 309.2a6.009 6.009 0 1 0 4.24 1.76 6.012 6.012 0 0 0 -4.24-1.76z"/><path d="m343.37 344.33a6 6 0 1 0 1.76 4.25 6.044 6.044 0 0 0 -1.76-4.25z"/><path d="m280.89 310.77a5.99 5.99 0 1 0 -4.241-1.75 6.044 6.044 0 0 0 4.241 1.75z"/><path d="m416.05 357.18a5.992 5.992 0 1 0 4.24 1.75 6.044 6.044 0 0 0 -4.24-1.75z"/><path d="m320.4 270.15a6.011 6.011 0 1 0 -4.239-1.76 6.03 6.03 0 0 0 4.239 1.76z"/><path d="m377.64 398.84a6.009 6.009 0 1 0 4.24 1.76 6.058 6.058 0 0 0 -4.24-1.76z"/><path d="m376.55 268.84a6.009 6.009 0 1 0 -4.24-1.76 6.012 6.012 0 0 0 4.24 1.76z"/><path d="m320.39 398.07a6.009 6.009 0 1 0 4.24 1.76 6.033 6.033 0 0 0 -4.24-1.76z"/><path d="m412.62 300.57a6 6 0 1 0 4.239-1.76 6.013 6.013 0 0 0 -4.239 1.76z"/><path d="m287.18 363.14a6.009 6.009 0 1 0 -1.76 4.24 6.029 6.029 0 0 0 1.76-4.24z"/><path d="m378.043 174.613c-12.88-44.511-36.5-84.451-66.774-112.788-32.669-30.576-71.123-46.737-111.209-46.737-50.788 0-98.438 25.256-134.175 71.116-35.394 45.418-54.885 105.719-54.885 169.796s19.491 124.378 54.885 169.8c35.737 45.86 83.387 71.116 134.175 71.116 28.135 0 58.593-8.848 84.137-24.322a144.457 144.457 0 0 0 65.779 15.82c83.275 0 151.024-71 151.024-158.274 0-77.227-53.048-141.7-122.957-155.527zm-177.983-147.525a137.133 137.133 0 0 1 45.93 7.969c-5.291 3.933-18.678 8.879-39.245 8.879-18.718 0-34.56-6.357-39.062-12.5-.111-.15-.194-.287-.283-.426a138.5 138.5 0 0 1 32.66-3.922zm149.916 449.322c-69.046 0-126.5-53.234-137.225-122.742a6 6 0 1 0 -11.844 1.87c7.219 46.7 34 86.609 71.223 110.172-22.418 12.271-48.178 19.2-72.07 19.2-97.631.002-177.06-102.687-177.06-228.91 0-106.436 56.479-196.136 132.724-221.644a18.047 18.047 0 0 0 2.276 4.169c7.511 10.251 27.555 17.411 48.743 17.411 21.746 0 43.709-5.487 51.155-16.064a168.9 168.9 0 0 1 45.168 30.714c27.516 25.755 49.27 61.734 61.851 102.049a145.349 145.349 0 0 0 -14.943-.774c-78.77 0-143.642 63.528-150.432 144.261a5.989 5.989 0 0 0 5.985 6.458 6 6 0 0 0 5.972-5.523c6.308-74.553 66-133.2 138.474-133.2 76.661.004 139.027 65.622 139.027 146.279s-62.366 146.274-139.024 146.274z"/></g></svg>