<svg id="Layer_1" height="512" viewBox="0 0 512 512" width="512" xmlns="http://www.w3.org/2000/svg" data-name="Layer 1"><path d="m252.54 142.22a72.956 72.956 0 0 1 -11.66-8.97c-10.49-9.77-24.53-16.43-38.5-15.48a37.9 37.9 0 0 0 -7.54 1.29c-4.1 1.14-8.09 2.25-11.78 3.53-8.29 2.86-15.11 6.56-18.34 13.29l-73.55 104.83s-19.43 178.6 121.36 209.64a106.987 106.987 0 0 1 30.55 11.82c9.29 5.37 22.02 11.02 33.22 9.97 5.7-.53 10.82-4.86 14.95-9.56 11-12.5 31.84-16.39 37.86-28.84l.81-243.57c-33.24-28.71-69.65-43.23-77.38-47.95z" fill="#eedf6f"/><path d="m273.08 462.17a106.987 106.987 0 0 0 -30.55-11.82c-52.8-11.64-83.062-44.031-100.27-79.972-28.267-59.039-21.637-128.889 15.959-182.473l36.5-52.025c3.23-6.73 10.05-10.43 18.34-13.29 2.247-.779 4.613-1.494 7.039-2.192a44.031 44.031 0 0 0 -17.719-2.628 37.9 37.9 0 0 0 -7.54 1.29c-4.1 1.14-8.09 2.25-11.78 3.53-8.29 2.86-15.11 6.56-18.34 13.29l-73.549 104.83s-19.43 178.6 121.36 209.64a106.987 106.987 0 0 1 30.55 11.82c9.29 5.37 22.02 11.02 33.22 9.97a17.963 17.963 0 0 0 9.047-3.932 97.232 97.232 0 0 1 -12.267-6.038z" fill="#ccbe6d"/><path d="m202.38 117.77a37.9 37.9 0 0 0 -7.54 1.29c-4.1 1.14-8.09 2.25-11.78 3.53a331.977 331.977 0 0 1 -6.36-33.67c-2.01-15.06-2.96-31.93.25-43.26l14.72-5.93s1.5 73.33 10.71 78.04z" fill="#c79a83"/><path d="m163 92.69a3.183 3.183 0 0 1 .91 1.9c2.08 18.9 3.76 29.61.81 41.29-3.66 14.41-14.4 30.3-40.24 64.89-7.65 10.24-15.38 19.65-22.93 28.09l-10.38 11.85-38.88 44.35a3.921 3.921 0 0 1 -6.7-1.46l-22.8-76.34a134.4 134.4 0 0 1 -5.79-37.66c-.51-102.59 125.63-81.5 144.34-77.81a3.119 3.119 0 0 1 1.66.9z" fill="#4ca987"/><path d="m367.19 184.67c70.59 0 127.81 57.04 127.81 127.41s-57.22 127.41-127.81 127.41a127.41 127.41 0 1 1 0-254.82z" fill="#d3ce56"/><path d="m462.52 299.64c12.82 20.34 8.13 57.03-13.86 64.19a11.123 11.123 0 0 0 -3.24-3.58l-63.63-43.67a13.134 13.134 0 0 0 .87-4.71 13.3 13.3 0 0 0 -.26-2.62l67.87-13.98c.02 0 .03-.01.05-.02l.61-.12c3.99-.81 9.42 1.08 11.59 4.51z" fill="#e0c863"/><path d="m427.1 235.15c30.24 6.01 47.89 53.56 23.22 60.1-.02.01-.03.02-.05.02l-67.87 13.98a13.261 13.261 0 0 0 -4.91-7.89l38.34-60.96a12.126 12.126 0 0 1 11.27-5.25z" fill="#f7df69"/><path d="m448.66 363.83a11.539 11.539 0 0 1 1.62 7.83c-6.74 33.07-51.77 43.99-62.31 28.65l-13.96-75.99a13.321 13.321 0 0 0 7.78-7.74l63.63 43.67a11.123 11.123 0 0 1 3.24 3.58z" fill="#f7df69"/><path d="m353.18 216.94c25.47-17.37 71.44.89 65.99 20.16a11.189 11.189 0 0 0 -3.34 3.3l-38.34 60.96a13.243 13.243 0 0 0 -8.18-2.8 13.066 13.066 0 0 0 -3.21.39l-17.02-70.3a10.358 10.358 0 0 1 -.26-2.76c.12-3.43 1.74-7.16 4.36-8.95z" fill="#e0c863"/><path d="m387.97 400.31c.78 3.98-1.11 9.45-4.62 11.51-18.4 10.81-74.27-4-67.97-23.01a11.518 11.518 0 0 0 3.54-3.19l43.37-62.44a13.393 13.393 0 0 0 11.72 1.14z" fill="#e0c863"/><path d="m382.4 309.25a13.367 13.367 0 0 0 -13.09-10.69 13.066 13.066 0 0 0 -3.21.39 13.338 13.338 0 0 0 -9.22 8.08 12.985 12.985 0 0 0 -.92 4.84 13.35 13.35 0 1 0 26.44-2.62z" fill="#d8a43d"/><path d="m349.08 228.65 17.02 70.3a13.338 13.338 0 0 0 -9.22 8.08l-66.06-42.61c-3.26-2.42-5.47-7.71-4.35-11.62 8.44-29.58 54.18-45.2 62.35-26.91a10.358 10.358 0 0 0 .26 2.76z" fill="#f7df69"/><path d="m362.29 323.18-43.37 62.44a11.518 11.518 0 0 1 -3.54 3.19 11.118 11.118 0 0 1 -7.95 1.57c-29.97-7.34-49.77-50.39-29.57-61.2l79.19-12.04a13.336 13.336 0 0 0 5.24 6.04z" fill="#f7df69"/><path d="m357.05 317.14-79.19 12.04-4.14.63c-4.02.63-9.01-1.72-11.37-5.02-11.45-15.94 2.55-67.91 28.47-60.37l66.06 42.61a12.985 12.985 0 0 0 -.92 4.84 13.213 13.213 0 0 0 1.09 5.27z" fill="#e0c863"/><g fill="#243a54"><path d="m59.282 195.679a6 6 0 0 0 -7.138 4.588 168.593 168.593 0 0 0 -3.312 23 6 6 0 0 0 5.529 6.437c.154.011.307.017.46.017a6 6 0 0 0 5.976-5.547 156.812 156.812 0 0 1 3.073-21.359 6 6 0 0 0 -4.588-7.136z"/><path d="m123.169 299.664a6 6 0 0 0 5.1-6.784c-.575-4.044-1.037-8.2-1.374-12.343a6 6 0 1 0 -11.961.974c.357 4.384.846 8.777 1.454 13.056a5.989 5.989 0 0 0 6.784 5.1z"/><path d="m130.856 307.259a6 6 0 0 0 -11.72 2.574c11.5 52.388 38.8 77.139 39.953 78.167a6 6 0 0 0 7.985-8.958c-.254-.228-25.604-23.452-36.218-71.783z"/><path d="m428.266 229.262a13.707 13.707 0 0 0 -3.345-.223c-1.46-5.159-5.214-10.1-11.033-14.287-15.944-11.477-44.979-15.8-64.087-2.766a14.153 14.153 0 0 0 -3.206 3.088c-4.159-2.333-9.494-3.376-15.665-2.932-19.2 1.367-43.861 16.673-50.233 39.017a15.221 15.221 0 0 0 -.165 7.112c-6.28 1.5-12.067 5.76-16.906 12.6-5.49 7.76-9.425 18.526-10.8 29.537-.849 6.814-1.375 19.5 4.643 27.88a18.692 18.692 0 0 0 8.034 6.2 28.639 28.639 0 0 0 -1.574 14.447c2.316 18.342 19.059 41.63 42.068 47.268a13.717 13.717 0 0 0 3.256.379c.134 0 .269-.01.4-.013 1.045 3.228 3.317 6.806 7.732 10.375 7.566 6.117 20.313 11.1 34.1 13.337a90.679 90.679 0 0 0 14.108 1.173c7.026 0 14.882-.989 20.794-4.461a15 15 0 0 0 5.658-6.225 33.078 33.078 0 0 0 12.782 2.357 47.871 47.871 0 0 0 9.506-1c17.558-3.566 37.3-17.092 41.825-39.271a15.6 15.6 0 0 0 .008-5.859c7.082-4.091 12.659-11.137 16-20.4 5.892-16.317 4.051-36.477-4.582-50.165a14.417 14.417 0 0 0 -3.593-3.8 25.612 25.612 0 0 0 3.973-15.309c-.564-19.107-17.017-43.552-39.698-48.059zm-7.358 14.338c.988-1.572 3.755-2.814 5.019-2.567 16.4 3.26 29.619 22.386 30.05 36.664.289 9.61-5.142 11.218-7.1 11.737l-62.744 12.927a19.437 19.437 0 0 0 -1.1-1.709zm-64.345-21.7c14.348-9.787 37.6-6.561 50.314 2.591 2.129 1.533 6.638 5.268 6.712 9.379a16.194 16.194 0 0 0 -2.839 3.34l-35.422 56.32a19.19 19.19 0 0 0 -4.582-.9l-15.836-65.392c-.434-1.793.596-4.618 1.653-5.338zm20.093 89.966a7.347 7.347 0 1 1 -7.346-7.305 7.334 7.334 0 0 1 7.346 7.304zm-84.419-57.416c4.792-16.8 24.317-29.254 39.546-30.339 3.242-.23 8.765-.056 11.071 3.362a15.527 15.527 0 0 0 .393 2.589l15.846 65.44a19.44 19.44 0 0 0 -3.955 3.266l-60.855-39.254c-1.424-1.16-2.383-3.871-2.046-5.064zm-25.017 66.843c-5.4-7.525-3.365-29.967 6.2-43.49 4.539-6.416 9.576-9.031 14.978-7.8l61.68 39.785a19.316 19.316 0 0 0 -.117 2.08c0 .094.013.185.014.279l-77.186 11.733c-1.649.261-4.462-1.045-5.569-2.587zm46.765 60.915c-1.058 1.528-3.872 2.651-5.13 2.344-17.229-4.222-31.229-22.95-33.018-37.117-.53-4.192-.2-9.647 4.092-12.5l74.1-11.267c.108.139.205.287.317.423l-7.765 11.181a5.994 5.994 0 0 0 -8.855-5.927l-3.4 1.874a6 6 0 1 0 5.8 10.507l3.2-1.765zm66.33 24.442c-11.01 6.466-42.581 1.315-55.381-9.033-2.441-1.974-3.772-3.788-3.989-5.418a16.106 16.106 0 0 0 2.9-3.152l40.635-58.51a19.312 19.312 0 0 0 4.686.626l1.937 10.542a5.991 5.991 0 0 0 -9.84 3.363l-.929 4.769a6 6 0 1 0 11.78 2.292l.465-2.392 9.5 51.724c.357 1.797-.733 4.583-1.764 5.189zm64.09-36.186c-3.428 16.805-18.771 27.131-32.456 29.91-8.089 1.643-15.235.569-18.351-2.649l-12.913-70.279a19.441 19.441 0 0 0 2.764-2.446l58.61 40.221a6.377 6.377 0 0 1 2.346 5.243zm16.481-27.932c-1.721 4.767-4.9 10.671-10.53 13.981a15.214 15.214 0 0 0 -1.541-1.211l-60.078-41.229 63.384-13.059c1.832-.374 4.639.752 5.32 1.83 6.659 10.556 8.073 26.873 3.445 39.688z"/><path d="m333.856 302.377-3.893-.537a6 6 0 1 0 -1.638 11.887l3.892.537a6.1 6.1 0 0 0 .827.057 6 6 0 0 0 .812-11.944z"/><path d="m344.309 287.791a6 6 0 1 0 8.967-7.974l-2.726-3.066a6 6 0 1 0 -8.968 7.974z"/><path d="m401.728 295.433a5.977 5.977 0 0 0 3.61-1.211l3.133-2.365a6 6 0 0 0 -7.228-9.578l-3.134 2.365a6 6 0 0 0 3.619 10.789z"/><path d="m376.579 283.162h.179a6 6 0 0 0 5.994-5.824l.109-3.718a6 6 0 1 0 -12-.352l-.109 3.718a6 6 0 0 0 5.827 6.176z"/><path d="m398.343 337.673a6 6 0 0 0 -10.105 6.474l2.544 3.97a6 6 0 1 0 10.1-6.473z"/><path d="m412.263 312.091h-4.145a6 6 0 0 0 0 12h4.145a6 6 0 1 0 0-12z"/><path d="m367.188 178.669a133.884 133.884 0 0 0 -35.812 4.859c-25.957-21.807-52.9-35.048-67.584-42.263-3.747-1.841-6.706-3.295-8.13-4.164a67.319 67.319 0 0 1 -10.695-8.244c-11.954-11.145-26.191-17.152-39.829-17.165-3.144-7.028-6.7-34.828-7.465-72.085a6 6 0 0 0 -8.239-5.443l-14.724 5.927a6 6 0 0 0 -3.531 3.929c-3.084 10.872-2.666 26.1-1.079 40.361-1.951.517-4.109 1.123-6.453 1.833a9.343 9.343 0 0 0 -1.141-.308 244.165 244.165 0 0 0 -51.887-4.3c-31.062.9-55.424 8.469-72.412 22.5-18.195 15.04-27.348 37.082-27.207 65.521a140.109 140.109 0 0 0 6.041 39.349l22.8 76.341a9.922 9.922 0 0 0 16.959 3.694l27.469-31.335c-.3 17.749.862 46.83 8.977 77.739 7.629 29.055 19.86 53.608 36.354 72.976 20.748 24.363 48.213 40.452 81.631 47.819a100.943 100.943 0 0 1 28.843 11.154c12.537 7.248 23.757 10.908 33.416 10.908q1.713 0 3.361-.154c6.389-.595 12.571-4.381 18.9-11.572 4.33-4.919 10.9-8.556 17.251-12.073 6.963-3.856 14.117-7.819 18.752-13.737a133.858 133.858 0 0 0 35.429 4.755c73.789 0 133.817-59.848 133.817-133.411s-60.028-133.411-133.812-133.411zm-185.133-128.599 3.888-1.565c.268 7.217.771 18.053 1.655 29 1.5 18.63 3.375 29.412 5.415 35.838-1.86.517-3.725 1.04-5.579 1.583-1.155-5.227-2.8-13.288-4.153-22.318-2.751-18.364-3.165-32.964-1.226-42.538zm-10.345 46.3c1.463 9.391 3.175 17.528 4.307 22.523q-1.954.843-3.785 1.816c-.106-6.14-.809-12.968-1.751-21.319q-.144-1.27-.292-2.6c.52-.141 1.025-.281 1.521-.417zm-121.451 181.903-21.718-72.731a128.11 128.11 0 0 1 -5.541-35.976c-.124-24.664 7.563-43.573 22.848-56.2 14.879-12.293 36.786-18.941 65.114-19.76q2.9-.084 5.727-.082a231.649 231.649 0 0 1 23.748 1.276c-28.841 12.67-65.245 36.662-82.214 80.328a6 6 0 1 0 11.186 4.347c18.21-46.863 61.385-69.147 89.122-78.958.009.074.017.153.026.226 4.022 35.646 4.35 38.558-38.882 96.438-7.285 9.753-14.887 19.069-22.636 27.734zm316.929 155.218a122 122 0 0 1 -113.7-77.849 6 6 0 0 0 -5.588-3.842 6 6 0 0 0 -5.621 8.128 134.321 134.321 0 0 0 76.8 76.623 83.239 83.239 0 0 1 -11.882 7.426c-6.91 3.826-14.741 8.162-20.446 14.643-4.152 4.717-7.855 7.258-11.008 7.552-9.788.912-21.529-4.5-29.656-9.194a112.89 112.89 0 0 0 -32.265-12.484c-30.743-6.778-55.965-21.5-74.964-43.746-15.313-17.935-26.724-40.833-33.915-68.062-10.962-41.511-8.678-80.69-7.971-89.492l9.054-10.328c7.943-8.882 15.771-18.473 23.266-28.508 25.793-34.531 37.019-50.963 41.051-66.252 3.7-7.014 14.089-9.92 26.106-13.262 12.838-3.571 27.917 1.212 40.337 12.793a79.333 79.333 0 0 0 12.627 9.708c1.892 1.155 4.911 2.638 9.089 4.692 13.124 6.449 36.366 17.875 59.407 36.011-49.468 19.606-84.53 67.813-84.53 124.034q0 4.04.239 8.022a6.026 6.026 0 0 0 6 5.7 5.99 5.99 0 0 0 5.988-6.348q-.224-3.657-.226-7.37c0-66.946 54.644-121.411 121.812-121.411s121.808 54.459 121.808 121.405-54.645 121.411-121.812 121.411z"/></g></svg>