<svg id="Layer_1" height="512" viewBox="0 0 512 512" width="512" xmlns="http://www.w3.org/2000/svg" data-name="Layer 1"><path d="m405.62 192.68c-19.31-16.07-40.87-18.21-57.82-16.22a99.093 99.093 0 0 0 -13.94 2.67 64.315 64.315 0 0 1 -32.63.07c-.92-.24-1.86-.47-2.84-.69-17.84-4.12-45.21-5.46-69.21 14.17-33.97 27.78-86.14 118.2 0 174.5 21.39 13.99 45.38 23.99 70.62 25.86l140.62-142.84c-6.86-24.1-23.47-48.08-34.8-57.52z" fill="#c09e68"/><path d="m360.2 72.84a3.826 3.826 0 0 1 4.43 4.7c-1.05 4.08-2.54 9.84-4.12 15.66a325.068 325.068 0 0 0 -9.73 53.06l-2.98 30.2a99.093 99.093 0 0 0 -13.94 2.67 64.315 64.315 0 0 1 -32.63.07c-.92-.24-1.86-.47-2.84-.69 0 0 2.22-8.42 17.14-15.27a21.634 21.634 0 0 0 12.03-14.97l15.66-69.81a3.815 3.815 0 0 1 3-2.91z" fill="#6f624b"/><path d="m315.65 135.37c-185.19 97.52-310.23 7.73-297.8 9.42 12.51 1.69 95.39-73.09 205.89-50.97 30.28 6.07 55.78 19.64 69.62 26.02a125.08 125.08 0 0 1 22.29 15.53z" fill="#5fcda4"/><path d="m259.18 192.68a72.3 72.3 0 0 1 33.109-15.38c-17.616-2.95-41.7-2.129-63.109 15.381-33.97 27.78-86.14 118.2 0 174.5 21.39 13.99 45.38 23.99 70.62 25.86l4.564-4.636a167.749 167.749 0 0 1 -45.184-21.225c-86.14-56.3-33.97-146.72 0-174.5z" fill="#997d55"/><path d="m440.42 250.2c57.95 26.75 48.87 97.35 48.87 97.35-7.77 4.19-22.54 8.54-36.14 12a71.761 71.761 0 0 1 -49.51-5.09c-13.35-6.6-32.4-13.49-53.75-13.49-30.98 0-45-29.81-50-44.37 0 0 18.3-63.43 83.91-58.39a29.775 29.775 0 0 1 12.62 3.89l4.79 2.78a29.443 29.443 0 0 0 20.9 3.33 29.451 29.451 0 0 1 6.19-.65 28.956 28.956 0 0 1 12.12 2.64z" fill="#f0d2a9"/><path d="m353.587 258.743a73.135 73.135 0 0 1 36.8-19.276 30.04 30.04 0 0 0 -6.59-1.257c-65.61-5.04-83.91 58.39-83.91 58.39 5 14.56 19.02 44.37 50 44.37 3.026 0 6 .152 8.923.408a46.844 46.844 0 0 1 -5.255-4.149c-22.998-20.894-22.424-57.008.032-78.486z" fill="#d3b897"/><path d="m494.77 342.38s10.57 99.73-112.06 96.79a53.664 53.664 0 0 1 -9.03-.99c-39.49-7.82-61.85-25.05-73.88-45.14-26.95-44.97-2.2-104.26-2.2-104.26a75.774 75.774 0 0 0 2.29 7.82c5 14.56 19.02 44.37 50 44.37 21.35 0 40.4 6.89 53.75 13.49a71.761 71.761 0 0 0 49.51 5.09c13.6-3.46 28.37-7.81 36.14-12 3.33-1.78 5.37-3.53 5.48-5.17z" fill="#dfbb6c"/><path d="m329.8 393.04c-12.732-21.245-13.923-45.684-11.638-65.559-9.845-9.8-15.473-22.731-18.272-30.881a75.774 75.774 0 0 1 -2.29-7.82s-24.75 59.29 2.2 104.26c12.03 20.09 34.39 37.32 73.88 45.14a53.664 53.664 0 0 0 9.03.99 194.859 194.859 0 0 0 22.557-.712c-.53-.088-1.061-.173-1.587-.278-39.49-7.82-61.85-25.05-73.88-45.14z" fill="#b7985a"/><g fill="#243a54"><path d="m105.8 138.635a166.743 166.743 0 0 1 -29.385-1.154 6 6 0 1 0 -1.438 11.913 190.226 190.226 0 0 0 22.865 1.458q4.38 0 8.621-.235a6 6 0 1 0 -.663-11.982z"/><path d="m227.936 237.377a6 6 0 0 0 -8.283 1.84 73.656 73.656 0 0 0 -11.653 35.561 6 6 0 0 0 5.637 6.343c.12.006.24.01.358.01a6 6 0 0 0 5.984-5.647 61.8 61.8 0 0 1 9.794-29.824 6 6 0 0 0 -1.837-8.283z"/><path d="m235.219 219.376a54.438 54.438 0 0 0 -5.813 5.686 6 6 0 1 0 8.919 8.028 45.424 45.424 0 0 1 4.427-4.374 6 6 0 0 0 -7.533-9.34z"/><path d="m352.065 257.311c-1.071.435-26.324 10.973-33.86 39.178a6 6 0 1 0 11.594 3.1c5.943-22.247 26.493-31.035 26.8-31.163a6 6 0 0 0 -4.531-11.112z"/><path d="m465.431 323.688a5.991 5.991 0 0 0 -6.408 5.561 45.752 45.752 0 0 1 -.608 4.851 6 6 0 1 0 11.81 2.127 58 58 0 0 0 .768-6.132 6 6 0 0 0 -5.562-6.407z"/><path d="m458.3 317.4a6 6 0 0 0 11.781-2.28 63.149 63.149 0 0 0 -13.854-28.72 6 6 0 0 0 -8.8 8.155 50.938 50.938 0 0 1 10.873 22.845z"/><path d="m399.081 279.428h-.033a6.016 6.016 0 0 0 -6 5.95 22.97 22.97 0 0 1 -.229 2.545 39.268 39.268 0 0 1 -1.852 7.575 6 6 0 1 0 11.323 3.975 50.921 50.921 0 0 0 2.418-9.922 32.41 32.41 0 0 0 .34-4.14 5.986 5.986 0 0 0 -5.967-5.983z"/><path d="m495.812 336.485a129.443 129.443 0 0 0 -3.388-28.964c-6.722-28.367-22.955-49.6-47.02-61.585-7.413-23.7-23.82-47.772-35.95-57.871-18.278-15.218-38.488-18.737-54.985-18.1l2.278-23.115a319.839 319.839 0 0 1 9.559-52.084c1.607-5.935 3.136-11.837 4.136-15.743a9.821 9.821 0 0 0 -11.387-12.071l-13.975 2.706a9.819 9.819 0 0 0 -7.72 7.492l-13.036 58.136c-1.555-1.561-3.148-3.047-4.747-4.457l-.019-.017a129.725 129.725 0 0 0 -23.432-16.3c-.083-.044-.167-.085-.252-.124-1.948-.9-4.129-1.939-6.524-3.082-15.024-7.175-37.728-18.016-64.43-23.363-85.785-17.177-155.489 22.631-188.987 41.762-7.124 4.068-15.18 8.668-17.628 9.095a6.461 6.461 0 0 0 -6.673 3.543c-.968 2-1.345 5.125 2.36 8.711 8.034 7.775 42.975 27.013 94.47 33.533a289.754 289.754 0 0 0 36.4 2.253c44.3 0 102.742-9.644 169.822-44.2a71.5 71.5 0 0 1 6.224 6.788 15.624 15.624 0 0 1 -7.884 8.364c-9.99 4.584-15.19 10.009-17.843 13.937-17.9-3.279-45.5-3.566-69.8 16.305-12.213 9.988-24.807 26.013-33.69 42.87-7.76 14.724-16.726 37.6-15.373 62.968 1.683 31.578 18.362 57.935 49.573 78.337 23.437 15.32 47.1 24.227 70.4 26.537 14.936 23.021 40.531 38.257 76.224 45.321a59.4 59.4 0 0 0 10.048 1.1q2.739.066 5.418.065c39.568 0 69.513-10.735 89.059-31.944 27.731-30.092 23.873-69.858 23.695-71.537a6.019 6.019 0 0 0 -4.923-5.266zm-388.819-164.2c-27.478-3.791-48.164-11-60.679-16.375a140.591 140.591 0 0 1 -17.208-8.7c3.4-1.736 7.54-4.1 12.778-7.092 32.231-18.408 99.3-56.712 180.68-40.417 25.236 5.053 47.129 15.507 61.616 22.424q1.833.876 3.5 1.667c-75.9-13.013-108.364-3.176-137.372 5.615-9.594 2.908-18.655 5.654-28.847 7.43a6 6 0 1 0 2.059 11.822c10.913-1.9 20.315-4.751 30.269-7.768 29.159-8.838 61.969-18.781 143.711-3.118-80.937 38.774-147.751 40.414-190.507 34.516zm373.668 137.639a118.137 118.137 0 0 1 2.943 33.745c-5.063 2.253-14.491 5.624-31.933 10.072a65.767 65.767 0 0 1 -45.369-4.66c-13.021-6.437-33.378-14.111-56.409-14.111-25.827 0-38.561-24.726-43.648-38.486a91.218 91.218 0 0 1 15.591-27.112c15.64-18.643 36.33-27.116 61.505-25.184a23.8 23.8 0 0 1 10.065 3.105l4.794 2.781a35.4 35.4 0 0 0 25.159 4.006 23.333 23.333 0 0 1 14.544 1.565c22.164 10.231 36.55 28.493 42.758 54.279zm-162.631-141.224a27.787 27.787 0 0 0 15.386-19.114l15.341-68.414 9.2-1.781c-.913 3.533-2.053 7.88-3.234 12.24a332.07 332.07 0 0 0 -9.919 54.045l-2.516 25.524c-3.71.6-7.07 1.356-9.963 2.124a58.3 58.3 0 0 1 -23.712 1.268 38.352 38.352 0 0 1 9.417-5.892zm150.189 236.452c-17.986 19.516-46.706 28.941-85.365 28.015a47.248 47.248 0 0 1 -8.007-.874c-35.158-6.958-59.281-22.269-71.7-45.506a80.635 80.635 0 0 1 -7.556-20.8 6.025 6.025 0 0 0 -11.765 2.6 95.861 95.861 0 0 0 5.5 17.115c-18.753-3.214-37.833-11.093-56.872-23.538-27.831-18.193-42.688-41.385-44.157-68.931-2.209-41.447 26.232-80.824 44.678-95.91 22.747-18.6 48.851-16.964 66.744-12.312a70.349 70.349 0 0 0 35.679-.083c17.825-4.73 43.809-6.424 66.373 12.362 9.26 7.71 21.92 25.706 29.383 44.4a35.666 35.666 0 0 0 -10.3.652 23.44 23.44 0 0 1 -16.645-2.65l-4.794-2.78a35.878 35.878 0 0 0 -15.166-4.689c-36.434-2.8-59.056 14.464-71.616 29.436a103.407 103.407 0 0 0 -13.7 21.281 5.916 5.916 0 0 0 -6.889 3.524 162.188 162.188 0 0 0 -10.133 42.212 6.024 6.024 0 0 0 6 6.622h.069a6.008 6.008 0 0 0 5.987-5.37 157.886 157.886 0 0 1 3.917-22.1 94.625 94.625 0 0 0 5.365 10.172c11.55 18.956 27.679 28.975 46.644 28.975 20.713 0 39.217 7 51.091 12.868a77.764 77.764 0 0 0 53.651 5.531 281.7 281.7 0 0 0 28.577-8.594c1.986-.749 3.847-1.5 5.559-2.266-.893 12.723-4.924 33.68-20.552 50.638z"/></g></svg>