<svg id="Layer_1" height="512" viewBox="0 0 512 512" width="512" xmlns="http://www.w3.org/2000/svg" data-name="Layer 1"><path d="m188.43 26.85c-90.72 0-164.26 102.09-164.26 228.02s73.54 228.02 164.26 228.02c23.17 0 45.47-8.14 65.47-20.16v-.01l78.93-316.03c-28.13-69.53-82.87-119.84-144.4-119.84z" fill="#c14744"/><path d="m481.68 331.18-285.89-51.06a10.844 10.844 0 0 0 -12.45 9.64c-8.85 71.84 20.14 138.77 70.56 172.96a136.468 136.468 0 0 0 52.85 21.59c81.54 14.57 161.46-47.37 183.26-139.78a10.825 10.825 0 0 0 -8.33-13.35z" fill="#d8514b"/><path d="m366.69 147.29c68.75 12.28 114.19 91.5 111.45 183.26l-279.4-49.9v-.01c24.21-73.52 77-125.96 134.09-133.95a107.548 107.548 0 0 1 33.86.6z" fill="#d0e4e7"/><ellipse cx="384.07" cy="213.81" fill="#badadd" rx="15.86" ry="15.9"/><path d="m416.08 246.87a11.12 11.12 0 1 1 -11.09 11.12 11.111 11.111 0 0 1 11.09-11.12z" fill="#badadd"/><path d="m362.83 152.69a108.581 108.581 0 0 1 20.688-.9 104.245 104.245 0 0 0 -16.828-4.5 107.548 107.548 0 0 0 -33.86-.6c-57.09 7.99-109.88 60.43-134.09 133.95v.01l30.2 5.394c24.3-73.206 76.96-125.386 133.89-133.354z" fill="#b2bfc1"/><path d="m283.9 462.72c-50.42-34.19-79.41-101.12-70.56-172.96a11.415 11.415 0 0 1 2.646-6.033l-20.2-3.607a10.844 10.844 0 0 0 -12.45 9.64c-8.85 71.84 20.14 138.77 70.56 172.96a136.071 136.071 0 0 0 91.775 22.87c-2.971-.33-5.947-.748-8.925-1.28a136.468 136.468 0 0 1 -52.846-21.59z" fill="#aa3f3f"/><path d="m54.17 254.87c0-118.819 65.473-216.4 149.07-227.041a113.233 113.233 0 0 0 -14.81-.979c-90.72 0-164.26 102.09-164.26 228.02s73.54 228.02 164.26 228.02a102.653 102.653 0 0 0 14.336-1.038c-83.366-10.952-148.596-108.387-148.596-226.982z" fill="#993d3d"/><g fill="#243a54"><path d="m180.292 77.4a5.989 5.989 0 0 0 6.807-5.066l1.46-9.959a6 6 0 1 0 -11.874-1.74l-1.459 9.965a6 6 0 0 0 5.066 6.8z"/><path d="m219.036 87.1a6 6 0 0 0 5.929 5.13 6.083 6.083 0 0 0 .878-.064 6 6 0 0 0 5.066-6.807l-1.46-9.959a6 6 0 0 0 -11.873 1.741z"/><path d="m150.109 95.882a6.107 6.107 0 0 0 .879.064 6 6 0 0 0 5.929-5.13l1.461-9.959a6 6 0 0 0 -11.873-1.742l-1.461 9.959a6 6 0 0 0 5.065 6.808z"/><path d="m114.4 111.288a6 6 0 0 0 -6.808 5.065l-1.461 9.959a6 6 0 0 0 5.065 6.808 6.107 6.107 0 0 0 .879.064 6 6 0 0 0 5.929-5.13l1.461-9.959a6 6 0 0 0 -5.065-6.807z"/><path d="m263.615 127.7a6 6 0 0 0 11.873-1.74l-1.46-9.96a6 6 0 0 0 -11.873 1.741z"/><path d="m228.631 140.8 1.46 9.959a6 6 0 1 0 11.873-1.74l-1.46-9.959a6 6 0 0 0 -11.873 1.74z"/><path d="m186.626 120.658-1.46 9.959a6 6 0 0 0 5.066 6.807 6.083 6.083 0 0 0 .878.064 6 6 0 0 0 5.929-5.131l1.46-9.959a6 6 0 0 0 -11.873-1.74z"/><path d="m149.849 162.633-1.461 9.959a6 6 0 0 0 5.065 6.808 6.107 6.107 0 0 0 .879.064 6 6 0 0 0 5.929-5.13l1.461-9.958a6 6 0 0 0 -11.873-1.743z"/><path d="m74.272 157.134a6.005 6.005 0 0 0 -6.806 5.066l-1.46 9.959a6 6 0 0 0 5.066 6.807 6.083 6.083 0 0 0 .878.064 6 6 0 0 0 5.929-5.131l1.46-9.959a6 6 0 0 0 -5.067-6.806z"/><path d="m197.041 192.677 1.46 9.959a6 6 0 0 0 5.929 5.131 6.083 6.083 0 0 0 .878-.064 6 6 0 0 0 5.066-6.807l-1.46-9.959a6 6 0 0 0 -11.873 1.74z"/><path d="m68.963 247.743 1.46-9.959a6 6 0 0 0 -11.873-1.741l-1.46 9.957a6 6 0 0 0 5.066 6.807 6.083 6.083 0 0 0 .878.064 6 6 0 0 0 5.929-5.128z"/><path d="m107.851 216.44a5.988 5.988 0 0 0 6.806-5.066l1.46-9.959a6 6 0 1 0 -11.873-1.74l-1.46 9.959a6 6 0 0 0 5.067 6.806z"/><path d="m161.443 231.42a6 6 0 0 0 -6.806 5.066l-1.46 9.959a6 6 0 0 0 5.066 6.807 6.083 6.083 0 0 0 .878.064 6 6 0 0 0 5.929-5.131l1.46-9.958a6 6 0 0 0 -5.067-6.807z"/><path d="m114.4 268.017a6 6 0 0 0 -6.808 5.066l-1.461 9.959a6 6 0 1 0 11.869 1.742l1.461-9.959a6 6 0 0 0 -5.061-6.808z"/><path d="m140.027 328.04a6 6 0 0 0 -6.806 5.066l-1.46 9.959a6 6 0 0 0 5.066 6.807 6.083 6.083 0 0 0 .878.064 6 6 0 0 0 5.929-5.131l1.46-9.959a6 6 0 0 0 -5.067-6.806z"/><path d="m74.272 317.931a6.005 6.005 0 0 0 -6.806 5.069l-1.46 9.959a6 6 0 0 0 5.066 6.807 6.083 6.083 0 0 0 .878.064 6 6 0 0 0 5.929-5.131l1.46-9.959a6 6 0 0 0 -5.067-6.809z"/><path d="m179.532 429.968a6 6 0 0 0 -6.807 5.065l-1.461 9.959a6 6 0 0 0 5.065 6.808 6.107 6.107 0 0 0 .879.064 6 6 0 0 0 5.929-5.13l1.461-9.959a6 6 0 0 0 -5.066-6.807z"/><path d="m154.516 382.074a6 6 0 0 0 -6.807 5.067l-1.46 9.959a6 6 0 1 0 11.873 1.74l1.46-9.959a6 6 0 0 0 -5.066-6.807z"/><path d="m104.7 378.9a6 6 0 0 0 -6.806 5.066l-1.46 9.959a6 6 0 0 0 5.066 6.807 6.083 6.083 0 0 0 .878.064 6 6 0 0 0 5.929-5.13l1.46-9.959a6 6 0 0 0 -5.067-6.807z"/><path d="m157.833 281.128a6 6 0 0 0 -6 6v8.172a6 6 0 0 0 12 0v-8.175a6 6 0 0 0 -6-5.997z"/><path d="m496.685 344.391-.527-.154a17.339 17.339 0 0 0 -2.641-11.811 16.225 16.225 0 0 0 -9.28-6.805c1.066-94.822-47.39-171.895-116.494-184.237a112.413 112.413 0 0 0 -31.092-1.137q-2.666-6.257-5.6-12.28l.607-.266a6 6 0 0 0 -4.808-10.995l-1.293.565q-4.082-7.494-8.581-14.539l2.042-1.224a6 6 0 0 0 -6.172-10.292l-2.59 1.553c-3.3-4.624-6.719-9.088-10.28-13.347l3.049-2.346a6 6 0 0 0 -7.316-9.512l-3.722 2.863q-5.958-6.335-12.315-11.973l2.487-3.3a6 6 0 1 0 -9.586-7.217l-2.134 2.835a161.834 161.834 0 0 0 -13.294-9.272l1.112-2.7a6 6 0 0 0 -11.1-4.567l-.528 1.282a138.4 138.4 0 0 0 -15.429-6.834l.529-1.941a6 6 0 1 0 -11.576-3.159l-.4 1.451a123.209 123.209 0 0 0 -15.442-3.1l.2-1.5a6 6 0 0 0 -11.9-1.556l-.268 2.048c-1.306-.043-2.613-.073-3.92-.073-3.94 0-7.856.2-11.748.555l-.219-1.487a6 6 0 1 0 -11.871 1.748l.208 1.412a129.233 129.233 0 0 0 -15.324 3.877l-.337-1.02a6 6 0 0 0 -11.4 3.766l.465 1.406a141.314 141.314 0 0 0 -14.909 7.35 6 6 0 0 0 -10.858 5.107l.6 1.284a165.58 165.58 0 0 0 -19.05 15.131l-.53-.592a6 6 0 0 0 -8.937 8.012l.9 1a201.672 201.672 0 0 0 -14.482 17 6 6 0 0 0 -8.031 8.9l.983.894a235.709 235.709 0 0 0 -12.9 21.357l-.416-.243a6 6 0 1 0 -6.054 10.36l1.071.627a265.8 265.8 0 0 0 -10.784 26.357l-.453-.237a6 6 0 1 0 -5.567 10.63l2.256 1.182q-3.611 12-6.224 24.534l-.363-.138a6 6 0 0 0 -4.262 11.218l2.368.9q-2.549 15.192-3.628 30.926l-1.338-.133a6 6 0 1 0 -1.186 11.941l1.934.192c-.105 3.39-.167 6.791-.167 10.205 0 4.737.114 9.451.316 14.141a5.984 5.984 0 0 0 .725 11.831q1.089 13.594 3.289 26.811l-1.237.454a5.985 5.985 0 0 0 3.465 11.446q2.422 11.671 5.712 22.914l-1.676 1.011a6 6 0 0 0 5.368 10.687q3.43 10.077 7.569 19.691l-.163.125a5.974 5.974 0 0 0 5.052 10.566q4.943 10.185 10.7 19.7l-1.852 2.134a6 6 0 0 0 8.579 8.361c1.116 1.639 2.246 3.267 3.4 4.869q3.772 5.236 7.747 10.089l-1.395 1.991a6 6 0 0 0 9.465 7.342 182.357 182.357 0 0 0 14.358 13.952l-.512.913a5.995 5.995 0 0 0 9.91 6.68 153.573 153.573 0 0 0 16.335 10.72l-.844 2.75a6 6 0 1 0 11.473 3.521l.218-.711a134.645 134.645 0 0 0 16.859 6.421l-.134.912a5.989 5.989 0 0 0 11.794 2.068 127.217 127.217 0 0 0 16.309 2.27l-.013.562a6 6 0 0 0 5.859 6.138h.142a6 6 0 0 0 6-5.86l.013-.533a111.047 111.047 0 0 0 16.733-1.7 5.994 5.994 0 0 0 5.941 5.293c.2 0 .4-.01.6-.03a6 6 0 0 0 5.373-6.568l-.141-1.4a136.663 136.663 0 0 0 13.339-4.53 6 6 0 0 0 5.839 4.677 6.071 6.071 0 0 0 1.234-.128 6 6 0 0 0 4.644-7.1l-.5-2.414q4.822-2.375 9.658-5.147c.587.377 1.174.756 1.766 1.124l-.174.382a5.992 5.992 0 0 0 10.623 5.517q3.933 2.012 7.981 3.769l-.578 1.4a6 6 0 1 0 11.086 4.592l.687-1.66q5.988 2.03 12.165 3.529l-.238 1.491a6 6 0 1 0 11.85 1.89l.167-1.047a141.7 141.7 0 0 0 15.562 1.527v.032a6 6 0 0 0 5.988 6.012h.012a6 6 0 0 0 6-5.988v-.052q6.018-.252 12-1.013l.049.646a6 6 0 0 0 5.976 5.543c.153 0 .308-.005.464-.018a6 6 0 0 0 5.525-6.439l-.133-1.744q6.349-1.347 12.618-3.256l.243 1.066a6 6 0 0 0 11.7-2.673l-.544-2.381q7.176-2.829 14.165-6.412l.775 1.749a6 6 0 1 0 10.973-4.859l-1.232-2.781q7.245-4.411 14.194-9.652l.841 1.279a6 6 0 0 0 10.028-6.592l-1.5-2.276q5.2-4.5 10.072-9.4l1.874 1.922a6 6 0 0 0 8.59-8.38l-2.276-2.338q4.651-5.323 8.932-11.012l1.3.948a6 6 0 1 0 7.086-9.685l-1.461-1.069q3.732-5.647 7.1-11.584l1.038.654a6 6 0 0 0 6.385-10.152l-1.8-1.13q2.986-6.058 5.6-12.356l.717.344a6 6 0 1 0 5.191-10.818l-1.614-.775q2.032-5.808 3.738-11.777l.078.022a6 6 0 1 0 3.37-11.517zm-255.271 118.426a6 6 0 0 0 -11.422 3.5l.348 1.663a127.18 127.18 0 0 1 -12.051 4.314l-.123-1.231a6 6 0 1 0 -11.939 1.195l.291 2.909a99.565 99.565 0 0 1 -15.244 1.666l.055-2.362a6 6 0 1 0 -12-.281l-.054 2.32a114.484 114.484 0 0 1 -14.818-2.163l.4-2.753a6 6 0 1 0 -11.875-1.731l-.2 1.35a124.285 124.285 0 0 1 -15.044-6l1.839-5.994a6 6 0 0 0 -11.473-3.521l-1.152 3.757a144.517 144.517 0 0 1 -13.948-9.438l1.814-3.233a6 6 0 1 0 -10.465-5.871l-.742 1.323a172.967 172.967 0 0 1 -13.281-13.271l2.635-3.762a6 6 0 0 0 -9.828-6.886l-.8 1.148q-5.292-6.72-10.135-14.089l2.74-3.157a6 6 0 1 0 -9.063-7.865l-.284.328q-4.789-8.267-9.012-17.166l2.936-2.272a6 6 0 0 0 -7.346-9.49l-.607.47q-3.7-8.929-6.82-18.369l1.817-1.1a6 6 0 0 0 -5.423-10.655q-2.84-10.112-4.984-20.68l1.271-.467a6 6 0 0 0 -3.422-11.473q-1.873-11.714-2.843-23.865l1.382-.158a6 6 0 0 0 -1.363-11.923l-.74.085q-.256-6.332-.267-12.748c0-3.021.056-6.024.141-9.017l.693.069c.2.02.4.03.6.03a6 6 0 0 0 .586-11.972l-1.3-.129q.945-14.152 3.136-27.752l.28.107a6 6 0 1 0 4.262-11.218l-2.369-.9q2.41-11.865 5.728-23.158l.039.02a6 6 0 0 0 5.566-10.631l-1.936-1.014a257.271 257.271 0 0 1 10.426-25.9l.037.021a6 6 0 1 0 6.054-10.36l-.733-.429a223.6 223.6 0 0 1 11.5-19.308 5.986 5.986 0 0 0 7.685-9.169l-.72-.655a188.681 188.681 0 0 1 13.612-16.123l.232.259a6 6 0 0 0 8.938-8.009l-.607-.677a155.79 155.79 0 0 1 16.2-13.026 6 6 0 0 0 10.858-5.107l-.649-1.387a130.962 130.962 0 0 1 13.573-6.836l.1.3a6 6 0 0 0 11.4-3.766l-.248-.751a117.41 117.41 0 0 1 13.3-3.405l.176 1.2a6 6 0 0 0 5.927 5.127 6.14 6.14 0 0 0 .882-.065 6 6 0 0 0 5.062-6.81l-.166-1.122c3.307-.291 6.638-.456 10-.456.787 0 1.573.012 2.36.03a6 6 0 0 0 11.9 1.5l.073-.552a111.218 111.218 0 0 1 13.828 2.786l-.168.615a6 6 0 1 0 11.576 3.16l.02-.076a127.494 127.494 0 0 1 14.017 6.343l-.517 1.254a5.993 5.993 0 0 0 10.961 4.84q5.442 3.5 10.731 7.6l-.92 1.228a6 6 0 1 0 9.586 7.217l.548-.728q5.133 4.611 10.009 9.7l-.086.066a6 6 0 1 0 7.317 9.512l.789-.607c3.276 3.9 6.429 7.988 9.475 12.22a6 6 0 0 0 6.226 10.256l.524-.315q4.116 6.435 7.876 13.28a5.991 5.991 0 0 0 5.483 10.584q2.247 4.608 4.336 9.362c-20.919 4.335-41.557 14.322-60.51 29.557a197.212 197.212 0 0 0 -34.048 35.616 5.973 5.973 0 0 0 9.578 7.138c33.8-45.066 80.722-69.366 126.231-61.241 31.169 5.567 59.025 26.518 78.437 58.994 18.373 30.738 28.28 70 28.177 111.209l-13.948-2.491a5.989 5.989 0 0 0 -5.056-2.816h-.024a5.97 5.97 0 0 0 -3.661 1.254l-64.482-11.516a6 6 0 0 0 -5.653-4.072h-.024a5.985 5.985 0 0 0 -4.659 2.225l-100.291-17.912a5.986 5.986 0 0 0 -9.45-1.689l-58.3-10.411a248.568 248.568 0 0 1 12.986-29.945 5.975 5.975 0 0 0 -2.774-8.166h-.007a5.982 5.982 0 0 0 -7.84 2.668 259.967 259.967 0 0 0 -14.4 33.463 16.249 16.249 0 0 0 -10.412 3.2 17.337 17.337 0 0 0 -6.508 9.905l-1.066-.087a6 6 0 1 0 -.975 11.96l.694.057q-.736 9.621-.609 19.156l-1.247.153a6 6 0 0 0 .722 11.956 6.137 6.137 0 0 0 .737-.045l.288-.035q.594 8.46 1.863 16.767l-.716.215a5.99 5.99 0 0 0 2.882 11.62q1.682 7.846 3.973 15.486l-.458.222a5.993 5.993 0 0 0 4.272 11.159q2.879 7.782 6.411 15.246l-.985.723a5.99 5.99 0 0 0 6.52 10.032q2.388 4.284 4.992 8.434c.931 1.475 1.886 2.923 2.852 4.359l-1.605 1.566a6 6 0 1 0 8.381 8.588l.345-.337q5.071 6.49 10.652 12.327l-.39.652a5.992 5.992 0 0 0 8.979 7.683q4.164 3.743 8.549 7.136c-.464.24-.928.488-1.392.727zm241.941-122.325a6 6 0 1 0 -3.369 11.517l1.735.508q-1.442 5.036-3.121 9.927a6 6 0 0 0 -5.008 10.895l.764.367q-2.337 5.677-4.985 11.123a6 6 0 0 0 -6.3 10.206l.709.446q-3.161 5.588-6.641 10.88l-.047-.035a6 6 0 1 0 -7.092 9.685l.219.16q-3.69 4.893-7.651 9.471l-.131-.134a6 6 0 0 0 -8.589 8.38l.558.572q-4.059 4.094-8.334 7.866l-.44-.669a6 6 0 0 0 -10.028 6.592l1.137 1.728q-6.084 4.634-12.5 8.618a6 6 0 0 0 -10.858 5.085l.385.871q-5.895 3.053-11.986 5.556l-.091-.4a6 6 0 0 0 -11.7 2.673l.416 1.823q-5.37 1.685-10.846 2.924l-.094-1.233a6 6 0 1 0 -11.965.914l.188 2.459q-5.5.732-11.062 1v-2.152a6 6 0 0 0 -5.988-6.013h-.012a6 6 0 0 0 -6 5.988v2.181a128.749 128.749 0 0 1 -13.7-1.353l.474-2.967a6 6 0 1 0 -11.849-1.891l-.4 2.482q-4.8-1.2-9.458-2.747l.581-1.4a6 6 0 1 0 -11.086-4.592l-.691 1.668q-3.832-1.687-7.545-3.609l.046-.062a6 6 0 0 0 -10.385-5.906 139.85 139.85 0 0 1 -19.767-15.285l.931-1.559a6 6 0 0 0 -9.566-7.14q-4.439-4.846-8.5-10.109l1.906-1.86a6 6 0 1 0 -8.381-8.588l-.551.538q-3.606-5.507-6.806-11.363l1.887-1.386a6 6 0 0 0 -7.1-9.672l-.239.176q-2.934-6.414-5.376-13.152l2.051-.992a6 6 0 1 0 -5.223-10.8l-.587.283q-1.936-6.68-3.393-13.6l.782-.234a6 6 0 0 0 -2.887-11.632q-1.058-7.291-1.573-14.771l.419-.051a6 6 0 0 0 -.864-11.954q-.059-8.293.581-16.744l.822.067c.166.014.33.02.494.02a6 6 0 0 0 .532-11.973 5.063 5.063 0 0 1 1.173-1.268 4.4 4.4 0 0 1 2.616-.885 4.2 4.2 0 0 1 .739.066l65.63 11.722a6 6 0 0 0 11.6 2.633l.192-.526 101.217 18.078a6 6 0 0 0 5.97 5.875h.024a6 6 0 0 0 5.58-3.808l62.243 11.117v1a6 6 0 0 0 5.976 6.024h.025a6 6 0 0 0 5.893-4.9l21.544 3.848a4.32 4.32 0 0 1 2.859 1.927 5.076 5.076 0 0 1 .695 1.719z"/><path d="m410.494 346.539h-.023a6 6 0 0 0 -6 5.978l-.031 8.047a6 6 0 0 0 5.978 6.022h.022a6 6 0 0 0 6-5.977l.031-8.048a6 6 0 0 0 -5.977-6.022z"/><path d="m319.614 381.014a6 6 0 0 0 -7.695 3.575l-2.763 7.56a6 6 0 1 0 11.272 4.119l2.762-7.56a6 6 0 0 0 -3.576-7.694z"/><path d="m281.923 352.927 2.763-7.559a6 6 0 1 0 -11.269-4.12l-2.764 7.559a6 6 0 1 0 11.27 4.12z"/><path d="m225.845 321.862a6 6 0 0 0 -7.7 3.576l-2.758 7.562a6 6 0 1 0 11.271 4.119l2.763-7.56a6 6 0 0 0 -3.576-7.697z"/><path d="m432.806 384.179h-.025a6 6 0 0 0 -6 5.976l-.031 8.048a6 6 0 0 0 5.977 6.023h.024a6 6 0 0 0 6-5.977l.031-8.047a6 6 0 0 0 -5.976-6.023z"/><path d="m371.55 371.77a5.981 5.981 0 0 0 -6.023 5.977l-.03 8.047a6 6 0 0 0 5.978 6.022h.023a6 6 0 0 0 6-5.977l.03-8.047a6 6 0 0 0 -5.978-6.022z"/><path d="m339.478 438.332a6 6 0 0 0 -7.7 3.576l-2.762 7.559a6 6 0 1 0 11.271 4.119l2.763-7.559a6 6 0 0 0 -3.572-7.695z"/><path d="m330.134 352.435a6 6 0 0 0 6-5.977l.031-8.047a6 6 0 0 0 -5.976-6.024h-.025a6 6 0 0 0 -6 5.977l-.031 8.047a6 6 0 0 0 5.976 6.024z"/><path d="m285.509 421.285a6 6 0 0 0 -7.695 3.575l-2.763 7.56a6 6 0 1 0 11.271 4.119l2.763-7.56a6 6 0 0 0 -3.576-7.694z"/><path d="m252.5 389.334a6 6 0 0 0 -7.7 3.576l-2.763 7.559a6 6 0 1 0 11.271 4.119l2.763-7.559a6 6 0 0 0 -3.571-7.695z"/><path d="m393.752 422.034h-.023a6 6 0 0 0 -6 5.977l-.031 8.048a6 6 0 0 0 5.978 6.022h.022a6 6 0 0 0 6-5.977l.031-8.048a6 6 0 0 0 -5.977-6.022z"/><path d="m384.072 235.707a21.9 21.9 0 1 0 -21.859-21.9 21.9 21.9 0 0 0 21.859 21.9zm0-31.793a9.9 9.9 0 1 1 -9.859 9.9 9.89 9.89 0 0 1 9.859-9.9z"/><path d="m398.992 257.991a17.092 17.092 0 1 0 17.091-17.118 17.124 17.124 0 0 0 -17.091 17.118zm17.091-5.118a5.118 5.118 0 1 1 -5.091 5.118 5.11 5.11 0 0 1 5.091-5.118z"/></g></svg>