<svg id="Layer_1" height="512" viewBox="0 0 512 512" width="512" xmlns="http://www.w3.org/2000/svg" data-name="Layer 1"><path d="m437.88 219.89c-13.07-119.52-105.44-133.16-141.99-133.81a123.816 123.816 0 0 0 -14.84.48v.01a103.744 103.744 0 0 0 -20.63-5.33c-17.45-2.64-38.82-1.38-63.63 8.37h-.01l-103.12 101.73-.01.01c-.33.79-20.54 48.63 15.61 126.87 35.07 75.91 22.38 115.46 14.19 127.09a9.187 9.187 0 0 0 -1.35 8.17c3.46 10.82 18.59 35.53 84.79 41.3 25.09 2.18 89.48-12.3 100.13-24.18l125.35-148.84v-.01c11.84-38.74 8.75-72.28 5.51-101.86z" fill="#64bc73"/><path d="m152.1 453.48a9.187 9.187 0 0 1 1.35-8.17c8.19-11.63 20.88-51.18-14.19-127.09a237.527 237.527 0 0 1 -17.116-50.462 115.4 115.4 0 0 1 31.706-105.5l49.215-49.027a124.464 124.464 0 0 1 56.082-32.167c-17.215-2.392-38.142-.974-62.357 8.542h-.01l-103.12 101.734-.01.01c-.33.79-20.54 48.63 15.61 126.87 35.07 75.91 22.38 115.46 14.19 127.09a9.187 9.187 0 0 0 -1.35 8.17c3.46 10.82 18.59 35.53 84.79 41.3 5.642.49 13.273.136 21.83-.84-59.289-7.01-73.307-30.1-76.62-40.46z" fill="#94eaa0"/><path d="m297.43 33.18a7.141 7.141 0 0 1 2.56 6.01l-4.1 46.89a123.816 123.816 0 0 0 -14.84.48v.01a103.744 103.744 0 0 0 -20.63-5.33l4.14-38.7 1.98-18.47c.56-6.49 9.55-9.43 14.83-4.85z" fill="#8c6238"/><path d="m226.2 54.75c-.67.35-21.16 11.37-29.42 34.86-.42 1.19-.81 2.41-1.16 3.66-11.45 40.86-44.61 51.39-79.01 78.18a284.689 284.689 0 0 0 -22.95 19.89l-.01.01a259.44 259.44 0 0 0 -44.63 56.68l-21.02 36.32c-10.49-44 4.88-99.42 11.39-111.62a209.856 209.856 0 0 0 14.46-32.63c40.11-121.24 172.37-85.36 172.37-85.36s-.01 0-.02.01z" fill="#508153"/><path d="m481.69 306.1c9.43 10.84 22.79 122.09-96.03 155.9-27.46 7.82-53.98 10.47-78.64 8.6-59.19-4.5-107.66-35.06-132.67-82.86-2.58-4.92-1.31-10.16 4.07-12.82 11.92-5.88 30.69-10.28 54.09-9.05h.03q3.87.195 7.91.62c106.16 10.96 132.75 4.74 189.36-39.07a235.492 235.492 0 0 1 23.08-16.15c.15-.09.29-.17.43-.25 11.47-6.73 23.07-11.02 28.37-4.92z" fill="#e8ae5c"/><path d="m432.37 321.75c7.14-3.26 14.01-6.75 20.52-10.48a235.492 235.492 0 0 0 -23.08 16.15c-56.61 43.81-83.2 50.03-189.36 39.07q-4.035-.42-7.91-.62c35.44-2.04 130.39-12.36 199.83-44.11z" fill="#e19541"/><g fill="#243a54"><path d="m44.847 214.844a5.994 5.994 0 0 0 7.894-3.112c3.127-7.2 6.017-13.638 8.834-19.692a6 6 0 1 0 -10.875-5.063c-2.862 6.148-5.793 12.681-8.961 19.973a6 6 0 0 0 3.108 7.894z"/><path d="m27.126 290.29a5.82 5.82 0 0 0 .871.063 6 6 0 0 0 5.191-3l21.022-36.32a248.448 248.448 0 0 1 28.582-39.667c-2.829 22.164-1.842 59.87 21.023 109.365 14.887 32.225 22.546 60.887 22.764 85.19.2 22.474-6.1 33.176-8.036 35.921a15.169 15.169 0 0 0 -2.157 13.453c2.156 6.751 7.6 16.7 21.276 25.732 15.9 10.5 39.012 17.138 68.707 19.725 1.677.146 3.558.216 5.613.216 26.343 0 81.107-11.591 97.136-24.2q6.533.414 13.175.416a237.754 237.754 0 0 0 65.012-9.416c66.167-18.831 91.242-60.416 100.625-91.986 10.422-35.06 4.425-66.566-1.711-73.624s-16.88-6.588-31.9 1.424c-1.327.708-2.658 1.458-3.987 2.236q-4.263 2.457-8.768 4.783c8.333-35.972 4.886-67.6 2.287-91.368-5.176-47.346-23.032-83.506-53.071-107.476-30.357-24.222-65.94-30.333-88.352-31.511l3.542-40.542a13.056 13.056 0 0 0 -4.6-11.06l-16.07-13.944a15.629 15.629 0 0 0 -15.994-2.535 13.523 13.523 0 0 0 -8.741 11.323l-1.553 14.522-32.99 10.5a193.827 193.827 0 0 0 -71.909-2.47c-36.38 5.91-84.294 26.7-105.961 92.185a202.163 202.163 0 0 1 -14.06 31.691c-7.526 14.103-22.592 71.084-11.934 115.828a6 6 0 0 0 4.968 4.546zm245.374-265.581q.007-.06.012-.12c.064-.732.926-1.157 1.293-1.306a3.609 3.609 0 0 1 3.624.472l16.071 13.955a1.3 1.3 0 0 1 .513.956l-3.613 41.373c-3.97.073-6.918.277-8.576.422a109.186 109.186 0 0 0 -14.841-4.112zm-43.89 35.565 29.008-9.232-2.518 23.558a125.5 125.5 0 0 0 -46.428 4.652 64.483 64.483 0 0 1 19.938-18.978zm-27 33.909c28.075-10.446 54.628-10.914 78.961-1.38 18.809 7.369 29.235 18.3 29.338 18.412a6 6 0 0 0 8.772-8.188 78.843 78.843 0 0 0 -12.753-10.4c20.865 1.668 51.617 7.936 77.45 28.593 27.395 21.9 43.724 55.323 48.535 99.326 3.532 32.3 5.61 61.967-4.512 96.842-62.994 27.987-149.479 39.846-195.024 42.482-21.535-1.047-41.8 2.365-56.611 9.671a15.1 15.1 0 0 0 -8.009 8.873 15.591 15.591 0 0 0 1.268 12.108 155.7 155.7 0 0 0 23.892 33.868 6 6 0 0 0 8.108.608 5.982 5.982 0 0 0 .72-8.757 143.574 143.574 0 0 1 -22.088-31.284 3.8 3.8 0 0 1 -.491-2.824 3.584 3.584 0 0 1 1.908-1.83c7.011-3.459 26.769-11.146 58.759-7.843 106.239 10.968 135.194 4.942 193.644-40.3 36.553-28.29 43.061-22.839 43.664-22.144 2.84 3.621 9.051 32.419-1.623 65.266-8.97 27.6-32.126 64.052-91.5 80.95-43.84 12.478-86.609 11.91-123.681-1.642a156.776 156.776 0 0 1 -29.885-14.61 5.987 5.987 0 0 0 -6.9.366 6 6 0 0 0 .491 9.786 169.068 169.068 0 0 0 32.178 15.727 183.415 183.415 0 0 0 31.7 8.424c-22.23 8.187-62.263 16.109-80.51 14.516-62.878-5.474-76.611-27.799-79.594-37.15a3.222 3.222 0 0 1 .531-2.884c4.827-6.842 26.852-45.411-13.64-133.061-18.161-39.314-21.408-70.404-20.938-89.568.424-17.2 3.838-28.117 5.009-31.385a282.06 282.06 0 0 1 21.521-18.567c8.644-6.731 17.218-12.42 25.51-17.923 24.94-16.549 46.479-30.842 55.6-63.374.058-.238.135-.468.204-.704zm199.8 246.267c-31 20.063-56.868 26.371-104.661 24.464 30.932-4.661 68.875-12.258 104.66-24.464zm-356.731-164.892a213.4 213.4 0 0 0 14.865-33.569c15.835-47.857 48.173-76.135 96.116-84.048a167.123 167.123 0 0 1 27.119-2.141c6.678 0 12.865.365 18.328.891-75.535 25.587-108.315 45.961-143.019 114.977a6 6 0 1 0 10.721 5.391c31.083-61.815 57.454-81.774 132.023-107.559a67.915 67.915 0 0 0 -9.625 17.92c-.055.142-.108.284-.153.429-.43 1.24-.841 2.5-1.207 3.8-7.913 28.239-26.785 40.761-50.676 56.614-8.478 5.626-17.245 11.444-26.247 18.453-28.716 22.359-51.964 48.707-69.1 78.311l-12.641 21.84c-3.838-38.705 8.178-81.338 13.496-91.309z"/><path d="m383.806 180.948a6 6 0 1 0 11.107-4.542c-1.58-3.865-3.312-7.761-5.147-11.58a6 6 0 0 0 -10.817 5.2c1.732 3.602 3.366 7.274 4.857 10.922z"/><path d="m392.5 186.6a6 6 0 0 0 -3.859 7.557c14.635 45.178 5.01 76.722 4.862 77.2a6 6 0 0 0 11.42 3.686c.46-1.42 11.084-35.342-4.866-84.579a6 6 0 0 0 -7.557-3.864z"/></g></svg>