<svg id="Layer_1" height="512" viewBox="0 0 512 512" width="512" xmlns="http://www.w3.org/2000/svg" data-name="Layer 1"><path d="m372.67 282.53c.25-117-77.65-189.92-144.85-208.23a28.807 28.807 0 0 0 -7.64-1.02 30.349 30.349 0 0 0 -13.62 3.26 30.271 30.271 0 0 1 -22.72 1.81l-5.41-1.72a30.258 30.258 0 0 0 -18.84.18c-64.59 21.95-133.63 95.87-132.76 198.37 1.33 155.51 98.92 219.82 170.74 219.82 37.73 0 91.57-24.46 127.09-61.88l47.68-131.38-.05-.14c.26-6.38.37-13.12.38-19.07z" fill="#a0b559"/><path d="m174.17 17.07c14.99 2.03 28.25 22.82 32.39 59.47a30.271 30.271 0 0 1 -22.72 1.81l-5.41-1.72c5.66-29.71-21.13-52.32-21.13-52.32s10.14-8.15 16.87-7.24z" fill="#8c6238"/><path d="m324.66 433.12c-95.32 18.88-182.59-45.69-207.2-69.17a6.615 6.615 0 0 1 2.6-11.09l12.59-3.93v.01s177.79 158.57 300.21-15.68c13.59-19.34 26.39-45.6 35.68-74.37l8.09-2.52a6.606 6.606 0 0 1 8.4 7.7c-8.81 42.19-32.29 84.75-53.59 107.04-34.84 36.45-71.37 54.99-106.78 62.01z" fill="#97a040"/><path d="m427.6 271.66a6.646 6.646 0 0 0 -3.29 2.32q-1.98 2.61-3.97 5.11a.01.01 0 0 0 -.01.01c-91.46 115.02-209.39 76.75-242.57 62.76-2.96-1.25-5.25-2.3-6.78-3.04a6.564 6.564 0 0 0 -4.79-.35l-33.54 10.46v.01s177.79 158.57 300.21-15.68c13.59-19.34 26.39-45.6 35.68-74.37z" fill="#f9d669"/><path d="m296.23 324.26c24.92-5.63 51.21-12.98 76.11-22.52a325.347 325.347 0 0 0 47.99-22.64c-91.46 115.02-209.39 76.75-242.57 62.76a818.92 818.92 0 0 0 118.47-17.6z" fill="#f5b95f"/><path d="m56.83 275.18c-.848-99.9 64.711-172.642 127.836-196.59-.276-.079-.552-.153-.826-.24l-5.41-1.72a30.258 30.258 0 0 0 -18.84.18c-64.59 21.95-133.63 95.87-132.76 198.37 1.33 155.51 98.92 219.82 170.74 219.82a103.68 103.68 0 0 0 14.081-1.028c-69.497-8.747-153.587-74.512-154.821-218.792z" fill="#849150"/><g fill="#243a54"><path d="m258.14 341.1a5.992 5.992 0 1 0 4.24 1.75 6.044 6.044 0 0 0 -4.24-1.75z"/><path d="m312.6 327.26a6.009 6.009 0 1 0 4.24 1.76 6.048 6.048 0 0 0 -4.24-1.76z"/><path d="m327.5 329.71a6.009 6.009 0 1 0 4.24 1.76 6.052 6.052 0 0 0 -4.24-1.76z"/><path d="m474.843 250.642-49.027 15.292a12.524 12.524 0 0 0 -6.282 4.422c-1.056 1.392-2.123 2.755-3.192 4.112a306.963 306.963 0 0 1 -37.784 18.31c.079-3.92.106-7.483.112-10.232.115-54.635-16.632-104.728-48.43-144.863-26.77-33.788-63.524-59-100.839-69.171a35.45 35.45 0 0 0 -17.887-.171c-5.208-33.593-18.617-54.792-36.54-57.216-8.843-1.181-19.4 6.876-21.43 8.506a6.009 6.009 0 0 0 -.122 9.253 67.739 67.739 0 0 1 11.691 13.962c5.64 8.923 8.347 17.835 8.088 26.574a35.868 35.868 0 0 0 -15.54 1.713c-68.661 23.33-137.708 100.929-136.828 204.1.767 90.206 33.367 143.482 60.567 172.291 31.624 33.486 75.052 53.476 116.171 53.476 40.6 0 95.007-26.161 130.128-62.4 2.216-.463 4.425-.953 6.622-1.5 36.838-9.149 70.972-29.958 101.452-61.851 19.827-20.749 45.541-64.005 55.127-109.957a12.6 12.6 0 0 0 -16.061-14.65zm-45.743 26.964a.609.609 0 0 1 .292-.216l29.634-9.244c-8.486 23.373-19.332 44.957-31.072 61.668-32.722 46.572-72.469 72.87-118.139 78.165-46.339 5.376-90.822-12.071-119.976-27.651a322.02 322.02 0 0 1 -44.749-28.986l22.893-7.14a.591.591 0 0 1 .175-.027.507.507 0 0 1 .225.05c10.747 5.162 49.638 21.895 98.963 21.057a191.974 191.974 0 0 0 80.441-18.832c30.394-14.629 57.751-37.79 81.313-68.844zm-34.935 21.566q-7.263 7.056-14.873 13.2a5.9 5.9 0 0 0 -2.3-6.042c5.795-2.262 11.534-4.643 17.169-7.158zm-24.985 16.208a6.024 6.024 0 0 0 3.991 1.747 179.56 179.56 0 0 1 -61.271 29.973 5.87 5.87 0 0 0 .075-.889 6 6 0 1 0 -10.913 3.432q-6.49 1.308-13.141 2.147a5.982 5.982 0 1 0 -1.186.121c.1 0 .192-.01.288-.014a192.874 192.874 0 0 1 -19.9 1.388 215.8 215.8 0 0 1 -61.118-7.979c8.625-.954 18.9-2.228 30.329-3.9a6 6 0 1 0 8.55-.076 5.892 5.892 0 0 0 -1.341-1.006c7.024-1.087 14.415-2.319 22.069-3.713 1.56-.284 3.148-.579 4.752-.881a5.951 5.951 0 0 0 -2.25 1.41 5.987 5.987 0 1 0 4.24-1.76c-.071 0-.141.008-.212.011 5.582-1.066 11.4-2.24 17.41-3.532a6 6 0 1 0 10.567-1.98 5.946 5.946 0 0 0 1.529-.729c10.29-2.4 20.975-5.131 31.8-8.241a5.93 5.93 0 0 0 -.086.961 6 6 0 1 0 10.424-4.036q3.846-1.183 7.7-2.438a6 6 0 0 0 -3.468 7.329l.286.923a6 6 0 0 0 11.463-3.55l-.286-.924a6 6 0 0 0 -7.209-4.032q7.66-2.5 15.284-5.265a5.947 5.947 0 0 0 -.14 1.263 6.012 6.012 0 0 0 1.764 4.24zm-202.427-290.141c2.66-1.441 5.226-2.412 6.612-2.221 13.942 1.884 23.211 25.617 26.656 49.692a24.078 24.078 0 0 1 -14.368-.083l-.614-.194c1.791-21.544-10.667-38.8-18.286-47.194zm312.4 237.6c-9.108 43.643-33.37 84.567-52.058 104.121-28.886 30.223-61.074 49.9-95.67 58.5-24.23 6.017-49.821 6.654-76.258 1.945a6 6 0 1 0 -2.144 11.8 207.116 207.116 0 0 0 36.431 3.317q8.811 0 17.467-.8c-32.49 28.032-76.066 47.278-109.35 47.278-37.88 0-78.047-18.585-107.444-49.714-25.727-27.247-56.559-77.844-57.295-164.154-.832-97.478 64.109-170.693 128.689-192.638a24.065 24.065 0 0 1 15.1-.141l5.411 1.713a36.047 36.047 0 0 0 27.225-2.17 23.834 23.834 0 0 1 16.991-1.806c34.9 9.512 69.374 33.22 94.588 65.045 30.095 37.985 45.945 85.493 45.836 137.386-.008 3.819-.06 9.245-.236 14.983a567.519 567.519 0 0 1 -71.1 20.791h-.109a5.982 5.982 0 0 0 -2.082.486c-10.419 2.335-20.367 4.321-29.524 5.99a816.694 816.694 0 0 1 -84.836 11c-2.152-.931-3.907-1.743-5.213-2.37a12.5 12.5 0 0 0 -9.168-.662l-46.136 14.39a12.613 12.613 0 0 0 -4.948 21.157c4.7 4.481 43.278 40.164 100.722 60.513a6.006 6.006 0 0 0 8.033-5.641v-.058a5.969 5.969 0 0 0 -3.939-5.63c-44.569-15.9-80.677-42.739-96.533-57.865a.543.543 0 0 1 -.167-.574.549.549 0 0 1 .406-.444l9.422-2.939a322.023 322.023 0 0 0 52.616 35.1c26.81 14.364 66.025 30.219 108.491 30.219a163.31 163.31 0 0 0 18.753-1.066c49.244-5.688 91.852-33.678 126.641-83.194 13.759-19.583 26.3-45.414 35.5-73.009l5.149-1.606a.493.493 0 0 1 .545.121.608.608 0 0 1 .198.628z"/></g></svg>