<svg id="Layer_1" height="512" viewBox="0 0 512 512" width="512" xmlns="http://www.w3.org/2000/svg" data-name="Layer 1"><path d="m285.09 155.51c-5.22-6.67-13.19-15.22-17.09-19.28-33.43-34.92-49.38-41.95-63.55-79.04-18.05-47.22-43.68-34.94-43.68-34.94v.01a40.447 40.447 0 0 0 -16.12-5.03 35.045 35.045 0 0 0 -25.32 6.95 34.319 34.319 0 0 0 -8.88 9.77c-1.22 0-27.2.62-23.34 49.84 3.11 39.61-8.27 52.83-23.5 98.78-11.13 33.61-27.86 132.34-2.31 202.54 15.73 43.24 31.69 70.27 88.61 86.89 11.95 3.49 23.32 8.61 34.41 14.29 8.58 4.4 30.29 5.41 47.72 5.09a60.771 60.771 0 0 0 27.41-7.15c12.35-6.59 25.21-15.14 30.21-22.32 3.37-4.83 3.72-5.62 7.64-9.99z" fill="#819848"/><path d="m442.41 241.71c11.45 19.54 61.58 134.89-45.35 202.09 0 0-20.73 9.25-22.36 32.1-.24 3.4-2.96 6.96-7.08 10.26a40.946 40.946 0 0 1 -46.15 3.21c-5.17-3.01-9.42-7.2-11.1-13.47a57.82 57.82 0 0 0 -13.07-23.98 47.11 47.11 0 0 0 -9.29-8.12c-106.93-67.2-56.79-182.55-45.34-202.09 3.37-5.75 29.65-45.49 42.42-86.2a152.623 152.623 0 0 0 6.3-28.5c5.42-48.59 50.08-43.63 50.08-43.63s46.8-4.96 52.21 43.63 44.56 107.59 48.73 114.7z" fill="#778c4f"/><path d="m423.47 258.51c9.34 15.94 49.22 110.08-38.04 164.91 0 0-24.88 14.39-31.85 30.53a10.954 10.954 0 0 1 -16.02 5.06 10.939 10.939 0 0 1 -4.03-4.65c-7.44-16.3-35.96-30.94-35.96-30.94-87.26-54.83-45.31-148.97-35.97-164.91 3.4-5.8 43.09-60.1 47.26-99.78.04-.37.08-.74.13-1.11 4.33-35.92 53.29-42.02 66.65-8.42a97.133 97.133 0 0 1 4.47 14.83c8.63 38.95 39.96 88.68 43.36 94.48z" fill="#d3844f"/><path d="m368.54 255.39c23.34 34.24 26.58 84.87-8.51 122.43 0 0-3.82 4.51-6.67 18.3a9.872 9.872 0 0 1 -19.28.34c-3.3-14.05-7.96-18.64-7.96-18.64-35.09-37.56-30.81-88.19-7.47-122.43 10.61-15.56 16.37-29.27 19.49-39.6a4.9 4.9 0 0 1 9.29-.29 190.165 190.165 0 0 0 21.11 39.89z" fill="#575666"/><path d="m179.91 472c-56.92-16.62-72.88-43.65-88.61-86.89-25.55-70.2-8.82-168.93 2.31-202.54 15.23-45.95 26.61-59.17 23.5-98.78-3.86-49.22 22.12-49.84 23.34-49.84a36 36 0 0 1 15.817-13.894 44.275 44.275 0 0 0 -11.617-2.826 35.045 35.045 0 0 0 -25.32 6.95 34.319 34.319 0 0 0 -8.88 9.77c-1.22 0-27.2.62-23.34 49.84 3.11 39.61-8.27 52.83-23.5 98.78-11.13 33.61-27.86 132.34-2.31 202.54 15.73 43.24 31.69 70.27 88.61 86.89 11.95 3.49 23.32 8.61 34.41 14.29 8.58 4.4 30.29 5.41 47.72 5.09a59.949 59.949 0 0 0 6.5-.492c-10.188-.687-19.334-2.092-24.22-4.6-11.09-5.678-22.46-10.798-34.41-14.288z" fill="#67753b"/><path d="m327.57 423.42c-87.26-54.83-45.31-148.97-35.97-164.91 3.4-5.8 43.09-60.1 47.26-99.78.04-.37.08-.74.13-1.11 1.618-13.425 9.471-22.682 19.369-27.261-19.5-9.2-46.222 1.151-49.369 27.261-.05.37-.09.74-.13 1.11-4.17 39.68-43.86 93.98-47.26 99.78-9.34 15.94-51.29 110.08 35.97 164.91 0 0 28.52 14.64 35.96 30.94a10.88 10.88 0 0 0 9.93 6.37 11.058 11.058 0 0 0 10.12-6.78 36.88 36.88 0 0 1 4.61-7.638c-10.925-12.775-30.62-22.892-30.62-22.892z" fill="#a86b42"/><g fill="#243a54"><path d="m109.335 188.489c0-.232-.307-23.554 11.809-57.741 11.489-32.417 2.862-48.656 1.84-50.4a6 6 0 1 0 -10.355 6.062c.071.123 6.891 13-2.8 40.33-12.829 36.222-12.512 60.945-12.492 61.98a6 6 0 0 0 6 5.884h.117a6 6 0 0 0 5.881-6.115z"/><path d="m235.081 164.736a6 6 0 0 0 5.465-8.47c-.426-.943-10.736-23.4-37.855-50.57-13.816-13.84-18-25.1-19.263-30.944a6.029 6.029 0 1 0 -11.784 2.56c1.677 7.945 6.887 21.168 22.555 36.862 25.445 25.489 35.317 46.826 35.409 47.026a6 6 0 0 0 5.473 3.536z"/><path d="m186.87 437.907c-39.008-7.451-55.152-42.117-55.357-42.568a6 6 0 0 0 -10.953 4.906c.743 1.661 18.7 40.785 64.058 49.449a6 6 0 1 0 2.252-11.787z"/><path d="m121.112 379.219a54.127 54.127 0 0 1 -4.939-10.672 6 6 0 1 0 -11.3 4.04 64.88 64.88 0 0 0 6.152 13.135 6 6 0 0 0 10.086-6.5z"/><path d="m427.316 253.258c-27.774-45.946-37.813-74.59-41.343-90.528a103.156 103.156 0 0 0 -4.759-15.743c-8.144-20.485-27.566-27.606-43.208-25.577-18.941 2.459-32.669 16.39-34.978 35.5-.047.393-.092.789-.134 1.2-3.484 33.1-33.465 77.848-43.318 92.552-1.635 2.44-2.621 3.912-3.149 4.813-.742 1.265-18.156 31.417-19.064 70.77-.988 42.837 18.728 78.2 57.016 102.26.146.092.3.178.452.257 7.416 3.807 27.845 16.276 33.241 28.1a16.93 16.93 0 0 0 31.016-.532c5.053-11.7 22.9-23.972 29.35-27.709.063-.037.127-.075.189-.114 38.281-24.058 58.354-59.385 58.05-102.165-.23-32.1-11.9-60.391-18.031-70.864-.275-.478-.726-1.223-1.33-2.22zm-44.988 165.028c-2.072 1.21-26.755 15.906-34.258 33.28a5.086 5.086 0 0 1 -4.607 3.168 4.925 4.925 0 0 1 -4.475-2.862c-7.914-17.337-35.331-32.042-38.431-33.662-34.869-21.991-52.093-52.839-51.2-91.692.67-29.028 11.688-55.2 17.42-64.98.346-.589 1.467-2.263 2.765-4.2 10.262-15.315 41.489-61.92 45.281-97.966.038-.351.077-.7.117-1.034 1.977-16.372 14.492-23.715 24.608-25.028 10.221-1.326 24.353 2.619 30.513 18.111a91.214 91.214 0 0 1 4.192 13.9c3.725 16.817 14.173 46.8 42.791 94.14.564.935.988 1.634 1.245 2.073 4.483 7.652 16.166 34.224 16.385 64.884.28 38.926-17.33 69.832-52.346 91.868z"/><path d="m353.047 213.388a10.9 10.9 0 0 0 -20.648.66 139.9 139.9 0 0 1 -18.708 37.963 110.128 110.128 0 0 0 -19.216 63.458c.459 24.869 9.885 47.847 27.258 66.448a1.541 1.541 0 0 0 .119.131c.463.555 3.823 4.861 6.391 15.783a15.917 15.917 0 0 0 15.441 12.207h.381a15.83 15.83 0 0 0 15.168-12.7c2.193-10.612 4.931-14.956 5.407-15.653 17.276-18.605 26.8-41.467 27.551-66.14a107.866 107.866 0 0 0 -18.7-63.53 184.3 184.3 0 0 1 -20.444-38.627zm27.153 101.787c-.664 21.82-9.152 42.067-24.549 58.552-.065.069-.127.141-.19.213-.8.948-4.97 6.415-7.977 20.964a3.882 3.882 0 0 1 -3.7 3.133 3.85 3.85 0 0 1 -3.85-2.951c-3.394-14.433-8.243-20.151-9.476-21.417-33.988-36.451-27.934-83.966-6.843-114.9a154.294 154.294 0 0 0 19.333-38.256 198.932 198.932 0 0 0 20.64 38.256 95.783 95.783 0 0 1 16.612 56.406z"/><path d="m342.367 250.459c.177.016.353.023.527.023a6 6 0 0 0 5.97-5.48l.263-3.021a6 6 0 0 0 -11.955-1.04l-.263 3.021a6 6 0 0 0 5.458 6.497z"/><path d="m328.92 270.7a6 6 0 0 0 7.771-3.407l1.1-2.824a6 6 0 1 0 -11.178-4.364l-1.1 2.824a6 6 0 0 0 3.407 7.771z"/><path d="m346.14 263.32.56 2.98a6 6 0 0 0 11.793-2.218l-.56-2.98a6 6 0 0 0 -11.793 2.218z"/><path d="m341.5 277.971a5.976 5.976 0 0 0 -6.423 5.545l-.222 3.025a6 6 0 0 0 5.546 6.422c.15.011.3.016.445.016a6 6 0 0 0 5.978-5.562l.222-3.024a6 6 0 0 0 -5.546-6.422z"/><path d="m319.311 302.31h.24a6 6 0 0 0 5.759-6.231l-.119-3.03a6 6 0 1 0 -11.99.472l.119 3.029a6 6 0 0 0 5.991 5.76z"/><path d="m353.821 296.628a6 6 0 0 0 -5.535 6.432l.227 3.023a6 6 0 0 0 5.976 5.552c.152 0 .3-.006.455-.017a6 6 0 0 0 5.536-6.432l-.227-3.023a6.022 6.022 0 0 0 -6.432-5.535z"/><path d="m338.747 311.163a6 6 0 0 0 -11.988-.526l-.133 3.03a6 6 0 0 0 5.731 6.257c.09 0 .179.006.268.006a6 6 0 0 0 5.989-5.738z"/><path d="m359.6 283.744.412 3a6 6 0 1 0 11.888-1.631l-.412-3a6 6 0 1 0 -11.888 1.631z"/><path d="m368.172 315.272a6.011 6.011 0 0 0 -6.279 5.707l-.145 3.029a6 6 0 0 0 5.707 6.279c.1 0 .194.007.291.007a6 6 0 0 0 5.988-5.714l.145-3.029a6 6 0 0 0 -5.707-6.279z"/><path d="m351.122 331.787a6 6 0 1 0 -12-.317l-.08 3.031a6 6 0 0 0 5.84 6.157h.161a6 6 0 0 0 5.995-5.842z"/><path d="m323.3 328-1.205-2.781a6 6 0 1 0 -11.01 4.772l1.2 2.78a6 6 0 1 0 11.015-4.771z"/><path d="m331.329 347.959a6 6 0 1 0 -9.474 7.364l1.858 2.391a6 6 0 1 0 9.475-7.363z"/><path d="m360.216 344.8a6 6 0 0 0 -7.772 3.407l-1.1 2.823a6 6 0 1 0 11.176 4.37l1.1-2.824a6 6 0 0 0 -3.404-7.776z"/><path d="m348.868 369.474a6 6 0 0 0 -11.957 1.017l.257 3.021a6 6 0 0 0 5.972 5.488c.17 0 .342-.007.514-.022a6 6 0 0 0 5.471-6.486z"/><path d="m447.583 238.673c-.4-.676-1.1-1.8-2.047-3.334-27.288-43.919-42.728-80.588-45.893-108.989-5.643-50.65-52.137-49.373-58.164-48.987-5.96-.388-50.417-1.565-56.049 48.987a131.129 131.129 0 0 1 -3.03 16.65c-4.314-4.875-8.436-9.221-10.065-10.922-8.767-9.154-16.306-16.374-22.956-22.744-18.9-18.1-29.316-28.076-39.331-54.286-7.748-20.282-17.988-33.082-30.437-38.048a28.847 28.847 0 0 0 -18.238-1.287 48.476 48.476 0 0 0 -16.048-4.452 40.978 40.978 0 0 0 -29.64 8.147 41.689 41.689 0 0 0 -8.747 8.913 27.151 27.151 0 0 0 -14.716 8.279c-9.083 9.62-12.814 25.656-11.089 47.662 2.193 27.986-2.933 41.483-12.238 65.984-3.275 8.62-6.986 18.391-10.976 30.438-11.557 34.876-28.169 135.292-2.26 206.476 8.2 22.539 16.458 40.592 30.081 55.435 14.476 15.771 34.33 26.946 62.484 35.167 9.964 2.909 20.565 7.317 33.362 13.871 9.463 4.847 29.694 5.8 44.174 5.8 2.3 0 4.453-.024 6.394-.06a66.994 66.994 0 0 0 30.116-7.856c9.192-4.9 25.614-14.562 32.318-24.185.582-.837 1.076-1.553 1.515-2.189.425-.618.787-1.144 1.123-1.623a51.687 51.687 0 0 1 7.351 15.934c1.9 7.087 6.564 12.84 13.868 17.1a47.219 47.219 0 0 0 23.8 6.406 46.546 46.546 0 0 0 29.129-10.121c5.824-4.67 8.956-9.552 9.31-14.51 1.341-18.851 18.132-26.736 18.822-27.051a5.912 5.912 0 0 0 .749-.4c25.554-16.059 44.392-36.111 55.992-59.6 9.562-19.363 14.231-41.06 13.877-64.487-.583-38.684-14.999-73.247-22.541-86.118zm-53.408 199.856c-3.389 1.639-23.717 12.47-25.46 36.95-.06.833-1.147 3.034-4.846 6a35.067 35.067 0 0 1 -39.379 2.711c-4.6-2.681-7.242-5.807-8.321-9.837-6.475-24.181-24.293-35.224-24.968-35.633-40.631-25.534-62.16-60.745-64.114-104.75a6 6 0 0 0 -5.974-5.77h-.039a5.965 5.965 0 0 0 -5.977 6.2 136.8 136.8 0 0 0 13.727 54.88c11.6 23.49 30.438 43.542 56.049 59.637a34.955 34.955 0 0 1 4.264 3.354c-1 1.292-1.805 2.453-2.918 4.07-.428.621-.909 1.321-1.478 2.137-3.733 5.358-14.508 13.2-28.118 20.454a54.917 54.917 0 0 1 -24.693 6.446c-21.236.4-38.848-1.338-44.873-4.424-13.49-6.909-24.76-11.583-35.47-14.71-56.606-16.53-70.269-43.669-84.652-83.187-24.841-68.252-8.77-164.962 2.375-198.6 3.91-11.8 7.572-21.444 10.8-29.952 9.269-24.398 15.39-40.515 12.99-71.183-1.785-22.722 3.154-33.335 7.61-38.232.055-.06.11-.111.166-.17a40.153 40.153 0 0 0 2.6 16.947 6 6 0 1 0 11.265-4.134c-4.338-11.821-1.645-21.239 8.232-28.791a29.073 29.073 0 0 1 21.01-5.754c14.9 1.676 23.094 9.211 24.348 22.4a6 6 0 1 0 11.945-1.135 38.136 38.136 0 0 0 -5.113-16.3c9.076 3.62 17.264 14.4 23.676 31.182 10.98 28.723 23.417 40.634 42.242 58.665 6.564 6.286 14 13.411 22.591 22.378 4.451 4.647 10.345 11.076 14.74 16.4-7.5 22.692-20.5 48.979-38.876 78.561-.95 1.53-1.65 2.658-2.047 3.335-5.535 9.445-14.766 30.578-19.521 56.445a5.979 5.979 0 1 0 11.763 2.148c5.66-30.941 17.954-52.257 18.112-52.526.365-.623 1.011-1.661 1.886-3.069 28.239-45.449 44.263-83.8 47.627-113.993 1.963-17.626 9.7-29.4 22.987-34.989a46.986 46.986 0 0 1 17.737-3.448c1.672 0 2.685.1 2.749.1a6.15 6.15 0 0 0 1.258 0 51.427 51.427 0 0 1 21.647 3.364c13.952 5.6 22.022 17.367 23.983 34.968 3.363 30.191 19.388 68.544 47.627 113.993.875 1.408 1.521 2.446 1.886 3.068.2.345 20.214 35.009 20.9 80.233.723 48.118-20.791 86.321-63.955 113.561z"/></g></svg>