<svg id="Layer_1" height="512" viewBox="0 0 512 512" width="512" xmlns="http://www.w3.org/2000/svg" data-name="Layer 1"><path d="m178.76 115.83a33.8 33.8 0 0 0 -5.47.81 44.274 44.274 0 0 0 -13.3 5.6q-8.1 1.32-15.73 3.15c-95.86 22.99-135.99 105.63-125.69 192.46 11.85 99.85 98.55 171.68 193.64 160.43a165.826 165.826 0 0 0 66.75-22.98v-.01l16.44-301.64v-.01c-32.41-26.1-73.41-40.46-116.64-37.81z" fill="#7c3245"/><path d="m173.29 116.64a44.274 44.274 0 0 0 -13.3 5.6q-8.1 1.32-15.73 3.15c-6.73-28.42-8.46-30.09-28.06-63.78a3.716 3.716 0 0 1 -.16-3.43l10.84-23.45a3.743 3.743 0 0 1 6.48-.55c26.56 38.52 28.6 47.14 39.93 82.46z" fill="#5c776c"/><path d="m336.05 148.41c87.78 0 158.95 71.06 158.95 158.72s-71.17 158.71-158.95 158.71a158.783 158.783 0 0 1 -158.96-158.71c0-73.63 50.21-135.54 118.31-153.48a159.269 159.269 0 0 1 40.65-5.24z" fill="#e2798d"/><path d="m336.05 178.36c71.22 0 128.96 57.65 128.96 128.77s-57.74 128.77-128.96 128.77-128.96-57.66-128.96-128.77 57.73-128.77 128.96-128.77z" fill="#f5c577"/><path d="m418.88 313.68c10.4-4.1 32.75-10.8 29.1 9.29-2.93 16.08-21.47 3.34-29.97-3.48a3.4 3.4 0 0 1 .87-5.81z" fill="#6d6653"/><path d="m443.16 272.61c4.65 15.66-17.65 12.65-28.31 10.38a3.4 3.4 0 0 1 -1.86-5.57c7.43-8.35 24.36-24.39 30.17-4.81z" fill="#6d6653"/><path d="m405.17 350.18c11.13 1.05 34.09 5.21 21.71 21.46-9.92 13-20.65-6.75-25.12-16.68a3.394 3.394 0 0 1 3.41-4.78z" fill="#6d6653"/><path d="m420.1 232.19c10.67 12.38-10.91 18.76-21.56 21.07a3.4 3.4 0 0 1 -3.98-4.33c3.34-10.65 12.19-32.22 25.54-16.74z" fill="#6d6653"/><path d="m365.15 302.28c9.73-5.5 30.93-15.23 30.11 5.17-.67 16.33-20.8 6.29-30.16.71a3.4 3.4 0 0 1 .05-5.88z" fill="#6d6653"/><path d="m375.74 377.27c9.26 6.24 27.43 20.88 8.76 29.22-14.94 6.67-14.89-15.8-14.05-26.65a3.4 3.4 0 0 1 5.29-2.57z" fill="#6d6653"/><path d="m383.59 205.28c14.74 7.09-2.48 21.55-11.32 27.92a3.406 3.406 0 0 1 -5.38-2.38c-1.2-11.1-1.73-34.4 16.7-25.54z" fill="#6d6653"/><path d="m380 265.79c11.09 12.01-10.26 19.12-20.83 21.79a3.4 3.4 0 0 1 -4.12-4.19c2.98-10.76 11.08-32.61 24.95-17.6z" fill="#6d6653"/><path d="m358.91 322.78c10.78 2.97 32.66 11.07 17.63 24.91-12.03 11.08-19.15-10.24-21.82-20.8a3.394 3.394 0 0 1 4.19-4.11z" fill="#6d6653"/><path d="m341.3 386.87c5.67 9.63 15.75 30.64-4.69 30.15-16.36-.4-6.63-20.66-1.19-30.1a3.4 3.4 0 0 1 5.88-.05z" fill="#6d6653"/><path d="m339.7 247.1c16.35.66 6.29 20.77.71 30.11a3.414 3.414 0 0 1 -5.89-.04c-5.51-9.72-15.25-30.89 5.18-30.07z" fill="#6d6653"/><path d="m339.99 332.86c5.52 9.72 15.26 30.89-5.18 30.07-16.35-.67-6.29-20.77-.7-30.12a3.409 3.409 0 0 1 5.88.05z" fill="#6d6653"/><path d="m337.91 195.18c16.36.39 6.63 20.65 1.19 30.09a3.4 3.4 0 0 1 -5.88.05c-5.67-9.63-15.76-30.64 4.69-30.14z" fill="#6d6653"/><path d="m319.8 283.13a3.4 3.4 0 0 1 -4.2 4.12c-10.78-2.97-32.66-11.07-17.62-24.91 12.03-11.08 19.15 10.24 21.82 20.79z" fill="#6d6653"/><path d="m315.34 322.45a3.4 3.4 0 0 1 4.13 4.19c-2.98 10.76-11.09 32.61-24.95 17.6-11.09-12.01 10.25-19.13 20.82-21.79z" fill="#6d6653"/><path d="m309.42 301.87a3.392 3.392 0 0 1 -.05 5.87c-9.73 5.51-30.94 15.24-30.11-5.17.66-16.32 20.79-6.28 30.16-.7z" fill="#6d6653"/><path d="m48.57 317.85c-10.3-86.83 29.83-169.47 125.69-192.46q7.635-1.83 15.73-3.15a44.274 44.274 0 0 1 13.3-5.6c.554-.127 1.1-.236 1.65-.336a165.724 165.724 0 0 0 -26.18-.474 33.8 33.8 0 0 0 -5.47.81 44.274 44.274 0 0 0 -13.3 5.6q-8.1 1.32-15.73 3.15c-95.86 22.99-135.99 105.63-125.69 192.46 11.659 98.244 95.781 169.361 189.059 160.907-80.703-7.326-148.667-73.338-159.059-160.907z" fill="#632a3a"/><path d="m237.09 307.13a128.844 128.844 0 0 1 113.959-127.9 130.526 130.526 0 0 0 -15-.872c-71.23 0-128.96 57.65-128.96 128.77s57.731 128.772 128.961 128.772a130.526 130.526 0 0 0 15-.872 128.853 128.853 0 0 1 -113.96-127.898z" fill="#d6ad72"/><path d="m307.63 381.37c1.2 11.1 1.72 34.4-16.7 25.54-14.75-7.09 2.47-21.55 11.32-27.92a3.406 3.406 0 0 1 5.38 2.38z" fill="#6d6653"/><path d="m290.02 205.7c14.93-6.67 14.89 15.8 14.05 26.65a3.4 3.4 0 0 1 -5.29 2.57c-9.27-6.24-27.43-20.88-8.76-29.22z" fill="#6d6653"/><path d="m275.98 358.93a3.4 3.4 0 0 1 3.98 4.33c-3.35 10.66-12.2 32.22-25.54 16.74-10.68-12.38 10.9-18.76 21.56-21.07z" fill="#6d6653"/><path d="m272.76 257.23a3.4 3.4 0 0 1 -3.41 4.78c-11.14-1.05-34.1-5.21-21.71-21.46 9.91-13 20.65 6.75 25.12 16.68z" fill="#6d6653"/><path d="m259.67 329.2a3.393 3.393 0 0 1 1.85 5.57c-7.43 8.35-24.35 24.39-30.17 4.81-4.65-15.66 17.65-12.65 28.32-10.38z" fill="#6d6653"/><path d="m256.5 290.54a3.4 3.4 0 0 1 -.86 5.81c-10.4 4.1-32.76 10.8-29.1-9.3 2.93-16.07 21.46-3.34 29.96 3.49z" fill="#6d6653"/><g fill="#243a54"><path d="m47.823 291.981c.1 0 .2 0 .3-.007a6 6 0 0 0 5.7-6.288c-.227-4.626-.317-9.372-.266-14.108a6 6 0 1 0 -12-.13c-.054 4.975.04 9.964.279 14.827a6 6 0 0 0 5.987 5.706z"/><path d="m55.25 302.23a6 6 0 0 0 -11.907 1.486c7.488 60.019 35.526 90.582 36.716 91.854a6 6 0 0 0 8.772-8.189c-.266-.281-26.607-29.256-33.581-85.151z"/><path d="m336.047 172.356c-74.418 0-134.961 60.458-134.961 134.77s60.543 134.774 134.961 134.774 134.961-60.457 134.961-134.769-60.543-134.775-134.961-134.775zm0 257.539c-67.8 0-122.961-55.074-122.961-122.769s55.16-122.77 122.961-122.77 122.961 55.074 122.961 122.77-55.16 122.774-122.961 122.774z"/><path d="m339.944 241.108c-9.813-.4-14.365 3.6-16.452 7.02-4.244 6.962-2.288 17.728 5.814 32a9.293 9.293 0 0 0 8.059 4.75h.105a9.452 9.452 0 0 0 8.087-4.586c8.615-14.415 11.091-25.223 7.358-32.125-1.649-3.047-5.237-6.746-12.971-7.059zm-2.4 28.984c-4.7-9.446-4.637-14.359-3.809-15.718.5-.816 2.322-1.294 4.85-1.294q.423 0 .871.018c1.742.07 2.725.453 2.9.779.844 1.551.095 7.023-4.809 16.215z"/><path d="m334.572 368.92q.684.029 1.334.028c8.9 0 13.128-3.785 15.117-7.048 4.245-6.962 2.288-17.728-5.814-32a9.405 9.405 0 0 0 -16.25-.164c-8.615 14.415-11.091 25.224-7.358 32.125 1.648 3.048 5.237 6.746 12.971 7.059zm2.4-28.984c4.7 9.447 4.636 14.359 3.808 15.718-.553.908-2.745 1.4-5.72 1.276-1.742-.07-2.725-.453-2.9-.779-.843-1.551-.095-7.024 4.809-16.215z"/><path d="m394.2 320.648c3.044-1.649 6.737-5.234 7.051-12.951.4-9.8-3.593-14.339-7.01-16.426-6.965-4.251-17.746-2.3-32.048 5.791a9.29 9.29 0 0 0 -4.759 8.061 9.442 9.442 0 0 0 4.6 8.19c10.086 6.011 18.407 9.027 24.86 9.027a15.131 15.131 0 0 0 7.306-1.692zm-21.957-15.348c9.463-4.692 14.382-4.622 15.744-3.79.9.553 1.393 2.736 1.273 5.7-.07 1.731-.452 2.709-.777 2.886-1.555.843-7.034.104-16.24-4.796z"/><path d="m280.317 289.38c-3.044 1.649-6.738 5.234-7.051 12.951-.4 9.8 3.592 14.339 7.009 16.426a16.031 16.031 0 0 0 8.514 2.189c6.271 0 14.145-2.666 23.535-7.981a9.29 9.29 0 0 0 4.76-8.06 9.445 9.445 0 0 0 -4.6-8.19c-14.441-8.607-25.264-11.073-32.167-7.335zm6.212 19.135c-.906-.553-1.393-2.736-1.273-5.7.07-1.732.452-2.71.776-2.885a3.561 3.561 0 0 1 1.641-.3c2.566 0 7.463 1.3 14.6 5.092-9.463 4.696-14.381 4.624-15.744 3.793z"/><path d="m370.024 356.8c2.989 0 6.657-1.084 10.58-4.7 7.22-6.647 7.614-12.682 6.672-16.574-1.918-7.926-10.924-14.162-26.768-18.537a9.3 9.3 0 0 0 -9.066 2.342 9.441 9.441 0 0 0 -2.541 9.032c4.117 16.277 10.018 25.665 17.541 27.906a12.539 12.539 0 0 0 3.582.531zm5.588-18.447c.249 1.026-.953 2.913-3.136 4.923-1.281 1.18-2.249 1.6-2.608 1.5-1.694-.5-5.042-4.9-8.083-14.853 10.023 3.359 13.453 6.877 13.827 8.428z"/><path d="m293.912 257.925c-7.221 6.648-7.614 12.683-6.672 16.575 1.918 7.926 10.923 14.163 26.768 18.537a9.519 9.519 0 0 0 2.537.346 9.3 9.3 0 0 0 6.529-2.688 9.443 9.443 0 0 0 2.54-9.033c-4.114-16.276-10.014-25.662-17.541-27.906-3.319-.988-8.473-1.068-14.161 4.169zm4.991 13.753c-.249-1.028.953-2.914 3.137-4.925a4.95 4.95 0 0 1 2.484-1.512.455.455 0 0 1 .124.016c1.694.5 5.042 4.9 8.083 14.853-10.023-3.363-13.454-6.886-13.831-8.432z"/><path d="m303.585 355.338a13.2 13.2 0 0 0 3.121-.374c7.928-1.921 14.168-10.913 18.547-26.728a9.288 9.288 0 0 0 -2.334-9.056 9.446 9.446 0 0 0 -9.041-2.55c-16.308 4.113-25.71 10.012-27.947 17.533-.987 3.318-1.063 8.466 4.182 14.146 5.075 5.497 9.787 7.029 13.472 7.029zm-6.153-17.754c.5-1.69 4.906-5.034 14.89-8.074-3.366 9.991-6.893 13.417-8.442 13.792-1.043.246-2.935-.95-4.952-3.135-1.177-1.274-1.6-2.232-1.496-2.583z"/><path d="m367.81 255.064c-7.929 1.921-14.168 10.913-18.547 26.728a9.286 9.286 0 0 0 2.334 9.057 9.443 9.443 0 0 0 9.042 2.549c16.308-4.112 25.711-10.011 27.948-17.532.987-3.319 1.063-8.467-4.182-14.147-6.66-7.211-12.7-7.599-16.595-6.655zm9.274 17.38c-.5 1.691-4.907 5.035-14.89 8.074 3.366-9.991 6.893-13.416 8.442-13.792a1.246 1.246 0 0 1 .293-.033c1.078 0 2.819 1.175 4.659 3.167 1.177 1.275 1.601 2.233 1.496 2.584z"/><path d="m336.135 232.983h.05a9.449 9.449 0 0 0 8.114-4.717c8.381-14.553 10.681-25.4 6.838-32.239-1.7-3.021-5.345-6.662-13.083-6.85-9.834-.248-14.306 3.829-16.336 7.284-4.132 7.03-2 17.763 6.33 31.9a9.294 9.294 0 0 0 8.087 4.622zm-4.071-30.441c.5-.86 2.459-1.375 5.159-1.375.176 0 .356 0 .539.006 1.743.043 2.732.41 2.913.732.865 1.538.2 7.022-4.549 16.29-4.854-9.369-4.869-14.282-4.062-15.653z"/><path d="m338.331 379.208a9.45 9.45 0 0 0 -8.115 4.718c-8.381 14.552-10.682 25.4-6.838 32.239 1.7 3.021 5.345 6.662 13.083 6.85.278.007.549.01.818.01 9.255 0 13.545-3.937 15.518-7.3 4.131-7.029 2-17.762-6.33-31.9a9.239 9.239 0 0 0 -8.136-4.617zm4.121 30.441c-.538.916-2.718 1.443-5.7 1.369-1.743-.043-2.732-.41-2.914-.732-.864-1.538-.2-7.022 4.55-16.29 4.856 9.369 4.87 14.282 4.064 15.653z"/><path d="m416.676 308.1a9.292 9.292 0 0 0 -5.833 7.323 9.44 9.44 0 0 0 3.414 8.746c10.414 8.363 19.1 12.571 25.924 12.571a13.973 13.973 0 0 0 4.914-.845c3.244-1.21 7.4-4.249 8.784-11.847 1.756-9.646-1.564-14.7-4.658-17.239-6.306-5.178-17.256-4.743-32.545 1.291zm25.4 13.8c-.31 1.707-.825 2.624-1.173 2.753-1.654.617-6.98-.877-15.415-7 10.026-3.335 14.89-2.583 16.12-1.572.817.674.992 2.903.465 5.819z"/><path d="m236.963 306.8c5.669 0 12.644-1.626 20.876-4.876a9.288 9.288 0 0 0 5.833-7.322 9.44 9.44 0 0 0 -3.414-8.747c-13.106-10.525-23.48-14.472-30.838-11.725-3.244 1.21-7.4 4.248-8.783 11.846-1.756 9.646 1.564 14.7 4.658 17.24 2.911 2.393 6.81 3.584 11.668 3.584zm-4.521-18.675c.311-1.707.826-2.623 1.173-2.752a2.521 2.521 0 0 1 .873-.129c2.282 0 7.25 1.834 14.542 7.125-10.026 3.337-14.887 2.585-16.12 1.572-.819-.668-.998-2.897-.468-5.812z"/><path d="m408.284 221.054c-7.99 1.649-14.534 10.423-19.451 26.078a9.289 9.289 0 0 0 2.021 9.132 9.44 9.44 0 0 0 8.95 2.857c16.44-3.554 26.039-9.128 28.532-16.569 1.1-3.283 1.351-8.425-3.7-14.279-6.405-7.434-12.427-8.026-16.352-7.219zm2.67 11.728c1.074 0 2.8 1.239 4.6 3.325 1.132 1.314 1.523 2.286 1.407 2.633-.561 1.673-5.077 4.864-15.158 7.561 3.706-9.87 7.348-13.173 8.909-13.495a1.212 1.212 0 0 1 .242-.024z"/><path d="m283.662 355.928a9.448 9.448 0 0 0 -8.95-2.858c-16.44 3.554-26.039 9.129-28.531 16.569-1.1 3.283-1.351 8.425 3.7 14.279 5.087 5.9 9.932 7.493 13.676 7.493a13.253 13.253 0 0 0 2.68-.274c7.989-1.649 14.534-10.423 19.451-26.078a9.287 9.287 0 0 0 -2.026-9.131zm-19.856 23.457c-1.049.217-2.9-1.05-4.841-3.3-1.132-1.313-1.523-2.285-1.406-2.632.56-1.673 5.076-4.864 15.156-7.561-3.705 9.868-7.348 13.17-8.909 13.493z"/><path d="m405.734 344.2a9.292 9.292 0 0 0 -8.52 3.884 9.442 9.442 0 0 0 -.926 9.339c6.9 15.312 14.347 23.529 22.146 24.423a12.828 12.828 0 0 0 1.452.084c3.332 0 7.7-1.325 11.762-6.656 5.949-7.8 5.284-13.812 3.679-17.48-3.27-7.469-13.227-12.042-29.593-13.594zm16.371 23.8c-1.055 1.383-1.948 1.964-2.3 1.925-1.757-.2-5.821-3.945-10.554-13.217 10.456 1.568 14.448 4.44 15.087 5.9.419.969-.438 3.035-2.233 5.392z"/><path d="m268.781 267.988q.461.043.915.043a9.286 9.286 0 0 0 7.6-3.926 9.44 9.44 0 0 0 .928-9.339c-6.9-15.313-14.348-23.53-22.147-24.423-3.443-.4-8.529.426-13.214 6.572-5.948 7.8-5.283 13.812-3.678 17.48 3.274 7.471 13.231 12.045 29.596 13.593zm-16.371-23.8c1.02-1.338 1.875-1.929 2.266-1.929a.238.238 0 0 1 .039 0c1.756.2 5.82 3.944 10.554 13.216-10.455-1.567-14.449-4.439-15.087-5.9-.424-.961.43-3.027 2.228-5.385z"/><path d="m379.089 372.292a9.3 9.3 0 0 0 -9.337-.668 9.447 9.447 0 0 0 -5.289 7.752c-1.289 16.736 1.31 27.514 7.726 32.034a12.559 12.559 0 0 0 7.345 2.3 18.137 18.137 0 0 0 7.412-1.742c8.968-4.007 11.262-9.605 11.608-13.6.704-8.121-5.845-16.895-19.465-26.076zm2.962 28.718c-1.592.712-2.646.805-2.951.59-1.444-1.017-3.214-6.25-2.921-16.653 8.426 6.373 10.557 10.8 10.42 12.387-.092 1.055-1.834 2.466-4.548 3.676z"/><path d="m295.426 239.9a9.3 9.3 0 0 0 9.338.667 9.441 9.441 0 0 0 5.288-7.751c1.29-16.736-1.309-27.514-7.725-32.034-2.834-2-7.693-3.714-14.758-.556-8.967 4.006-11.261 9.6-11.608 13.594-.704 8.123 5.845 16.897 19.465 26.08zm-2.961-28.718a6.7 6.7 0 0 1 2.474-.692.863.863 0 0 1 .477.1c1.443 1.017 3.213 6.249 2.92 16.652-8.426-6.373-10.557-10.8-10.419-12.387.091-1.055 1.834-2.462 4.548-3.674z"/><path d="m308.088 373.166a9.446 9.446 0 0 0 -9.343.957c-13.641 9.818-20.21 18.759-19.521 26.574.3 3.451 2.13 8.267 9.1 11.62a22.826 22.826 0 0 0 9.86 2.547 13.64 13.64 0 0 0 8.026-2.468c6.661-4.706 9.145-15.362 7.383-31.671a9.29 9.29 0 0 0 -5.505-7.559zm-8.8 29.43c-.871.615-3.08.2-5.762-1.094-1.568-.754-2.317-1.491-2.349-1.857-.154-1.756 2.708-6.483 10.868-12.978.555 10.527-1.457 15.01-2.757 15.933z"/><path d="m366.427 239.025a9.456 9.456 0 0 0 9.343-.956c13.642-9.819 20.209-18.759 19.521-26.575-.3-3.45-2.13-8.266-9.1-11.619-8.852-4.257-14.614-2.393-17.887-.08-6.66 4.707-9.144 15.363-7.383 31.672a9.292 9.292 0 0 0 5.506 7.558zm8.8-29.43a1.988 1.988 0 0 1 1.144-.279 11.814 11.814 0 0 1 4.618 1.374c1.568.753 2.316 1.49 2.348 1.856.155 1.756-2.708 6.483-10.867 12.978-.557-10.524 1.457-15.01 2.758-15.924z"/><path d="m266 338.761a9.284 9.284 0 0 0 1.9-9.16 9.444 9.444 0 0 0 -6.993-6.273c-16.455-3.492-27.5-2.336-32.824 3.43-2.348 2.543-4.686 7.128-2.488 14.534 2.792 9.4 8.037 12.412 11.947 13.283a14.012 14.012 0 0 0 3.067.334c7.323 0 15.845-5.416 25.391-16.148zm-25.844 4.1c-1.038-.232-2.208-2.142-3.053-4.986-.493-1.661-.449-2.708-.2-2.978.759-.822 3.214-1.549 7.53-1.549a59.6 59.6 0 0 1 9.395.854c-7.428 7.488-12.113 9.004-13.669 8.661z"/><path d="m408.512 273.43a9.287 9.287 0 0 0 -1.9 9.161 9.447 9.447 0 0 0 6.994 6.272 79.748 79.748 0 0 0 16.258 1.969c7.7 0 13.244-1.8 16.565-5.4 2.348-2.543 4.686-7.129 2.488-14.534-2.791-9.4-8.036-12.412-11.946-13.284-7.971-1.772-17.542 3.547-28.459 15.816zm25.844-4.1c1.039.232 2.209 2.142 3.053 4.987.493 1.66.449 2.706.2 2.977-1.2 1.3-6.626 2.36-16.925.7 7.437-7.494 12.116-9.014 13.672-8.666z"/><path d="m336.047 142.409a164.983 164.983 0 0 0 -39.226 4.718c-34.212-26.645-76.15-39.877-118.425-37.287-.318.019-.639.052-.959.08l-.011-.033c-9.978-31.207-13.34-41.72-39.127-79.116a9.745 9.745 0 0 0 -16.864 1.439l-10.835 23.455a9.718 9.718 0 0 0 .421 8.962l3.878 6.652c14.552 24.936 17.119 29.345 22.149 49.782-41.7 11.31-74.974 34.5-97.035 67.909-23.384 35.403-33.113 81.424-27.398 129.586 11.374 95.858 90 166.879 180.052 166.879a172.286 172.286 0 0 0 86.908-23.54 164.355 164.355 0 0 0 56.472 9.947c90.953 0 164.953-73.891 164.953-164.716s-74-164.717-164.953-164.717zm-210.789-77.179-3.271-5.611 8.675-18.77c22.509 32.944 25.751 42.725 35.068 71.858a51.316 51.316 0 0 0 -7.852 3.813q-4.644.779-9.174 1.73c-5.514-22.28-8.715-27.777-23.446-53.02zm210.789 394.612a153.193 153.193 0 0 1 -142.885-98.242 6 6 0 0 0 -11.195 4.319 165.781 165.781 0 0 0 83.461 90.047 159.052 159.052 0 0 1 -53.921 16.352c-91.656 10.84-175.536-58.769-186.976-155.179-5.381-45.349 3.672-88.52 25.491-121.559 20.654-31.275 52.087-52.917 91.614-63.324a36.568 36.568 0 0 0 -4.647 11.773 6 6 0 1 0 11.765 2.362c3.013-15.006 19.577-23.915 30.375-24.577a162.694 162.694 0 0 1 103.253 29.548c-64.689 22.287-111.288 83.688-111.288 155.761a165.153 165.153 0 0 0 1.141 19.393 5.993 5.993 0 0 0 5.96 5.268h.007a5.985 5.985 0 0 0 5.957-6.669 152.7 152.7 0 0 1 -1.065-17.992c0-84.209 68.615-152.717 152.953-152.717s152.953 68.511 152.953 152.72-68.614 152.716-152.953 152.716z"/></g></svg>