<svg id="Layer_1" height="512" viewBox="0 0 512 512" width="512" xmlns="http://www.w3.org/2000/svg" data-name="Layer 1"><path d="m255.3 139.55h-.09l-19.12 1.26s-154.9-35.53-168.14 159.79c-7.41 109.31 75.02 147.59 128.31 160.88a171.993 171.993 0 0 0 79.35.73c14.92-3.35 32.3-8.26 47.62-15.17l67.71-229.91c-21.87-80.04-98.97-80.88-135.64-77.58z" fill="#e56a55"/><path d="m210.07 107.11a13.438 13.438 0 0 1 -9.71 9.17c-158.88 38.6-180.39-36.97-183.31-58.45a5.837 5.837 0 0 1 4.72-6.48c138.82-26.62 177.29 21.41 187.85 47.01a13.1 13.1 0 0 1 .45 8.75z" fill="#72af7c"/><path d="m251.43 103.67c3.65 8.93 4.14 23.74 3.78 35.88-.34 11.16-1.4 20.07-1.4 20.07a71.129 71.129 0 0 0 -10.04 2.57 58.268 58.268 0 0 1 -7.06 1.91 190.5 190.5 0 0 0 -.62-23.29q-.15-1.83-.36-3.72c-.93-8.52-2.61-17.82-5.59-25.93a6.685 6.685 0 0 1 4.42-8.72l8.81-2.56a6.671 6.671 0 0 1 8.06 3.79z" fill="#6f624b"/><path d="m445.32 217.02c-16.97-6.66-30.75-6.67-41.88-2.95-.01.01-.01.01-.02.01q-6.33 1.785-12.48 3.05c-47.35 9.87-85.61-1.45-88.1-2.21-11.37-4.56-25.82-5.07-44.09 2.1-82.65 32.41-45.47 170.38-8.01 202.57 30.17 25.93 55.01 30.01 72.49 27.45a60.087 60.087 0 0 0 11.34-2.8 50.826 50.826 0 0 1 34.05-.09c17.37 6.14 47.06 7.78 84.7-24.56 37.47-32.19 74.64-170.16-8-202.57z" fill="#f8cf69"/><path d="m390.94 217.13q6.15-1.275 12.48-3.05c-32.93 11.02-42.52 54.78-42.69 55.56a33.724 33.724 0 0 0 -10.07-1.54 33.288 33.288 0 0 0 -8.93 1.21s-8.14-42.05-38.89-54.39c2.49.76 40.75 12.08 88.1 2.21z" fill="#c14744"/><path d="m360.73 269.64c20.42 6.33 35.69 31.55 35.69 61.69 0 34.93-20.49 63.24-45.76 63.24s-45.76-28.31-45.76-63.24c0-30.7 15.83-56.28 36.83-62.02a33.288 33.288 0 0 1 8.93-1.21 33.724 33.724 0 0 1 10.07 1.54z" fill="#7f5f47"/><path d="m97.95 300.6c8.716-128.579 78.819-157.115 125.711-161.606-37.033-3.564-144.767.153-155.711 161.606-7.41 109.31 75.02 147.59 128.31 160.88a170.357 170.357 0 0 0 56.026 4.34 168.345 168.345 0 0 1 -26.026-4.34c-53.29-13.29-135.72-51.57-128.31-160.88z" fill="#c15b4d"/><path d="m288.75 217.02a87.421 87.421 0 0 1 10.426-3.378c-10.767-3.293-24.06-3.045-40.426 3.378-82.65 32.41-45.47 170.38-8.01 202.57 30.17 25.93 55.01 30.01 72.49 27.45 1.963-.288 3.824-.666 5.6-1.1-13.821-3.114-29.995-10.8-48.088-26.351-37.462-32.189-74.642-170.159 8.008-202.569z" fill="#d3b062"/><path d="m334.9 331.33c0-27.661 12.853-51.157 30.758-59.739a36.263 36.263 0 0 0 -4.928-1.951 33.724 33.724 0 0 0 -10.07-1.54 33.288 33.288 0 0 0 -8.93 1.21c-21 5.74-36.83 31.32-36.83 62.02 0 34.93 20.49 63.24 45.76 63.24a34.5 34.5 0 0 0 15-3.494c-17.901-8.584-30.76-32.076-30.76-59.746z" fill="#664c3b"/><path d="m447.507 211.434c-16.792-6.584-32.124-7.62-45.721-3.132q-3.369.95-6.693 1.744c-10.7-33.715-32.315-56.779-64.346-68.587-19.693-7.258-43.037-10.064-69.456-8.375-.013-11.234-.964-23.5-4.305-31.686a12.628 12.628 0 0 0 -15.291-7.28l-8.813 2.564a12.674 12.674 0 0 0 -8.374 16.543c.106.288.2.585.306.876q-4.224-4.8-8.317-8.964a19.044 19.044 0 0 0 -1.331-9.066c-5.854-14.2-19.115-33.762-49.049-46.332-34.908-14.657-83.853-16.1-145.477-4.282a11.838 11.838 0 0 0 -9.533 13.185 80.068 80.068 0 0 0 34.4 55.009c19.007 12.97 44.294 19.462 75.606 19.461q35.289 0 80.662-11.006a19.43 19.43 0 0 0 9.351-5.354c4.461 4.794 9.051 10.2 13.889 16.308-20.615-2.146-63.152-2.26-100.182 25.24-37.207 27.635-58.357 75.373-62.866 141.891-3.395 50.1 11.158 90.88 43.255 121.214 27.977 26.44 64.158 39.549 89.585 45.891a175.741 175.741 0 0 0 42.485 5.164 180.973 180.973 0 0 0 39.638-4.4c18.516-4.162 34.63-9.272 47.928-15.188a66.917 66.917 0 0 0 11.712-2.972 44.585 44.585 0 0 1 30.05-.087 69.055 69.055 0 0 0 23.1 3.937c18.172 0 41.119-6.922 67.518-29.6 26.783-23.012 50.881-91.231 41.811-144.694-5.688-33.511-23.509-57.029-51.542-68.022zm-248.564-100.988c-66.962 16.27-116.309 14.013-146.671-6.707a68.014 68.014 0 0 1 -29.248-46.52c59.204-11.339 105.781-10.133 138.447 3.581 18.378 7.716 29.487 18.273 36.206 28.07-30.415-21.539-62.659-21.5-124.7-21.4q-6.34.009-13.123.012a6 6 0 0 0 0 12q6.8 0 13.14-.012c70.052-.1 98.549-.138 129.669 28.777a7.456 7.456 0 0 1 -3.72 2.199zm36.858-1.889a.679.679 0 0 1 .432-.353l8.814-2.563a.7.7 0 0 1 .828.293c4.651 11.393 3.575 36.033 2.413 48.719-1.824.441-3.644.965-5.458 1.55-.087-11.02-1.152-31.037-7.058-47.115a.643.643 0 0 1 .028-.531zm244.178 251.433c-7.59 24.28-19.3 45.373-30.565 55.051-34.965 30.041-62.148 29.337-78.795 23.453a56.45 56.45 0 0 0 -38.054.089c-16.319 5.78-43.083 6.384-77.914-23.542-11.263-9.678-22.976-30.771-30.566-55.051q-.692-2.214-1.324-4.431a5.982 5.982 0 0 0 -5.751-4.338h-.063a6 6 0 0 0 -5.755 7.662c8.162 28.456 21.526 53.134 35.639 65.26 17.644 15.157 33.669 23.257 47.729 26.975q-9.526 2.822-20.262 5.239a166.906 166.906 0 0 1 -76.588-.7c-24.033-6-58.158-18.315-84.246-42.97-29.364-27.755-42.664-65.331-39.524-111.682 4.255-62.787 23.75-107.531 57.943-132.989 38.22-28.457 84.441-24.259 98.564-22.118.327 5.3.39 9.887.373 13.1-14.986 1.823-29.277-2.387-39.445-6.785a6 6 0 0 0 -4.764 11.014c14.578 6.306 36.662 12.232 59.079 4.651 30.634-10.355 66.143 5.115 66.491 5.269a6 6 0 1 0 4.889-10.958c-1.335-.6-27.684-12.119-56.578-9.515.173-2.185.347-4.742.489-7.55 46.25-3.157 102.353 6.865 122.288 67.341-42.009 7.128-75.557-2.359-78.531-3.241-14.077-5.553-30.248-4.821-48.18 2.211-28.033 10.993-45.855 34.511-51.539 68.015a158.229 158.229 0 0 0 -1.205 40.334 5.991 5.991 0 1 0 11.928-1.139 146.035 146.035 0 0 1 1.109-37.188c5.012-29.544 19.845-49.344 44.087-58.851 17.07-6.693 31.886-6.709 44.036-.044 18.361 10.071 26.721 32.916 29.612 42.971-20.692 9.068-35.685 35.129-35.685 65.8 0 38.177 23.219 69.235 51.758 69.235s51.757-31.058 51.757-69.235c0-30.087-14.426-55.739-34.507-65.266 3.064-10.077 11.931-33.268 30.92-43.485a41.081 41.081 0 0 1 6.9-2.931q.84-.24 1.682-.49c10.492-2.888 22.456-1.753 35.711 3.445 24.243 9.507 39.076 29.307 44.088 58.851 3.932 23.154 1.363 51.043-7.231 78.533zm-129.32-97.89a38.981 38.981 0 0 0 -4.47.275c-2.339-8.277-7.862-23.819-18.812-36.579a204.614 204.614 0 0 0 23.935 1.4 202.489 202.489 0 0 0 24.91-1.539c-11.364 12.821-17.266 28.516-19.8 36.881a38.965 38.965 0 0 0 -5.763-.438zm39.757 69.234c0 31.56-17.835 57.235-39.757 57.235s-39.759-25.677-39.759-57.237 17.836-57.232 39.759-57.232 39.757 25.672 39.757 57.232z" fill="#243a54"/></svg>