<svg id="Layer_1" height="512" viewBox="0 0 512 512" width="512" xmlns="http://www.w3.org/2000/svg" data-name="Layer 1"><path d="m299.68 162.48c-9.16-14.56-21.36-21.55-32.83-25.51a20.429 20.429 0 0 1 -4.7-2.34 32.219 32.219 0 0 0 -12.6 5.49 72.1 72.1 0 0 0 -20.36-2.54c-17.73.26-42.04 7.3-51.65 41.21-11.31 39.94-.85 58.37-24.19 90.88-24.66 34.37-83.8 152.34 26.23 195.21 33.36 12.99 60.68 12.49 82.91 7.75a174.99 174.99 0 0 1 29.41-3.44c8.71-.36 15.22-.49 25.26-2.42l35.08-219.45c-31.1-25.25-30.45-49.69-52.56-84.84z" fill="#e0ae55"/><path d="m254.98 125.91a19.576 19.576 0 0 0 7.17 8.72 32.219 32.219 0 0 0 -12.6 5.49 72.1 72.1 0 0 0 -20.36-2.54v-.01c-9.43-36.35 4.45-83.53 4.45-83.53l14.76 7.43s-5.2 36.12 6.58 64.44z" fill="#6f624b"/><path d="m201.49 84.74c.16.51.24.78.24.78s-5.58 104.03-182.35 13.19a4.394 4.394 0 0 1 -.95-7.15c139.85-127.27 179.68-17.24 183.06-6.82z" fill="#8ead6d"/><path d="m390.06 235.96c1.94-3.28 11.66-10.32 19.55-11.2a12.134 12.134 0 0 1 3.19.02c17.14 2.51 18.16 12.17 22.2 29.15 12.13 50.93 12.4 29.96 41.05 83.49 19.21 35.9 52.88 151.37-73.28 143.55-8.63-.53-17.29-.67-25.93-.57-26.51.3-45.85-4.93-59.68-13.63-48.02-30.21-29.55-102.21-13.56-129.35 27.69-47.02 34.52-32.56 46.65-83.49a56.567 56.567 0 0 1 1.99-6.61c4.68-12.71 12.78-19.65 20.22-22.54 3.18-1.24 5.79-1.46 7.88-.92a7.815 7.815 0 0 1 4.83 3.78c1.57 2.67 2.95 5.74 4.89 8.32z" fill="#fbe7b7"/><path d="m401.22 215.31c1.13 4.27 4.45 7.47 8.39 9.45-7.89.88-17.61 7.92-19.55 11.2-1.94-2.58-3.32-5.65-4.89-8.32a7.815 7.815 0 0 0 -4.83-3.78c-3.52-29.09 11.84-66.34 11.84-66.34l10.65 7.27s-7.79 27.4-1.61 50.52z" fill="#4a6d51"/><path d="m414.74 379.89s23.24 24 5.74 27.8c-19.08 2.59-5.74-27.8-5.74-27.8z" fill="#6f624b"/><path d="m368.27 379.89s13.34 30.39-5.74 27.8c-17.5-3.8 5.74-27.8 5.74-27.8z" fill="#6f624b"/><path d="m183.35 269.67c23.34-32.51 12.88-50.94 24.19-90.88 7.332-25.872 23.22-36.094 38.215-39.606a75.771 75.771 0 0 0 -16.565-1.6c-17.73.26-42.04 7.3-51.65 41.21-11.31 39.94-.85 58.37-24.19 90.88-24.66 34.37-83.8 152.34 26.23 195.21 26.882 10.468 49.84 12.173 69.375 9.961a156.073 156.073 0 0 1 -39.375-9.961c-110.03-42.874-50.89-160.844-26.23-195.214z" fill="#b78d4b"/><path d="m406.84 480.4c-26.51.3-45.85-4.93-59.68-13.63-48.02-30.21-29.55-102.21-13.56-129.35 27.69-47.02 34.52-32.56 46.65-83.49a56.567 56.567 0 0 1 1.99-6.61 44.076 44.076 0 0 1 7-12.575c-1.518-2.3-2.735-4.838-4.068-7.105a7.815 7.815 0 0 0 -4.83-3.78c-2.09-.54-4.7-.32-7.88.92-7.44 2.89-15.54 9.83-20.22 22.54a56.567 56.567 0 0 0 -1.99 6.61c-12.13 50.93-18.96 36.47-46.65 83.49-15.99 27.14-34.46 99.14 13.56 129.35 13.83 8.7 33.17 13.93 59.68 13.63 8.64-.1 17.3.04 25.93.57a168.055 168.055 0 0 0 25.571-.223c-7.164-.333-14.343-.43-21.503-.347z" fill="#d8c5a0"/><g fill="#243a54"><path d="m64.383 79.167c-5.864 1.231-11.9 2.614-17.955 4.111a6 6 0 1 0 2.883 11.649c5.912-1.463 11.812-2.814 17.538-4.016a6 6 0 1 0 -2.466-11.744z"/><path d="m179.476 302.285a6 6 0 0 0 -8.076 2.615c-2.378 4.658-4.587 9.312-6.566 13.834a6 6 0 1 0 10.993 4.811c1.884-4.3 3.991-8.742 6.261-13.188a6 6 0 0 0 -2.612-8.072z"/><path d="m163.473 393.788c-2.027-10.719-2.565-28.962 6.385-55a6 6 0 1 0 -11.348-3.9c-19.424 56.5 1.27 82.415 2.16 83.49a6.038 6.038 0 0 0 4.66 2.188 5.988 5.988 0 0 0 4.623-9.792c-.043-.054-4.316-5.546-6.48-16.986z"/><path d="m373.766 377.482a6 6 0 0 0 -9.8-1.762c-3.967 4.095-16.658 18.291-13.416 29.009.786 2.6 3.223 7.2 10.711 8.826.155.034.311.061.468.083a22.308 22.308 0 0 0 2.992.21c5.9 0 9.252-2.659 11.078-5.082 3.377-4.48 3.916-11.122 1.648-20.307a75.266 75.266 0 0 0 -3.681-10.977zm-7.554 24.061c-.127.168-.933.431-2.636.233a4.52 4.52 0 0 1 -1.568-.609c-.316-1.386 1.24-4.9 3.991-8.983.981 4.407 1.157 8.11.213 9.359z"/><path d="m413.679 373.989a6 6 0 0 0 -4.432 3.493 75.2 75.2 0 0 0 -3.678 10.977c-2.267 9.185-1.728 15.827 1.649 20.307 1.826 2.423 5.175 5.082 11.077 5.082a22.323 22.323 0 0 0 2.993-.21c.156-.022.313-.049.467-.083 7.489-1.626 9.926-6.228 10.712-8.826 3.242-10.718-9.449-24.914-13.417-29.009a6 6 0 0 0 -5.371-1.731zm7.321 27.178a4.522 4.522 0 0 1 -1.568.609c-1.7.2-2.508-.065-2.635-.233-.942-1.246-.77-4.936.207-9.332 2.652 3.926 4.341 7.489 3.996 8.956z"/><path d="m390.672 280.444a6 6 0 0 0 -6 6v14.456a6 6 0 0 0 12 0v-14.456a6 6 0 0 0 -6-6z"/><path d="m390.672 332.471a6 6 0 0 0 -6 6v111.819a6 6 0 0 0 12 0v-111.819a6 6 0 0 0 -6-6z"/><path d="m458.125 296.818c-7.564-10.586-10.111-14.152-17.286-44.278-.276-1.161-.538-2.287-.793-3.378-3.562-15.3-6.375-27.386-26.379-30.315a16.849 16.849 0 0 0 -2.625-.166 8.847 8.847 0 0 1 -4.029-4.914c-5.658-21.2 1.514-47.083 1.586-47.337a6 6 0 0 0 -2.387-6.594l-10.646-7.274a6 6 0 0 0 -8.932 2.667c-.606 1.47-13.831 33.958-12.744 62.869a24.542 24.542 0 0 0 -3.6 1.092c-9.832 3.818-16.123 11.218-20.1 18.383-14.247-13.338-20.089-26.541-27.261-42.772-4.625-10.465-9.867-22.327-18.163-35.519-8.419-13.387-20.179-22.54-35.951-27.982a13.816 13.816 0 0 1 -8.289-7.7c-10.987-26.408-6.225-60.933-6.176-61.275a6 6 0 0 0 -3.241-6.216l-14.761-7.431a6 6 0 0 0 -8.454 3.666 224.065 224.065 0 0 0 -6.645 34.193 105 105 0 0 0 -15.054-6.57c-4.152-11.2-18.69-43.026-52.57-52.623-37.22-10.538-84.065 9.572-139.232 59.778a10.393 10.393 0 0 0 2.247 16.923c49.169 25.269 89.685 37.94 121.109 37.94q23.652 0 40.382-9.583c19.6-11.255 26.246-29.327 28.48-39.337a76.382 76.382 0 0 1 13.508 6.806 142.219 142.219 0 0 0 1.724 32.168 59.415 59.415 0 0 0 -21.61 6.624c-13.77 7.468-23.348 20.42-28.467 38.495-4.419 15.6-5.626 28.044-6.691 39.02-1.685 17.362-3.016 31.075-16.6 50a236.3 236.3 0 0 0 -29.841 59.157c-10.443 30.863-12.219 58.372-5.28 81.763 8.552 28.827 30.1 50.15 64.048 63.375 19.227 7.491 37.913 11.215 56.509 11.215a142.454 142.454 0 0 0 29.834-3.192 169.5 169.5 0 0 1 28.4-3.309l2.019-.083a150.606 150.606 0 0 0 21.728-2c15.069 8.85 34.7 13.314 58.741 13.313.75 0 1.51 0 2.269-.013 9.3-.106 17.637.078 25.5.564q6.291.39 12.2.39c35.972 0 61.14-10.833 74.907-32.281 25.192-39.25 2.647-100.281-8.166-120.486-11.243-21.016-18.166-30.701-23.218-37.773zm-285.97-174.818c-36.296 20.837-100.055-3.193-147.955-27.568 27.739-25 53.31-42.109 76.027-50.867 18.681-7.2 35.512-8.783 50.028-4.7 22.086 6.215 34.7 24.525 40.876 36.737-23.413-5.493-58.479-8.28-108.273.067a6 6 0 0 0 1.984 11.835c53.406-8.954 88.824-4.5 110.329 1.674-1.448 7.377-6.411 23.283-23.016 32.822zm222.994 44.815.856.585c-2 8.935-5.7 30.319-.587 49.464a18.7 18.7 0 0 0 2.493 5.5 45.879 45.879 0 0 0 -6.546 4.052c-.333-.608-.676-1.222-1.034-1.828a14.266 14.266 0 0 0 -4.331-4.658c-1.35-19.286 5.3-41.918 9.149-53.119zm-157.537-104.058 4.358 2.194c-1.026 10.759-2.489 39.328 7.47 63.263a25.309 25.309 0 0 0 1.986 3.81c-1.019.514-2 1.057-2.924 1.622a80.773 80.773 0 0 0 -14.51-2c-5.129-25.418.502-55.505 3.62-68.889zm241.8 385.832c-12.748 19.86-38.41 28.743-76.262 26.4-6.676-.413-13.668-.617-21.247-.617q-2.519 0-5.128.03c-37.34.424-62.663-10.38-75.258-32.127a68.9 68.9 0 0 1 -8.284-25.822 5.94 5.94 0 0 0 -5.905-5.151h-.153a5.958 5.958 0 0 0 -5.926 6.692 80.754 80.754 0 0 0 9.883 30.3 67.777 67.777 0 0 0 11.126 14.395c-2.79.2-5.552.31-8.567.431l-2.034.083a181.269 181.269 0 0 0 -30.409 3.563c-26.223 5.6-52.222 3.153-79.483-7.468-30.313-11.81-49.457-30.519-56.9-55.606-13.95-47.026 15.725-105.933 33.366-130.511 15.464-21.546 17.007-37.437 18.793-55.836 1.065-10.985 2.168-22.344 6.293-36.909 4.194-14.81 11.786-25.3 22.564-31.175 10.6-5.781 22.487-6.148 30.882-5.355-.4.493-.635.814-.69.89a6 6 0 1 0 9.722 7.035c.062-.087 6.114-8.135 15.38-10.8a26.236 26.236 0 0 0 3.724 1.619c13.266 4.577 22.706 11.894 29.707 23.026 7.831 12.453 12.668 23.4 17.345 33.981 7.947 17.986 14.876 33.647 33.337 49.656-.361 1.21-.648 2.3-.869 3.233-7.162 30.07-12.192 36.066-21.324 46.952a227.647 227.647 0 0 0 -24.658 34.879c-5.423 9.207-11.975 25.356-15.506 43.858a5.966 5.966 0 1 0 11.737 2.152c2.922-15.711 8.344-30.134 14.108-39.92a217.106 217.106 0 0 1 23.513-33.256c9.968-11.883 15.985-19.056 23.8-51.885 4.2-17.647 14.367-23.322 18.541-24.943 4.22-1.639 4.969-.369 5.372.314.492.832.961 1.707 1.439 2.592a52.311 52.311 0 0 0 3.481 5.805 6 6 0 0 0 .726.969c3.346 4.263 8.332 7.921 16.761 7.4a6.134 6.134 0 0 0 5.8-5.77 6.013 6.013 0 0 0 -6.419-6.215 10.612 10.612 0 0 1 -2.373-.064c3.808-2.581 9.172-5.172 12.509-4.683 11.439 1.675 12.848 5.77 16.432 21.163.259 1.11.525 2.256.807 3.437 7.718 32.41 11.078 37.113 19.195 48.474 4.862 6.806 11.521 16.127 22.4 36.453 13.74 25.672 28.246 77.796 8.647 108.331z"/></g></svg>