<svg id="Layer_1" height="512" viewBox="0 0 512 512" width="512" xmlns="http://www.w3.org/2000/svg" data-name="Layer 1"><path d="m279.36 110.96c-21.68.07-39.51 4.16-54.1 11.24a91.022 91.022 0 0 0 -24.69 17.46 94.422 94.422 0 0 0 -7.88 8.87c-2.84-12.58-8.22-12.92-14.59-14.41l-96.59 37.14c-.84.83-39.98 39.88-38.85 101.16 1.61 87.53 64.18 202.33 210.51 178.5v-.01c18.02 3.83 36.94 1.9 51.26-3.96 5.52-2.26 14.15-6.2 19.17-9.75l49.52-249.39c-17.28-40.24-49.86-77-93.76-76.85z" fill="#8e4964"/><path d="m221.99 71.02a6.847 6.847 0 0 1 5.64 7.61l-2.37 43.57a91.022 91.022 0 0 0 -24.69 17.46s-1.28-10.04-1.97-22.62h-.01c-.87-15.78-.82-35.55 3.82-44.58a6.818 6.818 0 0 1 7.25-3.56z" fill="#6f624b"/><path d="m373.12 187.81c21.93-9.34 85.93-26.11 116.11 78.56 24.65 85.45-32.33 173.03-120.89 181.22a15.339 15.339 0 0 1 -3.03 0 140.343 140.343 0 0 1 -41.71-10.39c-64.16-27.04-101.06-99.67-80.5-170.83 31.9-110.39 100.39-85.71 118.17-77.11a9.879 9.879 0 0 0 8.59.02c.95-.45 2.04-.95 3.26-1.47z" fill="#f1d29a"/><ellipse cx="367.69" cy="307.62" fill="#c79a83" rx="55.3" ry="70.18"/><path d="m72.66 272.42a140.313 140.313 0 0 1 2.922-31.2 114.947 114.947 0 0 1 71.489-83.63l42.969-16.522c-3-5.359-7.2-5.835-11.94-6.944l-96.59 37.136c-.84.83-39.98 39.88-38.85 101.16 1.524 82.872 57.708 190.165 187.87 181.129-108.852-8.073-156.468-104.927-157.87-181.129z" fill="#703d52"/><path d="m273.1 266.37c16.713-57.836 43.468-78.585 67.714-84.007-28.2-5.753-73.5.2-97.714 84.007-20.56 71.16 16.34 143.79 80.5 170.83a140.343 140.343 0 0 0 41.71 10.39 15.339 15.339 0 0 0 3.03 0c4.59-.425 9.09-1.074 13.5-1.914a139.185 139.185 0 0 1 -28.24-8.476c-64.16-27.04-101.06-99.67-80.5-170.83z" fill="#d3b789"/><path d="m184.58 115.03a26.083 26.083 0 0 1 -1.72 8.94 76.845 76.845 0 0 1 -4.76 10.15c-9.64 17.16-30.93 39.4-76.02 36.96a156.951 156.951 0 0 0 -20.57.18c-28.66 2.12-47.64 12.04-58.84 20.41a3.558 3.558 0 0 1 -5.61-3.51c11.36-61.34 67.39-172.31 142.43-113.69 5.2 4.06 16.58 15.86 22.68 29.08a26.072 26.072 0 0 1 2.41 11.48z" fill="#4ca987"/><path d="m342.39 307.62c0-32.159 17.051-59.245 40.3-67.545a44.443 44.443 0 0 0 -15-2.635c-30.54 0-55.3 31.42-55.3 70.18s24.76 70.18 55.3 70.18a44.443 44.443 0 0 0 15-2.635c-23.249-8.3-40.3-35.386-40.3-67.545z" fill="#a58171"/><g fill="#243a54"><path d="m367.691 231.443c-33.8 0-61.3 34.175-61.3 76.181 0 41.988 27.477 76.15 61.259 76.179h.037.024c33.793-.012 61.283-34.182 61.283-76.18s-27.501-76.18-61.303-76.18zm9.909 139.057c6.743-17.109 16.463-53.169-1.694-89.767a6 6 0 0 0 -10.75 5.334c18.289 36.863 3.967 74.423-1.11 85.542-25.488-2.438-45.658-30.195-45.658-63.987 0-35.39 22.117-64.181 49.3-64.181s49.3 28.791 49.3 64.181c.005 30.978-16.935 56.891-39.388 62.878z"/><path d="m436.082 181.054c-23.162-10.408-45.915-5.843-59.819-.9-21.906-47.224-57.7-75.2-96.645-75.2h-.28q-26.541.092-47.563 7.94l1.832-33.754a12.806 12.806 0 0 0 -10.593-14.039l-12.334-2.119a12.77 12.77 0 0 0 -13.605 6.736c-4.5 8.759-5.263 25.25-4.826 40.158-.655-.091-1.338-.182-2.068-.273a32.21 32.21 0 0 0 -2.567-8.572c-6.411-13.9-18.388-26.566-24.432-31.288-22.514-17.589-45.191-22.238-67.4-13.821-26.063 9.878-45.19 35.878-56.647 55.942-13.02 22.808-23.477 50.921-27.971 75.2a9.544 9.544 0 0 0 15.1 9.408c8.728-6.525 21.973-13.678 40.746-17.284-12.327 16.622-31.16 49.343-30.352 93.336a215.806 215.806 0 0 0 17.053 79.452c11.841 27.942 29.391 52.135 50.754 69.964 30.2 25.2 68.164 38.111 111.284 38.11a238.274 238.274 0 0 0 37.271-3.041 99.216 99.216 0 0 0 19.234 1.861 92.229 92.229 0 0 0 34.451-6.373 139.76 139.76 0 0 0 17.592-8.594 146.366 146.366 0 0 0 40.458 9.663c.685.064 1.376.095 2.067.095s1.384-.031 2.072-.095a144.263 144.263 0 0 0 106.166-62.548 149.721 149.721 0 0 0 19.94-126.318c-12.573-43.586-32.4-71.729-58.918-83.646zm-228.332-105.854a.838.838 0 0 1 .892-.39l12.334 2.126a.833.833 0 0 1 .7.922c-.019.15-.033.3-.041.449l-2.177 40.109a97.543 97.543 0 0 0 -14.1 9.082c-.278-3.231-.557-6.96-.775-10.933v-.016q-.126-2.315-.223-4.72c-.953-24.271 1.715-33.367 3.39-36.629zm-19.283 50.907a31.856 31.856 0 0 0 1.327-4.439c1.145.151 2.171.3 3.068.438.4 5.815.9 10.8 1.27 14.181a16.567 16.567 0 0 0 -7.433-5.929c.689-1.531 1.274-2.958 1.768-4.252zm-164.294 57.204c9.192-41.511 37.338-101.567 75.862-116.167a48.163 48.163 0 0 1 17.187-3.217c12.641 0 25.555 5.1 38.572 15.273 4.353 3.4 15.195 14.44 20.924 26.858a20.2 20.2 0 0 1 .912 2.426 212.421 212.421 0 0 0 -26.954.219c-26.447 1.882-65.821 9.812-103.209 36.9a6 6 0 0 0 7.04 9.718c34.95-25.321 71.819-32.801 96.593-34.621a199.608 199.608 0 0 1 26.578-.183c-.133.438-.26.878-.424 1.308-6.311 16.546-23.489 43.441-68.436 43.439-2.078 0-4.222-.058-6.42-.177-37.39-2.022-62.618 8.069-78.225 18.224zm440.979 200.945a132.293 132.293 0 0 1 -97.358 57.364 10.781 10.781 0 0 1 -1.935 0 133.967 133.967 0 0 1 -98.616-58.135 136.628 136.628 0 0 1 -22.753-60.048 6.017 6.017 0 0 0 -5.957-5.3h-.006a6.018 6.018 0 0 0 -5.953 6.8 148.625 148.625 0 0 0 24.757 65.311 146.353 146.353 0 0 0 53.25 47.394c-2.932 1.414-5.923 2.729-8.421 3.752-14.394 5.888-32.808 7.13-49.259 3.321-13.33-3.087-31.48-10.856-42.243-30.338a6 6 0 1 0 -10.5 5.8 70.222 70.222 0 0 0 27.373 27.547c-20.048 1.151-38.942-.494-56.391-4.959a148.867 148.867 0 0 1 -58.982-30.038c-45.614-38.07-62.709-97.5-63.5-140.423-.952-51.844 28.636-87.546 35.61-95.225a156.88 156.88 0 0 1 17.484-.009c45 2.425 67.957-18.6 79.179-36.083 2.536.8 3.987 2.083 5.225 6.227-22.586 30.535-31.864 76.336-27.556 136.186a457.064 457.064 0 0 0 13.294 81.254 6 6 0 0 0 11.563-3.211c-.388-1.4-38.187-140.395 13-207.976 18.251-24.1 46.152-36.379 82.929-36.506h.237c33.849 0 65.364 24.982 85.271 67.211a3.919 3.919 0 0 1 -1-.315c-10.718-5.18-38.761-15.842-67.586-2.984-26.463 11.806-46.3 40.009-58.96 83.828a150.6 150.6 0 0 0 -4.411 20.558 6 6 0 1 0 11.883 1.7 138.329 138.329 0 0 1 4.056-18.924c11.634-40.263 29.237-65.9 52.322-76.2 24.228-10.811 48.264-1.621 57.473 2.829a15.838 15.838 0 0 0 13.788.037c9.435-4.5 34.044-13.783 58.715-2.7 23.157 10.405 40.755 35.985 52.3 76.03a137.754 137.754 0 0 1 -18.322 116.225z"/></g></svg>