<svg id="Layer_1" height="512" viewBox="0 0 512 512" width="512" xmlns="http://www.w3.org/2000/svg" data-name="Layer 1"><path d="m194.14 90.86h-.01a31.192 31.192 0 0 0 -.88 11.75l-2.57.28c-11.13 16.3-5.9 44.82-5.9 44.82-7.68-13.21-20.41-21.1-29.64-25.36 0 0-14.52 20.83-10.83 36.31l-34.03-22.99a39.716 39.716 0 0 0 -5.14-5.99l-.01.01v-.02a42.73 42.73 0 0 0 -14.9-9.07c-44.08 34.86-73.23 93.41-73.23 153.89 0 105.11 85.38 190.31 190.71 190.31a200.164 200.164 0 0 0 55.15-7.6v-.01l71.13-274.63a29.478 29.478 0 0 0 20.55-17.04c-23.31-68.52-130.05-85.4-160.4-74.66z" fill="#c14744"/><path d="m47 274.49c0-54.345 23.545-107.121 60.3-142.562-.7-.784-1.42-1.539-2.161-2.248l-.01.01v-.02a42.73 42.73 0 0 0 -14.9-9.07c-44.079 34.86-73.229 93.41-73.229 153.89 0 105.11 85.38 190.31 190.71 190.31 5.04 0 10.124-.194 15.2-.566-98.41-7.534-175.91-89.605-175.91-189.744z" fill="#963e3e"/><path d="m408.47 112.51c1.83 13.42 3.05 33.31-3.29 44.56-9.43 6.18-16.54 14.99-21.25 22.16a2.367 2.367 0 0 1 -4.32-1.76 91.359 91.359 0 0 0 .28-24.91v-.01l20.01-41.35a4.467 4.467 0 0 1 8.57 1.31z" fill="#de3c44"/><path d="m176.21 80.12c22.09-23.62 42.11-13.51 42.11-13.51-14.8 6.86-21.75 15.5-24.18 24.25h-.01a31.192 31.192 0 0 0 -.88 11.75l-2.57.28s-13.47-6.75-27.74 8.66l5.57-21.86a85.715 85.715 0 0 1 7.7-9.57z" fill="#de3c44"/><path d="m201.21 32.08s-26.36 23.1-25 48.04a85.715 85.715 0 0 0 -7.7 9.57 80.855 80.855 0 0 0 -14.83-2.35 73.616 73.616 0 0 1 -5.77-11.28s12.26-38.28 53.3-43.98z" fill="#fb6771"/><path d="m153.68 87.34c-9.89-.57-17.78 1.23-24.07 4.36a63.826 63.826 0 0 0 -8.5-11.03v-.01c-.16-.62-5.49-22.78 15.95-39.63 0 0 4.24 19.42 10.85 35.03a73.616 73.616 0 0 0 5.77 11.28z" fill="#de3c44"/><path d="m168.51 89.69-5.57 21.86v.01a59.485 59.485 0 0 0 -7.8 10.79 72.749 72.749 0 0 0 -11.3-4.22c-24.86-4.99-38.31 11.08-38.7 11.55-.01 0-.01 0-.01-.01.09-.88 2.92-27.25 24.48-37.97 6.29-3.13 14.18-4.93 24.07-4.36a80.855 80.855 0 0 1 14.83 2.35z" fill="#6f624b"/><path d="m97.63 100.18s-7.86-27.68-30.97-29.04c0 0 30.48-15.08 54.45 9.52v.01a63.826 63.826 0 0 1 8.5 11.03c-21.56 10.72-24.39 37.09-24.48 37.97a42.73 42.73 0 0 0 -14.9-9.07c-17.14-6.28-35.5-2.46-35.5-2.46s8.17-29.02 42.9-17.96z" fill="#fb6771"/><path d="m144.31 158.66-34.03-22.99a39.716 39.716 0 0 0 -5.14-5.99c.39-.47 13.84-16.54 38.7-11.55a72.749 72.749 0 0 1 11.3 4.22s-14.52 20.83-10.83 36.31z" fill="#ad2a34"/><path d="m162.94 111.55c14.27-15.41 27.74-8.66 27.74-8.66-11.13 16.3-5.9 44.82-5.9 44.82-7.68-13.21-20.41-21.1-29.64-25.36a59.485 59.485 0 0 1 7.8-10.79z" fill="#ad2a34"/><path d="m354.54 165.52a31.156 31.156 0 0 0 2.64-10.84c.75-12.3-2.87-26.08-17.83-36.63 0 0 35.06-3.72 40.54 34.5v.01a91.359 91.359 0 0 1 -.28 24.91 2.367 2.367 0 0 0 4.32 1.76c4.71-7.17 11.82-15.98 21.25-22.16 9.05-5.91 20.25-9.4 33.53-6.7 0 0-13.73 10.34-22.01 25.08-7.78 13.87-4.06 31.49 8.25 40.15-15.98 3.88-30.31 1.63-44.86-13.73-10.97-11.59-45.29-19.13-46.1-19.31a29.478 29.478 0 0 0 20.55-17.04z" fill="#cc9869"/><path d="m424.95 215.6c56.53 39.76 84.07 108.79 62.97 170.97-25.83 76.09-114.74 113.13-198.59 82.71a180.3 180.3 0 0 1 -26.47-12.09c-66.91-37.34-101.55-113.1-78.58-180.77 20.17-59.44 78.84-95.05 143.51-93.29a26.086 26.086 0 0 0 6.2-.57c.81.18 35.13 7.72 46.1 19.31 14.55 15.36 28.88 17.61 44.86 13.73z" fill="#eab76c"/><path d="m418.87 248.97c67.13 28.05 56.86 133.94 24.55 155.18-7.49 4.94-14.43 7.72-17.45-.4l-35.59-96.01z" fill="#ad2a34"/><path d="m318.01 216.07-13.28 64.3-85.82 51.96c-7.26 4.4-15.48-2.08-13.87-10.95 7.03-38.91 43.22-128.98 112.97-105.31z" fill="#de3c44"/><path d="m308.75 307.72c10.27-8.52 22.9 4.13 16.19 16.21l-35.69 97.68c-4.22 11.54-17.31 15.52-25.4 7.71l-44.16-42.56c-8.2-7.92-6.15-22.97 3.96-28.92z" fill="#ad2a34"/><path d="m405.58 425.69c4.3 11.17-3.19 24.25-14.38 25.13l-60.2 4.71c-11.04.87-18.86-10.7-15.17-22.43l31.17-99.32c2.06-13.77 19.57-15.48 22.43-2.2z" fill="#de3c44"/><path d="m398.9 245.32a6.159 6.159 0 0 1 -.87 6.41l-36.43 44.31a11.733 11.733 0 0 1 -9.02 4.4 10.808 10.808 0 0 1 -3.7-.65c-3.26-1.18-4.76-4.54-6.99-7.32-18.05-22.49-6.89-54.96-6.43-68.15a5.8 5.8 0 0 1 5.41-5.75c40.88-1.01 54.21 18.44 58.03 26.75z" fill="#ad2a34"/><g fill="#243a54"><path d="m53.228 263.267c.123.007.245.011.367.011a6 6 0 0 0 5.983-5.639c.279-4.629.708-9.357 1.276-14.054a6 6 0 0 0 -11.914-1.438c-.6 4.934-1.046 9.9-1.34 14.77a6 6 0 0 0 5.628 6.35z"/><path d="m59.192 274.24a6 6 0 0 0 -12 .178c.895 60.478 25.431 93.911 26.475 95.305a6 6 0 0 0 9.612-7.184c-.23-.313-23.254-31.979-24.087-88.299z"/><path d="m326.249 302.754c-6.122-5.08-14.468-5.053-20.919.019l-84.728 49.9a24.887 24.887 0 0 0 -11.8 18.554 23.416 23.416 0 0 0 6.73 19.848l44.153 42.568a19.971 19.971 0 0 0 13.975 5.731 20.806 20.806 0 0 0 4.683-.539 23.49 23.49 0 0 0 16.547-15.17l35.539-97.265c4.361-8.3 2.677-17.955-4.18-23.646zm-6.549 18.262a5.987 5.987 0 0 0 -.39.855l-35.692 97.675a11.556 11.556 0 0 1 -7.971 7.6 8.077 8.077 0 0 1 -7.637-2.146l-44.153-42.568a11.535 11.535 0 0 1 -3.141-9.8 12.836 12.836 0 0 1 5.975-9.62l85.109-50.122a6.042 6.042 0 0 0 .786-.553 5.211 5.211 0 0 1 3.313-1.4 4.213 4.213 0 0 1 2.689 1.054c2.085 1.73 3.238 5.194 1.112 9.025z"/><path d="m375.186 329.826c-1.991-8.254-8.657-13.613-16.738-13.334-8.676.278-15.727 6.788-17.305 15.9l-31.043 98.908a24.309 24.309 0 0 0 3.841 22.493 20.132 20.132 0 0 0 15.893 7.786q.81 0 1.63-.064l60.2-4.714a22.431 22.431 0 0 0 17.176-10.766 25.339 25.339 0 0 0 2.346-22.493zm23.5 109.8a10.558 10.558 0 0 1 -7.963 5.206l-60.2 4.715a8.231 8.231 0 0 1 -7.2-3.233 12.34 12.34 0 0 1 -1.781-11.425l31.171-99.315a6 6 0 0 0 .209-.908c.623-4.161 3.414-6.1 5.9-6.183q.079 0 .162 0c1.429 0 3.764.61 4.574 4.365a6.083 6.083 0 0 0 .265.885l36.151 94.109a13.289 13.289 0 0 1 -1.284 11.787z"/><path d="m222.017 337.466 85.819-51.959a6 6 0 0 0 2.769-3.92l13.278-64.3a6 6 0 0 0 -3.948-6.9c-20.85-7.077-40.553-5.288-58.557 5.318-16.424 9.675-31.4 27.036-43.318 50.206-8.777 17.071-15.852 37.406-18.924 54.394a16.486 16.486 0 0 0 6.6 16.826 14.615 14.615 0 0 0 8.315 2.6 15.369 15.369 0 0 0 7.966-2.265zm-11.073-15.019c5.134-28.388 24.423-77.487 56.524-96.4a54.712 54.712 0 0 1 28.159-7.855 61.042 61.042 0 0 1 15.394 2.043l-11.639 56.365-83.582 50.6a2.81 2.81 0 0 1 -3.264.05 4.625 4.625 0 0 1 -1.592-4.803z"/><path d="m421.188 243.429a6 6 0 0 0 -7.713 2.919l-28.5 58.779a6 6 0 0 0 -.227 4.7l35.6 96c2.03 5.476 5.493 7.622 8.041 8.458a12.2 12.2 0 0 0 3.834.6c5 0 10.051-2.8 14.5-5.724 18.962-12.47 30.711-49.233 27.328-85.515-3.585-38.437-22.851-67.677-52.863-80.217zm18.939 155.713c-5.364 3.527-7.378 3.766-7.9 3.75a4.488 4.488 0 0 1 -.622-1.23l-34.708-93.6 24.8-51.152c15.288 7.958 36.542 26.378 40.409 67.861 2.947 31.657-6.706 64.329-21.979 74.371z"/><path d="m286.915 242.608a6 6 0 0 0 10.539-5.739l-1.591-2.921a6 6 0 0 0 -10.539 5.739z"/><path d="m262.543 248.355a6 6 0 0 0 8.469-.523l2.227-2.521a6 6 0 1 0 -8.992-7.945l-2.227 2.521a6 6 0 0 0 .523 8.468z"/><path d="m293.875 255.584a6 6 0 0 0 -7.346 4.248l-.885 3.314a6 6 0 1 0 11.593 3.1l.886-3.315a6 6 0 0 0 -4.248-7.347z"/><path d="m245.225 265.02a6 6 0 1 0 10.857-5.109l-1.422-3.022a6 6 0 1 0 -10.86 5.111z"/><path d="m267.194 260.28-1.58 3.022a6 6 0 1 0 10.635 5.56l1.58-3.022a6 6 0 0 0 -10.635-5.56z"/><path d="m235.168 287.628a5.977 5.977 0 0 0 2.676-.634l2.928-1.462a6 6 0 0 0 -5.362-10.732l-2.928 1.463a6 6 0 0 0 2.686 11.369z"/><path d="m250.315 286.945a6 6 0 0 0 5.955 5.324 6.072 6.072 0 0 0 .684-.039l3.188-.361a6 6 0 1 0 -1.354-11.924l-3.187.362a6 6 0 0 0 -5.286 6.638z"/><path d="m227.555 310.826a5.974 5.974 0 0 0 3.378-1.046l2.729-1.863a6 6 0 0 0 -6.767-9.911l-2.73 1.864a6 6 0 0 0 3.39 10.956z"/><path d="m423.866 290.675a5.985 5.985 0 0 0 2.305-.463l3.007-1.253a6 6 0 0 0 -4.616-11.077l-3.006 1.253a6 6 0 0 0 2.31 11.54z"/><path d="m435.425 304.852a6 6 0 0 0 5.982 5.621c.128 0 .256 0 .385-.013a6 6 0 0 0 5.609-6.367l-.216-3.407a6 6 0 0 0 -11.976.759z"/><path d="m412.972 295.938a6 6 0 0 0 -7.842 3.241l-1.312 3.16a6 6 0 1 0 11.084 4.6l1.312-3.16a6 6 0 0 0 -3.242-7.841z"/><path d="m442.848 322.418-2.938 1.44a6 6 0 1 0 5.283 10.775l2.938-1.441a6 6 0 0 0 -5.283-10.774z"/><path d="m419.217 314.554-.593 3.38a6 6 0 0 0 4.874 6.946 6.084 6.084 0 0 0 1.043.091 6 6 0 0 0 5.9-4.964l.593-3.38a6 6 0 0 0 -11.82-2.073z"/><path d="m447.11 348.663a6 6 0 1 0 -10.893 5.033l1.4 3.033a6 6 0 0 0 10.895-5.033z"/><path d="m428.082 340.021-2.27-2.342a6 6 0 0 0 -8.617 8.353l2.27 2.341a6 6 0 0 0 8.617-8.352z"/><path d="m439.711 372.237a6 6 0 1 0 -11.455 3.576l1.005 3.218a6 6 0 1 0 11.455-3.576z"/><path d="m302.286 321.932-2.76 1.81a6 6 0 1 0 6.58 10.035l2.76-1.81a6 6 0 1 0 -6.58-10.035z"/><path d="m271.383 353.479a6 6 0 0 0 8.469-.523l2.227-2.521a6 6 0 0 0 -8.992-7.946l-2.228 2.521a6 6 0 0 0 .524 8.469z"/><path d="m298.713 349.348a6 6 0 0 0 -7.346 4.247l-.886 3.314a6 6 0 1 0 11.594 3.1l.886-3.314a6 6 0 0 0 -4.248-7.347z"/><path d="m252.3 381a6 6 0 0 0 -7.56 3.854l-1.058 3.26a6 6 0 1 0 11.414 3.706l1.058-3.26a6 6 0 0 0 -3.854-7.56z"/><path d="m289.61 377.594a6 6 0 0 0 -8.1 2.534l-1.581 3.022a6 6 0 1 0 10.633 5.563l1.581-3.021a6 6 0 0 0 -2.533-8.098z"/><path d="m246.105 370.675 2.927-1.462a6 6 0 0 0 -5.361-10.736l-2.928 1.463a6 6 0 1 0 5.362 10.735z"/><path d="m265.953 377.6 3.188-.362a6 6 0 1 0 -1.354-11.924l-3.187.362a6 6 0 0 0 .669 11.962 6.07 6.07 0 0 0 .684-.038z"/><path d="m269.9 402.783-2.73 1.863a6 6 0 0 0 6.768 9.911l2.729-1.864a6 6 0 0 0 -6.767-9.91z"/><path d="m355.207 351.721a6 6 0 0 0 11.389-3.782l-1.062-3.2a6 6 0 0 0 -11.388 3.782z"/><path d="m375.891 379.574a6 6 0 1 0 -11.977.755l.215 3.407a6 6 0 0 0 5.982 5.622c.127 0 .255 0 .384-.011a6 6 0 0 0 5.61-6.366z"/><path d="m351.666 368.539a6 6 0 0 0 -7.842 3.241l-1.311 3.16a6 6 0 1 0 11.084 4.6l1.311-3.16a6 6 0 0 0 -3.242-7.841z"/><path d="m368.766 423.249a6 6 0 0 0 -7.66 3.653l-1.143 3.23a6 6 0 1 0 11.312 4.006l1.144-3.23a6 6 0 0 0 -3.653-7.659z"/><path d="m341.69 396.526a6 6 0 0 0 -6.946 4.873l-.593 3.38a6 6 0 0 0 4.874 6.947 6.093 6.093 0 0 0 1.043.091 6 6 0 0 0 5.9-4.965l.593-3.379a6 6 0 0 0 -4.871-6.947z"/><path d="m389.227 411.181a6 6 0 0 0 -10.895 5.033l1.4 3.033a6 6 0 0 0 10.894-5.033z"/><path d="m364.3 413.553a6 6 0 0 0 4.307-10.177l-2.271-2.342a6 6 0 1 0 -8.615 8.354l2.27 2.341a5.981 5.981 0 0 0 4.309 1.824z"/><path d="m341.953 428.783a6 6 0 0 0 -11.455 3.576l1 3.219a6 6 0 1 0 11.46-3.578z"/><path d="m338.587 298.114c1.8 2.579 4.04 5.79 8.248 7.317a16.672 16.672 0 0 0 5.689 1 17.835 17.835 0 0 0 13.711-6.575l36.426-44.31a12.162 12.162 0 0 0 1.694-12.729c-4.348-9.457-19.28-31.343-63.63-30.24a11.772 11.772 0 0 0 -11.258 11.536 97.876 97.876 0 0 1 -1.325 10.221c-2.687 16.8-6.746 42.191 9.069 61.9.447.548.898 1.195 1.376 1.88zm1.4-61.889a104.049 104.049 0 0 0 1.467-11.666c36.9-.785 48.651 16 51.977 23.216a.248.248 0 0 1 -.043.147l-36.422 44.308a5.443 5.443 0 0 1 -6.038 1.92c-.635-.23-1.625-1.65-2.5-2.9-.543-.779-1.159-1.661-1.859-2.533-12.484-15.557-9.069-36.905-6.578-52.492z"/><path d="m374.461 249.2a6 6 0 1 0 10.539-5.736l-1.591-2.921a6 6 0 0 0 -10.537 5.741z"/><path d="m354.128 244.328 2.227-2.521a6 6 0 1 0 -8.992-7.945l-2.227 2.521a6 6 0 0 0 8.992 7.945z"/><path d="m355.965 254.2-.886 3.314a6 6 0 1 0 11.594 3.1l.886-3.314a6 6 0 0 0 -11.594-3.1z"/><path d="m353.07 286.392a6.091 6.091 0 0 0 1.077-.1 6 6 0 0 0 4.834-6.974l-.605-3.342a6 6 0 0 0 -11.809 2.14l.606 3.342a6 6 0 0 0 5.897 4.934z"/><path d="m428.4 210.693c-9.892-6.958-12.734-21.147-6.47-32.3 7.53-13.412 20.259-23.135 20.381-23.227a6.006 6.006 0 0 0 1.8-7.4 6.26 6.26 0 0 0 -4.517-3.335 48.5 48.5 0 0 0 -24.641 1.318c1.74-11.061.85-23.817-.546-34.053a10.46 10.46 0 0 0 -19.913-3.1l-13.221 27.318a41.341 41.341 0 0 0 -7.807-11.395c-14.079-14.441-33.911-12.52-34.751-12.431a6.005 6.005 0 0 0 -5.366 5.8 6.132 6.132 0 0 0 2.631 5.138c7.673 5.439 12.466 12.284 14.358 20.419-11.072-16.927-28.218-31.261-50.584-42.1a203.966 203.966 0 0 0 -61.039-17.96 147.015 147.015 0 0 0 -32.985-.952q5.4-5.847 15.113-10.365a6 6 0 0 0 .181-10.8c-.893-.45-16.835-8.152-36.241 3.885 5.994-15.712 20.2-28.384 20.379-28.545a6 6 0 0 0 -4.78-10.455c-28.282 3.912-43.945 21.747-51.718 34.569-3.535-10.994-5.7-20.8-5.741-20.97a6 6 0 0 0 -9.569-3.437c-13.138 10.325-17.459 22.424-18.6 31.606a50.309 50.309 0 0 0 -25.7-7.351 59.841 59.841 0 0 0 -25.054 5.194 6 6 0 0 0 2.31 11.367c10.321.606 17.056 8.152 21.008 14.747a37.581 37.581 0 0 0 -19.331 2.841c-14.592 6.55-18.854 21.179-19.028 21.8a6 6 0 0 0 7 7.5 70.942 70.942 0 0 1 21.456-.414c-41.215 37.254-66.415 93.969-66.415 150.888 0 108.247 88.244 196.312 196.711 196.312a205.951 205.951 0 0 0 54.43-7.171 186.115 186.115 0 0 0 25.144 11.286 181.208 181.208 0 0 0 61.692 10.93 164.58 164.58 0 0 0 71.251-15.823c35.21-16.912 61.266-45.867 73.372-81.532 10.69-31.5 9.846-65.361-2.439-97.936-11.825-31.354-34.112-59.717-62.761-79.866zm-25.27-92.393c1.673 15.532.77 27.661-2.595 34.695a75.775 75.775 0 0 0 -13.961 12.763 86.277 86.277 0 0 0 -.507-12.2zm-39.956 36.746c.636-10.533-1.733-20.031-6.937-28.138a27.927 27.927 0 0 1 8.64 5.984c8.509 8.728 11.464 23.461 8.783 43.791a8.5 8.5 0 0 0 5.41 9.161 8.318 8.318 0 0 0 9.878-3.32c11.776-17.942 24.182-24.818 34.881-26.572a87.15 87.15 0 0 0 -12.358 16.565 37.642 37.642 0 0 0 1.1 38.708c-10.568.077-19.368-4.236-28.121-13.48-7.266-7.673-22.314-13.451-33.932-17.008a36.975 36.975 0 0 0 12.656-25.692zm-163.599-83.456a36.734 36.734 0 0 0 -11.809 20.089 35.339 35.339 0 0 0 -.574 4.047 27.374 27.374 0 0 0 -9.1.16 29.324 29.324 0 0 0 -5.365 1.55l1.314-5.16c9.287-12.976 18.292-18.562 25.534-20.686zm-17.991 35.91c-2.8 7.224-3.8 15.216-3.99 22.232a78.339 78.339 0 0 0 -13.806-9.732c4.892-6.76 10.295-10.936 15.835-12.185a16.564 16.564 0 0 1 1.961-.315zm1.1-63.363c-6.353 9.028-12.4 20.944-12.529 33.7q-2.086 2.378-4.178 5.133a85.851 85.851 0 0 0 -8.742-1.346c-.994-1.762-1.952-3.693-2.872-5.733 2.337-5.784 10.337-22.34 28.326-31.756zm-48.911 8.533a195.185 195.185 0 0 0 10.01 28.893 50.584 50.584 0 0 0 -11.937 2.674 67.632 67.632 0 0 0 -5.166-6.395 33.24 33.24 0 0 1 7.093-25.172zm-5.738 46.93c8.42-5.928 19.538-7.718 33.117-5.343l-3.678 14.443a62.966 62.966 0 0 0 -4.685 6.107 67.077 67.077 0 0 0 -7.478-2.5c-.095-.024-.192-.046-.289-.065-12.278-2.462-22.126-.4-29.416 2.793a38.607 38.607 0 0 1 12.429-15.435zm18.3 25.627c-3.011 5.4-6.82 13.537-8.145 22.058l-23.668-15.988c-.314-.426-.625-.856-.953-1.269 4.945-3.744 14.689-8.843 28.921-6.049.41.109 1.8.509 3.841 1.245zm-59.982-52.655c10.378-.4 23.663 2.747 34.709 17.26-.012.009-.025.016-.037.024a46.648 46.648 0 0 0 -9.786 9.4c-.04-.021-.078-.046-.119-.066a92.2 92.2 0 0 0 -8.768-3.733 61.67 61.67 0 0 0 -6.59-12.679 45.483 45.483 0 0 0 -9.409-10.206zm-20.678 38.443a21.552 21.552 0 0 1 7.353-5.405c8.1-3.572 18.83-2.242 31.886 3.925a65.288 65.288 0 0 0 -3.693 9.7c-12.016-7.235-25.857-8.494-35.546-8.22zm416.561 273.623c-11.059 32.585-34.926 59.068-67.2 74.572-37.151 17.845-82.222 19.46-123.655 4.429-52.312-18.976-89.825-60.6-102.991-107.4a5.866 5.866 0 0 0 -5.65-4.279h-.208a5.893 5.893 0 0 0 -5.659 7.507c10.562 37.5 35.5 71.838 70.651 95.339a201.733 201.733 0 0 1 -39.809 4c-101.854-.001-184.715-82.683-184.715-184.313 0-56.218 26.078-112.184 68.252-146.982a37.323 37.323 0 0 1 6.013 3.447c8.512 6.038 13.692 15.623 15.394 28.488a6 6 0 0 0 11.9-1.574q-.412-3.111-1.053-6.027l17.449 11.786a6 6 0 0 0 9.195-6.364c-1.99-8.34 3.168-20.023 7.183-27.081 7.688 4.2 16.6 10.789 22.266 20.536a6 6 0 0 0 11.09-4.091c-.036-.2-2.764-15.738.379-29.277a74.617 74.617 0 0 0 12.2 19.584 6 6 0 0 0 8.9-8.055c-.156-.173-15.08-16.967-12.9-33.275 17.788-4.277 58.86-1.12 95.255 16.523 33.479 16.228 47.578 37.355 53.5 53.007a23.2 23.2 0 0 1 -15.056 11.516c-.138.024-.273.055-.407.088a20.686 20.686 0 0 1 -4.6.391c-33.381-.911-65.134 7.611-91.835 24.634-27.425 17.48-47.314 42.633-57.525 72.725a139.039 139.039 0 0 0 -7.355 45.658 5.872 5.872 0 0 0 5.886 5.806h.218a5.9 5.9 0 0 0 5.88-5.976 127.3 127.3 0 0 1 6.734-41.631c9.328-27.484 27.521-50.467 52.614-66.463 23.478-14.969 51.247-22.819 80.571-22.819q2.237 0 4.487.061c.3.009.587.013.88.013a32.3 32.3 0 0 0 5.354-.455c10.062 2.3 34.134 9.138 41.872 17.309 10.977 11.592 22.818 17.233 36.539 17.233a57.658 57.658 0 0 0 11.336-1.2c25.677 18.669 45.627 44.418 56.32 72.769 11.291 29.94 12.086 61.008 2.3 89.841z"/></g></svg>