<svg id="Layer_1" height="512" viewBox="0 0 512 512" width="512" xmlns="http://www.w3.org/2000/svg" data-name="Layer 1"><path d="m242.21 457.2a70.8 70.8 0 0 0 6.18 19.42c-46.99 23.61-67.86-23.2-69.85-28.01 7.8 2.18 17.76 1.94 30.48-2.09 11.15 1.06 18.43-5.67 22.45-15.67h.01c1.3 10.48 5.16 19.72 10.73 26.35z" fill="#e6736b"/><path d="m206.592 447.252c-11.568 3.318-20.756 3.4-28.052 1.358 1.858 4.49 20.17 45.567 60.818 31.812-14.951-4.67-26.65-22.078-32.766-33.17z" fill="#c45f5c"/><path d="m411.76 353.16c2.23 18.33-2.16 40.71-27.82 58.23h-.01c-.14-7.63-2.61-15.77-8.48-24.03 6.51-19.47-1.8-43.62-1.8-43.62 11.52-1.7 21.27-11.26 26.16-24.58a88.63 88.63 0 0 1 11.95 34z" fill="#a54a4a"/><path d="m355.85 453.26a40.309 40.309 0 0 0 7-3.92c-16.34 63.97-56.32 26.46-56.32 26.46 9.58-2.09 20.44-8.49 31.59-22.89 4.18 2.22 10.2 3.57 17.73.35z" fill="#d85445"/><path d="m383.93 411.39c.3 16.42-10.22 30.44-21.08 37.94v.01a40.309 40.309 0 0 1 -7 3.92c-7.53 3.22-13.55 1.87-17.73-.35a21.3 21.3 0 0 1 -6.77-5.61c10.07-7.61 12.86-21.96 8.23-35.91 21.73-1.32 31.75-11.74 35.87-24.03 5.87 8.26 8.34 16.4 8.48 24.03z" fill="#cc4339"/><path d="m339.58 411.39c4.63 13.95 1.84 28.3-8.23 35.91-10.77 8.14-28.52 8.9-38.16-3.82a56.469 56.469 0 0 0 3.54-19.95s.49-6.35-2.67-15.56v-.01c11.64-.3 21.67-8.94 26.62-21.43a48.953 48.953 0 0 1 18.9 24.86z" fill="#a54a4a"/><path d="m375.45 387.36c-4.12 12.29-14.14 22.71-35.87 24.03a48.953 48.953 0 0 0 -18.9-24.86 47.971 47.971 0 0 0 3.27-17.6 43.929 43.929 0 0 0 -2.95-15.77c9.91-.01 19.95-8.67 26.68-20.61 5.9 7.12 13.71 11.46 22.28 11.46a25.045 25.045 0 0 0 3.69-.27s8.31 24.15 1.8 43.62z" fill="#d85445"/><path d="m321 353.16a43.929 43.929 0 0 1 2.95 15.77 47.971 47.971 0 0 1 -3.27 17.6c-4.95 12.49-14.98 21.13-26.62 21.43-.21.01-.43.01-.64.01-14.24 0-26.82-14.06-30.2-30.92a50.18 50.18 0 0 0 .66-8.12 44.78 44.78 0 0 0 -4.96-21.34 24.637 24.637 0 0 0 4.56.42c11.37 0 21.41-7.63 27.4-19.26 12.53 0 24.7 10.28 30.12 24.41z" fill="#cc4339"/><path d="m263.88 368.93a50.18 50.18 0 0 1 -.66 8.12c-2.79 16.84-14.07 29.68-27.84 30.83-.67.06-1.35.09-2.03.09-13.47 0-24.91-11.17-28.96-26.65a57.108 57.108 0 0 0 2.77-17.75c0-5.2-.24-10.95-1.46-15.58 12.33-.45 22.98-9.87 28.43-23.54 4.9 12.31 14.02 21.17 24.79 23.14a44.78 44.78 0 0 1 4.96 21.34z" fill="#a54a4a"/><path d="m272.69 466.21a25.4 25.4 0 0 1 -9.21 1.73c-8.28 0-15.65-4.04-21.27-10.74-5.57-6.63-9.43-15.87-10.73-26.35h-.01c2.68-6.63 3.92-14.69 3.92-22.88l-.01-.09c13.77-1.15 25.05-13.99 27.84-30.83 3.38 16.86 15.96 30.92 30.2 30.92.21 0 .43 0 .64-.01v.01c3.16 9.21 2.67 15.56 2.67 15.56a56.469 56.469 0 0 1 -3.54 19.95c-4.12 10.94-11.53 19.29-20.5 22.73z" fill="#d85445"/><path d="m331.35 447.3a21.3 21.3 0 0 0 6.77 5.61c-11.15 14.4-22.01 20.8-31.59 22.89-19.3 4.2-33.35-9.12-33.84-9.59 8.97-3.44 16.38-11.79 20.5-22.73 9.64 12.72 27.39 11.96 38.16 3.82z" fill="#e6736b"/><path d="m272.69 466.21c.49.47 14.54 13.79 33.84 9.59-5.29 6.88-15.91 15.37-22.61 17.5-19.11 6.07-29.78-5.18-35.53-16.68a70.8 70.8 0 0 1 -6.18-19.42c5.62 6.7 12.99 10.74 21.27 10.74a25.4 25.4 0 0 0 9.21-1.73z" fill="#cc4339"/><path d="m178.54 448.61c-18.28-5.09-24.67-23.45-26.85-37.22h-.01a85.237 85.237 0 0 1 -1.05-16.14c6 7.87 14.22 12.72 23.29 12.72a25.271 25.271 0 0 0 7.47-1.13c0 20.54 11.05 38.09 27.63 39.68-12.72 4.03-22.68 4.27-30.48 2.09z" fill="#a54a4a"/><path d="m235.38 407.88.01.09c0 8.19-1.24 16.25-3.92 22.88-4.02 10-11.3 16.73-22.45 15.67-16.58-1.59-27.63-19.14-27.63-39.68 10.34-3.17 18.84-12.79 23-25.52 4.05 15.48 15.49 26.65 28.96 26.65.68 0 1.36-.03 2.03-.09z" fill="#cc4339"/><path d="m143.17 346.5c4.92-16.05 16.62-27.34 30.45-27.34 4.72 16.85 16.89 28.85 31.15 28.85.31 0 .62-.01.93-.02 1.22 4.63 1.46 10.38 1.46 15.58a57.108 57.108 0 0 1 -2.77 17.75c-4.16 12.73-12.66 22.35-23 25.52a25.271 25.271 0 0 1 -7.47 1.13c-9.07 0-17.29-4.85-23.29-12.72v-.01c-6.15-8.05-9.96-19.27-9.96-31.67a58.341 58.341 0 0 1 2.5-17.07z" fill="#d85445"/><path d="m150.63 395.24v.01a85.237 85.237 0 0 0 1.05 16.14c-31.89-14.76-39.53-36.74-38.95-55.47.62-19.9 10.53-36.13 10.53-36.13h.01c3.73 12.06 11.29 22.12 19.9 26.71a58.341 58.341 0 0 0 -2.5 17.07c0 12.4 3.81 23.62 9.96 31.67z" fill="#cc4339"/><path d="m126.55 277.51.01.01a58.626 58.626 0 0 0 -5.79 26.08 54.472 54.472 0 0 0 2.5 16.19h-.01s-9.91 16.23-10.53 36.13c-21.81-25.11-20.02-62.56-11.51-78.72 6.78-12.86 16.67-11.48 17.96-11.24a42.391 42.391 0 0 0 7.37 11.55z" fill="#d85445"/><path d="m174.19 286.13a58.586 58.586 0 0 0 -.57 33.03c-13.83 0-25.53 11.29-30.45 27.34-8.61-4.59-16.17-14.65-19.9-26.71a54.472 54.472 0 0 1 -2.5-16.19 58.626 58.626 0 0 1 5.79-26.08c5.63-11.3 14.95-18.71 26.06-18.71h.01c3.55 13.06 11.56 23.26 21.56 27.32z" fill="#a54a4a"/><path d="m174.19 286.13c4.31-13.46 13.46-23.48 24.52-26.2 4.87 16.46 16.89 28.11 30.94 28.11a26.223 26.223 0 0 0 2.67-.14l.02.14a57.571 57.571 0 0 0 -2.1 15.56 56.405 56.405 0 0 0 3.89 20.85c-5.45 13.67-16.1 23.09-28.43 23.54-.31.01-.62.02-.93.02-14.26 0-26.43-12-31.15-28.85a58.586 58.586 0 0 1 .57-33.03z" fill="#cc4339"/><path d="m348.45 274.48a56.662 56.662 0 0 1 7.4 28.38 61.98 61.98 0 0 1 -8.17 29.69c-6.73 11.94-16.77 20.6-26.68 20.61-5.42-14.13-17.59-24.41-30.12-24.41a51.581 51.581 0 0 0 4.54-12.78 49.038 49.038 0 0 0 -.5-22.63c-.67-2.62-1.55-5.05-2.65-6.3a25.111 25.111 0 0 0 7.04 1c14.3 0 26.49-12.06 31.18-28.98 7.08 2.03 13.4 7.67 17.96 15.42z" fill="#a54a4a"/><path d="m403.21 299.6a56.553 56.553 0 0 1 -3.4 19.56c-4.89 13.32-14.64 22.88-26.16 24.58a25.045 25.045 0 0 1 -3.69.27c-8.57 0-16.38-4.34-22.28-11.46a61.98 61.98 0 0 0 8.17-29.69 56.662 56.662 0 0 0 -7.4-28.38c8.6-2.48 15.69-10.28 19.35-20.58 10.65.02 20.86 7.16 27.56 17.94a52.869 52.869 0 0 1 7.85 27.76z" fill="#cc4339"/><path d="m423.37 277.2c8.51 16.16 10.21 50.84-11.6 75.96h-.01a88.63 88.63 0 0 0 -11.95-34 56.553 56.553 0 0 0 3.4-19.56 52.869 52.869 0 0 0 -7.85-27.76 29.078 29.078 0 0 0 7.85-6.72s12.9-1.7 20.16 12.08z" fill="#d85445"/><path d="m412.32 237.92c0 10.76-3.51 20.44-9.11 27.2a29.078 29.078 0 0 1 -7.85 6.72c-6.7-10.78-16.91-17.92-27.56-17.94a47.385 47.385 0 0 0 2.72-15.98c0-9.95-2.99-18.97-7.89-25.62l.01-.01c5.11-6.69 13.63-11.36 21.43-11.36 15.6 0 28.25 16.56 28.25 36.99z" fill="#a54a4a"/><path d="m367.8 253.9c-3.66 10.3-10.75 18.1-19.35 20.58-4.56-7.75-10.88-13.39-17.96-15.42a57.865 57.865 0 0 0 2.06-15.43c0-12.55-3.9-23.89-10.17-31.97 5.1-6.63 12.13-10.73 19.89-10.73a22.216 22.216 0 0 1 8.29 1.62 28.161 28.161 0 0 1 12.07 9.75c4.9 6.65 7.89 15.67 7.89 25.62a47.385 47.385 0 0 1 -2.72 15.98z" fill="#d85445"/><path d="m294.92 293.34a49.038 49.038 0 0 1 .5 22.63 51.581 51.581 0 0 1 -4.54 12.78c-5.99 11.63-16.03 19.26-27.4 19.26a24.637 24.637 0 0 1 -4.56-.42c-10.77-1.97-19.89-10.83-24.79-23.14a56.405 56.405 0 0 1 -3.89-20.85 57.571 57.571 0 0 1 2.1-15.56l-.02-.14c17.11-1.82 30.57-20.94 30.57-44.27 0-16.41-6.66-30.74-16.57-38.44a58.61 58.61 0 0 1 19.07-3.36 41.973 41.973 0 0 1 17.25 3.36c-9.91 7.7-16.58 22.03-16.58 38.44 0 21.3 11.23 39.1 26.21 43.41 1.1 1.25 1.98 3.68 2.65 6.3z" fill="#d85445"/><path d="m322.38 211.66c6.27 8.08 10.17 19.42 10.17 31.97a57.865 57.865 0 0 1 -2.06 15.43c-4.69 16.92-16.88 28.98-31.18 28.98a25.111 25.111 0 0 1 -7.04-1c-14.98-4.31-26.21-22.11-26.21-43.41 0-16.41 6.67-30.74 16.58-38.44a27.116 27.116 0 0 1 16.67-5.97 25.675 25.675 0 0 1 9.1 1.68 32.594 32.594 0 0 1 13.97 10.76z" fill="#cc4339"/><path d="m246.32 205.19c9.91 7.7 16.57 22.03 16.57 38.44 0 23.33-13.46 42.45-30.57 44.27a26.223 26.223 0 0 1 -2.67.14c-14.05 0-26.07-11.65-30.94-28.11a57.631 57.631 0 0 1 -2.31-16.3c0-12.7 4-24.16 10.41-32.26a33.956 33.956 0 0 1 10.2-8.82 25.993 25.993 0 0 1 12.64-3.33 27.116 27.116 0 0 1 16.67 5.97z" fill="#a54a4a"/><path d="m397.38 127.83s18.91 55.79-46.82 74.72a22.216 22.216 0 0 0 -8.29-1.62c-7.76 0-14.79 4.1-19.89 10.73a32.594 32.594 0 0 0 -13.97-10.76c.09-.85 2.28-19.07 28.64-28.38 7.45-2.63 16.83-4.55 28.64-5.16 0 0 26.88-4.43 31.69-39.53z" fill="#5fcda4"/><path d="m273.72 182.23a84.782 84.782 0 0 1 10-13.14 102.343 102.343 0 0 1 28.91-21.53c37.16-19 59.8-53.32 50.65-85.69 7.84 22.69 19.13 74.99-26.23 110.65-26.36 9.31-28.55 27.53-28.64 28.38a25.675 25.675 0 0 0 -9.1-1.68 27.116 27.116 0 0 0 -16.67 5.97 41.973 41.973 0 0 0 -17.25-3.36s1.48-8.47 8.33-19.6z" fill="#4ca987"/><path d="m285.63 17 11.07 3.57s-24.46 107.47-13 148.5l.02.02a84.782 84.782 0 0 0 -10 13.14 65.867 65.867 0 0 1 -15.86-10.19l.01-.01s-8.22-83.96 27.76-155.03z" fill="#795940"/><path d="m273.72 182.23c-6.85 11.13-8.33 19.6-8.33 19.6a58.61 58.61 0 0 0 -19.07 3.36 27.116 27.116 0 0 0 -16.67-5.97 25.993 25.993 0 0 0 -12.64 3.33c-.39-.11-11.25-3.28-15.85-26.65a.031.031 0 0 0 -.01-.02c-1.7-8.63-2.55-20.01-1.71-35 3.12-55.58-12.58-78.36-13.03-79 .82.74 36.08 33.1 46.24 70.33a78.561 78.561 0 0 0 25.21 39.83 65.867 65.867 0 0 0 15.86 10.19z" fill="#5fcda4"/><path d="m217.01 202.55a33.956 33.956 0 0 0 -10.2 8.82c-5.96-7.5-14.11-12.15-22.94-12.15-15.32-3.11-28.89-16.54-49.09-15.06-57.26 4.2-51.9-34.76-51.9-34.76s39.99 22.64 67.75 3.58c32.78-22.5 50.09 21.79 50.52 22.9a.031.031 0 0 1 .01.02c4.6 23.37 15.46 26.54 15.85 26.65z" fill="#4ca987"/><path d="m206.81 211.37c-6.41 8.1-10.41 19.56-10.41 32.26a57.631 57.631 0 0 0 2.31 16.3c-11.06 2.72-20.21 12.74-24.52 26.2-10-4.06-18.01-14.26-21.56-27.32a57.442 57.442 0 0 1 -2-15.18c0-15.71 6.11-29.52 15.32-37.41h.01a27.363 27.363 0 0 1 17.91-7c8.83 0 16.98 4.65 22.94 12.15z" fill="#d85445"/><path d="m119.18 265.96a56.141 56.141 0 0 1 -4.38-22.33c0-24.52 14.88-44.41 33.24-44.41a27.394 27.394 0 0 1 17.91 7c-9.21 7.89-15.32 21.7-15.32 37.41a57.442 57.442 0 0 0 2 15.18h-.01c-11.11 0-20.43 7.41-26.06 18.71l-.01-.01a42.391 42.391 0 0 1 -7.37-11.55z" fill="#cc4339"/><path d="m126.55 277.51.01.01a58.626 58.626 0 0 0 -5.79 26.08 54.472 54.472 0 0 0 2.5 16.19h-.01s-9.91 16.23-10.53 36.13c-21.81-25.11-20.02-62.56-11.51-78.72 6.78-12.86 16.67-11.48 17.96-11.24a42.391 42.391 0 0 0 7.37 11.55z" fill="#aa4841"/><path d="m163.044 204a26.563 26.563 0 0 0 -15-4.78c-18.36 0-33.24 19.89-33.24 44.41a56.141 56.141 0 0 0 4.38 22.33 42.391 42.391 0 0 0 7.37 11.55l.01.01c4.636-9.3 11.777-15.96 20.355-18.025a58.944 58.944 0 0 1 -2.119-15.865c0-17.312 7.422-32.305 18.244-39.63z" fill="#aa3835"/><path d="m123.27 319.79h-.01s-9.91 16.23-10.53 36.13c-.58 18.73 7.06 40.71 38.95 55.47a85.237 85.237 0 0 1 -1.05-16.14v-.01c-6.15-8.05-9.96-19.27-9.96-31.67a60.1 60.1 0 0 1 .719-9.271 68.864 68.864 0 0 1 -11.254-20.115 54.339 54.339 0 0 1 -6.865-14.394z" fill="#9b3634"/><path d="m192.871 438.555c-6.353-6.469-10.416-16.25-11.3-27.215-2.361-1.1-4.576-2.236-6.678-3.407-.326.013-.65.037-.978.037-9.07 0-17.29-4.85-23.29-12.72a85.237 85.237 0 0 0 1.05 16.14h.01c2.18 13.77 8.57 32.13 26.85 37.22 7.049 1.97 15.869 1.953 26.888-1.04a31.344 31.344 0 0 1 -12.552-9.015z" fill="#7a3737"/><path d="m428.677 274.407c-4.331-8.218-10.322-12.081-15.491-13.867a51.539 51.539 0 0 0 5.13-22.622c0-23.706-15.363-42.992-34.248-42.992a26.743 26.743 0 0 0 -3.512.245 59.832 59.832 0 0 0 18.627-21.031c12.132-23.206 4.22-47.223 3.877-48.234a6 6 0 0 0 -11.626 1.113c-3.922 28.628-23.888 33.822-26.471 34.376-3.066.167-5.974.424-8.747.751 15.228-18.64 22.081-41.964 19.932-68.53a138.886 138.886 0 0 0 -7.248-33.878 62.955 62.955 0 0 0 -4.837-11.866 6 6 0 0 0 -10.667 5.5 95.036 95.036 0 0 1 4.038 9.965 49.776 49.776 0 0 1 -.622 28.905c-6.207 19.69-23.307 37.908-46.918 49.984a113.631 113.631 0 0 0 -22.356 14.866c-2.036-17.184-.591-43.335 4.287-76.7 4.592-31.407 10.66-58.213 10.721-58.481a6 6 0 0 0 -4.008-7.041l-11.068-3.58a6 6 0 0 0 -7.2 3c-27.219 53.771-29.776 113.831-29.2 142.075a73.893 73.893 0 0 1 -12.633-25.738c-10.617-38.9-46.487-71.819-48.009-73.2a6 6 0 0 0 -8.938 7.9c.15.215 14.935 22.181 11.959 75.219-.233 4.149-.334 8.038-.329 11.7a37.8 37.8 0 0 0 -15.735-10.275c-9.711-3.041-19.859-1-30.158 6.072-24.287 16.673-61.028-3.659-61.39-3.863a6 6 0 0 0 -8.9 4.4c-.089.648-2.05 15.993 9.327 28.118 9.925 10.577 26.4 15.1 48.956 13.451 7.751-.572 14.387 1.386 20.888 4.155a31.328 31.328 0 0 0 -8.066-1.078c-21.639 0-39.243 22.612-39.243 50.407a65.017 65.017 0 0 0 2.234 17.122c-4.85 1.478-10.626 5.123-15.121 13.653-9.583 18.192-10.912 56.879 10.788 83.639a60.755 60.755 0 0 0 2.543 17.5c5.1 16.8 17.57 30.2 37.065 39.9 2.185 11.125 7.049 24.243 17.762 32.533a36.886 36.886 0 0 0 10.094 5.547c3.49 7.329 13.7 25.347 32.526 32.624a45.807 45.807 0 0 0 16.656 3.1 58.478 58.478 0 0 0 22.554-4.884 38.357 38.357 0 0 0 11.644 12.016 29.733 29.733 0 0 0 16.146 4.636 39.81 39.81 0 0 0 12.044-2c6.658-2.112 15.42-8.693 21.539-14.99 5.247 3.694 14.2 8.695 24.21 8.695a28.388 28.388 0 0 0 7.974-1.124c13.055-3.805 22.687-16.815 28.649-38.682 8.558-6.449 16.666-16.4 20.127-28.693a44.99 44.99 0 0 0 1.617-9.678c25.351-18.571 29.665-41.8 28.139-59.5 22.193-27.423 19.777-63.385 10.688-80.64zm-44.609-67.481c12.268 0 22.248 13.9 22.248 30.992 0 10.3-3.656 19.7-9.612 25.44-5.807-7.216-13.217-12.418-21.3-14.475a54.057 54.057 0 0 0 1.12-10.965 50.5 50.5 0 0 0 -6.382-24.946c4.009-3.672 9.316-6.046 13.926-6.046zm-116.252 146.762c10.474-1.5 19.921-8.352 26.338-18.623 12.633 2.327 23.793 17.686 23.793 33.87 0 18.216-11 33.038-24.529 33.038-10.473 0-20.916-10.974-24.107-25.154a55.416 55.416 0 0 0 .572-7.884 54.116 54.116 0 0 0 -2.067-15.247zm-64.151-131.788a5.922 5.922 0 0 0 5.094-2.891c5-8.42 12.507-13.786 20.888-13.786 15.021 0 27.243 17.229 27.243 38.407s-12.222 38.407-27.243 38.407c-12.76 0-23.5-12.433-26.44-29.156a5.971 5.971 0 0 0 -5.86-4.981h-.089a5.942 5.942 0 0 0 -5.862 6.956c.072.408.157.811.237 1.215-8.673 3.934-15.844 11.64-20.463 21.479-8.776-6.6-14.544-19.611-14.544-33.92 0-21.178 12.222-38.407 27.243-38.407 5.481 0 10.807 2.343 15.33 6.674-.2.32-.414.63-.61.956a5.954 5.954 0 0 0 5.076 9.047zm-8.476 45.789c5.953 14.021 16.932 24.026 29.813 25.987a65.065 65.065 0 0 0 -.763 9.921 62.373 62.373 0 0 0 3.452 20.63c-5.032 11.019-13.667 17.777-22.923 17.777-15.022 0-27.244-17.23-27.244-38.407 0-15.958 7.315-30.306 17.665-35.906zm33.974 145.985c-.837 10.553-4 19.124-8.821 23.509a13.243 13.243 0 0 1 -10.752 3.357c-11.912-1.136-20.794-13.375-22.045-29.708a41.224 41.224 0 0 0 16.476-14.974c5.936 9.86 14.979 16.397 25.142 17.818zm-18.52-32.366a62.973 62.973 0 0 0 2.518-17.745 96 96 0 0 0 -.489-10.576c8.368-2.174 15.9-7.762 21.5-15.914 5.334 7.7 12.472 13.277 20.554 15.652a39.764 39.764 0 0 1 3.152 16.208c0 18.216-11 33.038-24.528 33.038-9.977.002-18.95-8.243-22.707-20.661zm25.6-77.711a52.526 52.526 0 0 1 1.05-10.527c11.841-3.015 21.774-12.894 27.188-26.261 4.878 12.045 13.428 21.254 23.736 25.164a23.4 23.4 0 0 1 .9 2.865 43.258 43.258 0 0 1 .441 19.855c-3.484 16.08-14.2 27.311-26.073 27.311-15.024.002-27.246-17.228-27.246-38.404zm21.495-95.12a46.929 46.929 0 0 1 13.675-.254 52.126 52.126 0 0 0 -6.932 12.228 52.254 52.254 0 0 0 -6.747-11.972zm72.22 3.721a17.99 17.99 0 0 1 12.318-5.274c12.267 0 22.248 13.9 22.248 30.992 0 12.721-5.753 24.378-13.889 29.132a38.856 38.856 0 0 0 -13.176-11.625 63.961 63.961 0 0 0 1.1-11.793 59.631 59.631 0 0 0 -8.605-31.43zm4.017 55.029c9.224 6.046 15.883 20.385 15.883 35.628 0 10.24-3.707 21.752-9.914 30.8-4.651 6.777-10.126 11.357-15.239 12.91-5.465-11.08-14.7-19.556-25.3-22.589a59.468 59.468 0 0 0 1.885-6.74 55.2 55.2 0 0 0 -.064-23.259c14.189-.877 26.426-11.496 32.745-26.748zm-34.663 14.81c-15.022 0-27.243-17.229-27.243-38.407s12.221-38.407 27.243-38.407 27.243 17.229 27.243 38.407-12.226 38.409-27.247 38.409zm2.321 130.772c8.562-2.435 15.986-8.58 21.081-17a43.419 43.419 0 0 1 4.849 5.456c10.916 14.56 10.993 33.062.172 41.243-7.79 5.891-20.161 6.782-27.769-.437a62.808 62.808 0 0 0 2.764-18.357 43.206 43.206 0 0 0 -1.101-10.903zm26.124-28.509a54.274 54.274 0 0 0 2.19-15.362 50.258 50.258 0 0 0 -1.239-11.056c7.142-2.337 14.113-7.828 19.989-15.849a33.332 33.332 0 0 0 20.509 7.955c2.25 8.825 6.029 29.277-2.889 42.582-4.585 6.84-12.246 11-22.8 12.414a55.063 55.063 0 0 0 -15.76-20.684zm42.207-46.289c-5.324 0-10.536-2.263-14.985-6.433a66.861 66.861 0 0 0 6.875-28.718 63.692 63.692 0 0 0 -5.256-25.414c6.27-3.664 11.48-9.713 15-17.139 13.829 2.8 25.612 20.266 25.612 39.3-.003 21.171-12.225 38.401-27.246 38.401zm-3.964-164.655a5.946 5.946 0 0 0 .666-.072 44.165 44.165 0 0 0 26.272-17.343 46.333 46.333 0 0 1 -4.392 12.639c-6.641 12.7-19.389 22-37.868 27.658a27.657 27.657 0 0 0 -8.408-1.312 29.562 29.562 0 0 0 -19.911 7.95 38.466 38.466 0 0 0 -6.922-5.176c2.855-7.2 13.276-22.412 50.563-24.344zm-50.64-20.451c22.726-11.624 40.159-28.61 49.162-47.582-.528 25.293-10.728 46.059-30.4 61.854-19.506 7.131-27.032 18.975-29.919 26.442a30.8 30.8 0 0 0 -4.9-.394 32.153 32.153 0 0 0 -17.395 5.239 45.833 45.833 0 0 0 -8.614-2.078c3.86-9.968 14.537-29.4 42.066-43.481zm-26.634-128.6.942.3c-4.715 22-21.153 104.147-12.549 142.825-2.056 2.383-3.881 4.738-5.5 7.03a66.092 66.092 0 0 1 -7.966-5.379c-.925-13.602-4.001-83.616 25.073-144.776zm-61.864 109.482a83.82 83.82 0 0 0 38.546 50.929 72.792 72.792 0 0 0 -4.694 11.329 66.936 66.936 0 0 0 -13.506 2.529 32.182 32.182 0 0 0 -17.561-5.349 31.236 31.236 0 0 0 -12.457 2.616c-3.981-3.051-13.994-14.773-11.758-54.626 1.266-22.571-.5-39.99-3.176-52.9 9.566 12.237 19.951 28.417 24.606 45.472zm-92.517 44.393c-18.413 1.348-31.972-1.964-39.218-9.577a22.771 22.771 0 0 1 -5.356-9.368 109.126 109.126 0 0 0 15.158 4.93c19.324 4.7 36.3 2.55 49.093-6.234 7.2-4.941 13.655-6.422 19.75-4.523 12.952 4.031 20.651 21.874 21.662 24.345 2.662 12.92 7.193 20.444 11.305 24.8a34.4 34.4 0 0 0 -22.1-9.311c-4.973-1.087-10.04-3.513-15.4-6.089-9.747-4.688-20.796-10.007-34.894-8.973zm13.7 27.045a19.948 19.948 0 0 1 8.684 2.051c-7.45 9.18-12.1 22.079-12.1 36.356a65.418 65.418 0 0 0 .771 10.068c-7.4 1.845-13.97 6.488-19.113 13.114a48.151 48.151 0 0 1 -5.487-23.186c0-21.174 12.222-38.403 27.244-38.403zm-39.045 134.375c-10.75-21.242-9.1-47.022-2.468-59.6 3.013-5.719 6.54-7.511 8.908-8.023a47.928 47.928 0 0 0 4.142 6.5 65.565 65.565 0 0 0 -4.809 25.125 60.24 60.24 0 0 0 2.056 15.406 91.725 91.725 0 0 0 -7.829 20.592zm11.755 32.535c-4.27-13.985-1.053-28.24 2.423-37.79a48.465 48.465 0 0 0 13.051 14.861 66.285 66.285 0 0 0 -1.553 14.355c0 12.817 3.749 24.524 9.9 33.427-.009.984 0 2.292.059 3.834-12.369-7.631-20.389-17.247-23.881-28.683zm19.589-35.118c-7.277-6.93-13.571-19.243-13.571-33.422 0-19.586 9.2-35.343 21.618-38.29 3.833 10.433 10.4 18.97 18.753 23.976a64.216 64.216 0 0 0 -.772 24.724c-11.108 2.609-20.431 11.11-26.029 23.016zm29.13-11.406c5.8 15.291 17.455 26.273 31.192 28.114a82.444 82.444 0 0 1 .5 9.836c0 21.178-12.221 38.408-27.243 38.408s-27.243-17.23-27.243-38.408c-.005-19.161 9.897-35.093 22.793-37.946zm1.972 112.895c-9.048-6.983-12.616-19.487-14-29.212a31.966 31.966 0 0 0 16.476 4.675c.626 0 1.247-.024 1.866-.061 1.407 12.484 6.517 23.1 14.023 30.035-7.355.123-13.504-1.68-18.366-5.433zm39.644 36.473c-10.18-3.91-17.36-12.271-21.764-19a71.858 71.858 0 0 0 20.366-3.4c.526.028 1.049.046 1.568.046a24.974 24.974 0 0 0 17.155-6.559c.149-.136.288-.289.435-.428a51.447 51.447 0 0 0 7.729 14.227 78.91 78.91 0 0 0 3.936 13.73c-10.727 4.299-20.607 4.776-29.426 1.388zm26.535-43.5a65.645 65.645 0 0 0 3.615-18.58c9.183-2.5 17.079-9.271 22.241-18.535 6.2 10.5 15.746 17.8 26.023 19.306a34.677 34.677 0 0 1 1.24 9.395c-.012.155-.017.308-.017.462 0 21.178-12.222 38.408-27.244 38.408-12.478.005-23.201-12.723-25.859-30.451zm44.485 56.1c-7.156 2.269-13.087 1.831-18.138-1.339-5.114-3.211-8.681-8.735-11.116-14.167a31.074 31.074 0 0 0 18.511.842 48.085 48.085 0 0 0 20.224 9.035c-3.502 2.695-7.006 4.85-9.482 5.631zm19.007-17.043a32.093 32.093 0 0 1 -17.323-3.89 45.341 45.341 0 0 0 11.206-13.125 31.121 31.121 0 0 0 16.519 5.683q.939.051 1.88.052a36.435 36.435 0 0 0 13.647-2.7c-8.382 8.625-17.076 13.327-25.93 13.982zm35.029 9.529c-5.869 1.726-11.983-.2-16.758-2.674q10.75-5.629 20.61-17.274a24.946 24.946 0 0 0 7.123 1.039 26.375 26.375 0 0 0 5.844-.676c-4.429 10.92-10.142 17.62-16.82 19.587zm40.541-59.094c-3.706 13.164-14.62 23.1-23.191 26.765-5.926 2.533-10.465 1.214-13.416-.575 6.556-7.99 8.9-19.154 6.938-30.575 12.713-2.07 22.32-7.587 28.633-16.455a32.162 32.162 0 0 1 1.035 20.842zm11.634-20.615a51.285 51.285 0 0 0 -6.321-14.018c3.824-14.405 1.152-30-.916-38.4 7.406-2.815 13.9-8.364 18.783-15.738 6.594 15.143 14.359 44.855-11.547 68.158zm26.466-61.943a97.921 97.921 0 0 0 -8.428-19.993 62.752 62.752 0 0 0 2.849-18.821 59.307 59.307 0 0 0 -6.015-25.987 35.794 35.794 0 0 0 2.677-2.517c2.944.27 8.438 1.782 12.191 8.9 6.389 12.135 8.597 37.022-3.275 58.42z" fill="#243a54"/></svg>