<svg id="Layer_1" height="512" viewBox="0 0 512 512" width="512" xmlns="http://www.w3.org/2000/svg" data-name="Layer 1"><path d="m329.54 197.83-13.55-24.57a254.046 254.046 0 0 0 -33.4-42.57l-79.13 5.69-41.65 20.49-32.81-3.49-92.16 54.6s-10.95 45.53 7.39 97.67l8.27 19.67c20.67 41.92 62.66 84.94 145.68 110l15.37 4.3q20.4 5.295 43.92 9.15a21.41 21.41 0 0 0 3.48.29 18.08 18.08 0 0 0 4.74-.61c4.41-1.2 7.78-4.31 10.68-7.84 1.8-2.19 4.17-5.27 5.89-7.44h.01l26.16-212.19 26.95-9.63c-1.81-4.65-3.77-9.16-5.84-13.52z" fill="#d8514b"/><path d="m243.55 439.62-15.37-4.3c-83.02-25.06-125.01-68.08-145.68-110l-8.27-19.67q-.49-1.4-.955-2.787c-16.1-48.262 4.234-101.2 48.005-127.136l33.154-19.642-25.434-2.705-92.16 54.6s-10.95 45.53 7.39 97.67l8.27 19.67c20.67 41.92 62.66 84.94 145.68 110l15.37 4.3q20.4 5.295 43.92 9.15a21.41 21.41 0 0 0 3.48.29 18.08 18.08 0 0 0 4.74-.61 16.343 16.343 0 0 0 5.315-2.623q-14.37-2.805-27.455-6.207z" fill="#a83f3f"/><g fill="#ad2a34"><path d="m329.54 197.83c-4.68 1.61-14.93-1.97-17.12-8.31s-1.1-14.64 3.57-16.26a238.34 238.34 0 0 1 13.55 24.57z"/><path d="m239.07 367.29c1.88 6.44-.45 12.78-5.2 14.17s-10.13-2.72-12.01-9.16.44-12.77 5.19-14.16 10.13 2.71 12.02 9.15z"/><path d="m228.91 219.89c2.19 6.34.17 12.79-4.51 14.4s-10.25-2.22-12.44-8.56-.17-12.78 4.5-14.4 10.25 2.22 12.45 8.56z"/><path d="m216.04 427.7c1.14 4.75.04 9.34-2.49 11.92q-7.92-2.055-15.37-4.3c-1.53-6.52.29-15.93 6.33-17.36 4.82-1.14 9.98 3.22 11.53 9.74z"/><path d="m207.78 276.09c1.88 6.44-.45 12.78-5.2 14.16s-10.13-2.71-12.01-9.15.45-12.78 5.2-14.16 10.13 2.71 12.01 9.15z"/><path d="m183.9 332.88c1.55 6.52-1.1 12.74-5.92 13.88s-9.97-3.22-11.53-9.75 1.1-12.74 5.91-13.88 9.98 3.22 11.54 9.75z"/><path d="m163.56 384.66c2.19 6.34.17 12.79-4.51 14.4s-10.25-2.22-12.44-8.56-.17-12.79 4.51-14.4 10.25 2.22 12.44 8.56z"/><path d="m156.74 239.68c.2 6.7-3.64 12.26-8.59 12.41s-9.12-5.17-9.33-11.87 3.64-12.26 8.59-12.41 9.13 5.16 9.33 11.87z"/><path d="m132.27 293.46c2.19 6.34.18 12.79-4.5 14.4s-10.25-2.22-12.44-8.56-.18-12.79 4.5-14.4 10.25 2.22 12.44 8.56z"/><path d="m111.23 349.94c1.55 6.53-1.1 12.74-5.91 13.89s-9.98-3.23-11.54-9.75 1.1-12.74 5.92-13.88 9.97 3.22 11.53 9.74z"/><path d="m76.11 244.91c4.94.41 8.49 6.16 7.93 12.84s-5 11.77-9.93 11.37-8.48-6.16-7.93-12.84 5-11.77 9.93-11.37z"/><path d="m52.13 301.34c4.93.41 8.49 6.16 7.93 12.84-.47 5.67-3.56 10.14-7.56 11.14a178.023 178.023 0 0 1 -8.27-19.67 7.869 7.869 0 0 1 7.9-4.31z"/><path d="m248.5 306.59a205.648 205.648 0 0 0 .95 27.95c-4.54-.51-9.59-5.1-11.63-11-2.58-7.47-.21-15.06 5.3-16.96 2.06-.71 3.29-.9 5.38.01z"/></g><path d="m494.5 289.59a.549.549 0 0 1 .12 1.07c-11.39 3.97-37.52-7.45-38.36-7.82a.031.031 0 0 0 -.02-.01c-17.43-14.44-46.25-14.84-59.13-14.75-.37 0-.73 0-1.08-.02a19.213 19.213 0 0 1 -7.68-1.61l.06-.13a130.042 130.042 0 0 0 3.73-12.71h.01s29.73-16 50.97 2.65c15.45 13.57 41.01 32.36 51.38 33.33z" fill="#4ca987"/><path d="m398.31 293.03a97.563 97.563 0 0 0 -2.28-24.96v-.01c.35.02.71.02 1.08.02 12.88-.09 41.7.31 59.13 14.75a.031.031 0 0 1 .02.01c12.27 10.16 18.89 27.28 10.32 56.07-17.72 59.56-107.1 112.41-157.32 113.28a24.3 24.3 0 0 1 -6.71-.83c22.78-17.92 23.73-56.47 51.87-81.87v-.01a74.325 74.325 0 0 1 7.04-5.65 87.172 87.172 0 0 0 20.94-20.78c12.04-17.02 15.49-35.61 15.91-50.02z" fill="#de3c44"/><path d="m434.68 233.58c17.63 7.01 22.15 4.81 22.37 4.7-.51.36-18.96 13.69-13.93 17.98-21.24-18.65-50.97-2.65-50.97-2.65h-.01c.8-3.24 1.62-6.99 2.34-11.09 0 0 22.11-16.13 40.2-8.94z" fill="#5fcda4"/><path d="m380.42 255.8a2.755 2.755 0 0 1 1.3 1.88 11.559 11.559 0 0 0 6.63 8.77 19.213 19.213 0 0 0 7.68 1.61v.01a97.563 97.563 0 0 1 2.28 24.96c-.42 14.41-3.87 33-15.91 50.02a87.172 87.172 0 0 1 -20.94 20.78 74.325 74.325 0 0 0 -7.04 5.65v.01c-28.14 25.4-29.09 63.95-51.87 81.87a24.367 24.367 0 0 1 -8.87-4.47c-2.99-28.46 23.26-55.13 22.53-92.2a76.968 76.968 0 0 0 -.9-10.3c-9.45-60.86 45.79-91.48 45.79-91.48 3.61 3.53 7.08 4.7 10.1 4.7a13.378 13.378 0 0 0 6.59-1.85 2.555 2.555 0 0 1 2.63.04z" fill="#e2798d"/><path d="m386.63 178.21c12.25 19.87 11.1 45.75 7.85 64.31-.72 4.1-1.54 7.85-2.34 11.09a130.042 130.042 0 0 1 -3.73 12.71l-.06.13a11.559 11.559 0 0 1 -6.63-8.77 2.755 2.755 0 0 0 -1.3-1.88 2.555 2.555 0 0 0 -2.63-.04 13.378 13.378 0 0 1 -6.59 1.85c1.52-3.56 2.84-6.97 3.99-10.22 1.49-4.21 2.68-8.16 3.63-11.86v-.01c8.9-34.95-4.49-47.97-4.49-47.97z" fill="#7f3d32"/><path d="m378.82 235.52v.01c-.95 3.7-2.14 7.65-3.63 11.86 0 0-10.21-33.75-38.42-35.93-.44-.03-.89-.07-1.35-.11 2.19-.07 2.29-23.36 2.29-23.36s1.2 4.81 18.98 12.74c17.56 7.82 22.02 34.14 22.13 34.79z" fill="#5fcda4"/><path d="m375.19 247.39c-1.15 3.25-2.47 6.66-3.99 10.22-3.02 0-6.49-1.17-10.1-4.7-9.3-9.08-29.97-29.79-52.67-31.93 0 0-27.09-11.26-32.28-22.35a.558.558 0 0 1 .86-.67c7.74 6.59 37.86 11.69 58.37 13.39h.04c.46.04.91.08 1.35.11 28.21 2.18 38.42 35.93 38.42 35.93z" fill="#4ca987"/><path d="m249.45 334.54a205.648 205.648 0 0 1 -.95-27.95c.75-20.06 4.84-38.85 13.3-53.94 14.48-25.85 31.03-33.14 46.63-31.67 22.7 2.14 43.37 22.85 52.67 31.93 0 0-55.24 30.62-45.79 91.48a76.968 76.968 0 0 1 .9 10.3c.73 37.07-25.52 63.74-22.53 92.2a24.369 24.369 0 0 1 -3.06-2.87 98.454 98.454 0 0 1 -8.35-10.85c-16.2-24.03-29.11-61.57-32.82-98.63z" fill="#de3c44"/><path d="m282.59 130.69c-14.49 10.2-39.1 16.4-79.13 5.69-1.3-.63-2.6-1.21-3.88-1.73a59.357 59.357 0 0 0 -30.9-3.67s-2.16-5-6.3-12.42a120.031 120.031 0 0 1 30.98-21.82l.02-.02c17.02-8.14 38.93-12.6 60.14.51 20.79 12.86 34.28 5.85 40.42.71a4.319 4.319 0 0 1 7.02 2.64c.75 4.88-3.45 19.62-18.37 30.11z" fill="#57bf80"/><path d="m256.81 170.06a.693.693 0 0 1 .47 1.25c-18.17 13.44-50.48 5.15-66.1-7.03-16.41-12.8-29.37-7.41-29.37-7.41.75-8.57.03-18-4.89-23.64a9.487 9.487 0 0 0 3.74-.2l8.02-2.05a59.357 59.357 0 0 1 30.9 3.67c1.28.52 2.58 1.1 3.88 1.73a69.331 69.331 0 0 1 17.38 12.3c20.32 19.42 31.17 21.79 35.97 21.38z" fill="#5fcda4"/><path d="m198.4 67.96c8.31 16.31-4.41 28.2-5.02 28.76l-.02.02a120.031 120.031 0 0 0 -30.98 21.82c-2.09-3.75-4.68-8.14-7.76-12.8.72-12.49 13.68-23.56 23.05-24.8 12.9-1.71 20.73-13 20.73-13z" fill="#4ca987"/><path d="m168.68 130.98-8.02 2.05a9.61 9.61 0 0 1 -10.46-4.12c-.03-.05-.07-.11-.1-.16-2.07-3.37-4.98-7.9-8.6-12.88-9.65-13.29-24.29-29.83-41.03-36.48a6.75 6.75 0 0 1 -4.29-5.93l-.33-6.59a6.742 6.742 0 0 1 9.31-6.55c21.71 8.82 38.58 28.92 49.46 45.44 3.08 4.66 5.67 9.05 7.76 12.8 4.14 7.42 6.3 12.42 6.3 12.42z" fill="#6f624b"/><path d="m129 153.38c8.04-19.72 21.2-24.47 21.2-24.47a9.571 9.571 0 0 0 6.72 4.32c4.92 5.64 5.64 15.07 4.89 23.64a83.251 83.251 0 0 1 -2.91 15.49c-15.45 52.09-56.71 43.28-56.71 43.28 4.38-1.22 8.49-6.38 11.88-12.23a78.127 78.127 0 0 0 9.76-29.49 81.335 81.335 0 0 1 5.17-20.54z" fill="#4ca987"/><path d="m100.94 129.11v-.01s-19.43-2.25-23.12-20.63a19.288 19.288 0 0 0 20.54.08c8.13-4.82 29.59-2.68 43.14 7.32 3.62 4.98 6.53 9.51 8.6 12.88.03.05.07.11.1.16 0 0-13.16 4.75-21.2 24.47-34.12 54.85-70.48 59.88-92.16 54.6-10.56-2.57-17.64-7.58-19.28-10.47a4.313 4.313 0 0 1 3.88-6.42c8 .24 22.94-2.61 31.28-25.56 9.5-26.14 30.68-34.39 48.22-36.42z" fill="#57bf80"/><path d="m278.5 306.59c.75-20.06 4.84-38.85 13.3-53.94 8.932-15.945 18.652-24.822 28.45-28.943a48.624 48.624 0 0 0 -11.82-2.727c-15.6-1.47-32.15 5.82-46.63 31.67-8.46 15.09-12.55 33.88-13.3 53.94a205.648 205.648 0 0 0 .95 27.95c3.71 37.06 16.62 74.6 32.82 98.63a98.454 98.454 0 0 0 8.35 10.85 24.369 24.369 0 0 0 3.06 2.87c-1.208-11.5 2.356-22.7 6.984-34.412-10.555-22.378-18.446-50.288-21.214-77.938a205.648 205.648 0 0 1 -.95-27.95z" fill="#c13846"/><path d="m63.18 182.306a6 6 0 0 0 8.1-2.509c.134-.253 13.642-25.35 37.46-32.162a6 6 0 1 0 -3.3-11.537c-28.833 8.246-44.14 36.902-44.78 38.117a6 6 0 0 0 2.52 8.091z" fill="#243a54"/><path d="m146.09 146.4a6 6 0 0 0 -5.69 6.3c.225 4.5-.433 17.664-6.114 24.467a6 6 0 1 0 9.21 7.692c9.822-11.761 8.932-31.908 8.889-32.759a6 6 0 0 0 -6.295-5.7z" fill="#243a54"/><path d="m198.424 117.835c22.93-9.386 49.112 1.963 49.374 2.079a6 6 0 0 0 4.88-10.963c-1.255-.559-31.051-13.583-58.8-2.222a6 6 0 0 0 4.546 11.106z" fill="#243a54"/><path d="m87.241 245.825a13.955 13.955 0 0 0 -10.635-6.891c-8.361-.694-15.567 6.712-16.406 16.85a20.54 20.54 0 0 0 2.783 12.422 13.962 13.962 0 0 0 10.636 6.894c.361.029.719.044 1.076.044 7.9 0 14.527-7.2 15.329-16.9a20.528 20.528 0 0 0 -2.783-12.419zm-9.176 11.432c-.309 3.74-2.441 5.971-3.46 5.881-.421-.034-.962-.51-1.413-1.239a8.627 8.627 0 0 1 -1.033-5.125c.3-3.672 2.37-5.883 3.406-5.883h.056c.413.033.967.52 1.411 1.238a8.612 8.612 0 0 1 1.033 5.128z" fill="#243a54"/><path d="m147.931 258.09c.133 0 .268 0 .4-.007a13.952 13.952 0 0 0 10.978-6.329 20.526 20.526 0 0 0 3.427-12.259c-.31-10.17-7.166-17.956-15.507-17.68a13.952 13.952 0 0 0 -10.978 6.329 20.526 20.526 0 0 0 -3.427 12.259c.305 10.008 6.906 17.687 15.107 17.687zm-1.813-23.116a2.36 2.36 0 0 1 1.476-1.165h.02c1.023 0 3.015 2.326 3.129 6.05a8.621 8.621 0 0 1 -1.3 5.065 2.357 2.357 0 0 1 -1.476 1.165c-1.059 0-3.035-2.3-3.149-6.05a8.621 8.621 0 0 1 1.3-5.065z" fill="#243a54"/><path d="m234.577 217.934c-3.323-9.612-12.136-15-20.067-12.273a13.948 13.948 0 0 0 -8.6 9.308 20.528 20.528 0 0 0 .38 12.723c2.74 7.926 9.212 12.981 15.844 12.981a12.929 12.929 0 0 0 4.222-.708 13.949 13.949 0 0 0 8.6-9.308 20.528 20.528 0 0 0 -.38-12.723zm-11.073 9.14a2.386 2.386 0 0 1 -1.056 1.545c-.966.329-3.59-1.3-4.817-4.848a8.624 8.624 0 0 1 -.269-5.219 2.386 2.386 0 0 1 1.057-1.545.859.859 0 0 1 .278-.042c1.12 0 3.415 1.64 4.538 4.889a8.612 8.612 0 0 1 .265 5.22z" fill="#243a54"/><path d="m117.877 279.227a13.516 13.516 0 0 0 -7.692 7.013 19.816 19.816 0 0 0 -.529 15.019c2.74 7.926 9.212 12.981 15.843 12.981a12.959 12.959 0 0 0 4.223-.709 13.518 13.518 0 0 0 7.693-7.013 19.817 19.817 0 0 0 .528-15.019c-3.324-9.613-12.143-15.006-20.066-12.272zm8.749 22.038c-.113.231-.418.784-.812.92-.963.331-3.589-1.3-4.816-4.847a7.951 7.951 0 0 1 -.024-5.844c.112-.232.417-.785.812-.921a.857.857 0 0 1 .279-.042c1.119 0 3.413 1.64 4.536 4.889a7.96 7.96 0 0 1 .025 5.845z" fill="#243a54"/><path d="m194.09 261.18a13.947 13.947 0 0 0 -9.041 8.88 20.537 20.537 0 0 0 -.237 12.728c2.427 8.3 8.969 13.746 15.825 13.746a12.947 12.947 0 0 0 3.624-.518 13.948 13.948 0 0 0 9.041-8.881 20.534 20.534 0 0 0 .237-12.727c-2.854-9.763-11.399-15.571-19.449-13.228zm7.946 21.82a2.383 2.383 0 0 1 -1.13 1.492c-.981.281-3.522-1.469-4.576-5.074a8.621 8.621 0 0 1 -.015-5.226 2.38 2.38 0 0 1 1.131-1.493.817.817 0 0 1 .228-.03c1.1 0 3.367 1.752 4.347 5.1a8.624 8.624 0 0 1 .015 5.231z" fill="#243a54"/><path d="m98.31 334.359a13.949 13.949 0 0 0 -9.478 8.41 20.52 20.52 0 0 0 -.884 12.7c2.065 8.683 8.66 14.548 15.76 14.548a12.946 12.946 0 0 0 2.992-.351 13.953 13.953 0 0 0 9.48-8.411 20.524 20.524 0 0 0 .883-12.7c-2.354-9.894-10.589-16.133-18.753-14.196zm6.829 22.195c-.336.788-.8 1.338-1.207 1.434-.993.231-3.441-1.645-4.31-5.3a8.616 8.616 0 0 1 .251-5.221 2.385 2.385 0 0 1 1.206-1.435.78.78 0 0 1 .179-.019c1.08 0 3.31 1.868 4.131 5.317a8.624 8.624 0 0 1 -.25 5.224z" fill="#243a54"/><path d="m170.98 317.292a13.953 13.953 0 0 0 -9.48 8.411 20.524 20.524 0 0 0 -.883 12.7c2.065 8.683 8.66 14.549 15.759 14.549a12.962 12.962 0 0 0 2.993-.352 13.949 13.949 0 0 0 9.48-8.41 20.527 20.527 0 0 0 .883-12.7c-2.353-9.89-10.589-16.134-18.752-14.198zm6.828 22.2a2.355 2.355 0 0 1 -1.207 1.435c-1 .225-3.441-1.645-4.31-5.3a8.617 8.617 0 0 1 .25-5.221c.336-.788.8-1.338 1.207-1.434a.779.779 0 0 1 .179-.02c1.08 0 3.31 1.869 4.131 5.318a8.621 8.621 0 0 1 -.25 5.217z" fill="#243a54"/><path d="m149.163 370.429a13.514 13.514 0 0 0 -7.693 7.013 19.814 19.814 0 0 0 -.528 15.018c2.74 7.926 9.211 12.981 15.843 12.981a12.941 12.941 0 0 0 4.223-.709 13.516 13.516 0 0 0 7.693-7.014 19.811 19.811 0 0 0 .528-15.017c-3.324-9.614-12.136-15.001-20.066-12.272zm8.749 22.036c-.113.232-.418.786-.813.921-.966.334-3.589-1.3-4.815-4.847a7.957 7.957 0 0 1 -.025-5.844c.113-.231.418-.785.813-.921a.857.857 0 0 1 .279-.042c1.119 0 3.413 1.641 4.536 4.89a7.955 7.955 0 0 1 .025 5.843z" fill="#243a54"/><path d="m225.376 352.381a13.949 13.949 0 0 0 -9.041 8.88 20.534 20.534 0 0 0 -.237 12.727c2.427 8.3 8.967 13.748 15.822 13.748a12.927 12.927 0 0 0 3.626-.52 13.519 13.519 0 0 0 8.024-6.633 19.817 19.817 0 0 0 1.255-14.974c-2.853-9.763-11.396-15.573-19.449-13.228zm3.356 11.521a.817.817 0 0 1 .228-.03c1.1 0 3.367 1.752 4.347 5.1a7.957 7.957 0 0 1 -.26 5.838c-.123.226-.455.764-.857.881-.97.288-3.52-1.468-4.573-5.073a8.617 8.617 0 0 1 -.016-5.227 2.354 2.354 0 0 1 1.131-1.491z" fill="#243a54"/><path d="m495.059 283.612c-6.729-.626-27.827-14.5-45.99-30.127 1.982-2.593 6.767-6.951 11.483-10.335a6 6 0 0 0 -5.612-10.492c-.8.085-5.585.3-18.045-4.655-12.3-4.891-25.669-.943-34.8 3.291 1.666-17.781.324-38.911-10.35-56.233a6 6 0 0 0 -8.745-1.629l-12.3 9.345a6 6 0 0 0 -.553 9.08c.091.089 5.086 5.566 5.668 18.911-3.853-6.27-9.234-12.205-16.682-15.523-12.24-5.453-15.426-9.018-15.924-9.653a6 6 0 0 0 -11.5 2.376v.674a267.169 267.169 0 0 0 -40.233-57.383c12.258-11.121 16.4-25.134 15.417-31.583a10.318 10.318 0 0 0 -16.806-6.333c-6.094 5.1-16.837 9.039-33.413-1.212-15.043-9.3-32.16-11.517-50.247-6.661a29.155 29.155 0 0 0 -2.674-20.232 6 6 0 0 0 -10.277-.7c-.063.091-6.6 9.152-16.593 10.475-8.678 1.15-18.67 8.225-24.15 17.577-11.144-14.758-26.412-30.148-45.312-37.833a12.749 12.749 0 0 0 -17.569 12.415l.331 6.591a12.8 12.8 0 0 0 8.069 11.2c8.277 3.288 16.082 9.331 22.95 16.159-10.02-1.9-19.846-1.33-25.9 2.262-7.4 4.39-13.388.606-13.983.2a6 6 0 0 0 -9.381 6.058 29.753 29.753 0 0 0 10.482 17.693c-16.86 6.29-28.952 18.586-35.335 36.148-6.646 18.292-17.523 21.826-25.47 21.608a10.309 10.309 0 0 0 -9.268 15.382c2.09 3.674 8.372 8.521 17.566 11.726a191.034 191.034 0 0 0 -2.087 39.746c1.168 24.454 7.491 61.014 30.977 96.319 36.8 55.315 103.315 91.121 197.705 106.426a27.946 27.946 0 0 0 4.454.367 24.02 24.02 0 0 0 6.3-.82c6.56-1.777 10.987-6.454 13.747-9.818.337-.411.693-.852 1.06-1.31 1.346 1.725 2.707 3.371 4.084 4.91a30.444 30.444 0 0 0 22.683 10.175h.527c26.053-.455 62.108-14.117 94.1-35.657 48.422-32.606 63.934-65.314 68.871-81.909 5.385-18.1 5.459-33.39.291-45.638a64.728 64.728 0 0 0 16.1 2.492 24.185 24.185 0 0 0 7.873-1.146 6.555 6.555 0 0 0 -1.534-12.72zm-48.041-31.912.012.012-.013-.011zm-14.556-12.549c3.839 1.526 7.184 2.675 10.1 3.519a35.9 35.9 0 0 0 -3.143 3.747c-8.794-4.771-19.248-6.3-30.733-4.4-.633.105-1.253.22-1.865.34 7.079-3.338 17.199-6.557 25.641-3.202zm-35.169 18.66c6.761-2.939 27.072-10.037 41.867 2.958.2.172 10.363 9.06 22.455 17.816-.776-.314-1.516-.627-2.235-.938-19.853-15.842-51.072-15.643-62.305-15.572h-.175c-.281 0-.532-.015-.8-.024.374-1.251.777-2.673 1.193-4.236zm-14.833-68.9 2.19-1.664c10.006 22.1 5.305 50.388 1.435 65.783a8.748 8.748 0 0 0 -2.552-2.357c-.081-.049-.159-.1-.242-.146a8.712 8.712 0 0 0 -2.52-.937c11.729-33.143 6.262-52.077 1.689-60.676zm-39.075 11.774a105.713 105.713 0 0 0 10.867 5.519c7.151 3.186 11.762 10.493 14.611 17.133-7.265-9.046-16.1-14.831-25.934-17 .178-1.573.333-3.432.456-5.649zm-8.5 16.634v.008h.13c.79.07 1.249.106 1.294.11 20.314 1.567 30.078 23.487 32.515 29.916q-.567 1.537-1.189 3.125a13.644 13.644 0 0 1 -2.34-1.872l-.707-.689c-9.715-9.5-30.673-29.964-54.544-32.781-1.125-.478-2.293-.993-3.511-1.561 12.497 2.225 24.354 3.391 28.35 3.747zm-84.525-114.982c10.3 6.371 20.246 9.051 29.558 7.96a33.657 33.657 0 0 0 14.663-5.368c-1.084 4.232-4.238 11.313-11.532 17.777-11.329 10.041-33.984 19.55-77.583 7.995-1.2-.573-2.411-1.119-3.635-1.615a65.444 65.444 0 0 0 -29.525-4.534c-.648-1.333-1.458-2.951-2.428-4.8 10.799-9.629 47.167-38.017 80.482-17.415zm-39.559 48.4a112.782 112.782 0 0 0 -9.877-7.291c-13.137-8.82-28.614-5.694-29.266-5.556a6 6 0 0 0 -4.477 4.051 34.7 34.7 0 0 0 -1.059-4.115l3.695-.941a52.877 52.877 0 0 1 27.51 3.323 61.624 61.624 0 0 1 19.364 12.808q13.473 12.877 24.159 18.6c-15.753 2.586-35.606-3.974-45.984-12.067-10.682-8.332-20.348-9.968-26.868-9.762-.024-.922-.066-1.846-.138-2.77a6 6 0 0 0 6.271 2.616c.109-.023 11.269-2.156 20.1 3.777a104.93 104.93 0 0 1 8.74 6.424 6 6 0 1 0 7.826-9.1zm-32.345-63.826a35.082 35.082 0 0 0 16.744-7.268 18.875 18.875 0 0 1 -5.347 12.141c-.373.183-.746.36-1.119.549a127.782 127.782 0 0 0 -24.88 16.734q-1.407-2.331-3-4.812c1.687-8.655 11.379-16.52 17.602-17.344zm-75.775-13.095a.76.76 0 0 1 -.513-.652l-.33-6.592a.655.655 0 0 1 .3-.615.754.754 0 0 1 .445-.15.817.817 0 0 1 .316.068c29.306 11.916 49.735 46.686 57.174 61.11l-.893.228a3.573 3.573 0 0 1 -3.959-1.593c-21.75-35.558-42.254-47.72-52.54-51.804zm50.471 96.838c-8.213 27.69-24.092 36.313-35.709 38.734q.912-1.4 1.82-2.969a83.881 83.881 0 0 0 10.524-31.742 75.9 75.9 0 0 1 4.72-18.915c.063-.142.123-.285.174-.429 4.533-11 10.681-16.518 14.377-19.006a15.446 15.446 0 0 0 4.36 2.24c4.549 7.441 2.452 22.925-.266 32.087zm-127.512 26.286a33.653 33.653 0 0 0 14.46-4.82c7.988-4.907 14.134-13.163 18.268-24.538 6.491-17.863 19.764-28.622 39.45-31.978a84.792 84.792 0 0 1 29.238.422 6 6 0 0 0 2.664-11.7 95.458 95.458 0 0 0 -28.661-1.278 24.606 24.606 0 0 1 -11.639-5.588 25.863 25.863 0 0 0 12-3.751c5.665-3.361 24.067-1.692 35.79 6.476 1.7 2.371 3.235 4.618 4.567 6.647-5.273 3.724-12.718 10.876-18.083 23.707-27.014 43.252-54.169 52.734-72.214 53.052-12.404.224-21.441-3.768-25.84-6.651zm28.444 116.748c-.014.175-.047.33-.068.5q-1.468-3.45-2.751-6.878c.119 0 .242 0 .374.016.414.033.967.52 1.411 1.238a8.621 8.621 0 0 1 1.034 5.124zm156.316 118.898q-3.4-.923-6.725-1.894a14.769 14.769 0 0 1 .568-4.2c.55-1.81 1.306-2.615 1.654-2.7.985-.242 3.441 1.645 4.31 5.3a9.626 9.626 0 0 1 .193 3.494zm78.078-.962c-13.4-19.031-24.684-47.964-30.317-78.513-3.707-20.108-4.643-39.281-2.93-56.284a5.984 5.984 0 0 0 -5.964-6.574h-.1a6 6 0 0 0 -5.969 5.382c-.16 1.554-.294 3.154-.413 4.779-.564.148-1.1.32-1.619.5a14.862 14.862 0 0 0 -8.447 7.718 22.264 22.264 0 0 0 -.573 16.869 23.6 23.6 0 0 0 11.747 13.587c.619 5.177 1.427 10.57 2.465 16.2 5.391 29.237 15.844 57.272 28.542 77.541-1.1 1.4-2.23 2.833-3.171 3.981-2.762 3.365-5.107 5.168-7.607 5.846a13.49 13.49 0 0 1 -5.695.189q-18.983-3.078-36.362-7.288a21.368 21.368 0 0 0 -.186-9.24c-2.354-9.9-10.594-16.13-18.752-14.2-4.908 1.163-8.59 5.03-10.369 10.887a25.442 25.442 0 0 0 -.853 4.054c-56.113-18.285-97.363-46.829-123.005-85.282-3.162-4.742-5.992-9.516-8.533-14.29a20.143 20.143 0 0 0 5.677-12.809 20.526 20.526 0 0 0 -2.784-12.422 13.952 13.952 0 0 0 -10.635-6.891 14.61 14.61 0 0 0 -5.212.484 190.1 190.1 0 0 1 -5.768-80.856 65.072 65.072 0 0 0 7.6.595q.649.014 1.311.013c17.506 0 41.528-6.851 66.043-35.084a70.136 70.136 0 0 1 -7.715 19.883c-4.7 8.113-7.746 9.31-8.308 9.468a6 6 0 0 0 .367 11.645 41.808 41.808 0 0 0 8.071.687 53.708 53.708 0 0 0 17.734-3c22.631-7.964 33.107-28.938 37.911-45.131a89.637 89.637 0 0 0 2.591-12.257c4-.361 11.374.287 20.238 7.2 10.482 8.174 28.671 15.169 45.988 15.168 9.957 0 19.626-2.311 27.376-8.04a6.7 6.7 0 0 0 -4.551-12.053c-1.54.124-9.9-.139-28.241-16.876a126.257 126.257 0 0 0 13.685.773c17.685 0 30.6-4.172 39.938-9.6a262.588 262.588 0 0 1 26.494 33.878 14.406 14.406 0 0 0 -.955 1.651c-2.324 4.775-2.51 11.67-.471 17.567 2.527 7.309 11.539 12.227 19.1 12.67.032.071.061.143.093.214-20.907-2.484-40.526-7.128-45.048-10.976a6.556 6.556 0 0 0 -10.179 7.781c2.945 6.294 10.6 12.133 18.12 16.65-12.267 4.848-23.091 15.521-32.266 31.9-.975 1.741-2.007 3.738-3.05 6a6 6 0 1 0 10.9 5q1.233-2.662 2.615-5.135c9.582-17.1 20.725-26.677 33.12-28.462a31.239 31.239 0 0 1 4.461-.315c18.17 0 36.232 15.125 46.9 25.192a115.32 115.32 0 0 0 -12.653 10.522c-28.079 11.775-53.411-2.455-53.746-2.648a6 6 0 0 0 -6.044 10.367 77.484 77.484 0 0 0 36.319 9.027 73.1 73.1 0 0 0 9.6-.635 91.592 91.592 0 0 0 -14.657 32.835c-18.133 10.073-31.764 6.626-32.446 6.443a6 6 0 0 0 -3.279 11.543 39.551 39.551 0 0 0 10.176 1.135 62.09 62.09 0 0 0 23.591-4.876 93.717 93.717 0 0 0 1 19.6 71.006 71.006 0 0 1 .732 7.063c-11.674 11.5-23.9 10.713-24.545 10.663a6 6 0 0 0 -1.14 11.946c.137.014.8.073 1.9.073a44.779 44.779 0 0 0 22.916-6.82c-1.96 12.229-6.563 23.448-11.071 34.431-4.035 9.825-7.908 19.296-9.693 28.957zm12.79 12.918a18.6 18.6 0 0 1 -1.791-.938c-.395-11.538 4.35-23.12 9.793-36.38 6.191-15.085 13.063-31.848 12.943-51.526a6.01 6.01 0 0 0 -.056-2.629 82.739 82.739 0 0 0 -.921-9.6c-3.621-23.331 2.363-44.695 17.786-63.5a103.258 103.258 0 0 1 21.656-19.713 19.116 19.116 0 0 0 9.862 3.349l-14.953 34.861a6 6 0 1 0 11.029 4.731l14.7-34.271a19.381 19.381 0 0 0 9.7 4.613c2.239 13.375 6.139 57.581-33.027 85.4a83.041 83.041 0 0 0 -7.5 6.008c-.042.036-.082.075-.122.112-15.46 13.982-23.145 31.512-30.029 47.225-5.721 13.059-10.738 24.476-19.071 32.258zm159.559-107.342c-16.4 55.144-96.978 103.253-144.6 108.517 6.214-8.328 10.575-18.276 15.1-28.619 5.016-11.451 10.145-23.156 18.143-33.466a47.874 47.874 0 0 0 12.843 24.081 5.981 5.981 0 0 0 8.434-.389 6.018 6.018 0 0 0 -.334-8.465c-.436-.407-10.223-9.76-10.09-26.57 1.46-1.228 2.991-2.42 4.607-3.567a95.708 95.708 0 0 0 15.146-13.322c7.862 19.141 21.182 27.269 21.84 27.661a6 6 0 1 0 6.134-10.313c-.139-.084-13.521-8.256-19.17-28.62a92.192 92.192 0 0 0 13.185-31.923c15.613 20.717 38.4 26.2 39.576 26.471a6 6 0 0 0 2.688-11.7c-.289-.066-28.745-6.926-40-35.066a113.152 113.152 0 0 0 -1.079-17.824c14.714.232 42.117 2.4 54.563 18.971 7.672 10.226 8.687 25.076 3.014 44.143z" fill="#243a54"/></svg>