<svg id="Layer_1" enable-background="new 0 0 512 512" height="512" viewBox="0 0 512 512" width="512" xmlns="http://www.w3.org/2000/svg"><path d="m393.5 280c.1 13.6-.8 27.1-2.8 40.6l-45.3 10.1c.3-3.1-1.2-6.5-.8-9.4.5-3.2 1.1-6.4 1.5-9.6.4-3.3 3.6-6.2 3.9-9.4.3-3.3-1.1-6.7-1-9.9.2-3.3 2-6.5 2-9.8s-3.2-6.5-3.3-9.8 2.5-6.6 2.3-9.9-2.2-6.4-2.5-9.6c-.3-3.3-.8-6.5-1.2-9.7s1.6-6.9 1-10.1c-.5-3.2-5.4-5.6-6-8.8-.7-3.2-1.2-6.4-2-9.5-.8-3.2-1.4-6.3-2.3-9.4-.9-3.2 2.3-7.5 1.3-10.6s-5.5-5.1-6.6-8.1c-1.1-3.1.5-7.2-.6-10.2-1.2-3.1-5.6-4.8-6.9-7.7-1.3-3 .1-7.2-1.3-10.1-1.4-3-2.6-6.1-4-8.9-1.5-3-3.5-5.6-5-8.5-1.6-2.9-5.1-4.7-6.7-7.4-1.6-2.9-2.5-6.1-4.1-8.8-1.7-2.9-3-5.9-4.6-8.6-1.8-2.8-2.8-6.1-4.5-8.7-1.9-2.8-5-4.6-6.8-7.2-2-2.8-1.2-7.4-3-9.9-2.1-2.8-7.3-2.9-9.2-5.3-1.8-2.3-2-5.6-3-7.9 70.9 30 121.5 109.2 121.5 202.1z" fill="#436f1e"/><path d="m347.8 272.8c.1 3.2 3.4 6.5 3.3 9.8 0 3.2-1.9 6.5-2 9.8-.2 3.2 1.2 6.6 1 9.9-.3 3.2-3.5 6.2-3.9 9.4s-1 6.4-1.5 9.6c-.5 3 1.1 6.4.8 9.4l-61.5 13.8c.3-3.2.8-6.3 1-9.4.2-3.3-2.2-6.8-2-10.1s.4-6.6.6-9.9c.1-3.3 3.4-6.5 3.5-9.8s-1.7-6.7-1.7-10 1.8-6.7 1.8-9.9c-.1-3.3-3.7-6.5-3.9-9.8-.1-3.3 2.6-6.8 2.4-10-.2-3.3-2.4-6.5-2.6-9.8s-.6-6.6-1-9.9c-.3-3.3 2.1-6.9 1.7-10.1-.4-3.3-5.5-6-5.9-9.3s-.7-6.6-1.2-9.8c-.5-3.3-.8-6.6-1.4-9.8-.6-3.3 3.5-7.4 2.8-10.6-.6-3.3-5.3-5.7-6-8.9-.7-3.3 1.8-7.2 1-10.4-.8-3.3-5.2-5.6-6-8.7-.8-3.3 1.4-7.3.6-10.4-.9-3.2-1.6-6.5-2.5-9.6-1-3.2-2.5-6.2-3.5-9.3-1-3.2-4.4-5.6-5.5-8.6-1.1-3.2-1.3-6.6-2.4-9.6-1.2-3.2-1.8-6.5-2.9-9.5-1.2-3.2-1.5-6.7-2.7-9.6-1.3-3.2-4.2-5.6-5.4-8.4-1.5-3.3.5-7.9-.8-10.6-1.6-3.4-7.1-4.4-8.4-6.9-2.7-5.3 0-5.9-1.6-9.3 13.7 2 27.1 5.8 39.9 11.2 1 2.3 1.2 5.6 3 7.9 1.9 2.4 7.1 2.5 9.2 5.3 1.8 2.5 1 7.1 3 9.9 1.8 2.6 4.9 4.4 6.8 7.2 1.8 2.6 2.7 5.9 4.5 8.7 1.7 2.7 2.9 5.7 4.6 8.6 1.6 2.7 2.5 5.9 4.1 8.9 1.6 2.8 5.1 4.5 6.7 7.4 1.5 2.8 3.5 5.5 5 8.5 1.4 2.9 2.7 5.9 4 8.9 1.3 2.9 0 7.1 1.3 10.1s5.7 4.7 6.9 7.7-.5 7.1.6 10.2c1.1 3 5.6 5 6.6 8.1s-2.2 7.4-1.3 10.6c.9 3.1 1.5 6.2 2.3 9.4.8 3.1 1.3 6.3 2 9.5.6 3.2 5.5 5.6 6 8.8s-1.5 6.8-1 10.1c.4 3.2.9 6.4 1.2 9.7.3 3.2 2.4 6.3 2.5 9.6.4 3.4-2.1 6.7-2.1 10z" fill="#8fab55"/><path d="m232.8 21.5c1.3.3 2.2 1.5 2 2.8l-8.1 41.7c-3.2-.4-6.4-.6-9.7-.8-2.6-.1-5.3-.2-8-.2 0 0 2.1-15.9 2.2-45.6.1-1.5 1.4-2.6 2.9-2.5.2 0 .4 0 .6.1z" fill="#5f7535"/><path d="m213.4 114.5c.1-3.4 1.4-6.7 1.5-9.8.1-3.5-1.5-6.9-1.4-9.9.1-3.6 4.2-6.8 4.3-9.7.1-3.8-4.5-7.3-4.4-10 .2-6.5 3.5-4.8 3.7-9.7-2.6-.1-5.3-.2-8-.2-1.2 0-2.5 0-3.7.1v1.4c-3.3 3.6-6-.4-9.8 4.5-1.7 2.2 1.8 8.8-.4 11.9-1.7 2.4-8.2 1.8-10.2 4.8-1.7 2.5-1.4 6.7-3.2 9.6-1.6 2.6-4.7 4.6-6.5 7.5-1.6 2.7-4 5.1-5.7 8-1.5 2.8-4.4 5-6 7.9-1.5 2.8.5 7.5-1 10.5-1.4 2.9-1.9 6.2-3.3 9.2-1.3 2.9-2.9 5.7-4.2 8.8-1.3 2.9-7 4.1-8.2 7.2-1.2 3 3.1 8.1 1.9 11.2-1.1 3-6.8 4.4-7.9 7.6-1 3 3.9 8.1 2.9 11.2s-8.7 4.1-9.6 7.3c-.9 3.1-2 6.2-2.9 9.4-.8 3.1-1.9 6.3-2.6 9.5-.7 3.1 5.6 7.9 4.9 11.1-.6 3.2-5.4 5.5-6 8.8-.6 3.2-.9 6.4-1.4 9.7-.5 3.2 2.1 6.8 1.6 10.1-.4 3.2-5.2 5.9-5.5 9.2-.3 3.2 4.8 6.9 4.6 10.2-.2 3.2-3.2 6.2-3.4 9.5-.2 3.2 2.5 6.5 2.4 9.8-.1 3.2-5 6.4-5 9.7 0 3.2-.1 6.5 0 9.8.1 3.2 4.3 6.3 4.5 9.6.2 3.2.1 6.4.3 9.7.2 3.2.7 6.4 1 9.7.3 3.2-1.5 6.7-1.1 9.9s3.3 6.1 3.8 9.3-5.8 7.5-5.2 10.7 3.1 6.1 3.7 9.3 6 5.4 6.7 8.6-.2 6.7.6 9.9c.8 3.1-2.8 7.4-2 10.6.8 3.1 5 5.4 5.9 8.5s2.3 6.1 3.3 9.2-.6 7 .5 10.1c1 3.1 6.1 4.8 7.2 7.9 1.1 3 1.4 6.4 2.6 9.4 1.1 3 1.5 6.4 2.7 9.4s.1 7 1.3 10c1.3 3 2.1 6.2 3.4 9.2 1.1 2.5 2.9 4.7 4.3 7.1 13.8 4 28.1 6.1 42.4 6.3 0-2.8-.2-6.6-.3-10.8 0-3.4.6-7.1.6-10.9s-.7-7.4-.7-10.9c0-4.2.5-7.9.5-10.7l2.6-90.6c0-3.2 0-6.4 0-9.5.1-3.3.3-6.6.4-9.9s-2.8-6.6-2.7-9.9.2-6.6.3-9.9 3.5-6.5 3.6-9.8-1.8-6.6-1.8-9.9c.1-3.3 2.1-6.6 2.1-9.8.1-3.3-3.7-6.7-3.6-10s3.2-6.5 3.3-9.8-2-6.7-1.9-9.9c.1-3.3 0-6.6.1-9.9s3.1-6.6 3.2-9.8c.1-3.3-4.9-6.7-4.8-10s.3-6.6.4-9.9.4-6.6.4-9.9c.1-3.3 5.1-6.5 5.2-9.8s-4.2-6.7-4.1-10 3.6-6.5 3.7-9.8c.1-3.4-3.9-6.8-3.8-10 .1-3.4 3.6-6.6 3.7-9.8.1-3.4.4-6.6.5-9.9.1-3.4-.5-6.7-.4-9.9.1-3.4-2.5-6.8-2.4-9.9.1-3.4 1.2-6.7 1.3-9.8.3-3.4 1.1-6.7 1.2-9.9z" fill="#8fab55"/><path d="m152.9 76.3-.4-1c16.9-6.3 34.7-9.8 52.8-10.2v1.4c-3.3 3.6-6-.4-9.8 4.5-1.7 2.2 1.8 8.8-.4 11.9-1.7 2.4-8.2 1.8-10.2 4.8-1.7 2.5-1.4 6.7-3.2 9.6-1.6 2.6-4.7 4.6-6.5 7.5-1.6 2.7-4 5.1-5.7 8-1.5 2.8-4.4 5-6 7.9-1.5 2.8.5 7.5-1 10.5-1.4 2.9-1.9 6.2-3.3 9.2-1.3 2.9-2.9 5.7-4.2 8.8-1.3 2.9-7 4.1-8.2 7.2-1.2 3 3.1 8.1 1.9 11.2-1.1 3-6.8 4.4-7.9 7.6-1 3 3.9 8.1 2.9 11.2s-8.7 4.1-9.6 7.3c-.9 3.1-2 6.2-2.9 9.4-.8 3.1-1.9 6.3-2.6 9.5-.7 3.1 5.6 7.9 4.9 11.1-.6 3.2-5.4 5.5-6 8.8-.6 3.2-.9 6.4-1.4 9.7-.5 3.2 2.1 6.8 1.6 10.1-.4 3.2-5.2 5.9-5.5 9.2-.3 3.2 4.8 6.9 4.6 10.2-.2 3.2-3.2 6.2-3.4 9.5-.2 3.2 2.5 6.5 2.4 9.8-.1 3.2-5 6.4-5 9.7 0 3.2-.1 6.5 0 9.8.1 3.2 4.3 6.3 4.5 9.6.2 3.2.1 6.4.3 9.7.2 3.2.7 6.4 1 9.7.3 3.2-1.5 6.7-1.1 9.9s3.3 6.1 3.8 9.3-5.8 7.5-5.2 10.7 3.1 6.1 3.7 9.3 6 5.4 6.7 8.6-.2 6.7.6 9.9c.8 3.1-2.8 7.4-2 10.6.8 3.1 5 5.4 5.9 8.5s2.3 6.1 3.3 9.2-.6 7 .5 10.1c1 3.1 6.1 4.8 7.2 7.9 1.1 3 1.4 6.4 2.6 9.4 1.1 3 1.5 6.4 2.7 9.4s.1 7 1.3 10c1.3 3 2.1 6.2 3.4 9.2 1.1 2.5 2.9 4.7 4.3 7.1-23.5-6.9-45.4-18.7-64-34.7l.6-.8c-1.6-2.9-2.5-6.1-4-9-1.5-3-6.4-4.2-7.8-7.1-1.4-3-.7-7-2-10-1.4-3-3.1-5.9-4.3-8.9-1.3-3.1-5.4-5-6.6-8.1s1.5-7.6.4-10.7-.7-6.7-1.7-9.8c-1-3.2-6.1-5.1-7-8.2-.9-3.2-3.5-6-4.3-9.2s4.4-7.8 3.7-11-3.5-6-4.1-9.2c-.6-3.3.9-6.8.4-10-.5-3.3-1-6.5-1.4-9.7-.4-3.3-.4-6.5-.6-9.8s-4.1-6.4-4.2-9.6c-.1-3.3-.1-6.7-.1-9.9 0-3.3 4.4-6.5 4.5-9.8s-2.2-6.7-2-9.9c.2-3.3 3-6.3 3.3-9.6s-4.2-7.1-3.7-10.4 4.9-5.9 5.4-9.2c.6-3.3-1.5-7-.8-10.2s1.2-6.5 2-9.7 5.2-5.4 6.1-8.6-4.4-8.2-3.4-11.3c1-3.2 2.3-6.3 3.3-9.4 1.1-3.1 2.5-6.2 3.6-9.3 1.2-3.1 8.3-3.8 9.6-6.8 1.3-3.1-2.6-8.3-1.2-11.3s6.8-4.2 8.2-7.1c1.4-3-1.7-8.3-.2-11.2 1.6-3 7-3.8 8.5-6.6 1.6-2.9 3.5-5.6 5.1-8.4 1.7-2.9 2.7-6.1 4.4-8.9 1.8-2.9.7-7.5 2.5-10.2 1.9-2.8 4.9-4.8 6.7-7.4 2-2.8 4.6-5 6.5-7.5 2.1-2.8 5.2-4.5 7.2-6.9 2.2-2.7 2.5-6.7 4.5-9.1 2.3-2.7 8.3-1.9 10.2-4.1 2.5-2.8.3-9.4 2.2-11.4 1-1.1 2-1.8 3.1-2.3z" fill="#436f1e"/><path d="m152.5 75.3.4 1c-1.1.5-2.1 1.2-2.9 2.1-1.9 2 .3 8.6-2.2 11.4-2 2.2-7.9 1.4-10.2 4.1-2 2.4-2.3 6.4-4.5 9.1-1.9 2.5-5.1 4.2-7.2 6.9-1.9 2.5-4.5 4.7-6.5 7.5-1.8 2.6-4.8 4.6-6.7 7.4-1.8 2.7-.7 7.3-2.5 10.2-1.7 2.7-2.7 6-4.4 8.9-1.6 2.8-3.5 5.5-5.1 8.4-1.6 2.8-7 3.7-8.5 6.6s1.7 8.2.2 11.2c-1.4 2.9-6.8 4.1-8.2 7.1-1.3 3 2.5 8.2 1.2 11.3-1.2 3-8.4 3.7-9.6 6.8s-2.5 6.2-3.6 9.3-2.3 6.2-3.3 9.4c-1 3.1 4.3 8.1 3.4 11.3-.9 3.1-5.3 5.4-6.1 8.6s-1.3 6.5-2 9.7 1.4 6.9.8 10.2c-.6 3.2-5 5.9-5.4 9.2-.4 3.2 4 7.1 3.7 10.4-.3 3.2-3.1 6.3-3.3 9.6s2.1 6.6 2 9.9-4.5 6.5-4.5 9.8 0 6.6.1 9.9 4 6.3 4.2 9.6.3 6.5.6 9.8c.3 3.2.9 6.4 1.4 9.7.5 3.2-1 6.8-.4 10s3.4 6 4.1 9.2-4.5 7.8-3.7 11 3.4 6 4.3 9.2c.9 3.1 6 5 7 8.2 1 3.1.6 6.7 1.7 9.8s-1.6 7.6-.4 10.7c1.2 3 5.3 5 6.6 8.1 1.3 3 3 5.9 4.3 8.9s.6 7 2 10c1.4 2.9 6.3 4.2 7.8 7.1s2.4 6.1 4 9l-.6.8c-46.1-39.1-76.1-102.4-76.1-174 0-95.5 53.8-176.6 128.1-204.4z" fill="#8fab55"/><path d="m283.5 315.1c.1-3.3 3.4-6.5 3.5-9.8s-1.7-6.7-1.7-10 1.8-6.7 1.8-9.9c-.1-3.3-3.7-6.5-3.9-9.8-.1-3.3 2.6-6.8 2.4-10-.2-3.3-2.4-6.5-2.6-9.8s-.6-6.6-1-9.9c-.3-3.3 2.1-6.9 1.7-10.1-.4-3.3-5.5-6-5.9-9.3s-.7-6.6-1.2-9.8c-.5-3.3-.8-6.6-1.4-9.8-.6-3.3 3.5-7.4 2.8-10.6-.6-3.3-5.3-5.7-6-8.9-.7-3.3 1.8-7.2 1-10.4-.8-3.3-5.2-5.6-6-8.7-.8-3.3 1.4-7.3.6-10.4-.9-3.2-1.6-6.5-2.5-9.6-1-3.2-2.5-6.2-3.5-9.3-1-3.2-4.4-5.6-5.5-8.6-1.1-3.2-1.3-6.6-2.4-9.6-1.2-3.2-1.8-6.5-2.9-9.5-1.2-3.2-1.5-6.7-2.7-9.6-1.3-3.2-4.2-5.6-5.4-8.4-1.5-3.3.5-7.9-.8-10.6-1.6-3.4-7.1-4.4-8.4-6.9-2.7-5.3 0-5.9-1.6-9.3-1.8-.3-3.6-.5-5.4-.7-3.2-.4-6.4-.6-9.7-.8-.2 4.9-3.4 3.3-3.7 9.7-.1 2.7 4.5 6.2 4.4 10-.1 3-4.2 6.1-4.3 9.7-.1 3.1 1.6 6.4 1.4 9.9-.1 3.1-1.4 6.4-1.5 9.8-.1 3.2-.9 6.4-1 9.9-.1 3.2-1.2 6.4-1.3 9.8-.1 3.2 2.5 6.6 2.4 9.9-.1 3.2.5 6.5.4 9.9-.1 3.2-.4 6.5-.5 9.9-.1 3.2-3.6 6.4-3.7 9.8-.1 3.2 3.9 6.6 3.8 10-.1 3.2-3.6 6.4-3.7 9.8-.1 3.2 4.2 6.6 4.1 10-.1 3.2-5.1 6.4-5.2 9.8-.1 3.2-.4 6.5-.4 9.9-.1 3.2-.3 6.5-.4 9.9-.1 3.3 4.9 6.7 4.8 10s-3.1 6.5-3.2 9.8 0 6.6-.1 9.9 2 6.6 1.9 9.9-3.2 6.5-3.3 9.8 3.7 6.6 3.6 10c-.1 3.3-2.1 6.5-2.1 9.8-.1 3.3 1.8 6.6 1.8 9.9-.1 3.3-3.5 6.5-3.6 9.8s-.2 6.6-.3 9.9 2.8 6.6 2.7 9.9-.3 6.6-.4 9.9c-.1 3.1 0 6.3 0 9.5l-2.6 90.6c0 2.8-.5 6.5-.5 10.7 0 3.4.7 7.1.7 10.9s-.6 7.4-.6 10.9c0 4.2.3 8 .3 10.8h2c22.3 0 45.8-5.5 65.6-14l9.4-136.5c.3-3.2.8-6.3 1-9.4.2-3.3-2.2-6.8-2-10.1.4-3 .7-6.3.8-9.6z" fill="#436f1e"/><path d="m481.5 300.3-16.6 3.7c2.9 77.3-55.6 145.6-136.1 155.7-70.1 8.8-135-29.2-161.3-89.2l-15.6 3.5c-2.7.6-4.4 3.2-3.8 5.9.1.3.2.7.3 1 32.3 70.6 106.6 112 183.6 102.2 90.4-11.4 156.4-88.9 155.6-178 0-2.7-2.3-4.9-5-4.9-.4 0-.8 0-1.1.1z" fill="#637632"/><path d="m464.9 304-297.5 66.6c26.3 59.9 91.2 98 161.3 89.2 80.5-10.2 139.1-78.5 136.2-155.8z" fill="#e75163"/><g fill="#5c5c66"><path d="m406.3 346.1c6.4-3 25.3-10.8 25.2.9-.1 18.4-19.4 5.9-25.4 1.4-.6-.5-.8-1.3-.3-1.9.1-.1.3-.3.5-.4z"/><path d="m382.5 367.6c6.8 1.8 26.3 8 18.7 16.9-11.9 14.1-18.6-7.9-20.4-15.2-.2-.7.3-1.5 1-1.7z"/><path d="m350.8 386.4c6.6 3.6 26.1 15.7 9.5 23.7-10.5 5.1-11.5-15.4-11.6-22.4 0-.8.6-1.4 1.4-1.4.3-.1.5-.1.7.1z"/><path d="m316.6 392.6c4.1 6.3 15.7 26.1-2.7 25.4-11.7-.5-3-19 .3-25.3.4-.7 1.2-.9 1.9-.6.2.1.4.3.5.5z"/><path d="m277.2 392.6c2.5 7.1 8.9 29.2-8.8 24-11.2-3.3 1.8-19.2 6.5-24.4.5-.6 1.4-.6 2-.1.1 0 .2.2.3.5z"/><path d="m244.9 382.6c.8-.1 1.5.4 1.6 1.2 0 .2 0 .5-.1.7-2.7 7-12 28-22.1 12.7-6.5-9.8 13.6-13.6 20.6-14.6z"/></g><path d="m125.7 110.3c.1-.1.2-.2.2-.3 2-2.8 5.2-4.5 7.2-6.9 2.2-2.7 2.5-6.7 4.5-9.1 2.3-2.7 8.3-1.9 10.2-4.1 2.5-2.8.3-9.4 2.2-11.4.8-.9 1.8-1.6 2.9-2.1l-.4-1c-74.3 27.7-128.1 108.8-128.1 204.6 0 71.5 30 134.9 76.1 174l.6-.8c-1.6-2.9-2.5-6.1-4-9-1.5-3-6.4-4.2-7.8-7.1-1.4-3-.7-7-2-10-1.4-3-3.1-5.9-4.3-8.9-1.3-3.1-5.4-5-6.6-8.1s1.5-7.6.4-10.7-.7-6.7-1.7-9.8c-1-3.2-6.1-5.1-7-8.2-.9-3.2-3.5-6-4.3-9.2s4.4-7.8 3.7-11-3.5-6-4.1-9.2c-.2-1.6-.2-3.2.1-4.8-6.1-21.9-9.2-44.5-9.2-67.2.1-69 28-130.4 71.4-169.7z" fill="#b2cc72"/><g fill="#243a54"><path d="m490.3 297.3c-2.7-2.6-6.5-3.7-10.1-2.9l-82.4 18.4c1.2-10.9 1.8-21.9 1.7-32.8 0-58.9-19.7-114.2-55.5-155.9-19.6-22.8-42.6-40-67.8-51-.1-.1-.2-.3-.3-.4l-.2.2c-13.4-5.8-27.5-9.8-41.9-12l6.9-35.4c.8-4.5-2-8.8-6.4-9.8l-18.1-4.5c-2.7-.6-5.5-.1-7.6 1.6-2 1.6-3.2 4-3.3 6.6-.1 19.4-1 32.9-1.7 39.7-49 1.6-94.9 24.5-129.6 65-35.9 41.7-55.6 97.1-55.6 155.9s19.7 114.2 55.5 155.9c36 42 84 65.1 135 65.1 21.4 0 44.8-4.9 66.2-13.7 11.3 2.2 22.8 3.3 34.3 3.3 7.8 0 15.6-.5 23.3-1.5 92.4-11.6 161.5-90.6 160.8-183.8.1-3-1.1-5.8-3.2-8zm-102.8-17.3c.1 11.9-.6 23.8-2.2 35.6l-34.8 7.8c-.1-.4-.1-.8-.1-1.2l.3-1.6c.4-2.7.9-5.5 1.3-8.3.3-.8.7-1.6 1.2-2.4 1.5-2.2 2.4-4.6 2.8-7.2.1-2.3 0-4.6-.5-6.8-.7-2.2-.5-4.6.4-6.7.7-2.1 1.1-4.4 1.3-6.6-.1-2.8-.9-5.4-2.3-7.8-.4-.7-.7-1.4-1-2.2.2-.9.4-1.8.8-2.7 1-2.3 1.5-4.8 1.5-7.4-.2-2.3-.8-4.6-1.6-6.7-.4-1-.7-2.1-.9-3.1-.2-2.5-.6-5-.9-7.4-.1-.8-.2-1.7-.3-2.5 0-1 .2-1.9.4-2.9.7-2.4.9-4.9.6-7.4-.6-3.5-2.9-5.9-4.6-7.7-.5-.5-1-1.1-1.5-1.6-.2-.9-.4-1.8-.5-2.8-.4-2.2-.9-4.4-1.4-6.6-.2-1-.5-2.1-.7-3.1-.5-2-1-4.2-1.5-6.3.1-.7.3-1.5.6-2.2.7-2.3 1.7-5.5.6-8.8-1-3.2-3.3-5.2-5.1-6.8-.6-.5-1.1-1-1.6-1.6 0-.8 0-1.7.1-2.5.3-2.6.1-5.2-.7-7.7-1.2-3-3.4-4.9-5.3-6.4-.6-.5-1.2-1-1.7-1.5-.1-.9-.2-1.7-.1-2.6.2-2.6-.2-5.2-1.2-7.6-.5-1.1-1-2.2-1.5-3.3-.8-1.9-1.7-3.9-2.6-5.8-.9-1.8-1.9-3.5-3-5.2-.8-1.2-1.5-2.3-2-3.4-1.2-2.1-2.8-4-4.8-5.5-.7-.6-1.4-1.3-2-2-.6-1.2-1.2-2.4-1.7-3.7-.7-1.8-1.6-3.6-2.5-5.3-.7-1.2-1.3-2.4-2-3.7-.8-1.7-1.8-3.4-2.8-5-.7-1.2-1.3-2.4-1.8-3.6-.8-1.8-1.7-3.6-2.8-5.2-1.3-1.8-2.8-3.5-4.5-4.9-.8-.7-1.6-1.5-2.3-2.3-.3-.9-.5-1.7-.6-2.6 0-.1 0-.2 0-.3 56.5 34.8 95.5 104.7 95.5 185.1zm-120.4-197.6c.5 2.6 1.6 5 3.1 7.1 1.9 2.5 4.7 3.5 6.9 4.4.7.3 1.5.6 2.2.9.1.5.3 1.4.4 2 .2 2.7 1.1 5.4 2.6 7.7 1.2 1.6 2.6 3 4.1 4.3 1 .8 1.9 1.7 2.6 2.7.7 1.1 1.3 2.3 1.8 3.6.8 1.7 1.6 3.4 2.6 5 .7 1.2 1.4 2.5 2.2 4 .7 1.4 1.5 2.9 2.4 4.5.7 1.2 1.2 2.5 1.7 3.7.7 1.7 1.4 3.4 2.3 5 1.2 1.9 2.7 3.6 4.5 5.1.8.6 1.5 1.4 2.1 2.2.8 1.5 1.6 2.9 2.5 4.2.9 1.4 1.7 2.8 2.4 4.1.8 1.7 1.6 3.4 2.4 5.3.5 1.2 1 2.3 1.5 3.4.1.8.2 1.7.1 2.6-.2 2.5.2 5 1.1 7.4 1.2 2.4 2.9 4.5 5.1 6 .6.5 1.2 1 1.8 1.6 0 .8 0 1.6-.1 2.5-.3 2.5-.1 5.1.6 7.5 1 2.9 3.2 4.9 4.9 6.4.5.4 1.1 1 1.5 1.4-.1.5-.3 1.3-.5 1.9-.7 2.4-1.6 5.4-.7 8.6.5 2 1 3.9 1.5 6 .2 1.1.5 2.1.7 3.2.5 2 .9 4 1.3 6.1.2 1.1.4 2.1.6 3.2.7 3.3 2.8 5.5 4.5 7.3.5.5 1 1 1.4 1.6-.1.9-.2 1.7-.5 2.5-.6 2.3-.8 4.7-.6 7 .1.9.2 1.7.3 2.6.3 2.4.6 4.6.8 6.9.3 2.1.8 4.1 1.6 6.1.4 1.1.8 2.2.9 3.3-.2.9-.4 1.8-.8 2.6-.9 2.2-1.4 4.6-1.5 7 .2 2.6 1 5.1 2.3 7.3.4.7.7 1.5 1 2.3-.1 1.1-.4 2.3-.8 3.3-1.4 3.9-1.7 8.2-.7 12.2.3 1.2.4 2.3.4 3.5-.3.8-.7 1.6-1.2 2.3-1.4 2.1-2.3 4.4-2.7 6.9-.3 2.6-.8 5.1-1.2 7.8l-.3 1.6c-.3 1.9-.2 3.8.2 5.7l-48 10.7c0-.4.1-.9.1-1.3.1-2.6-.4-5.1-1.3-7.5-.3-.9-.6-1.8-.7-2.7.1-1.1.1-2.3.2-3.4.1-2.2.3-4.4.4-6.6.3-.8.6-1.6 1.1-2.4 1.4-2.3 2.2-4.9 2.4-7.6 0-2.3-.4-4.6-1.1-6.8-.9-2.1-.9-4.5 0-6.7.7-2.2 1-4.4 1.1-6.7-.1-3.2-1.5-5.8-2.7-7.9-.4-.7-.8-1.4-1.1-2.1.2-.9.5-1.7.8-2.5 1.1-2.4 1.6-4.9 1.6-7.5-.2-2.3-.8-4.6-1.7-6.8-.4-1-.7-2-.9-3.1-.2-2.1-.4-4.2-.6-6.3-.1-1.2-.3-2.5-.4-3.7.1-.9.3-1.9.6-2.8.9-2.4 1.2-4.9 1.1-7.5-.4-3.6-2.8-6.2-4.5-8.1-.5-.5-1-1.1-1.4-1.7-.2-1.2-.3-2.4-.4-3.6-.2-1.9-.4-3.9-.7-5.9-.2-1.3-.4-2.6-.5-4-.2-1.8-.5-3.7-.8-5.6.3-.7.6-1.4.9-2.1 1.1-2.4 2.5-5.4 1.9-8.9-.6-3.4-2.8-5.7-4.5-7.5-.5-.5-1-1.1-1.4-1.6.1-.8.3-1.6.5-2.4.8-2.6 1-5.3.5-7.9-.8-3.3-2.9-5.5-4.6-7.3-.5-.5-1-1.1-1.5-1.7.1-.8.2-1.7.4-2.5.7-2.6.8-5.3.2-7.9-.4-1.3-.7-2.7-1-4-.5-1.9-.9-3.8-1.5-5.7s-1.3-3.8-2.1-5.6c-.6-1.3-1.1-2.6-1.5-3.8-.9-2.4-2.2-4.6-3.9-6.5-.6-.7-1.2-1.5-1.6-2.3-.4-1.3-.7-2.7-1-4-.3-1.9-.8-3.9-1.4-5.7-.5-1.3-.9-2.7-1.3-4.2-.5-1.8-1-3.6-1.7-5.4-.5-1.3-.8-2.6-1.1-4-.4-1.9-.9-3.9-1.7-5.7-1-2.1-2.2-4.1-3.7-6-.7-.8-1.3-1.7-1.8-2.6-.1-.9-.1-1.9 0-2.8.2-2.3.4-5.2-.9-7.9-1.2-2.4-3.1-4.3-5.4-5.6 8.9 2.5 17.2 5.1 25.3 8.3zm-49.9-58.5 11 2.7-6.4 33c-2.1-.2-4.1-.3-6.2-.4.6-6.8 1.4-18.6 1.6-35.3zm-3.7 303.1c.1-1.6.1-3.3.1-4.8.3-.8.6-1.6 1.1-2.3 1.4-2.3 2.3-4.9 2.5-7.6 0-2.3-.4-4.5-1.1-6.7-.3-1-.6-2.1-.7-3.2.1-1.1.4-2.2.8-3.2.8-2.1 1.2-4.3 1.4-6.6.1-3.3-1.4-5.9-2.6-8-.4-.7-.7-1.3-1-2 .3-.8.6-1.6 1-2.3 1.3-2.3 2.1-4.8 2.2-7.4 0-2.3-.4-4.6-1.2-6.8-.4-1-.6-2-.7-3.1 0-1.7 0-3.4 0-5.1 0-1.6 0-3.2 0-4.8.2-.9.6-1.7 1-2.5 1.2-2.2 2-4.7 2.1-7.3.1-3.7-2-6.6-3.6-8.7-.4-.5-1-1.3-1.2-1.8 0-1.4.1-2.9.2-4.3.1-1.6.2-3.3.2-5 0-1.6.1-3.3.2-4.9.1-1.5.2-3 .2-4.6.4-.6.9-1.2 1.3-1.8 1.7-2.1 3.8-4.8 3.9-8.4.1-3.5-1.7-6.3-3-8.4-.3-.5-.8-1.3-1-1.8.3-.7.7-1.4 1-2 1.5-2.3 2.4-4.9 2.6-7.6.1-3.4-1.5-6.1-2.7-8.3-.3-.6-.8-1.4-1-1.9.3-.7.7-1.4 1.1-2.1 1.5-2.3 2.3-4.8 2.6-7.5 0-1.6.2-3.3.3-4.9s.2-3.3.3-5c0-1.9 0-3.8-.2-5.7-.1-1.5-.2-2.9-.2-4.2 0-2.5-.6-5.1-1.6-7.4-.3-.8-.6-1.7-.8-2.6.1-1.4.3-2.8.6-4.2.4-1.9.7-3.8.8-5.7 0-1.5.2-3 .5-4.5.2-1.7.5-3.5.5-5.3.1-1.4.3-2.8.6-4.2.4-1.9.7-3.8.8-5.7 0-2.3-.3-4.6-.9-6.9-.3-1-.4-2-.5-3 .4-.8.8-1.6 1.3-2.3 1.3-1.9 2.8-4.4 2.9-7.4.1-4-2-7.1-3.5-9.4-.3-.4-.6-.9-.9-1.3 0-.3.1-.5.2-.8 0-.1.2-.3.4-.4.5-.5.9-1.1 1.3-1.7 1.8.1 3.5.3 5.2.5.1 2.4.8 4.7 1.9 6.7 1.4 2.7 3.9 4.1 6 5.3.8.4 1.5.9 2.2 1.4 0 .5-.1 1.3-.1 1.9-.2 2.3-.4 5.5.9 8.6.9 1.8 2 3.5 3.2 5 .8 1 1.6 2.1 2.1 3.3.4 1.2.8 2.5 1 3.8.4 1.9.9 3.8 1.6 5.7.5 1.2.9 2.7 1.3 4.2.4 1.6.9 3.3 1.6 5.1.4 1.3.7 2.6.9 3.9.3 1.9.8 3.8 1.4 5.6.9 2.2 2.1 4.2 3.7 6 .7.8 1.3 1.6 1.8 2.5.5 1.7 1.2 3.2 1.8 4.8.6 1.5 1.2 2.9 1.7 4.4.5 1.7.9 3.4 1.4 5.2.4 1.4.7 2.8 1.1 4.2 0 .8-.2 1.7-.4 2.5-.7 2.6-.8 5.3-.2 7.9.8 3.1 2.8 5.2 4.4 6.9.6.5 1.1 1.1 1.5 1.7-.1.8-.3 1.6-.5 2.3-.8 2.5-1 5.2-.6 7.9.7 3.2 2.8 5.4 4.4 7.2.4.4 1 1 1.3 1.5-.2.5-.5 1.2-.8 1.7-1.1 2.3-2.5 5.4-1.9 8.9.3 1.8.5 3.6.8 5.5.2 1.4.4 2.8.6 4.2.3 1.8.5 3.6.7 5.5.2 1.4.3 2.8.5 4.2.5 3.5 2.7 5.9 4.4 7.8.5.5 1.1 1.2 1.4 1.6-.2.8-.4 1.6-.6 2.4-.9 2.4-1.2 4.9-1.1 7.4.1 1.3.3 2.5.4 3.8.2 1.9.4 3.9.6 5.9.2 2.2.8 4.4 1.7 6.4.4 1 .8 2.1 1 3.2-.2.9-.5 1.7-.8 2.6-1 2.3-1.6 4.8-1.6 7.4.1 3.1 1.6 5.6 2.7 7.6.4.7.8 1.4 1.1 2.2-.1 1.1-.3 2.2-.7 3.2-1.4 4.2-1.5 8.7 0 12.9.3 1.1.6 2.2.7 3.4-.3.8-.6 1.6-1.1 2.4-1.4 2.3-2.2 4.8-2.4 7.4-.1 2.1-.2 4.1-.3 6.3-.1 1.1-.1 2.3-.2 3.5 0 2.5.4 4.9 1.3 7.2.4.9.6 1.8.7 2.8-.1 1.6-.3 3.3-.5 5l-12.3 2.8c-3.2.7-5.3 3.9-4.5 7.2.7 3.2 3.9 5.3 7.2 4.5l190.3-43c-.6 33.8-13.1 66.2-35.4 91.6-47.5 54-126.1 67.5-188.9 32.6-25.1-14.1-45.5-35.3-58.5-60.9l54.8-12.3c2.7-.6 4.7-3 4.7-5.9 0-3.3-2.7-6-6-6-.4 0-.9 0-1.3.1l-12.5 2.8c0-.6 0-1.3 0-1.9 0-1.6.1-3.2.2-4.8s.2-3.3.2-5.1c-.1-2.6-.7-5.1-1.8-7.4-.4-.8-.7-1.7-.9-2.5-.2-1.6-.2-3.2-.1-4.8zm-142.6 85.3c-25.2-36-40.4-82.1-40.4-132.2 0-83 41.5-154.8 101.5-188.5-.9 1.5-1.6 3.1-2.1 4.7-.3 1.1-.8 2.1-1.4 3.1-.8.8-1.6 1.6-2.5 2.3-1.8 1.4-3.4 3-4.8 4.8-.8 1-1.6 2-2.5 2.9-1.5 1.5-2.8 3.1-4 4.8-.7.9-1.6 1.8-2.5 2.6-1.6 1.5-3.1 3.1-4.4 4.9-1.7 2.6-2 5.5-2.2 7.8 0 .9-.2 1.7-.4 2.5-1 1.7-1.9 3.5-2.7 5.3-.5 1.3-1.1 2.5-1.8 3.7-.7 1.1-1.4 2.2-2 3.3-1 1.6-2 3.2-3 5-.6.4-1.3.8-1.9 1.1-2.2 1.2-5.2 2.8-6.8 5.9-1.7 3.3-1 6.9-.4 9.6.1.5.3 1.3.3 1.8-.4.3-1 .7-1.5.9-2.1 1.3-5.1 3.1-6.5 6.3-1.6 3.5-.5 7.2.3 9.8.1.4.2.8.4 1.2-.4.2-.8.4-1.2.5-2.8 1.2-6.5 2.9-8 6.8-.4 1.2-.9 2.3-1.4 3.5-.8 1.9-1.6 3.9-2.3 6-.4 1.2-.8 2.3-1.3 3.5-.7 2-1.5 4-2.1 6.1-1.2 4 .7 7.6 2.1 10.2.3.5.6 1.1.8 1.6-.3.4-.8.8-1.1 1.2-1.7 1.8-3.9 3.9-4.6 7.2-.5 2.2-.9 4.4-1.4 6.5-.2 1.1-.4 2.3-.7 3.4-.4 2.5-.3 5.1.4 7.6.2.9.4 1.8.4 2.6-.4.6-.9 1.2-1.4 1.8-1.6 1.9-3.6 4.3-4.1 7.7-.5 3.7 1.3 6.8 2.6 9 .3.6.8 1.4 1 1.9-.3.8-.6 1.5-1 2.3-2.7 4.4-3 9.8-1 14.5.3.8.5 1.7.7 2.6-.4.6-.7 1.3-1.2 1.8-1.4 2-3.3 4.9-3.3 8.4v2.7c0 2.4 0 4.9.1 7.4.1 3.3 1.7 5.8 3 7.8.5.7.9 1.4 1.2 2.1.1 1.2.1 2.4.2 3.5.1 2 .2 4.2.4 6.3.3 2.3.6 4.6.9 6.8.2 1 .3 2.1.5 3.1 0 1.1 0 2.1-.2 3.2-.4 2.3-.5 4.7-.1 7.1.5 2.4 1.5 4.6 2.8 6.7l1.2 2.1c-.3.5-.7 1.3-1 1.8-1.5 2.6-3.5 6.1-2.5 10 .6 2.2 1.6 4.3 2.8 6.2.6 1 1.1 2 1.5 3.1.9 3.4 3.4 5.4 5.4 7.1.6.5 1.2 1 1.7 1.5.2 1.1.4 2.1.5 3.2.1 2.1.5 4.3 1.1 6.3-.1.8-.2 1.5-.4 2.3-.4 3.1-1 6.2.3 9.4zm4 5.6.7.7c.7.6 1.3 1.2 1.8 1.9.2.6.5 1.1.8 1.7-1.1-1.4-2.2-2.9-3.3-4.3zm31.1 32.7.5-.3c-.7-1.3-1.3-2.7-1.8-4.1-.6-1.6-1.3-3.2-2.1-4.8-1.5-2.9-4-4.5-5.9-5.8-.7-.4-1.3-.9-1.9-1.3-.2-1-.4-1.9-.4-2.9-.1-2.3-.6-4.6-1.5-6.8-.7-1.5-1.4-2.9-2.1-4.3-.8-1.5-1.5-3-2.1-4.4-1.1-2.3-2.7-4.4-4.7-6.1-.6-.5-1.2-1.1-1.7-1.7.1-.8.2-1.5.4-2.3.5-2.4 1.1-5.3 0-8.4-.3-1.2-.5-2.4-.6-3.7-.1-2-.5-4-1-5.9-1-3.3-3.4-5.3-5.4-6.9-.6-.5-1.1-1-1.7-1.5-.6-1.9-1.5-3.8-2.6-5.5-.5-.8-.9-1.6-1.3-2.5.3-.5.7-1.3 1-1.9 1.5-2.6 3.3-5.8 2.5-9.7-.6-2.2-1.5-4.4-2.7-6.3-.6-.8-1-1.8-1.3-2.7-.1-1.1 0-2.2.2-3.3.4-2.1.5-4.3.2-6.5-.2-1.1-.3-2.2-.5-3.2-.3-2.2-.6-4.2-.9-6.3-.2-1.8-.3-3.7-.4-5.6-.1-1.3-.1-2.6-.2-3.9-.2-3.1-1.8-5.6-3-7.6-.4-.7-.8-1.3-1.2-2-.1-2.2-.1-4.5-.1-6.8 0-.8 0-1.6 0-2.5.4-.7.8-1.3 1.2-1.9 1.4-2.1 3.2-4.6 3.3-8 0-2.4-.5-4.7-1.3-7-.3-.9-.6-1.8-.7-2.8.3-.9.6-1.9 1.1-2.7 1.1-2.1 1.9-4.3 2.2-6.7.4-3.6-1.4-6.6-2.6-8.8-.3-.5-.6-1.1-.9-1.6.3-.5.8-1 1.2-1.5 1.5-1.8 3.4-4.1 4-7.3.3-2.4.1-4.9-.5-7.3-.2-.9-.4-1.8-.4-2.7.2-1.2.5-2.4.7-3.5.4-2 .8-4 1.2-5.8.5-.6 1-1.2 1.6-1.8 1.6-1.7 3.7-3.8 4.5-6.8 1.1-3.9-.7-7.3-2.2-10.1-.3-.6-.7-1.4-1-1.9.5-1.5 1.1-3 1.6-4.6.5-1.3.9-2.5 1.4-3.7.6-1.8 1.3-3.5 2.1-5.4.4-1 .8-1.9 1.2-2.9.5-.3 1.4-.7 2-1 2.8-1.3 6.3-2.8 7.8-6.5 1.5-3.5.4-7.1-.4-9.7-.1-.4-.3-1-.4-1.5.4-.3 1-.6 1.4-.9 2.2-1.3 4.8-2.9 6.3-6 1.6-3.3.9-6.9.3-9.5-.1-.5-.2-1.1-.3-1.6.5-.3 1.1-.6 1.5-.9 2.2-1.2 5-2.7 6.6-5.6.9-1.5 1.8-3 2.8-4.6.7-1.2 1.5-2.4 2.2-3.6.9-1.6 1.7-3.2 2.4-4.9.5-1.3 1.2-2.6 1.9-3.8 1.3-2.4 2.1-5 2.2-7.8.1-.8.2-1.6.3-2.4.8-1 1.7-2 2.7-2.9 1.4-1.3 2.7-2.8 3.9-4.3.9-1.2 1.9-2.4 3-3.5 1.2-1.2 2.4-2.6 3.4-3.9.9-1 1.8-1.9 2.9-2.7 1.5-1.2 2.9-2.6 4.2-4.1 1.4-1.9 2.5-4.1 3.2-6.4.3-.8.6-1.6.9-2.3.8-.2 1.5-.4 2.3-.6 2.5-.5 5.7-1.2 8-3.7 2.9-3.2 2.9-7.4 2.8-10.5 0-.4 0-.9 0-1.3h.4c3.1.2 6.2-.9 8.5-3.1l-.8-.9c8.4-2.6 17-4.5 25.8-5.6 0 1.6.2 3.2.5 4.8.1.5.2 1.2.3 1.8-.3.1-.5.1-.8.2-2.8.7-6.7 1.7-9 5.1-1.2 2.1-2.1 4.3-2.4 6.7-.2 1-.4 2.1-.9 3-.6.9-1.4 1.7-2.2 2.4-1.7 1.5-3.2 3.3-4.4 5.3-.7 1.1-1.4 2.1-2.2 3-1.3 1.6-2.5 3.3-3.6 5.1-.6 1-1.3 1.9-2.1 2.7-1.5 1.6-2.8 3.4-3.9 5.4-1.5 2.9-1.3 5.9-1.2 8.3.1.8.1 1.6 0 2.4-.8 1.8-1.5 3.6-2 5.4-.4 1.3-.8 2.5-1.3 3.8-.5 1.1-1.1 2.3-1.7 3.5-.8 1.6-1.6 3.2-2.4 4.9-.4.3-1.2.8-1.8 1.1-2.2 1.3-5.3 3.2-6.7 6.6-1.5 3.7-.1 7.3.9 9.9.2.4.4 1 .5 1.5-.4.3-.8.5-1.1.8-2.2 1.4-5.2 3.4-6.4 6.9-1.3 3.8.4 7.5 1.7 10.1.1.2.2.5.4.8-.3.1-.6.3-.9.4-2.9 1.4-6.8 3.3-8 7.5-.4 1.2-.8 2.5-1.2 3.8-.6 1.9-1.2 3.8-1.7 5.8-.3 1.2-.7 2.5-1.1 3.8-.6 1.9-1.1 3.9-1.6 5.9-1 4.2 1.5 7.8 3.4 10.3.3.4.6.9.9 1.3-.3.3-.6.6-.8.9-1.7 1.7-4 4.1-4.6 7.6-.4 2-.6 4.1-.9 6-.2 1.3-.3 2.5-.5 3.8-.3 2.6.1 5.3 1 7.7.2.7.4 1.5.6 2.3-.3.4-.9 1.1-1.3 1.6-1.6 1.9-3.8 4.5-4.2 8-.4 3.8 1.8 6.9 3.3 9.1.3.5.8 1.2 1.1 1.7-.2.5-.6 1.3-.9 1.9-2.9 4.4-3.2 10-.8 14.7.3.7.6 1.5.8 2.2-.3.4-.8 1.1-1.2 1.6-1.6 2.1-3.7 4.9-3.7 8.6v3.4c0 2.1-.1 4.3 0 6.5.1 3.4 1.8 6 3.3 8 .4.6.9 1.3 1.2 1.9.1 1.2.1 2.4.1 3.7 0 1.9.1 3.9.2 5.9.2 2.1.4 4.1.6 6.1.1 1.2.3 2.5.4 3.7 0 1-.2 2-.5 2.9-.6 2.3-.9 4.7-.7 7.1.4 2.4 1.3 4.8 2.6 6.9.3.6.7 1.3.9 1.8-.3.5-.8 1.1-1.2 1.6-1.9 2.5-4.5 5.9-3.7 10.1.5 2.3 1.3 4.4 2.4 6.4.5 1 1 2 1.3 3 .7 3.6 3.3 5.9 5.3 7.6.5.4 1.2 1.1 1.6 1.5.1 1 .1 2 0 2.9-.1 2.1 0 4.2.4 6.3-.2.7-.4 1.4-.7 2.1-.9 2.3-2.1 5.6-1.1 9 .8 3 2.8 5.2 4.4 6.9.6.6 1.1 1.2 1.6 1.9.5 1.9 1.2 3.6 1.9 5.3.5 1.4 1 2.7 1.4 3.9.1.9.1 1.8 0 2.7-.3 2.5-.1 5.1.6 7.5 1.1 3.3 3.6 5.2 5.6 6.8.6.4 1.2.9 1.7 1.5.4 1.1.6 2.3.9 3.6.4 1.9.9 3.8 1.6 5.7.4 1.2.8 2.5 1.1 3.8.4 2 1 3.9 1.7 5.7.2.9.2 1.8.2 2.8-.1 2.5.3 5 1.2 7.4.5 1.1.9 2.3 1.3 3.6-17-6-32.8-15.4-46.7-27.1zm95 27.9c-.1 1.8-.3 3.8-.3 5.7 0 1.6 0 3.2.1 4.6-11-.6-21.8-2.3-32.4-5.2-.2-.3-.4-.6-.6-.9-.8-1.1-1.5-2.2-2.1-3.5-.6-1.4-1.1-2.8-1.7-4.4-.5-1.5-1.1-3.1-1.7-4.7-.2-.9-.3-1.9-.2-2.9.1-2.4-.3-4.8-1.1-7.1-.5-1.3-.9-2.7-1.2-4.1-.4-1.8-.9-3.5-1.5-5.2-.5-1.4-.8-2.7-1.1-4.1-.4-1.8-.8-3.5-1.4-5.2-1.1-3.2-3.6-5.1-5.6-6.6-.5-.4-1.3-1-1.6-1.3 0-.9 0-1.7.1-2.6.3-2.4.1-4.8-.5-7.2-.5-1.7-1.1-3.2-1.7-4.7s-1.2-3-1.6-4.4c-.9-2.6-2.4-4.9-4.4-6.7-.4-.5-1.1-1.1-1.4-1.6.1-.5.4-1.3.7-1.9.9-2.4 2-5.4 1.2-8.7-.2-1.2-.2-2.3-.1-3.5.1-2.1 0-4.2-.4-6.2-.8-3.5-3.4-5.8-5.3-7.5-.5-.4-1.2-1.1-1.6-1.5-.5-2-1.3-3.9-2.3-5.7-.4-.7-.8-1.5-1-2.1.3-.5.8-1.2 1.2-1.7 1.9-2.5 4.3-5.7 3.7-9.8-.4-2.4-1.3-4.6-2.6-6.7-.5-.8-.9-1.6-1.2-2.5 0-1 .2-2.1.5-3.1.6-2.2.8-4.5.7-6.7-.1-1.3-.3-2.6-.4-3.9-.2-1.9-.4-3.8-.6-5.6-.1-1.7-.2-3.4-.2-5.2 0-1.4 0-2.9-.1-4.3-.2-3.3-1.9-5.9-3.3-7.9-.4-.6-.8-1.2-1.2-1.9 0-1.9 0-3.9 0-5.8 0-1 0-2.1 0-3.1.3-.4.9-1.2 1.3-1.8 1.5-2 3.6-4.7 3.7-8.3 0-2.5-.6-4.9-1.6-7.2-.3-.8-.6-1.6-.8-2.5.3-.9.6-1.7 1.1-2.5 1.2-2.1 2-4.5 2.3-6.9.3-3.8-1.8-6.8-3.4-9-.3-.4-.6-.8-.9-1.2.3-.4.7-.8 1-1.2 1.6-1.9 3.7-4.3 4.1-7.7.2-2.6-.2-5.1-1-7.5-.3-.8-.5-1.6-.6-2.4.2-1.3.4-2.7.6-4 .2-1.8.5-3.5.8-5.2.5-.6 1-1.1 1.5-1.7 1.7-1.8 3.8-4 4.5-7.2.9-4.2-1.5-7.5-3.5-10.3-.4-.5-.9-1.3-1.2-1.8.3-1.3.7-2.7 1.2-4.2.4-1.4.8-2.8 1.2-4.1.4-1.7 1-3.4 1.6-5.2.3-1 .6-2 .9-3 .6-.3 1.4-.7 2-1 3-1.4 6.6-3.2 7.9-7.2 1.2-3.8-.5-7.4-1.8-10-.2-.3-.4-.8-.5-1.1.3-.2.7-.5 1-.7 2.2-1.5 5-3.3 6.2-6.6 1.4-3.7 0-7.3-1-9.9-.1-.4-.3-.8-.5-1.3.4-.2.8-.5 1.2-.7 2.3-1.4 5.1-3 6.5-6.3.7-1.6 1.4-3.1 2.3-4.7.6-1.3 1.3-2.6 1.9-3.9.7-1.7 1.4-3.5 1.9-5.2.4-1.3.8-2.6 1.4-3.8 1.4-2.9 1.3-5.9 1.1-8.3-.1-.7-.1-1.5-.1-2.2.7-1 1.4-2 2.2-2.9 1.3-1.5 2.5-3 3.5-4.7.8-1.3 1.6-2.5 2.5-3.6 1.1-1.4 2.1-2.8 3.1-4.3.7-1 1.6-2 2.5-2.8 1.5-1.3 2.8-2.9 3.9-4.5 1.2-2.2 2.1-4.5 2.5-7 .1-.6.3-1.5.5-2.1.6-.2 1.5-.4 2.1-.6 2.7-.7 6-1.5 8.1-4.4 2.6-3.7 1.9-8.1 1.3-11.3 0-.3-.1-.6-.1-.9 2.2.1 4.4-.6 6.3-1.8-.1.8-.2 1.5-.2 2.3-.1 3.2 1.6 5.7 3 7.8.5.7.9 1.4 1.3 2.2-.2.4-.6 1-.9 1.5-1.3 2-3.1 4.8-3.3 8.4 0 2.1.3 4.2.8 6.2.3 1.2.5 2.5.6 3.7-.1 1.2-.3 2.4-.6 3.6-.5 2-.8 4.1-.9 6.2 0 1.2-.2 2.6-.4 4.1-.3 1.9-.5 3.8-.6 5.7-.1 1.3-.3 2.6-.6 3.8-.4 2-.7 4-.8 6 0 2.4.6 4.9 1.5 7.1.4.9.7 1.9.8 2.9 0 1.8 0 3.6.2 5.4.1 1.6.2 3.1.2 4.5 0 1.5-.1 3-.2 4.6-.1 1.7-.2 3.4-.3 5.2-.3.7-.7 1.5-1.1 2.2-1.5 2.3-2.4 5-2.6 7.7-.1 3.3 1.5 6 2.7 8.1.4.6.7 1.3 1.1 2-.3.7-.6 1.3-1 2-1.5 2.3-2.4 5-2.6 7.7-.1 3.4 1.6 6.1 2.9 8.3.3.5.7 1.1.9 1.6-.3.4-.7 1-1.1 1.4-1.6 2-3.9 4.8-3.9 8.5 0 1.5-.1 3.1-.2 4.7-.1 1.7-.2 3.4-.2 5.2 0 1.5-.1 3.1-.2 4.7-.1 1.7-.2 3.4-.2 5.2-.1 3.6 2 6.5 3.5 8.6.4.5.9 1.2 1.2 1.7-.3.7-.6 1.4-.9 2.1-1.2 2.3-2 4.8-2.2 7.4v5.1 4.8c0 2.3.4 4.6 1.2 6.8.4 1 .6 2.1.7 3.1-.3.8-.6 1.6-1 2.4-1.3 2.3-2.1 4.9-2.3 7.5-.1 3.2 1.4 5.9 2.6 8 .4.7.8 1.4 1.1 2.1-.2 1-.4 2-.8 3-1.7 4.2-1.8 9-.3 13.3.3 1 .6 2.1.7 3.2-.3.8-.6 1.5-1.1 2.2-1.5 2.3-2.3 5-2.5 7.7 0 1.6-.1 3.2-.1 4.8-.1 1.7-.1 3.4-.1 5.1.1 2.5.7 5 1.8 7.3.4.8.7 1.7.9 2.6 0 1.5-.1 3.1-.2 4.7-.1 1.7-.2 3.4-.2 5.2v4.8l-53.2 11.9c-3.6.8-6.6 3.4-7.9 6.9-1 2.8-.8 5.9.5 8.6 13 28.2 32.9 52.6 57.9 71v.7c-.1 2.1-.3 4.5-.3 7.1 0 2 .2 3.9.4 5.8.2 1.8.3 3.5.3 5.1 0 1.5-.1 3.2-.3 5zm11.8 10.4c0-1.5-.1-3.1-.1-4.8 0-1.4.1-3 .3-4.7.2-2 .3-4 .3-6.1 0-2.2-.2-4.2-.4-6.2-.2-1.6-.3-3.1-.3-4.5 2.3 1.4 4.6 2.8 6.9 4.1 11.1 6.3 22.8 11.4 34.9 15.2-13.5 4.2-27.5 6.5-41.6 7zm97.4-10.4c-66.7.1-127.5-38.4-155.8-98.9l9.6-2.2c14.1 29 36.7 52.9 64.7 68.7 24.3 13.7 51.8 20.9 79.7 20.9 7 0 14.1-.4 21.1-1.3 39.9-4.9 76.7-24.4 103.1-54.7 24.8-28.3 38.4-64.6 38.4-102.2l10.6-2.4c.2 94.9-76.6 171.9-171.4 172.1z"/><path d="m217.9 389.1c-.9 2.1-2 6.3 1.3 11.3 4.4 6.6 9 8.2 12.6 8.2.4 0 .9 0 1.3-.1 7.3-.8 13.6-8.2 18.9-22 1.5-3.8-.4-8.1-4.3-9.5-1.2-.4-2.4-.6-3.7-.4-14.5 2.1-23.3 6.3-26.1 12.5zm19.2 1.2c-2.4 4.2-4.4 6.1-5.3 6.3-.2-.1-1.2-.7-2.6-2.8l-.1-.1c1-.9 3.5-2.2 8-3.4z"/><path d="m402.5 353.3c8.6 6.3 15.9 9.5 21.8 9.5 2.1 0 4.1-.4 6-1.4 3.2-1.6 7.1-5.4 7.2-14.4 0-6-3.2-9-5.1-10.2-5.7-3.7-15.3-2.4-28.6 3.8-3.7 1.7-5.3 6.1-3.6 9.8.5 1.2 1.3 2.2 2.3 2.9zm23-6.4v.1c0 2.6-.5 3.5-.6 3.8-.9.3-3.6-.2-7.9-2.4 4.5-1.5 7.3-1.7 8.5-1.5z"/><path d="m266.7 422.3c2.1.7 4.3 1 6.5 1 3.5.1 6.9-1.2 9.3-3.7 5.1-5.3 5.2-15.1.4-29-1.3-3.9-5.5-5.9-9.4-4.6-1.2.4-2.3 1.1-3.1 2.1-9.8 11-13.8 19.8-12 26.3.7 2.2 2.6 6.2 8.3 7.9zm7.2-19.3c.9 4.8.5 7.5 0 8.2-.3.1-1.3.3-3.8-.5h-.1c.2-1.2 1.2-3.9 3.9-7.7z"/><path d="m391.1 394.8c.9.2 1.8.3 2.6.3 3.3 0 7.6-1.4 12.1-6.7 3.9-4.6 3.3-8.9 2.6-11.1-2-6.5-10.2-11.7-24.4-15.5-3.9-1.1-8 1.3-9 5.2-.3 1.2-.3 2.5 0 3.7 3.5 14.4 9 22.5 16.1 24.1zm5.6-14.2s-.1.1-.1.1c-1.7 1.9-2.6 2.4-2.9 2.5-.8-.4-2.6-2.5-4.5-6.9 4.4 1.7 6.7 3.3 7.5 4.3z"/><path d="m313.7 424h1.2c8 0 11.8-3.5 13.5-6.5 3.6-6.4 1.4-15.9-6.7-28.2-2.2-3.4-6.8-4.4-10.2-2.1-1.1.7-1.9 1.6-2.5 2.8-6.8 13-8.6 22.6-5.2 28.5 1.1 1.9 3.9 5.2 9.9 5.5zm2.2-20.4c2 4.4 2.3 7.1 2 8-.2.1-1.2.6-3.8.5h-.1c-.1-1.3.3-4.2 1.9-8.5z"/><path d="m351.6 415.2c1.7 1.1 3.7 1.6 5.7 1.6s3.9-.5 5.7-1.4c8-3.9 9.8-9 9.9-12.6.2-7.3-6.3-14.6-19.2-21.7-3.6-2-8.1-.6-10 2.9-.6 1.1-.9 2.3-.9 3.6.1 14.7 3 24 8.8 27.6zm9.3-12.8c-.1.2-.8 1.1-3.1 2.2l-.1.1c-.7-1-1.7-3.7-2.3-8.3 3.8 2.9 5.3 5.1 5.5 6z"/></g></svg>